solid OpenSCAD_Model
  facet normal 0.453989 0 -0.891007
    outer loop
      vertex 4.67557 1.5 -1.61803
      vertex 4.11803 1.5 -1.90211
      vertex 4.11803 5.5 -1.90211
    endloop
  endfacet
  facet normal -0 1 0
    outer loop
      vertex -4.67557 5.5 1.61803
      vertex 4.11803 5.5 1.90211
      vertex 4.11803 5.5 -1.90211
    endloop
  endfacet
  facet normal 0.707107 0 -0.707107
    outer loop
      vertex 5.11803 5.5 -1.17557
      vertex 5.11803 -5.5 -1.17557
      vertex 4.67557 1.5 -1.61803
    endloop
  endfacet
  facet normal 0.15644 0 -0.987687
    outer loop
      vertex 4.11803 1.5 -1.90211
      vertex 3.5 5.5 -2
      vertex 4.11803 5.5 -1.90211
    endloop
  endfacet
  facet normal -0.453989 0 0.891007
    outer loop
      vertex -4.11803 -5.5 1.90211
      vertex -4.11803 5.5 1.90211
      vertex -4.67557 5.5 1.61803
    endloop
  endfacet
  facet normal 0 1 0
    outer loop
      vertex 4.11803 5.5 1.90211
      vertex 5.5 5.5 0
      vertex 4.11803 5.5 -1.90211
    endloop
  endfacet
  facet normal 0 -1 0
    outer loop
      vertex -4.11803 -5.5 -1.90211
      vertex 5.40211 -5.5 -0.618034
      vertex 4.67557 -5.5 1.61803
    endloop
  endfacet
  facet normal 0.453989 -0 0.891007
    outer loop
      vertex 4.67557 -5.5 1.61803
      vertex 4.67557 5.5 1.61803
      vertex 4.11803 5.5 1.90211
    endloop
  endfacet
  facet normal 0 -1 0
    outer loop
      vertex -4.11803 -5.5 1.90211
      vertex -4.11803 -5.5 -1.90211
      vertex 4.67557 -5.5 1.61803
    endloop
  endfacet
  facet normal 0 1 0
    outer loop
      vertex 4.11803 5.5 -1.90211
      vertex -4.11803 5.5 -1.90211
      vertex -4.67557 5.5 1.61803
    endloop
  endfacet
  facet normal -0 1 0
    outer loop
      vertex -3.5 5.5 2
      vertex 3.5 5.5 2
      vertex 4.11803 5.5 1.90211
    endloop
  endfacet
  facet normal 0 1 0
    outer loop
      vertex 5.5 5.5 0
      vertex 5.11803 5.5 -1.17557
      vertex 4.11803 5.5 -1.90211
    endloop
  endfacet
  facet normal -0.453989 0 -0.891007
    outer loop
      vertex -4.11803 -5.5 -1.90211
      vertex -4.67557 1.5 -1.61803
      vertex -4.11803 5.5 -1.90211
    endloop
  endfacet
  facet normal 0.987688 0 -0.156439
    outer loop
      vertex 5.40211 -5.5 -0.618034
      vertex 5.40211 5.5 -0.618034
      vertex 5.5 5.5 0
    endloop
  endfacet
  facet normal -0 -1 0
    outer loop
      vertex 3.5 -5.5 2
      vertex -3.5 -5.5 2
      vertex -4.11803 -5.5 1.90211
    endloop
  endfacet
  facet normal 0 1 0
    outer loop
      vertex -4.67557 5.5 1.61803
      vertex -3.5 5.5 2
      vertex 4.11803 5.5 1.90211
    endloop
  endfacet
  facet normal 0 1 0
    outer loop
      vertex -4.11803 5.5 -1.90211
      vertex -5.40211 5.5 -0.618034
      vertex -4.67557 5.5 1.61803
    endloop
  endfacet
  facet normal 0 1 0
    outer loop
      vertex 4.11803 5.5 -1.90211
      vertex 3.5 5.5 -2
      vertex -4.11803 5.5 -1.90211
    endloop
  endfacet
  facet normal 0 1 0
    outer loop
      vertex 3.5 5.5 -2
      vertex -3.5 5.5 -2
      vertex -4.11803 5.5 -1.90211
    endloop
  endfacet
  facet normal 0 -1 0
    outer loop
      vertex -4.11803 -5.5 -1.90211
      vertex 5.11803 -5.5 -1.17557
      vertex 5.40211 -5.5 -0.618034
    endloop
  endfacet
  facet normal 0 1 0
    outer loop
      vertex 5.11803 5.5 1.17557
      vertex 5.40211 5.5 0.618033
      vertex 5.5 5.5 0
    endloop
  endfacet
  facet normal 0 1 0
    outer loop
      vertex 5.11803 5.5 -1.17557
      vertex 4.67557 5.5 -1.61803
      vertex 4.11803 5.5 -1.90211
    endloop
  endfacet
  facet normal 0.707107 0 -0.707107
    outer loop
      vertex 5.11803 -5.5 -1.17557
      vertex 4.67557 -5.5 -1.61803
      vertex 4.67557 1.5 -1.61803
    endloop
  endfacet
  facet normal 0.891006 0 -0.453992
    outer loop
      vertex 5.40211 -5.5 -0.618034
      vertex 5.11803 -5.5 -1.17557
      vertex 5.11803 5.5 -1.17557
    endloop
  endfacet
  facet normal 0 -1 0
    outer loop
      vertex 5.40211 -5.5 0.618033
      vertex 5.11803 -5.5 1.17557
      vertex 4.67557 -5.5 1.61803
    endloop
  endfacet
  facet normal 0 1 0
    outer loop
      vertex 4.11803 5.5 1.90211
      vertex 5.11803 5.5 1.17557
      vertex 5.5 5.5 0
    endloop
  endfacet
  facet normal 0 -1 0
    outer loop
      vertex 4.67557 -5.5 1.61803
      vertex 3.5 -5.5 2
      vertex -4.11803 -5.5 1.90211
    endloop
  endfacet
  facet normal 0.15644 0 0.987687
    outer loop
      vertex 3.5 -5.5 2
      vertex 4.11803 -5.5 1.90211
      vertex 4.11803 5.5 1.90211
    endloop
  endfacet
  facet normal -0.15644 0 0.987687
    outer loop
      vertex -3.5 5.5 2
      vertex -4.11803 5.5 1.90211
      vertex -4.11803 -5.5 1.90211
    endloop
  endfacet
  facet normal 0 1 0
    outer loop
      vertex -4.67557 5.5 1.61803
      vertex -4.11803 5.5 1.90211
      vertex -3.5 5.5 2
    endloop
  endfacet
  facet normal 0 -1 -0
    outer loop
      vertex -4.11803 -5.5 1.90211
      vertex -5.5 -5.5 0
      vertex -4.11803 -5.5 -1.90211
    endloop
  endfacet
  facet normal 0 1 0
    outer loop
      vertex -5.40211 5.5 -0.618034
      vertex -5.40211 5.5 0.618033
      vertex -4.67557 5.5 1.61803
    endloop
  endfacet
  facet normal -0.15644 -0 -0.987687
    outer loop
      vertex -3.5 5.5 -2
      vertex -3.5 -1.5 -2
      vertex -4.11803 -5.5 -1.90211
    endloop
  endfacet
  facet normal -0.15644 -0 -0.987687
    outer loop
      vertex -4.11803 5.5 -1.90211
      vertex -3.5 5.5 -2
      vertex -4.11803 -5.5 -1.90211
    endloop
  endfacet
  facet normal -0 -0 -1
    outer loop
      vertex 3.5 5.5 -2
      vertex 3.5 1.5 -2
      vertex -3.5 5.5 -2
    endloop
  endfacet
  facet normal 0.15644 0 -0.987687
    outer loop
      vertex 4.11803 1.5 -1.90211
      vertex 3.5 1.5 -2
      vertex 3.5 5.5 -2
    endloop
  endfacet
  facet normal 0.707107 0 -0.707107
    outer loop
      vertex 4.67557 1.5 -1.61803
      vertex 4.67557 5.5 -1.61803
      vertex 5.11803 5.5 -1.17557
    endloop
  endfacet
  facet normal 0.453989 0 -0.891007
    outer loop
      vertex 4.11803 5.5 -1.90211
      vertex 4.67557 5.5 -1.61803
      vertex 4.67557 1.5 -1.61803
    endloop
  endfacet
  facet normal 0 -1 0
    outer loop
      vertex -4.11803 -5.5 -1.90211
      vertex 3.5 -5.5 -2
      vertex 5.11803 -5.5 -1.17557
    endloop
  endfacet
  facet normal 0 -1 0
    outer loop
      vertex 3.5 -5.5 -2
      vertex 4.11803 -5.5 -1.90211
      vertex 5.11803 -5.5 -1.17557
    endloop
  endfacet
  facet normal 0.891006 0 -0.453992
    outer loop
      vertex 5.11803 5.5 -1.17557
      vertex 5.40211 5.5 -0.618034
      vertex 5.40211 -5.5 -0.618034
    endloop
  endfacet
  facet normal 0 1 0
    outer loop
      vertex 5.5 5.5 0
      vertex 5.40211 5.5 -0.618034
      vertex 5.11803 5.5 -1.17557
    endloop
  endfacet
  facet normal 0 -1 0
    outer loop
      vertex 5.40211 -5.5 -0.618034
      vertex 5.40211 -5.5 0.618033
      vertex 4.67557 -5.5 1.61803
    endloop
  endfacet
  facet normal 0.987688 0 0.156439
    outer loop
      vertex 5.40211 -5.5 0.618033
      vertex 5.5 -5.5 0
      vertex 5.5 5.5 0
    endloop
  endfacet
  facet normal 0.707107 0 0.707107
    outer loop
      vertex 5.11803 5.5 1.17557
      vertex 4.67557 5.5 1.61803
      vertex 4.67557 -5.5 1.61803
    endloop
  endfacet
  facet normal 0 1 0
    outer loop
      vertex 4.11803 5.5 1.90211
      vertex 4.67557 5.5 1.61803
      vertex 5.11803 5.5 1.17557
    endloop
  endfacet
  facet normal 0 -0 1
    outer loop
      vertex 3.5 -5.5 2
      vertex 3.5 5.5 2
      vertex -3.5 5.5 2
    endloop
  endfacet
  facet normal 0.15644 0 0.987687
    outer loop
      vertex 4.11803 5.5 1.90211
      vertex 3.5 5.5 2
      vertex 3.5 -5.5 2
    endloop
  endfacet
  facet normal 0 0 1
    outer loop
      vertex -3.5 5.5 2
      vertex -3.5 -5.5 2
      vertex 3.5 -5.5 2
    endloop
  endfacet
  facet normal -0.15644 0 0.987687
    outer loop
      vertex -4.11803 -5.5 1.90211
      vertex -3.5 -5.5 2
      vertex -3.5 5.5 2
    endloop
  endfacet
  facet normal 0 -1 0
    outer loop
      vertex 4.67557 -5.5 1.61803
      vertex 4.11803 -5.5 1.90211
      vertex 3.5 -5.5 2
    endloop
  endfacet
  facet normal 0.453989 0 0.891007
    outer loop
      vertex 4.11803 5.5 1.90211
      vertex 4.11803 -5.5 1.90211
      vertex 4.67557 -5.5 1.61803
    endloop
  endfacet
  facet normal 0 -1 0
    outer loop
      vertex -5.5 -5.5 0
      vertex -5.11803 -5.5 -1.17557
      vertex -4.11803 -5.5 -1.90211
    endloop
  endfacet
  facet normal -0.987688 0 0.156439
    outer loop
      vertex -5.40211 5.5 0.618033
      vertex -5.5 5.5 0
      vertex -5.5 -5.5 0
    endloop
  endfacet
  facet normal 0 -1 0
    outer loop
      vertex -4.11803 -5.5 1.90211
      vertex -5.11803 -5.5 1.17557
      vertex -5.5 -5.5 0
    endloop
  endfacet
  facet normal -0.707107 0 0.707107
    outer loop
      vertex -5.11803 -5.5 1.17557
      vertex -4.67557 -5.5 1.61803
      vertex -4.67557 5.5 1.61803
    endloop
  endfacet
  facet normal -0 0 -1
    outer loop
      vertex 3.5 1.5 -2
      vertex -3.5 -1.5 -2
      vertex -3.5 5.5 -2
    endloop
  endfacet
  facet normal -0.15644 -0 -0.987687
    outer loop
      vertex -3.5 -1.5 -2
      vertex -3.5 -5.5 -2
      vertex -4.11803 -5.5 -1.90211
    endloop
  endfacet
  facet normal 0 -0 -1
    outer loop
      vertex 3.5 1.5 -2
      vertex 3.5 -5.5 -2
      vertex -3.5 -1.5 -2
    endloop
  endfacet
  facet normal 0.15644 0 -0.987687
    outer loop
      vertex 4.11803 1.5 -1.90211
      vertex 3.5 -5.5 -2
      vertex 3.5 1.5 -2
    endloop
  endfacet
  facet normal 0.891006 -0 0.453991
    outer loop
      vertex 5.40211 -5.5 0.618033
      vertex 5.40211 5.5 0.618033
      vertex 5.11803 5.5 1.17557
    endloop
  endfacet
  facet normal 0.987688 0 0.156439
    outer loop
      vertex 5.5 5.5 0
      vertex 5.40211 5.5 0.618033
      vertex 5.40211 -5.5 0.618033
    endloop
  endfacet
  facet normal 0.891006 0 0.453991
    outer loop
      vertex 5.11803 5.5 1.17557
      vertex 5.11803 -5.5 1.17557
      vertex 5.40211 -5.5 0.618033
    endloop
  endfacet
  facet normal 0.707107 0 0.707107
    outer loop
      vertex 4.67557 -5.5 1.61803
      vertex 5.11803 -5.5 1.17557
      vertex 5.11803 5.5 1.17557
    endloop
  endfacet
  facet normal 0 -1 0
    outer loop
      vertex 5.40211 -5.5 -0.618034
      vertex 5.5 -5.5 0
      vertex 5.40211 -5.5 0.618033
    endloop
  endfacet
  facet normal 0.987688 0 -0.156439
    outer loop
      vertex 5.5 5.5 0
      vertex 5.5 -5.5 0
      vertex 5.40211 -5.5 -0.618034
    endloop
  endfacet
  facet normal -0.987688 -0 -0.156439
    outer loop
      vertex -5.40211 5.5 -0.618034
      vertex -5.40211 -5.5 -0.618034
      vertex -5.5 -5.5 0
    endloop
  endfacet
  facet normal -0.453989 0 -0.891007
    outer loop
      vertex -4.67557 1.5 -1.61803
      vertex -4.67557 5.5 -1.61803
      vertex -4.11803 5.5 -1.90211
    endloop
  endfacet
  facet normal 0 -1 0
    outer loop
      vertex -5.11803 -5.5 1.17557
      vertex -5.40211 -5.5 0.618033
      vertex -5.5 -5.5 0
    endloop
  endfacet
  facet normal 0 1 0
    outer loop
      vertex -5.40211 5.5 0.618033
      vertex -5.11803 5.5 1.17557
      vertex -4.67557 5.5 1.61803
    endloop
  endfacet
  facet normal 0 -1 0
    outer loop
      vertex -4.11803 -5.5 1.90211
      vertex -4.67557 -5.5 1.61803
      vertex -5.11803 -5.5 1.17557
    endloop
  endfacet
  facet normal -0.453989 0 0.891007
    outer loop
      vertex -4.67557 5.5 1.61803
      vertex -4.67557 -5.5 1.61803
      vertex -4.11803 -5.5 1.90211
    endloop
  endfacet
  facet normal 0.15644 0 -0.987687
    outer loop
      vertex 4.11803 1.5 -1.90211
      vertex 4.11803 -5.5 -1.90211
      vertex 3.5 -5.5 -2
    endloop
  endfacet
  facet normal 0.453989 0 -0.891007
    outer loop
      vertex 4.67557 1.5 -1.61803
      vertex 4.11803 -5.5 -1.90211
      vertex 4.11803 1.5 -1.90211
    endloop
  endfacet
  facet normal 0 0 -1
    outer loop
      vertex 3.5 -5.5 -2
      vertex -3.5 -5.5 -2
      vertex -3.5 -1.5 -2
    endloop
  endfacet
  facet normal 0 -1 0
    outer loop
      vertex -4.11803 -5.5 -1.90211
      vertex -3.5 -5.5 -2
      vertex 3.5 -5.5 -2
    endloop
  endfacet
  facet normal -0.707107 0 -0.707107
    outer loop
      vertex -5.11803 -5.5 -1.17557
      vertex -4.67557 5.5 -1.61803
      vertex -4.67557 1.5 -1.61803
    endloop
  endfacet
  facet normal 0 -1 0
    outer loop
      vertex -5.11803 -5.5 -1.17557
      vertex -4.67557 -5.5 -1.61803
      vertex -4.11803 -5.5 -1.90211
    endloop
  endfacet
  facet normal 0 1 0
    outer loop
      vertex -4.67557 5.5 -1.61803
      vertex -5.11803 5.5 -1.17557
      vertex -5.40211 5.5 -0.618034
    endloop
  endfacet
  facet normal 0 1 0
    outer loop
      vertex -4.11803 5.5 -1.90211
      vertex -4.67557 5.5 -1.61803
      vertex -5.40211 5.5 -0.618034
    endloop
  endfacet
  facet normal 0 1 -0
    outer loop
      vertex -5.40211 5.5 -0.618034
      vertex -5.5 5.5 0
      vertex -5.40211 5.5 0.618033
    endloop
  endfacet
  facet normal -0.987688 0 -0.156439
    outer loop
      vertex -5.5 -5.5 0
      vertex -5.5 5.5 0
      vertex -5.40211 5.5 -0.618034
    endloop
  endfacet
  facet normal -0.891006 0 0.453991
    outer loop
      vertex -5.40211 5.5 0.618033
      vertex -5.40211 -5.5 0.618033
      vertex -5.11803 -5.5 1.17557
    endloop
  endfacet
  facet normal -0.987688 0 0.156439
    outer loop
      vertex -5.5 -5.5 0
      vertex -5.40211 -5.5 0.618033
      vertex -5.40211 5.5 0.618033
    endloop
  endfacet
  facet normal -0.891006 0 0.453991
    outer loop
      vertex -5.11803 -5.5 1.17557
      vertex -5.11803 5.5 1.17557
      vertex -5.40211 5.5 0.618033
    endloop
  endfacet
  facet normal -0.707107 0 0.707107
    outer loop
      vertex -4.67557 5.5 1.61803
      vertex -5.11803 5.5 1.17557
      vertex -5.11803 -5.5 1.17557
    endloop
  endfacet
  facet normal 0 -1 0
    outer loop
      vertex 4.11803 -5.5 -1.90211
      vertex 4.67557 -5.5 -1.61803
      vertex 5.11803 -5.5 -1.17557
    endloop
  endfacet
  facet normal 0.453989 0 -0.891007
    outer loop
      vertex 4.67557 1.5 -1.61803
      vertex 4.67557 -5.5 -1.61803
      vertex 4.11803 -5.5 -1.90211
    endloop
  endfacet
  facet normal -0.891006 0 -0.453992
    outer loop
      vertex -5.11803 -5.5 -1.17557
      vertex -5.40211 -5.5 -0.618034
      vertex -5.40211 5.5 -0.618034
    endloop
  endfacet
  facet normal 0 -1 0
    outer loop
      vertex -5.5 -5.5 0
      vertex -5.40211 -5.5 -0.618034
      vertex -5.11803 -5.5 -1.17557
    endloop
  endfacet
  facet normal -0.707107 -0 -0.707107
    outer loop
      vertex -4.67557 1.5 -1.61803
      vertex -4.67557 -5.5 -1.61803
      vertex -5.11803 -5.5 -1.17557
    endloop
  endfacet
  facet normal -0.453989 0 -0.891007
    outer loop
      vertex -4.11803 -5.5 -1.90211
      vertex -4.67557 -5.5 -1.61803
      vertex -4.67557 1.5 -1.61803
    endloop
  endfacet
  facet normal -0.707107 0 -0.707107
    outer loop
      vertex -5.11803 -5.5 -1.17557
      vertex -5.11803 5.5 -1.17557
      vertex -4.67557 5.5 -1.61803
    endloop
  endfacet
  facet normal -0.891006 0 -0.453992
    outer loop
      vertex -5.40211 5.5 -0.618034
      vertex -5.11803 5.5 -1.17557
      vertex -5.11803 -5.5 -1.17557
    endloop
  endfacet
endsolid OpenSCAD_Model
