<?xml version="1.0" encoding="UTF-8" standalone="no"?>
<svg
   xml:space="preserve"
   width="158.94mm"
   height="158.94049mm"
   viewBox="0 0 600.71811 600.71996"
   version="1.1"
   id="svg244"
   sodipodi:docname="mb.svg"
   inkscape:version="1.3.2 (091e20e, 2023-11-25, custom)"
   xmlns:inkscape="http://www.inkscape.org/namespaces/inkscape"
   xmlns:sodipodi="http://sodipodi.sourceforge.net/DTD/sodipodi-0.dtd"
   xmlns="http://www.w3.org/2000/svg"
   xmlns:svg="http://www.w3.org/2000/svg"><defs
     id="defs244" /><sodipodi:namedview
     id="namedview244"
     pagecolor="#ffffff"
     bordercolor="#666666"
     borderopacity="1.0"
     inkscape:showpageshadow="2"
     inkscape:pageopacity="0.0"
     inkscape:pagecheckerboard="0"
     inkscape:deskcolor="#d1d1d1"
     inkscape:document-units="mm"
     inkscape:zoom="1.6968391"
     inkscape:cx="300.26418"
     inkscape:cy="300.26418"
     inkscape:window-width="2560"
     inkscape:window-height="1377"
     inkscape:window-x="-8"
     inkscape:window-y="-8"
     inkscape:window-maximized="1"
     inkscape:current-layer="svg244" /><g
     fill="#000000"
     id="g244"
     transform="translate(-48,-48)">
<g
   transform="matrix(4.12,0,0,4.12,288,48)"
   id="g1"><rect
     width="6"
     height="6"
     id="rect1"
     x="0"
     y="0" /></g>
<g
   transform="matrix(4.12,0,0,4.12,336,48)"
   id="g2"><rect
     width="6"
     height="6"
     id="rect2"
     x="0"
     y="0" /></g>
<g
   transform="matrix(4.12,0,0,4.12,360,48)"
   id="g3"><rect
     width="6"
     height="6"
     id="rect3"
     x="0"
     y="0" /></g>
<g
   transform="matrix(4.12,0,0,4.12,432,48)"
   id="g4"><rect
     width="6"
     height="6"
     id="rect4"
     x="0"
     y="0" /></g>
<g
   transform="matrix(4.12,0,0,4.12,240,72)"
   id="g5"><rect
     width="6"
     height="6"
     id="rect5"
     x="0"
     y="0" /></g>
<g
   transform="matrix(4.12,0,0,4.12,288,72)"
   id="g6"><rect
     width="6"
     height="6"
     id="rect6"
     x="0"
     y="0" /></g>
<g
   transform="matrix(4.12,0,0,4.12,360,72)"
   id="g7"><rect
     width="6"
     height="6"
     id="rect7"
     x="0"
     y="0" /></g>
<g
   transform="matrix(4.12,0,0,4.12,384,72)"
   id="g8"><rect
     width="6"
     height="6"
     id="rect8"
     x="0"
     y="0" /></g>
<g
   transform="matrix(4.12,0,0,4.12,408,72)"
   id="g9"><rect
     width="6"
     height="6"
     id="rect9"
     x="0"
     y="0" /></g>
<g
   transform="matrix(4.12,0,0,4.12,336,96)"
   id="g10"><rect
     width="6"
     height="6"
     id="rect10"
     x="0"
     y="0" /></g>
<g
   transform="matrix(4.12,0,0,4.12,384,96)"
   id="g11"><rect
     width="6"
     height="6"
     id="rect11"
     x="0"
     y="0" /></g>
<g
   transform="matrix(4.12,0,0,4.12,408,96)"
   id="g12"><rect
     width="6"
     height="6"
     id="rect12"
     x="0"
     y="0" /></g>
<g
   transform="matrix(4.12,0,0,4.12,432,96)"
   id="g13"><rect
     width="6"
     height="6"
     id="rect13"
     x="0"
     y="0" /></g>
<g
   transform="matrix(4.12,0,0,4.12,240,120)"
   id="g14"><rect
     width="6"
     height="6"
     id="rect14"
     x="0"
     y="0" /></g>
<g
   transform="matrix(4.12,0,0,4.12,264,120)"
   id="g15"><rect
     width="6"
     height="6"
     id="rect15"
     x="0"
     y="0" /></g>
<g
   transform="matrix(4.12,0,0,4.12,288,120)"
   id="g16"><rect
     width="6"
     height="6"
     id="rect16"
     x="0"
     y="0" /></g>
<g
   transform="matrix(4.12,0,0,4.12,336,120)"
   id="g17"><rect
     width="6"
     height="6"
     id="rect17"
     x="0"
     y="0" /></g>
<g
   transform="matrix(4.12,0,0,4.12,360,120)"
   id="g18"><rect
     width="6"
     height="6"
     id="rect18"
     x="0"
     y="0" /></g>
<g
   transform="matrix(4.12,0,0,4.12,384,120)"
   id="g19"><rect
     width="6"
     height="6"
     id="rect19"
     x="0"
     y="0" /></g>
<g
   transform="matrix(4.12,0,0,4.12,264,144)"
   id="g20"><rect
     width="6"
     height="6"
     id="rect20"
     x="0"
     y="0" /></g>
<g
   transform="matrix(4.12,0,0,4.12,432,144)"
   id="g21"><rect
     width="6"
     height="6"
     id="rect21"
     x="0"
     y="0" /></g>
<g
   transform="matrix(4.12,0,0,4.12,240,168)"
   id="g22"><rect
     width="6"
     height="6"
     id="rect22"
     x="0"
     y="0" /></g>
<g
   transform="matrix(4.12,0,0,4.12,264,168)"
   id="g23"><rect
     width="6"
     height="6"
     id="rect23"
     x="0"
     y="0" /></g>
<g
   transform="matrix(4.12,0,0,4.12,312,168)"
   id="g24"><rect
     width="6"
     height="6"
     id="rect24"
     x="0"
     y="0" /></g>
<g
   transform="matrix(4.12,0,0,4.12,336,168)"
   id="g25"><rect
     width="6"
     height="6"
     id="rect25"
     x="0"
     y="0" /></g>
<g
   transform="matrix(4.12,0,0,4.12,360,168)"
   id="g26"><rect
     width="6"
     height="6"
     id="rect26"
     x="0"
     y="0" /></g>
<g
   transform="matrix(4.12,0,0,4.12,408,168)"
   id="g27"><rect
     width="6"
     height="6"
     id="rect27"
     x="0"
     y="0" /></g>
<g
   transform="matrix(4.12,0,0,4.12,240,192)"
   id="g28"><rect
     width="6"
     height="6"
     id="rect28"
     x="0"
     y="0" /></g>
<g
   transform="matrix(4.12,0,0,4.12,288,192)"
   id="g29"><rect
     width="6"
     height="6"
     id="rect29"
     x="0"
     y="0" /></g>
<g
   transform="matrix(4.12,0,0,4.12,336,192)"
   id="g30"><rect
     width="6"
     height="6"
     id="rect30"
     x="0"
     y="0" /></g>
<g
   transform="matrix(4.12,0,0,4.12,384,192)"
   id="g31"><rect
     width="6"
     height="6"
     id="rect31"
     x="0"
     y="0" /></g>
<g
   transform="matrix(4.12,0,0,4.12,432,192)"
   id="g32"><rect
     width="6"
     height="6"
     id="rect32"
     x="0"
     y="0" /></g>
<g
   transform="matrix(4.12,0,0,4.12,264,216)"
   id="g33"><rect
     width="6"
     height="6"
     id="rect33"
     x="0"
     y="0" /></g>
<g
   transform="matrix(4.12,0,0,4.12,288,216)"
   id="g34"><rect
     width="6"
     height="6"
     id="rect34"
     x="0"
     y="0" /></g>
<g
   transform="matrix(4.12,0,0,4.12,312,216)"
   id="g35"><rect
     width="6"
     height="6"
     id="rect35"
     x="0"
     y="0" /></g>
<g
   transform="matrix(4.12,0,0,4.12,384,216)"
   id="g36"><rect
     width="6"
     height="6"
     id="rect36"
     x="0"
     y="0" /></g>
<g
   transform="matrix(4.12,0,0,4.12,48,240)"
   id="g37"><rect
     width="6"
     height="6"
     id="rect37"
     x="0"
     y="0" /></g>
<g
   transform="matrix(4.12,0,0,4.12,72,240)"
   id="g38"><rect
     width="6"
     height="6"
     id="rect38"
     x="0"
     y="0" /></g>
<g
   transform="matrix(4.12,0,0,4.12,96,240)"
   id="g39"><rect
     width="6"
     height="6"
     id="rect39"
     x="0"
     y="0" /></g>
<g
   transform="matrix(4.12,0,0,4.12,120,240)"
   id="g40"><rect
     width="6"
     height="6"
     id="rect40"
     x="0"
     y="0" /></g>
<g
   transform="matrix(4.12,0,0,4.12,144,240)"
   id="g41"><rect
     width="6"
     height="6"
     id="rect41"
     x="0"
     y="0" /></g>
<g
   transform="matrix(4.12,0,0,4.12,192,240)"
   id="g42"><rect
     width="6"
     height="6"
     id="rect42"
     x="0"
     y="0" /></g>
<g
   transform="matrix(4.12,0,0,4.12,216,240)"
   id="g43"><rect
     width="6"
     height="6"
     id="rect43"
     x="0"
     y="0" /></g>
<g
   transform="matrix(4.12,0,0,4.12,240,240)"
   id="g44"><rect
     width="6"
     height="6"
     id="rect44"
     x="0"
     y="0" /></g>
<g
   transform="matrix(4.12,0,0,4.12,264,240)"
   id="g45"><rect
     width="6"
     height="6"
     id="rect45"
     x="0"
     y="0" /></g>
<g
   transform="matrix(4.12,0,0,4.12,312,240)"
   id="g46"><rect
     width="6"
     height="6"
     id="rect46"
     x="0"
     y="0" /></g>
<g
   transform="matrix(4.12,0,0,4.12,360,240)"
   id="g47"><rect
     width="6"
     height="6"
     id="rect47"
     x="0"
     y="0" /></g>
<g
   transform="matrix(4.12,0,0,4.12,384,240)"
   id="g48"><rect
     width="6"
     height="6"
     id="rect48"
     x="0"
     y="0" /></g>
<g
   transform="matrix(4.12,0,0,4.12,408,240)"
   id="g49"><rect
     width="6"
     height="6"
     id="rect49"
     x="0"
     y="0" /></g>
<g
   transform="matrix(4.12,0,0,4.12,456,240)"
   id="g50"><rect
     width="6"
     height="6"
     id="rect50"
     x="0"
     y="0" /></g>
<g
   transform="matrix(4.12,0,0,4.12,504,240)"
   id="g51"><rect
     width="6"
     height="6"
     id="rect51"
     x="0"
     y="0" /></g>
<g
   transform="matrix(4.12,0,0,4.12,552,240)"
   id="g52"><rect
     width="6"
     height="6"
     id="rect52"
     x="0"
     y="0" /></g>
<g
   transform="matrix(4.12,0,0,4.12,600,240)"
   id="g53"><rect
     width="6"
     height="6"
     id="rect53"
     x="0"
     y="0" /></g>
<g
   transform="matrix(4.12,0,0,4.12,48,264)"
   id="g54"><rect
     width="6"
     height="6"
     id="rect54"
     x="0"
     y="0" /></g>
<g
   transform="matrix(4.12,0,0,4.12,168,264)"
   id="g55"><rect
     width="6"
     height="6"
     id="rect55"
     x="0"
     y="0" /></g>
<g
   transform="matrix(4.12,0,0,4.12,216,264)"
   id="g56"><rect
     width="6"
     height="6"
     id="rect56"
     x="0"
     y="0" /></g>
<g
   transform="matrix(4.12,0,0,4.12,288,264)"
   id="g57"><rect
     width="6"
     height="6"
     id="rect57"
     x="0"
     y="0" /></g>
<g
   transform="matrix(4.12,0,0,4.12,336,264)"
   id="g58"><rect
     width="6"
     height="6"
     id="rect58"
     x="0"
     y="0" /></g>
<g
   transform="matrix(4.12,0,0,4.12,360,264)"
   id="g59"><rect
     width="6"
     height="6"
     id="rect59"
     x="0"
     y="0" /></g>
<g
   transform="matrix(4.12,0,0,4.12,432,264)"
   id="g60"><rect
     width="6"
     height="6"
     id="rect60"
     x="0"
     y="0" /></g>
<g
   transform="matrix(4.12,0,0,4.12,504,264)"
   id="g61"><rect
     width="6"
     height="6"
     id="rect61"
     x="0"
     y="0" /></g>
<g
   transform="matrix(4.12,0,0,4.12,600,264)"
   id="g62"><rect
     width="6"
     height="6"
     id="rect62"
     x="0"
     y="0" /></g>
<g
   transform="matrix(4.12,0,0,4.12,96,288)"
   id="g63"><rect
     width="6"
     height="6"
     id="rect63"
     x="0"
     y="0" /></g>
<g
   transform="matrix(4.12,0,0,4.12,192,288)"
   id="g64"><rect
     width="6"
     height="6"
     id="rect64"
     x="0"
     y="0" /></g>
<g
   transform="matrix(4.12,0,0,4.12,216,288)"
   id="g65"><rect
     width="6"
     height="6"
     id="rect65"
     x="0"
     y="0" /></g>
<g
   transform="matrix(4.12,0,0,4.12,288,288)"
   id="g66"><rect
     width="6"
     height="6"
     id="rect66"
     x="0"
     y="0" /></g>
<g
   transform="matrix(4.12,0,0,4.12,360,288)"
   id="g67"><rect
     width="6"
     height="6"
     id="rect67"
     x="0"
     y="0" /></g>
<g
   transform="matrix(4.12,0,0,4.12,408,288)"
   id="g68"><rect
     width="6"
     height="6"
     id="rect68"
     x="0"
     y="0" /></g>
<g
   transform="matrix(4.12,0,0,4.12,432,288)"
   id="g69"><rect
     width="6"
     height="6"
     id="rect69"
     x="0"
     y="0" /></g>
<g
   transform="matrix(4.12,0,0,4.12,480,288)"
   id="g70"><rect
     width="6"
     height="6"
     id="rect70"
     x="0"
     y="0" /></g>
<g
   transform="matrix(4.12,0,0,4.12,504,288)"
   id="g71"><rect
     width="6"
     height="6"
     id="rect71"
     x="0"
     y="0" /></g>
<g
   transform="matrix(4.12,0,0,4.12,552,288)"
   id="g72"><rect
     width="6"
     height="6"
     id="rect72"
     x="0"
     y="0" /></g>
<g
   transform="matrix(4.12,0,0,4.12,600,288)"
   id="g73"><rect
     width="6"
     height="6"
     id="rect73"
     x="0"
     y="0" /></g>
<g
   transform="matrix(4.12,0,0,4.12,624,288)"
   id="g74"><rect
     width="6"
     height="6"
     id="rect74"
     x="0"
     y="0" /></g>
<g
   transform="matrix(4.12,0,0,4.12,72,312)"
   id="g75"><rect
     width="6"
     height="6"
     id="rect75"
     x="0"
     y="0" /></g>
<g
   transform="matrix(4.12,0,0,4.12,96,312)"
   id="g76"><rect
     width="6"
     height="6"
     id="rect76"
     x="0"
     y="0" /></g>
<g
   transform="matrix(4.12,0,0,4.12,336,312)"
   id="g77"><rect
     width="6"
     height="6"
     id="rect77"
     x="0"
     y="0" /></g>
<g
   transform="matrix(4.12,0,0,4.12,384,312)"
   id="g78"><rect
     width="6"
     height="6"
     id="rect78"
     x="0"
     y="0" /></g>
<g
   transform="matrix(4.12,0,0,4.12,408,312)"
   id="g79"><rect
     width="6"
     height="6"
     id="rect79"
     x="0"
     y="0" /></g>
<g
   transform="matrix(4.12,0,0,4.12,432,312)"
   id="g80"><rect
     width="6"
     height="6"
     id="rect80"
     x="0"
     y="0" /></g>
<g
   transform="matrix(4.12,0,0,4.12,456,312)"
   id="g81"><rect
     width="6"
     height="6"
     id="rect81"
     x="0"
     y="0" /></g>
<g
   transform="matrix(4.12,0,0,4.12,480,312)"
   id="g82"><rect
     width="6"
     height="6"
     id="rect82"
     x="0"
     y="0" /></g>
<g
   transform="matrix(4.12,0,0,4.12,504,312)"
   id="g83"><rect
     width="6"
     height="6"
     id="rect83"
     x="0"
     y="0" /></g>
<g
   transform="matrix(4.12,0,0,4.12,528,312)"
   id="g84"><rect
     width="6"
     height="6"
     id="rect84"
     x="0"
     y="0" /></g>
<g
   transform="matrix(4.12,0,0,4.12,624,312)"
   id="g85"><rect
     width="6"
     height="6"
     id="rect85"
     x="0"
     y="0" /></g>
<g
   transform="matrix(4.12,0,0,4.12,96,336)"
   id="g86"><rect
     width="6"
     height="6"
     id="rect86"
     x="0"
     y="0" /></g>
<g
   transform="matrix(4.12,0,0,4.12,168,336)"
   id="g87"><rect
     width="6"
     height="6"
     id="rect87"
     x="0"
     y="0" /></g>
<g
   transform="matrix(4.12,0,0,4.12,192,336)"
   id="g88"><rect
     width="6"
     height="6"
     id="rect88"
     x="0"
     y="0" /></g>
<g
   transform="matrix(4.12,0,0,4.12,264,336)"
   id="g89"><rect
     width="6"
     height="6"
     id="rect89"
     x="0"
     y="0" /></g>
<g
   transform="matrix(4.12,0,0,4.12,288,336)"
   id="g90"><rect
     width="6"
     height="6"
     id="rect90"
     x="0"
     y="0" /></g>
<g
   transform="matrix(4.12,0,0,4.12,336,336)"
   id="g91"><rect
     width="6"
     height="6"
     id="rect91"
     x="0"
     y="0" /></g>
<g
   transform="matrix(4.12,0,0,4.12,360,336)"
   id="g92"><rect
     width="6"
     height="6"
     id="rect92"
     x="0"
     y="0" /></g>
<g
   transform="matrix(4.12,0,0,4.12,384,336)"
   id="g93"><rect
     width="6"
     height="6"
     id="rect93"
     x="0"
     y="0" /></g>
<g
   transform="matrix(4.12,0,0,4.12,408,336)"
   id="g94"><rect
     width="6"
     height="6"
     id="rect94"
     x="0"
     y="0" /></g>
<g
   transform="matrix(4.12,0,0,4.12,456,336)"
   id="g95"><rect
     width="6"
     height="6"
     id="rect95"
     x="0"
     y="0" /></g>
<g
   transform="matrix(4.12,0,0,4.12,480,336)"
   id="g96"><rect
     width="6"
     height="6"
     id="rect96"
     x="0"
     y="0" /></g>
<g
   transform="matrix(4.12,0,0,4.12,528,336)"
   id="g97"><rect
     width="6"
     height="6"
     id="rect97"
     x="0"
     y="0" /></g>
<g
   transform="matrix(4.12,0,0,4.12,576,336)"
   id="g98"><rect
     width="6"
     height="6"
     id="rect98"
     x="0"
     y="0" /></g>
<g
   transform="matrix(4.12,0,0,4.12,600,336)"
   id="g99"><rect
     width="6"
     height="6"
     id="rect99"
     x="0"
     y="0" /></g>
<g
   transform="matrix(4.12,0,0,4.12,624,336)"
   id="g100"><rect
     width="6"
     height="6"
     id="rect100"
     x="0"
     y="0" /></g>
<g
   transform="matrix(4.12,0,0,4.12,48,360)"
   id="g101"><rect
     width="6"
     height="6"
     id="rect101"
     x="0"
     y="0" /></g>
<g
   transform="matrix(4.12,0,0,4.12,96,360)"
   id="g102"><rect
     width="6"
     height="6"
     id="rect102"
     x="0"
     y="0" /></g>
<g
   transform="matrix(4.12,0,0,4.12,120,360)"
   id="g103"><rect
     width="6"
     height="6"
     id="rect103"
     x="0"
     y="0" /></g>
<g
   transform="matrix(4.12,0,0,4.12,144,360)"
   id="g104"><rect
     width="6"
     height="6"
     id="rect104"
     x="0"
     y="0" /></g>
<g
   transform="matrix(4.12,0,0,4.12,240,360)"
   id="g105"><rect
     width="6"
     height="6"
     id="rect105"
     x="0"
     y="0" /></g>
<g
   transform="matrix(4.12,0,0,4.12,384,360)"
   id="g106"><rect
     width="6"
     height="6"
     id="rect106"
     x="0"
     y="0" /></g>
<g
   transform="matrix(4.12,0,0,4.12,432,360)"
   id="g107"><rect
     width="6"
     height="6"
     id="rect107"
     x="0"
     y="0" /></g>
<g
   transform="matrix(4.12,0,0,4.12,504,360)"
   id="g108"><rect
     width="6"
     height="6"
     id="rect108"
     x="0"
     y="0" /></g>
<g
   transform="matrix(4.12,0,0,4.12,552,360)"
   id="g109"><rect
     width="6"
     height="6"
     id="rect109"
     x="0"
     y="0" /></g>
<g
   transform="matrix(4.12,0,0,4.12,600,360)"
   id="g110"><rect
     width="6"
     height="6"
     id="rect110"
     x="0"
     y="0" /></g>
<g
   transform="matrix(4.12,0,0,4.12,48,384)"
   id="g111"><rect
     width="6"
     height="6"
     id="rect111"
     x="0"
     y="0" /></g>
<g
   transform="matrix(4.12,0,0,4.12,120,384)"
   id="g112"><rect
     width="6"
     height="6"
     id="rect112"
     x="0"
     y="0" /></g>
<g
   transform="matrix(4.12,0,0,4.12,192,384)"
   id="g113"><rect
     width="6"
     height="6"
     id="rect113"
     x="0"
     y="0" /></g>
<g
   transform="matrix(4.12,0,0,4.12,240,384)"
   id="g114"><rect
     width="6"
     height="6"
     id="rect114"
     x="0"
     y="0" /></g>
<g
   transform="matrix(4.12,0,0,4.12,264,384)"
   id="g115"><rect
     width="6"
     height="6"
     id="rect115"
     x="0"
     y="0" /></g>
<g
   transform="matrix(4.12,0,0,4.12,288,384)"
   id="g116"><rect
     width="6"
     height="6"
     id="rect116"
     x="0"
     y="0" /></g>
<g
   transform="matrix(4.12,0,0,4.12,312,384)"
   id="g117"><rect
     width="6"
     height="6"
     id="rect117"
     x="0"
     y="0" /></g>
<g
   transform="matrix(4.12,0,0,4.12,336,384)"
   id="g118"><rect
     width="6"
     height="6"
     id="rect118"
     x="0"
     y="0" /></g>
<g
   transform="matrix(4.12,0,0,4.12,360,384)"
   id="g119"><rect
     width="6"
     height="6"
     id="rect119"
     x="0"
     y="0" /></g>
<g
   transform="matrix(4.12,0,0,4.12,408,384)"
   id="g120"><rect
     width="6"
     height="6"
     id="rect120"
     x="0"
     y="0" /></g>
<g
   transform="matrix(4.12,0,0,4.12,480,384)"
   id="g121"><rect
     width="6"
     height="6"
     id="rect121"
     x="0"
     y="0" /></g>
<g
   transform="matrix(4.12,0,0,4.12,504,384)"
   id="g122"><rect
     width="6"
     height="6"
     id="rect122"
     x="0"
     y="0" /></g>
<g
   transform="matrix(4.12,0,0,4.12,528,384)"
   id="g123"><rect
     width="6"
     height="6"
     id="rect123"
     x="0"
     y="0" /></g>
<g
   transform="matrix(4.12,0,0,4.12,552,384)"
   id="g124"><rect
     width="6"
     height="6"
     id="rect124"
     x="0"
     y="0" /></g>
<g
   transform="matrix(4.12,0,0,4.12,600,384)"
   id="g125"><rect
     width="6"
     height="6"
     id="rect125"
     x="0"
     y="0" /></g>
<g
   transform="matrix(4.12,0,0,4.12,624,384)"
   id="g126"><rect
     width="6"
     height="6"
     id="rect126"
     x="0"
     y="0" /></g>
<g
   transform="matrix(4.12,0,0,4.12,48,408)"
   id="g127"><rect
     width="6"
     height="6"
     id="rect127"
     x="0"
     y="0" /></g>
<g
   transform="matrix(4.12,0,0,4.12,216,408)"
   id="g128"><rect
     width="6"
     height="6"
     id="rect128"
     x="0"
     y="0" /></g>
<g
   transform="matrix(4.12,0,0,4.12,240,408)"
   id="g129"><rect
     width="6"
     height="6"
     id="rect129"
     x="0"
     y="0" /></g>
<g
   transform="matrix(4.12,0,0,4.12,264,408)"
   id="g130"><rect
     width="6"
     height="6"
     id="rect130"
     x="0"
     y="0" /></g>
<g
   transform="matrix(4.12,0,0,4.12,312,408)"
   id="g131"><rect
     width="6"
     height="6"
     id="rect131"
     x="0"
     y="0" /></g>
<g
   transform="matrix(4.12,0,0,4.12,384,408)"
   id="g132"><rect
     width="6"
     height="6"
     id="rect132"
     x="0"
     y="0" /></g>
<g
   transform="matrix(4.12,0,0,4.12,432,408)"
   id="g133"><rect
     width="6"
     height="6"
     id="rect133"
     x="0"
     y="0" /></g>
<g
   transform="matrix(4.12,0,0,4.12,456,408)"
   id="g134"><rect
     width="6"
     height="6"
     id="rect134"
     x="0"
     y="0" /></g>
<g
   transform="matrix(4.12,0,0,4.12,504,408)"
   id="g135"><rect
     width="6"
     height="6"
     id="rect135"
     x="0"
     y="0" /></g>
<g
   transform="matrix(4.12,0,0,4.12,528,408)"
   id="g136"><rect
     width="6"
     height="6"
     id="rect136"
     x="0"
     y="0" /></g>
<g
   transform="matrix(4.12,0,0,4.12,624,408)"
   id="g137"><rect
     width="6"
     height="6"
     id="rect137"
     x="0"
     y="0" /></g>
<g
   transform="matrix(4.12,0,0,4.12,48,432)"
   id="g138"><rect
     width="6"
     height="6"
     id="rect138"
     x="0"
     y="0" /></g>
<g
   transform="matrix(4.12,0,0,4.12,120,432)"
   id="g139"><rect
     width="6"
     height="6"
     id="rect139"
     x="0"
     y="0" /></g>
<g
   transform="matrix(4.12,0,0,4.12,168,432)"
   id="g140"><rect
     width="6"
     height="6"
     id="rect140"
     x="0"
     y="0" /></g>
<g
   transform="matrix(4.12,0,0,4.12,192,432)"
   id="g141"><rect
     width="6"
     height="6"
     id="rect141"
     x="0"
     y="0" /></g>
<g
   transform="matrix(4.12,0,0,4.12,216,432)"
   id="g142"><rect
     width="6"
     height="6"
     id="rect142"
     x="0"
     y="0" /></g>
<g
   transform="matrix(4.12,0,0,4.12,240,432)"
   id="g143"><rect
     width="6"
     height="6"
     id="rect143"
     x="0"
     y="0" /></g>
<g
   transform="matrix(4.12,0,0,4.12,264,432)"
   id="g144"><rect
     width="6"
     height="6"
     id="rect144"
     x="0"
     y="0" /></g>
<g
   transform="matrix(4.12,0,0,4.12,288,432)"
   id="g145"><rect
     width="6"
     height="6"
     id="rect145"
     x="0"
     y="0" /></g>
<g
   transform="matrix(4.12,0,0,4.12,312,432)"
   id="g146"><rect
     width="6"
     height="6"
     id="rect146"
     x="0"
     y="0" /></g>
<g
   transform="matrix(4.12,0,0,4.12,336,432)"
   id="g147"><rect
     width="6"
     height="6"
     id="rect147"
     x="0"
     y="0" /></g>
<g
   transform="matrix(4.12,0,0,4.12,360,432)"
   id="g148"><rect
     width="6"
     height="6"
     id="rect148"
     x="0"
     y="0" /></g>
<g
   transform="matrix(4.12,0,0,4.12,432,432)"
   id="g149"><rect
     width="6"
     height="6"
     id="rect149"
     x="0"
     y="0" /></g>
<g
   transform="matrix(4.12,0,0,4.12,456,432)"
   id="g150"><rect
     width="6"
     height="6"
     id="rect150"
     x="0"
     y="0" /></g>
<g
   transform="matrix(4.12,0,0,4.12,480,432)"
   id="g151"><rect
     width="6"
     height="6"
     id="rect151"
     x="0"
     y="0" /></g>
<g
   transform="matrix(4.12,0,0,4.12,504,432)"
   id="g152"><rect
     width="6"
     height="6"
     id="rect152"
     x="0"
     y="0" /></g>
<g
   transform="matrix(4.12,0,0,4.12,528,432)"
   id="g153"><rect
     width="6"
     height="6"
     id="rect153"
     x="0"
     y="0" /></g>
<g
   transform="matrix(4.12,0,0,4.12,576,432)"
   id="g154"><rect
     width="6"
     height="6"
     id="rect154"
     x="0"
     y="0" /></g>
<g
   transform="matrix(4.12,0,0,4.12,240,456)"
   id="g155"><rect
     width="6"
     height="6"
     id="rect155"
     x="0"
     y="0" /></g>
<g
   transform="matrix(4.12,0,0,4.12,264,456)"
   id="g156"><rect
     width="6"
     height="6"
     id="rect156"
     x="0"
     y="0" /></g>
<g
   transform="matrix(4.12,0,0,4.12,288,456)"
   id="g157"><rect
     width="6"
     height="6"
     id="rect157"
     x="0"
     y="0" /></g>
<g
   transform="matrix(4.12,0,0,4.12,336,456)"
   id="g158"><rect
     width="6"
     height="6"
     id="rect158"
     x="0"
     y="0" /></g>
<g
   transform="matrix(4.12,0,0,4.12,360,456)"
   id="g159"><rect
     width="6"
     height="6"
     id="rect159"
     x="0"
     y="0" /></g>
<g
   transform="matrix(4.12,0,0,4.12,408,456)"
   id="g160"><rect
     width="6"
     height="6"
     id="rect160"
     x="0"
     y="0" /></g>
<g
   transform="matrix(4.12,0,0,4.12,432,456)"
   id="g161"><rect
     width="6"
     height="6"
     id="rect161"
     x="0"
     y="0" /></g>
<g
   transform="matrix(4.12,0,0,4.12,528,456)"
   id="g162"><rect
     width="6"
     height="6"
     id="rect162"
     x="0"
     y="0" /></g>
<g
   transform="matrix(4.12,0,0,4.12,552,456)"
   id="g163"><rect
     width="6"
     height="6"
     id="rect163"
     x="0"
     y="0" /></g>
<g
   transform="matrix(4.12,0,0,4.12,240,480)"
   id="g164"><rect
     width="6"
     height="6"
     id="rect164"
     x="0"
     y="0" /></g>
<g
   transform="matrix(4.12,0,0,4.12,288,480)"
   id="g165"><rect
     width="6"
     height="6"
     id="rect165"
     x="0"
     y="0" /></g>
<g
   transform="matrix(4.12,0,0,4.12,360,480)"
   id="g166"><rect
     width="6"
     height="6"
     id="rect166"
     x="0"
     y="0" /></g>
<g
   transform="matrix(4.12,0,0,4.12,384,480)"
   id="g167"><rect
     width="6"
     height="6"
     id="rect167"
     x="0"
     y="0" /></g>
<g
   transform="matrix(4.12,0,0,4.12,432,480)"
   id="g168"><rect
     width="6"
     height="6"
     id="rect168"
     x="0"
     y="0" /></g>
<g
   transform="matrix(4.12,0,0,4.12,480,480)"
   id="g169"><rect
     width="6"
     height="6"
     id="rect169"
     x="0"
     y="0" /></g>
<g
   transform="matrix(4.12,0,0,4.12,528,480)"
   id="g170"><rect
     width="6"
     height="6"
     id="rect170"
     x="0"
     y="0" /></g>
<g
   transform="matrix(4.12,0,0,4.12,576,480)"
   id="g171"><rect
     width="6"
     height="6"
     id="rect171"
     x="0"
     y="0" /></g>
<g
   transform="matrix(4.12,0,0,4.12,600,480)"
   id="g172"><rect
     width="6"
     height="6"
     id="rect172"
     x="0"
     y="0" /></g>
<g
   transform="matrix(4.12,0,0,4.12,624,480)"
   id="g173"><rect
     width="6"
     height="6"
     id="rect173"
     x="0"
     y="0" /></g>
<g
   transform="matrix(4.12,0,0,4.12,264,504)"
   id="g174"><rect
     width="6"
     height="6"
     id="rect174"
     x="0"
     y="0" /></g>
<g
   transform="matrix(4.12,0,0,4.12,288,504)"
   id="g175"><rect
     width="6"
     height="6"
     id="rect175"
     x="0"
     y="0" /></g>
<g
   transform="matrix(4.12,0,0,4.12,432,504)"
   id="g176"><rect
     width="6"
     height="6"
     id="rect176"
     x="0"
     y="0" /></g>
<g
   transform="matrix(4.12,0,0,4.12,528,504)"
   id="g177"><rect
     width="6"
     height="6"
     id="rect177"
     x="0"
     y="0" /></g>
<g
   transform="matrix(4.12,0,0,4.12,552,504)"
   id="g178"><rect
     width="6"
     height="6"
     id="rect178"
     x="0"
     y="0" /></g>
<g
   transform="matrix(4.12,0,0,4.12,600,504)"
   id="g179"><rect
     width="6"
     height="6"
     id="rect179"
     x="0"
     y="0" /></g>
<g
   transform="matrix(4.12,0,0,4.12,624,504)"
   id="g180"><rect
     width="6"
     height="6"
     id="rect180"
     x="0"
     y="0" /></g>
<g
   transform="matrix(4.12,0,0,4.12,240,528)"
   id="g181"><rect
     width="6"
     height="6"
     id="rect181"
     x="0"
     y="0" /></g>
<g
   transform="matrix(4.12,0,0,4.12,312,528)"
   id="g182"><rect
     width="6"
     height="6"
     id="rect182"
     x="0"
     y="0" /></g>
<g
   transform="matrix(4.12,0,0,4.12,336,528)"
   id="g183"><rect
     width="6"
     height="6"
     id="rect183"
     x="0"
     y="0" /></g>
<g
   transform="matrix(4.12,0,0,4.12,360,528)"
   id="g184"><rect
     width="6"
     height="6"
     id="rect184"
     x="0"
     y="0" /></g>
<g
   transform="matrix(4.12,0,0,4.12,384,528)"
   id="g185"><rect
     width="6"
     height="6"
     id="rect185"
     x="0"
     y="0" /></g>
<g
   transform="matrix(4.12,0,0,4.12,408,528)"
   id="g186"><rect
     width="6"
     height="6"
     id="rect186"
     x="0"
     y="0" /></g>
<g
   transform="matrix(4.12,0,0,4.12,432,528)"
   id="g187"><rect
     width="6"
     height="6"
     id="rect187"
     x="0"
     y="0" /></g>
<g
   transform="matrix(4.12,0,0,4.12,456,528)"
   id="g188"><rect
     width="6"
     height="6"
     id="rect188"
     x="0"
     y="0" /></g>
<g
   transform="matrix(4.12,0,0,4.12,480,528)"
   id="g189"><rect
     width="6"
     height="6"
     id="rect189"
     x="0"
     y="0" /></g>
<g
   transform="matrix(4.12,0,0,4.12,504,528)"
   id="g190"><rect
     width="6"
     height="6"
     id="rect190"
     x="0"
     y="0" /></g>
<g
   transform="matrix(4.12,0,0,4.12,528,528)"
   id="g191"><rect
     width="6"
     height="6"
     id="rect191"
     x="0"
     y="0" /></g>
<g
   transform="matrix(4.12,0,0,4.12,576,528)"
   id="g192"><rect
     width="6"
     height="6"
     id="rect192"
     x="0"
     y="0" /></g>
<g
   transform="matrix(4.12,0,0,4.12,240,552)"
   id="g193"><rect
     width="6"
     height="6"
     id="rect193"
     x="0"
     y="0" /></g>
<g
   transform="matrix(4.12,0,0,4.12,312,552)"
   id="g194"><rect
     width="6"
     height="6"
     id="rect194"
     x="0"
     y="0" /></g>
<g
   transform="matrix(4.12,0,0,4.12,456,552)"
   id="g195"><rect
     width="6"
     height="6"
     id="rect195"
     x="0"
     y="0" /></g>
<g
   transform="matrix(4.12,0,0,4.12,480,552)"
   id="g196"><rect
     width="6"
     height="6"
     id="rect196"
     x="0"
     y="0" /></g>
<g
   transform="matrix(4.12,0,0,4.12,528,552)"
   id="g197"><rect
     width="6"
     height="6"
     id="rect197"
     x="0"
     y="0" /></g>
<g
   transform="matrix(4.12,0,0,4.12,552,552)"
   id="g198"><rect
     width="6"
     height="6"
     id="rect198"
     x="0"
     y="0" /></g>
<g
   transform="matrix(4.12,0,0,4.12,576,552)"
   id="g199"><rect
     width="6"
     height="6"
     id="rect199"
     x="0"
     y="0" /></g>
<g
   transform="matrix(4.12,0,0,4.12,600,552)"
   id="g200"><rect
     width="6"
     height="6"
     id="rect200"
     x="0"
     y="0" /></g>
<g
   transform="matrix(4.12,0,0,4.12,624,552)"
   id="g201"><rect
     width="6"
     height="6"
     id="rect201"
     x="0"
     y="0" /></g>
<g
   transform="matrix(4.12,0,0,4.12,240,576)"
   id="g202"><rect
     width="6"
     height="6"
     id="rect202"
     x="0"
     y="0" /></g>
<g
   transform="matrix(4.12,0,0,4.12,264,576)"
   id="g203"><rect
     width="6"
     height="6"
     id="rect203"
     x="0"
     y="0" /></g>
<g
   transform="matrix(4.12,0,0,4.12,360,576)"
   id="g204"><rect
     width="6"
     height="6"
     id="rect204"
     x="0"
     y="0" /></g>
<g
   transform="matrix(4.12,0,0,4.12,408,576)"
   id="g205"><rect
     width="6"
     height="6"
     id="rect205"
     x="0"
     y="0" /></g>
<g
   transform="matrix(4.12,0,0,4.12,432,576)"
   id="g206"><rect
     width="6"
     height="6"
     id="rect206"
     x="0"
     y="0" /></g>
<g
   transform="matrix(4.12,0,0,4.12,552,576)"
   id="g207"><rect
     width="6"
     height="6"
     id="rect207"
     x="0"
     y="0" /></g>
<g
   transform="matrix(4.12,0,0,4.12,576,576)"
   id="g208"><rect
     width="6"
     height="6"
     id="rect208"
     x="0"
     y="0" /></g>
<g
   transform="matrix(4.12,0,0,4.12,624,576)"
   id="g209"><rect
     width="6"
     height="6"
     id="rect209"
     x="0"
     y="0" /></g>
<g
   transform="matrix(4.12,0,0,4.12,240,600)"
   id="g210"><rect
     width="6"
     height="6"
     id="rect210"
     x="0"
     y="0" /></g>
<g
   transform="matrix(4.12,0,0,4.12,288,600)"
   id="g211"><rect
     width="6"
     height="6"
     id="rect211"
     x="0"
     y="0" /></g>
<g
   transform="matrix(4.12,0,0,4.12,312,600)"
   id="g212"><rect
     width="6"
     height="6"
     id="rect212"
     x="0"
     y="0" /></g>
<g
   transform="matrix(4.12,0,0,4.12,384,600)"
   id="g213"><rect
     width="6"
     height="6"
     id="rect213"
     x="0"
     y="0" /></g>
<g
   transform="matrix(4.12,0,0,4.12,408,600)"
   id="g214"><rect
     width="6"
     height="6"
     id="rect214"
     x="0"
     y="0" /></g>
<g
   transform="matrix(4.12,0,0,4.12,432,600)"
   id="g215"><rect
     width="6"
     height="6"
     id="rect215"
     x="0"
     y="0" /></g>
<g
   transform="matrix(4.12,0,0,4.12,504,600)"
   id="g216"><rect
     width="6"
     height="6"
     id="rect216"
     x="0"
     y="0" /></g>
<g
   transform="matrix(4.12,0,0,4.12,528,600)"
   id="g217"><rect
     width="6"
     height="6"
     id="rect217"
     x="0"
     y="0" /></g>
<g
   transform="matrix(4.12,0,0,4.12,552,600)"
   id="g218"><rect
     width="6"
     height="6"
     id="rect218"
     x="0"
     y="0" /></g>
<g
   transform="matrix(4.12,0,0,4.12,624,600)"
   id="g219"><rect
     width="6"
     height="6"
     id="rect219"
     x="0"
     y="0" /></g>
<g
   transform="matrix(4.12,0,0,4.12,240,624)"
   id="g220"><rect
     width="6"
     height="6"
     id="rect220"
     x="0"
     y="0" /></g>
<g
   transform="matrix(4.12,0,0,4.12,312,624)"
   id="g221"><rect
     width="6"
     height="6"
     id="rect221"
     x="0"
     y="0" /></g>
<g
   transform="matrix(4.12,0,0,4.12,336,624)"
   id="g222"><rect
     width="6"
     height="6"
     id="rect222"
     x="0"
     y="0" /></g>
<g
   transform="matrix(4.12,0,0,4.12,360,624)"
   id="g223"><rect
     width="6"
     height="6"
     id="rect223"
     x="0"
     y="0" /></g>
<g
   transform="matrix(4.12,0,0,4.12,384,624)"
   id="g224"><rect
     width="6"
     height="6"
     id="rect224"
     x="0"
     y="0" /></g>
<g
   transform="matrix(4.12,0,0,4.12,480,624)"
   id="g225"><rect
     width="6"
     height="6"
     id="rect225"
     x="0"
     y="0" /></g>
<g
   transform="matrix(4.12,0,0,4.12,504,624)"
   id="g226"><rect
     width="6"
     height="6"
     id="rect226"
     x="0"
     y="0" /></g>
<g
   transform="matrix(4.12,0,0,4.12,528,624)"
   id="g227"><rect
     width="6"
     height="6"
     id="rect227"
     x="0"
     y="0" /></g>
<g
   transform="matrix(4.12,0,0,4.12,552,624)"
   id="g228"><rect
     width="6"
     height="6"
     id="rect228"
     x="0"
     y="0" /></g>
<g
   transform="matrix(4.12,0,0,4.12,576,624)"
   id="g229"><rect
     width="6"
     height="6"
     id="rect229"
     x="0"
     y="0" /></g>
<g
   transform="matrix(4.12,0,0,4.12,600,624)"
   id="g230"><rect
     width="6"
     height="6"
     id="rect230"
     x="0"
     y="0" /></g>
<g
   transform="matrix(4.12,0,0,4.12,624,624)"
   id="g231"><rect
     width="6"
     height="6"
     id="rect231"
     x="0"
     y="0" /></g>
<g
   transform="translate(48,48)"
   id="g233"><g
     transform="scale(12)"
     id="g232"><path
       d="M 0,0 V 14 H 14 V 0 Z M 12,12 H 2 V 2 h 10 z"
       id="path231" /></g></g>
<g
   transform="translate(480,48)"
   id="g235"><g
     transform="scale(12)"
     id="g234"><path
       d="M 0,0 V 14 H 14 V 0 Z M 12,12 H 2 V 2 h 10 z"
       id="path233" /></g></g>
<g
   transform="translate(48,480)"
   id="g237"><g
     transform="scale(12)"
     id="g236"><path
       d="M 0,0 V 14 H 14 V 0 Z M 12,12 H 2 V 2 h 10 z"
       id="path235" /></g></g>
<g
   transform="translate(96,96)"
   id="g239"><g
     transform="scale(12)"
     id="g238"><rect
       width="6"
       height="6"
       id="rect237"
       x="0"
       y="0" /></g></g>
<g
   transform="translate(528,96)"
   id="g241"><g
     transform="scale(12)"
     id="g240"><rect
       width="6"
       height="6"
       id="rect239"
       x="0"
       y="0" /></g></g>
<g
   transform="translate(96,528)"
   id="g243"><g
     transform="scale(12)"
     id="g242"><rect
       width="6"
       height="6"
       id="rect241"
       x="0"
       y="0" /></g></g>
</g></svg>
