<?xml version="1.0" encoding="UTF-8" standalone="no"?>
<svg
   viewBox="0 0 639.99998 639.99998"
   version="1.1"
   id="svg1"
   sodipodi:docname="bell-solid-full.svg"
   width="169.33333mm"
   height="169.33333mm"
   inkscape:version="1.3 (0e150ed, 2023-07-21)"
   xmlns:inkscape="http://www.inkscape.org/namespaces/inkscape"
   xmlns:sodipodi="http://sodipodi.sourceforge.net/DTD/sodipodi-0.dtd"
   xmlns="http://www.w3.org/2000/svg"
   xmlns:svg="http://www.w3.org/2000/svg">
  <defs
     id="defs1" />
  <sodipodi:namedview
     id="namedview1"
     pagecolor="#ffffff"
     bordercolor="#666666"
     borderopacity="1.0"
     inkscape:showpageshadow="2"
     inkscape:pageopacity="0.0"
     inkscape:pagecheckerboard="0"
     inkscape:deskcolor="#d1d1d1"
     inkscape:document-units="mm"
     inkscape:zoom="0.36875"
     inkscape:cx="318.64407"
     inkscape:cy="320"
     inkscape:window-width="1376"
     inkscape:window-height="449"
     inkscape:window-x="0"
     inkscape:window-y="38"
     inkscape:window-maximized="0"
     inkscape:current-layer="svg1" />
  <!--!Font Awesome Free 7.1.0 by @fontawesome - https://fontawesome.com License - https://fontawesome.com/license/free Copyright 2025 Fonticons, Inc.-->
  <path
     d="m 320,64 c -17.7,0 -32,14.3 -32,32 v 3.2 C 215,114 160,178.6 160,256 v 21.7 c 0,48.1 -16.4,94.8 -46.4,132.4 l -9.8,12.2 c -5.1,6.3 -7.8,14.1 -7.8,22.2 0,19.6 15.9,35.5 35.5,35.5 h 376.9 c 19.6,0 35.5,-15.9 35.5,-35.5 0,-8.1 -2.7,-15.9 -7.8,-22.2 l -9.8,-12.2 C 496.4,372.5 480,325.8 480,277.7 V 256 C 480,178.6 425,114 352,99.2 V 96 C 352,78.3 337.7,64 320,64 Z m -62,464 c 7.1,27.6 32.2,48 62,48 29.8,0 54.9,-20.4 62,-48 z"
     id="path1" />
</svg>
