<?xml version="1.0" encoding="UTF-8" standalone="no"?>
<svg
   viewBox="0 0 639.99871 639.99998"
   version="1.1"
   id="svg1"
   sodipodi:docname="bolt.svg"
   width="169.33299mm"
   height="169.33333mm"
   inkscape:version="1.3 (0e150ed, 2023-07-21)"
   xmlns:inkscape="http://www.inkscape.org/namespaces/inkscape"
   xmlns:sodipodi="http://sodipodi.sourceforge.net/DTD/sodipodi-0.dtd"
   xmlns="http://www.w3.org/2000/svg"
   xmlns:svg="http://www.w3.org/2000/svg">
  <defs
     id="defs1" />
  <sodipodi:namedview
     id="namedview1"
     pagecolor="#ffffff"
     bordercolor="#666666"
     borderopacity="1.0"
     inkscape:showpageshadow="2"
     inkscape:pageopacity="0.0"
     inkscape:pagecheckerboard="0"
     inkscape:deskcolor="#d1d1d1"
     inkscape:document-units="mm"
     inkscape:zoom="0.36875"
     inkscape:cx="318.64407"
     inkscape:cy="318.64407"
     inkscape:window-width="1512"
     inkscape:window-height="626"
     inkscape:window-x="0"
     inkscape:window-y="38"
     inkscape:window-maximized="0"
     inkscape:current-layer="svg1" />
  <!--!Font Awesome Free 7.1.0 by @fontawesome - https://fontawesome.com License - https://fontawesome.com/license/free Copyright 2025 Fonticons, Inc.-->
  <path
     d="M 128,320 156.5,92 c 2,-16 15.6,-28 31.8,-28 h 168.6 c 15,0 27.1,12.1 27.1,27.1 0,3.2 -0.6,6.5 -1.7,9.5 L 336,224 h 139.3 c 20.2,0 36.7,16.4 36.7,36.7 0,7.4 -2.2,14.6 -6.4,20.7 l -192.2,281 c -5.9,8.6 -15.6,13.7 -25.9,13.7 h -2.9 c -15.7,0 -28.5,-12.8 -28.5,-28.5 0,-2.3 0.3,-4.6 0.9,-6.9 L 304,352 H 160 c -17.7,0 -32,-14.3 -32,-32 z"
     id="path1" />
</svg>
