<?xml version="1.0" encoding="UTF-8" standalone="no"?>
<svg
   viewBox="0 0 639.99998 639.99998"
   version="1.1"
   id="svg1"
   sodipodi:docname="bomb-solid-full.svg"
   width="169.33333mm"
   height="169.33333mm"
   inkscape:version="1.3 (0e150ed, 2023-07-21)"
   xmlns:inkscape="http://www.inkscape.org/namespaces/inkscape"
   xmlns:sodipodi="http://sodipodi.sourceforge.net/DTD/sodipodi-0.dtd"
   xmlns="http://www.w3.org/2000/svg"
   xmlns:svg="http://www.w3.org/2000/svg">
  <defs
     id="defs1" />
  <sodipodi:namedview
     id="namedview1"
     pagecolor="#ffffff"
     bordercolor="#666666"
     borderopacity="1.0"
     inkscape:showpageshadow="2"
     inkscape:pageopacity="0.0"
     inkscape:pagecheckerboard="0"
     inkscape:deskcolor="#d1d1d1"
     inkscape:document-units="mm"
     inkscape:zoom="0.36875"
     inkscape:cx="318.64407"
     inkscape:cy="320"
     inkscape:window-width="1376"
     inkscape:window-height="449"
     inkscape:window-x="0"
     inkscape:window-y="38"
     inkscape:window-maximized="0"
     inkscape:current-layer="svg1" />
  <!--!Font Awesome Free 7.1.0 by @fontawesome - https://fontawesome.com License - https://fontawesome.com/license/free Copyright 2025 Fonticons, Inc.-->
  <path
     d="m 512,48 c 6.9,0 13,4.4 15.2,10.9 l 13.5,40.4 40.4,13.5 c 6.5,2.2 10.9,8.3 10.9,15.2 0,6.9 -4.4,13 -10.9,15.2 l -40.4,13.5 -13.5,40.4 c -2.2,6.5 -8.3,10.9 -15.2,10.9 -6.9,0 -13,-4.4 -15.2,-10.9 L 483.3,156.7 442.9,143.2 C 436.4,141 432,134.9 432,128 c 0,-6.9 4.4,-13 10.9,-15.2 L 483.3,99.3 496.8,58.9 C 499,52.4 505.1,48 512,48 Z M 353.4,161.4 c 12.5,-12.5 32.8,-12.5 45.3,0 l 80,80 c 12.5,12.5 12.5,32.8 0,45.3 l -10.9,10.9 c 7.9,22 12.2,45.7 12.2,70.5 0,114.9 -93.1,208 -208,208 C 157.1,576.1 64,482.9 64,368 64,253.1 157.1,160 272,160 c 24.7,0 48.5,4.3 70.5,12.3 z M 176,368 c 0,-53 43,-96 96,-96 13.3,0 24,-10.7 24,-24 0,-13.3 -10.7,-24 -24,-24 -79.5,0 -144,64.5 -144,144 0,13.3 10.7,24 24,24 13.3,0 24,-10.7 24,-24 z"
     id="path1" />
</svg>
