<?xml version="1.0" encoding="UTF-8" standalone="no"?>
<svg
   viewBox="0 0 639.99998 639.99998"
   version="1.1"
   id="svg1"
   sodipodi:docname="bullhorn-solid-full.svg"
   width="169.33333mm"
   height="169.33333mm"
   inkscape:version="1.3 (0e150ed, 2023-07-21)"
   xmlns:inkscape="http://www.inkscape.org/namespaces/inkscape"
   xmlns:sodipodi="http://sodipodi.sourceforge.net/DTD/sodipodi-0.dtd"
   xmlns="http://www.w3.org/2000/svg"
   xmlns:svg="http://www.w3.org/2000/svg">
  <defs
     id="defs1" />
  <sodipodi:namedview
     id="namedview1"
     pagecolor="#ffffff"
     bordercolor="#666666"
     borderopacity="1.0"
     inkscape:showpageshadow="2"
     inkscape:pageopacity="0.0"
     inkscape:pagecheckerboard="0"
     inkscape:deskcolor="#d1d1d1"
     inkscape:document-units="mm"
     inkscape:zoom="0.36875"
     inkscape:cx="318.64407"
     inkscape:cy="320"
     inkscape:window-width="1376"
     inkscape:window-height="449"
     inkscape:window-x="0"
     inkscape:window-y="38"
     inkscape:window-maximized="0"
     inkscape:current-layer="svg1" />
  <!--!Font Awesome Free 7.1.0 by @fontawesome - https://fontawesome.com License - https://fontawesome.com/license/free Copyright 2025 Fonticons, Inc.-->
  <path
     d="M 525.2,82.9 C 536.7,88 544,99.4 544,112 v 416 c 0,12.6 -7.3,24 -18.8,29.1 -11.5,5.1 -24.8,3.2 -34.3,-5.1 L 444.3,511.3 C 400.7,473.2 345.6,451 287.9,448.3 V 544 c 0,17.7 -14.3,32 -32,32 h -32 c -17.7,0 -32,-14.3 -32,-32 V 448 C 121.3,448 64,390.7 64,320 64,249.3 121.3,192 192,192 h 84.5 c 61.8,-0.2 121.4,-22.7 167.9,-63.3 L 491,88 c 9.4,-8.3 22.9,-10.2 34.3,-5.1 z M 288,384 v 0.2 c 70.3,2.7 137.8,28.5 192,73.4 V 182.3 C 425.8,227.2 358.3,253 288,255.7 Z"
     id="path1" />
</svg>
