<?xml version="1.0" encoding="UTF-8" standalone="no"?>
<svg
   viewBox="0 0 639.99998 639.99998"
   version="1.1"
   id="svg1"
   sodipodi:docname="car-side-solid-full.svg"
   width="169.33333mm"
   height="169.33333mm"
   inkscape:version="1.3 (0e150ed, 2023-07-21)"
   xmlns:inkscape="http://www.inkscape.org/namespaces/inkscape"
   xmlns:sodipodi="http://sodipodi.sourceforge.net/DTD/sodipodi-0.dtd"
   xmlns="http://www.w3.org/2000/svg"
   xmlns:svg="http://www.w3.org/2000/svg">
  <defs
     id="defs1" />
  <sodipodi:namedview
     id="namedview1"
     pagecolor="#ffffff"
     bordercolor="#666666"
     borderopacity="1.0"
     inkscape:showpageshadow="2"
     inkscape:pageopacity="0.0"
     inkscape:pagecheckerboard="0"
     inkscape:deskcolor="#d1d1d1"
     inkscape:document-units="mm"
     inkscape:zoom="0.36875"
     inkscape:cx="318.64407"
     inkscape:cy="320"
     inkscape:window-width="1376"
     inkscape:window-height="449"
     inkscape:window-x="0"
     inkscape:window-y="38"
     inkscape:window-maximized="0"
     inkscape:current-layer="svg1" />
  <!--!Font Awesome Free 7.1.0 by @fontawesome - https://fontawesome.com License - https://fontawesome.com/license/free Copyright 2025 Fonticons, Inc.-->
  <path
     d="M 147,170.7 117.2,256 h 122.9 v -96 h -77.9 c -6.8,0 -12.9,4.3 -15.1,10.7 z M 48.6,257.9 86.5,149.6 C 97.8,117.5 128.1,96 162.1,96 H 360 c 25.2,0 48.9,11.9 64,32 l 96.2,128.3 C 587.1,260.5 640,316.1 640,384 v 16 c 0,35.3 -28.7,64 -64,64 h -16.4 c -4,44.9 -41.7,80 -87.6,80 -45.9,0 -83.6,-35.1 -87.6,-80 H 239.7 c -4,44.9 -41.7,80 -87.6,80 -45.9,0 -83.6,-35.1 -87.6,-80 h -0.4 c -35.3,0 -64,-28.7 -64,-64 v -80 c 0,-30.1 20.7,-55.3 48.6,-62.1 z M 440,256 372.8,166.4 c -3,-4 -7.8,-6.4 -12.8,-6.4 h -72 v 96 z M 152,496 c 22.1,0 40,-17.9 40,-40 0,-22.1 -17.9,-40 -40,-40 -22.1,0 -40,17.9 -40,40 0,22.1 17.9,40 40,40 z m 360,-40 c 0,-22.1 -17.9,-40 -40,-40 -22.1,0 -40,17.9 -40,40 0,22.1 17.9,40 40,40 22.1,0 40,-17.9 40,-40 z"
     id="path1" />
</svg>
