<?xml version="1.0" encoding="UTF-8" standalone="no"?>
<svg
   viewBox="0 0 639.99998 639.99998"
   version="1.1"
   id="svg1"
   sodipodi:docname="cat-solid-full.svg"
   width="169.33333mm"
   height="169.33333mm"
   inkscape:version="1.3 (0e150ed, 2023-07-21)"
   xmlns:inkscape="http://www.inkscape.org/namespaces/inkscape"
   xmlns:sodipodi="http://sodipodi.sourceforge.net/DTD/sodipodi-0.dtd"
   xmlns="http://www.w3.org/2000/svg"
   xmlns:svg="http://www.w3.org/2000/svg">
  <defs
     id="defs1" />
  <sodipodi:namedview
     id="namedview1"
     pagecolor="#ffffff"
     bordercolor="#666666"
     borderopacity="1.0"
     inkscape:showpageshadow="2"
     inkscape:pageopacity="0.0"
     inkscape:pagecheckerboard="0"
     inkscape:deskcolor="#d1d1d1"
     inkscape:document-units="mm"
     inkscape:zoom="0.36875"
     inkscape:cx="318.64407"
     inkscape:cy="320"
     inkscape:window-width="1376"
     inkscape:window-height="449"
     inkscape:window-x="0"
     inkscape:window-y="38"
     inkscape:window-maximized="0"
     inkscape:current-layer="svg1" />
  <!--!Font Awesome Free 7.1.0 by @fontawesome - https://fontawesome.com License - https://fontawesome.com/license/free Copyright 2025 Fonticons, Inc.-->
  <path
     d="m 96,160 c 53,0 96,43 96,96 v 85.8 c 29.7,-44.7 77.8,-76.2 133.4,-84 25.6,60 85.2,102.1 154.6,102.1 10.9,0 21.6,-1.1 32,-3.1 V 544 c 0,17.7 -14.3,32 -32,32 -17.7,0 -32,-14.3 -32,-32 V 403.2 L 312,512 h 56 c 17.7,0 32,14.3 32,32 0,17.7 -14.3,32 -32,32 H 224 c -53,0 -96,-43 -96,-96 V 256 c 0,-16.6 -12.6,-30.2 -28.7,-31.8 l -6.6,-0.3 C 76.6,222.2 64,208.6 64,192 64,174.3 78.3,160 96,160 Z M 565.8,67.2 C 576.2,58.5 592,65.9 592,79.5 V 192 c 0,61.9 -50.1,112 -112,112 -61.9,0 -112,-50.1 -112,-112 V 79.5 c 0,-13.6 15.8,-21 26.2,-12.3 L 448,112 h 64 z M 432,172 c -11,0 -20,9 -20,20 0,11 9,20 20,20 11,0 20,-9 20,-20 0,-11 -9,-20 -20,-20 z m 96,0 c -11,0 -20,9 -20,20 0,11 9,20 20,20 11,0 20,-9 20,-20 0,-11 -9,-20 -20,-20 z"
     id="path1" />
</svg>
