<?xml version="1.0" encoding="UTF-8" standalone="no"?>
<svg
   viewBox="0 0 639.99998 639.99998"
   version="1.1"
   id="svg1"
   sodipodi:docname="certificate-solid-full.svg"
   width="169.33333mm"
   height="169.33333mm"
   inkscape:version="1.3 (0e150ed, 2023-07-21)"
   xmlns:inkscape="http://www.inkscape.org/namespaces/inkscape"
   xmlns:sodipodi="http://sodipodi.sourceforge.net/DTD/sodipodi-0.dtd"
   xmlns="http://www.w3.org/2000/svg"
   xmlns:svg="http://www.w3.org/2000/svg">
  <defs
     id="defs1" />
  <sodipodi:namedview
     id="namedview1"
     pagecolor="#ffffff"
     bordercolor="#666666"
     borderopacity="1.0"
     inkscape:showpageshadow="2"
     inkscape:pageopacity="0.0"
     inkscape:pagecheckerboard="0"
     inkscape:deskcolor="#d1d1d1"
     inkscape:document-units="mm"
     inkscape:zoom="0.36875"
     inkscape:cx="318.64407"
     inkscape:cy="320"
     inkscape:window-width="1376"
     inkscape:window-height="449"
     inkscape:window-x="0"
     inkscape:window-y="38"
     inkscape:window-maximized="0"
     inkscape:current-layer="svg1" />
  <!--!Font Awesome Free 7.1.0 by @fontawesome - https://fontawesome.com License - https://fontawesome.com/license/free Copyright 2025 Fonticons, Inc.-->
  <path
     d="m 271.2,56 c -6.1,-6.2 -15,-8.7 -23.4,-6.4 -8.4,2.3 -14.9,8.8 -17,17.2 L 215.5,127 c -1.1,4.4 -5.6,7 -9.9,5.7 l -59.8,-16.8 c -8.4,-2.4 -17.4,0 -23.5,6.1 -6.1,6.1 -8.5,15.1 -6.1,23.5 l 16.9,59.8 c 1.2,4.3 -1.4,8.8 -5.7,9.9 l -60.3,15.3 c -8.4,2.1 -15,8.7 -17.3,17.1 -2.3,8.4 0.2,17.3 6.4,23.4 l 44.5,43.3 c 3.2,3.1 3.2,8.3 0,11.5 l -44.4,43.3 c -6.2,6.1 -8.7,15 -6.4,23.4 2.3,8.4 8.9,14.9 17.3,17.1 l 60.2,15.3 c 4.4,1.1 7,5.6 5.7,9.9 l -16.9,59.7 c -2.4,8.4 0,17.4 6.1,23.5 6.1,6.1 15.1,8.5 23.5,6.1 l 59.8,-16.9 c 4.3,-1.2 8.8,1.4 9.9,5.7 l 15.3,60.2 c 2.1,8.4 8.7,15 17.1,17.3 8.4,2.3 17.3,-0.2 23.4,-6.4 l 43.3,-44.5 c 3.1,-3.2 8.3,-3.2 11.5,0 l 43.2,44.5 c 6.1,6.2 15,8.7 23.4,6.4 8.4,-2.3 14.9,-8.9 17.1,-17.3 L 425.1,513 c 1.1,-4.4 5.6,-7 9.9,-5.7 l 59.8,16.9 c 8.4,2.4 17.4,0 23.5,-6.1 6.1,-6.1 8.5,-15.1 6.1,-23.5 l -16.9,-59.8 c -1.2,-4.3 1.4,-8.8 5.7,-9.9 l 60.2,-15.3 c 8.4,-2.1 15,-8.7 17.3,-17.1 2.3,-8.4 -0.2,-17.4 -6.4,-23.4 l -44.5,-43.3 c -3.2,-3.1 -3.2,-8.3 0,-11.5 L 584.3,271 c 6.2,-6.1 8.7,-15 6.4,-23.4 -2.3,-8.4 -8.9,-14.9 -17.3,-17.1 l -60.2,-15.3 c -4.4,-1.1 -7,-5.6 -5.7,-9.9 l 16.9,-59.8 c 2.4,-8.4 0,-17.4 -6.1,-23.5 -6.1,-6.1 -15.1,-8.5 -23.5,-6.1 L 435,132.8 c -4.3,1.2 -8.8,-1.4 -9.9,-5.7 L 409.8,66.8 c -2.1,-8.4 -8.7,-15 -17.1,-17.3 -8.4,-2.3 -17.3,0.2 -23.4,6.4 L 326,100.5 c -3.1,3.2 -8.3,3.2 -11.5,0 z"
     id="path1" />
</svg>
