<?xml version="1.0" encoding="UTF-8" standalone="no"?>
<svg
   viewBox="0 0 639.99998 639.99998"
   version="1.1"
   id="svg1"
   sodipodi:docname="circle-radiation-solid-full.svg"
   width="169.33333mm"
   height="169.33333mm"
   inkscape:version="1.3 (0e150ed, 2023-07-21)"
   xmlns:inkscape="http://www.inkscape.org/namespaces/inkscape"
   xmlns:sodipodi="http://sodipodi.sourceforge.net/DTD/sodipodi-0.dtd"
   xmlns="http://www.w3.org/2000/svg"
   xmlns:svg="http://www.w3.org/2000/svg">
  <defs
     id="defs1" />
  <sodipodi:namedview
     id="namedview1"
     pagecolor="#ffffff"
     bordercolor="#666666"
     borderopacity="1.0"
     inkscape:showpageshadow="2"
     inkscape:pageopacity="0.0"
     inkscape:pagecheckerboard="0"
     inkscape:deskcolor="#d1d1d1"
     inkscape:document-units="mm"
     inkscape:zoom="0.36875"
     inkscape:cx="318.64407"
     inkscape:cy="320"
     inkscape:window-width="1376"
     inkscape:window-height="449"
     inkscape:window-x="0"
     inkscape:window-y="38"
     inkscape:window-maximized="0"
     inkscape:current-layer="svg1" />
  <!--!Font Awesome Free 7.1.0 by @fontawesome - https://fontawesome.com License - https://fontawesome.com/license/free Copyright 2025 Fonticons, Inc.-->
  <path
     d="M 64,320 C 64,178.6 178.6,64 320,64 461.4,64 576,178.6 576,320 576,461.4 461.4,576 320,576 178.6,576 64,461.4 64,320 Z m 80,0 h 64.3 c 8.7,0 15.7,-7.1 17.3,-15.6 4.4,-24.4 18.1,-45.5 37.2,-59.7 7.4,-5.5 10.6,-15.6 6,-23.6 l -32.5,-56.3 c -4.3,-7.5 -13.9,-10.3 -21.2,-5.5 -48.2,31.5 -81.3,84.2 -86.3,144.8 -0.7,8.8 6.5,16 15.3,16 z m 137.9,89.8 c -8.5,-3.7 -18.8,-1.4 -23.5,6.6 l -31,53.8 c -4.3,7.5 -1.9,17.2 5.8,21.1 26.1,13.2 55.5,20.7 86.8,20.7 31.3,0 60.7,-7.5 86.8,-20.7 7.7,-3.9 10.1,-13.6 5.8,-21.1 l -31,-53.8 c -4.6,-8 -15,-10.3 -23.5,-6.6 -11.7,5 -24.5,7.8 -38.1,7.8 -13.6,0 -26.4,-2.8 -38.1,-7.8 z M 414.4,304.4 c 1.6,8.6 8.5,15.6 17.3,15.6 H 496 c 8.8,0 16.1,-7.2 15.3,-16 -5,-60.6 -38.1,-113.2 -86.3,-144.8 -7.3,-4.8 -16.8,-2 -21.2,5.5 L 371.3,221 c -4.6,8 -1.4,18.1 6,23.6 19.1,14.2 32.7,35.4 37.2,59.7 z M 320,369.7 c 26.5,0 48,-21.5 48,-48 0,-26.5 -21.5,-48 -48,-48 -26.5,0 -48,21.5 -48,48 0,26.5 21.5,48 48,48 z"
     id="path1" />
</svg>
