<?xml version="1.0" encoding="UTF-8" standalone="no"?>
<svg
   version="1.0"
   viewBox="0 0 1706.6683 1706.6683"
   id="svg13"
   sodipodi:docname="circuit-board.svg"
   width="451.556mm"
   height="451.556mm"
   inkscape:version="1.3 (0e150ed, 2023-07-21)"
   xmlns:inkscape="http://www.inkscape.org/namespaces/inkscape"
   xmlns:sodipodi="http://sodipodi.sourceforge.net/DTD/sodipodi-0.dtd"
   xmlns="http://www.w3.org/2000/svg"
   xmlns:svg="http://www.w3.org/2000/svg">
  <defs
     id="defs13" />
  <sodipodi:namedview
     id="namedview13"
     pagecolor="#ffffff"
     bordercolor="#666666"
     borderopacity="1.0"
     inkscape:showpageshadow="2"
     inkscape:pageopacity="0.0"
     inkscape:pagecheckerboard="0"
     inkscape:deskcolor="#d1d1d1"
     inkscape:zoom="0.23046875"
     inkscape:cx="824.40678"
     inkscape:cy="618.30508"
     inkscape:window-width="1512"
     inkscape:window-height="732"
     inkscape:window-x="100"
     inkscape:window-y="38"
     inkscape:window-maximized="0"
     inkscape:current-layer="svg13"
     inkscape:document-units="mm" />
  <g
     id="g13"
     transform="matrix(3.2952624,0,0,3.2952624,9.2820638,9.2497511)"
     style="stroke-width:0.303466">
    <path
       d="m 3.5732848,3.5901326 c -2.89999998,2.9 -3.39999998,4.1 -3.39999998,7.9000004 0,10.8 12.40000018,16.1 20.00000018,8.6 l 2.8,-2.9 h 38.8 l 2.7,2.8 c 2.3,2.4 2.7,3.7 2.7,8.9 v 6.1 l 7.2,6.6 7.1,6.6 h 66.699995 c 59.4,0 66.9,0.2 68.1,1.6 1.9,2.3 6.4,4.4 9.4,4.4 3.4,0 8,-2.4 9.9,-5.2 2,-2.8 2,-9 0.1,-12.8 -3.6,-7 -14.2,-7.8 -19.4,-1.6 -1.2,1.4 -8.5,1.6 -66,1.6 H 85.573285 l -3.7,-3.8 c -4.7,-4.8 -4.9,-8.3 -0.6,-12.3 l 3.1,-2.9 h 19.199995 c 19.2,0 19.3,0 21.6,2.5 7.4,7.8 20.5,3.1 20.5,-7.4 0,-7.6000004 -4.6,-12.1000004 -12.5,-12.1000004 -3.3,0 -4.8,0.6 -7.2,3 l -3,3 h -19.8 c -15.299995,0 -20.099995,-0.3 -20.699995,-1.3 -1.7,-2.7 -5.9,-4.7 -10,-4.7 -3.3,0 -5,0.7 -7.6,3 l -3.5,3 h -38.4 l -3.5,-3 c -2.7,-2.4 -4.3,-3 -7.9,-3 -3.9000002,0 -5.1000002,0.5 -8.0000002,3.4 m 11.5000002,5 c 0.7,0.8 1.1,2.7000004 0.9,4.3000004 -0.6,5.1 -8.8000002,4.1 -8.8000002,-1.1 0,-4.2000004 5.3000002,-6.3000004 7.9000002,-3.2000004 M 228.57328,38.790133 c 3.2,3.1 1.4,8.4 -2.9,8.4 -6.2,0 -6,-9.8 0.2,-10 0.6,0 1.9,0.7 2.7,1.6"
       id="path1"
       style="stroke-width:0.303466" />
    <path
       d="m 156.47328,3.4901326 c -3.2,3 -3.6,4 -3.6,7.9000004 0,11.6 13,16.6 20.7,7.9 1.9,-2.1 2.4,-2.1 36.9,-2.1 h 34.9 l 2,2.5 c 2.9,3.7 8.5,5.1 13.1,3.2 3.9,-1.7 7.7,-6.8 7.7,-10.5 0,-10.5000004 -12.5,-16.2000004 -20,-9.2000004 l -3.2,3 h -69 l -3.5,-3 c -4.9,-4.4 -11,-4.2 -16,0.3 m 103.9,6.3 c 1.7,3.6000004 0,5.9000004 -4.2,5.9000004 -4.2,0 -5.9,-2.3 -4.2,-5.9000004 0.9,-2 1.9,-2.6 4.2,-2.6 2.3,0 3.3,0.6 4.2,2.6 m 18.2,-6.2 c -2.8,2.8 -3.4,4.2 -3.4,7.6000004 0,5.5 2.5,9.6 7.2,11.5 4.8,1.9 9.1,1 12.8,-2.6 4.1,-4.1 7.7,-3.8 12.3,0.9 l 3.7,3.8 v 19.1 c 0,16.1 -0.2,19.3 -1.6,20.4 -2.1,1.7 -4.4,6.4 -4.4,8.9 0,3.6 2.8,8.5 5.9,10.3 11.6,6.8 23.9,-7.6 15.1,-17.6 l -3,-3.5 v -42.8 l -6.8,-6.7 -6.8,-6.7000004 h -5.8 c -5.1,0 -6.3,-0.4 -9.3,-3 -2.7,-2.4 -4.3,-3 -7.9,-3 -3.9,0 -5.1,0.5 -8,3.4 m 122.4,-0.4 -3,3 h -42.4 l -6.7,6.8000004 -6.7,6.8 v 36.6 c 0,29.2 -0.3,36.9 -1.3,37.5 -2.5,1.5 -4.7,5.8 -4.7,9.099997 0,10.1 11.4,16 18.9,9.7 5.9,-5.1 6.2,-13.899997 0.5,-18.399997 l -2.4,-1.9 v -67.8 l 3.8,-3.7 3.8,-3.7 h 18.5 c 17.7,0 18.7,0.1 20.5,2.1 9.3,10.5 25.8,0 19.9,-12.5000004 -2.1,-4.4 -5.9,-6.6 -11.5,-6.6 -3.3,0 -4.8,0.6 -7.2,3"
       id="path2"
       style="stroke-width:0.303466" />
    <path
       d="m 433.07328,1.6901326 c -3.6,2 -6.3,7.8 -5.5,12.1000004 0.4,1.8 2,4.7 3.6,6.3 4.2,4.2 4,7.7 -0.8,12.4 -2.9,2.9 -4.6,3.7 -7.4,3.7 -2,0 -4.1,-0.7 -4.9,-1.6 -0.7,-0.8 -2.5,-2.2 -4,-3 -10.2,-5.2 -20.8,6.2 -15.4,16.6 3.3,6.4 13,7.8 18.4,2.6 2.3,-2.2 3.6,-2.6 8.7,-2.6 h 6 l 6.7,-6.8 6.7,-6.8 v -5.8 c 0,-5.1 0.4,-6.3 3,-9.3 2.4,-2.7 3,-4.3 3,-7.9 0,-3.9000004 -0.5,-5.1000004 -3.4,-8.0000004 -2.8,-2.8 -4.1,-3.4 -7.7,-3.4 -2.4,0.1 -5.6,0.7 -7,1.5 m 60.2,1.1 c -4.4,3.7 -5.8,9.1000004 -3.6,13.8000004 1,2 2.6,4.1 3.6,4.7 1.8,0.9 1.9,2.8 1.9,36 v 35.1 l -2.5,2 c -3.5,2.7 -5,8.799997 -3.1,13.099997 2,5 6,7.7 11.3,7.7 3.8,0 5,-0.5 7.9,-3.4 2.8,-2.8 3.4,-4.2 3.4,-7.5 0,-4.599997 -2.1,-9.499997 -4.5,-10.399997 -1.3,-0.6 -1.5,-5.1 -1.5,-35.8 v -35.1 l 3,-3.5 c 2.4,-2.7 3,-4.3 3,-7.9 0,-9.8000004 -11.4,-15.1000004 -18.9,-8.8000004 m 10.7,5.6 c 1.6,1.6 1.5,5.3000004 -0.2,6.7000004 -2.2,1.9 -6.8,0.9 -7.7,-1.5 -1.6,-4.5000004 4.6,-8.5000004 7.9,-5.2000004 M 6.3732848,31.890133 c -4.1,2 -6.19999998,5.9 -6.19999998,11.3 0,3.3 0.6,4.8 2.99999998,7.2 2.5,2.5 3,3.7 3,7.9 0,3.5 -0.4,5.1 -1.5,5.6 -2.4,0.9 -4.49999998,5.7 -4.49999998,10.2 0,6.1 3.99999998,10.2 10.60000018,10.8 4.6,0.5 5.4,0.2 8.6,-2.6 l 3.6,-3.1 h 98.099995 l 3.6,3.1 3.5,3.1 v 49.899997 c 0,33.1 -0.3,49.9 -1,49.9 -1.9,0 -5,6.4 -5,10.2 0,4.8 4.7,10.5 9.4,11.3 11,2.1 18.7,-11.5 11.1,-19.5 l -3,-3.1 -0.1,-51.7 -0.1,-51.599997 -6.7,-6.3 -6.6,-6.3 H 22.973285 l -2.9,-3.1 c -4,-4.2 -4,-10.1 -0.2,-14.1 2.2,-2.3 3.5,-2.8 7.5,-2.8 2.6,0 4.8,0.4 4.8,0.9 0,0.5 1.5,1.9 3.4,3 9,5.6 19.7,-1 18.3,-11.2 -1.4,-10 -13.6,-14 -20.3,-6.6 -2.3,2.5 -10.5,2.7 -12.5,0.2 -1.6,-1.9 -7,-4.3 -9.6,-4.3 -1,0 -3.3000002,0.8 -5.1000002,1.7 m 7.9000002,37.3 c 2.2,1.2 2.6,5.9 0.7,7.8 -0.7,0.7 -2.1,1.2 -3.3,1.2 -4.3000002,0 -6.1000002,-5.3 -2.9000002,-8.4 1.8000002,-1.9 2.8000002,-2 5.5000002,-0.6 m 237.399995,-38 c -8.8,3.6 -9.8,17.2 -1.5,21.5 5.2,2.7 13.8,1.1 15.3,-3 q 0.6,-1.5 4.5,-1.5 c 3.1,0 4.5,0.7 7.5,3.8 l 3.7,3.8 v 18.3 c 0,18.1 0,18.4 -2.4,20.6 -3.5,3.2 -4.9,8.899997 -3.2,12.999997 4.4,10.6 19.5,9.8 22.5,-1.2 1.2,-4.2 -1,-10.699997 -4,-12.399997 -1.8,-0.9 -1.9,-2.5 -1.9,-22.4 v -21.4 l -7.2,-7.1 -7.1,-7 h -5.7 c -4,0 -6.2,-0.5 -7.1,-1.6 -3.1,-3.7 -9,-5.3 -13.4,-3.4 m 37.6,68 c 2.2,1.199997 2.6,5.899997 0.7,7.799997 -0.7,0.7 -2.1,1.2 -3.3,1.2 -4.3,0 -6.1,-5.3 -2.9,-8.399997 1.8,-1.9 2.8,-2 5.5,-0.6 m 83.1,-67 c -6.6,4 -8,13.1 -2.7,18 3.3,3.1 3.6,11.7 0.6,14.4 -5.3,4.8 -5.1,12.6 0.5,17.5 7.8,6.9 19.4,1.5 19.4,-9.1 0,-3.3 -2.2,-7.6 -4.7,-9.1 -1.6,-1 -1.8,-11.7 -0.3,-11.7 1.8,0 5,-6.4 5,-9.8 0,-4.8 -2.6,-9.1 -6.5,-10.8 -4.6,-1.9 -7.4,-1.8 -11.3,0.6 m 9.3,38 c 1.2,1.3 1.5,2.7 1.1,4.4 -0.8,3.4 -5,4.5 -7.6,2.1 -2.5,-2.3 -2.5,-4 0,-6.5 2.5,-2.5 4.2,-2.5 6.5,0"
       id="path3"
       style="stroke-width:0.303466" />
    <path
       d="m 159.17328,62.990133 c -5,2.5 -7.6,8.1 -6.1,13.2 1.5,5.2 6.2,9 10.9,9 3.8,0 10.2,-3.2 10.2,-5 0,-0.7 12.1,-1 35.5,-1 h 35.4 l 2.6,2.5 2.5,2.6 v 41.499997 l 6.8,6.7 6.8,6.7 h 72.6 l 2.9,3 c 3.7,3.7 8.4,4.6 13.2,2.7 4.3,-1.8 6.7,-6 6.7,-11.8 0,-3.3 -0.6,-4.7 -3.4,-7.5 -2.9,-2.9 -4.1,-3.4 -8,-3.4 -3.6,0 -5.2,0.6 -7.9,3 l -3.5,3 h -67.8 l -3.2,-3.3 -3.2,-3.3 v -18.9 c 0,-18.899997 0.1,-18.999997 2.5,-21.299997 8.2,-7.8 -0.6,-22.6 -11.4,-19.3 -2,0.6 -4.8,2.2 -6.1,3.6 l -2.3,2.5 h -69.2 l -2.5,-2.6 c -4.3,-4.6 -8.5,-5.4 -14,-2.6 m 8.2,6.9 c 3.5,3.1 1.7,8.3 -2.8,8.3 -2.1,0 -5.4,-3.3 -5.4,-5.2 0,-1.2 3.9,-4.8 5.2,-4.8 0.6,0 2,0.7 3,1.7 m 91.8,0.1 c 3,2.4 2.1,6.9 -1.5,7.8 -3.5,0.9 -5.3,-0.1 -6.1,-3.2 -0.6,-2.1 -0.2,-3.1 1.6,-4.6 1.2,-1 2.6,-1.8 3,-1.8 0.4,0 1.8,0.8 3,1.8 m 92.5,61.599997 c 1.9,2.9 0.8,6.1 -2.6,7.1 -4.1,1.3 -7.8,-5.2 -4.7,-8.3 2,-2 5.6,-1.4 7.3,1.2 M 6.3732848,92.890133 c -6.79999998,3.3 -8.4,12.699997 -3.2,18.599997 2.2,2.5 3,4.5 3,7.2 0,2.7 -0.8,4.7 -3,7.2 -5.3,6 -3.49999998,15.4 3.6,18.8 4.6000002,2.2 9.0000002,1.4 13.9000002,-2.5 l 3.7,-2.9 17.8,0.2 17.9,0.2 3.5,3.4 3.6,3.5 v 19.3 c 0,12.4 -0.4,19.3 -1,19.3 -1.8,0 -5,6.4 -5,9.8 0,6.6 5.6,12.2 12.2,12.2 3.7,0 8.8,-3.7 10.5,-7.7 1.8,-4.5 0.6,-9.7 -3.2,-13.3 l -2.5,-2.3 v -42.3 l -6.8,-6.7 -6.8,-6.7 h -42 l -2.7,-2.8 c -2,-2.1 -2.7,-3.8 -2.7,-6.7 0,-2.9 0.7,-4.6 2.7,-6.7 l 2.7,-2.8 h 67.5 l 3.6,3.1 3.5,3.1 v 69.3 l -2.4,2.3 c -4.7,4.4 -4.5,12 0.3,16.6 7.399995,7.1 20.099995,1.9 20.099995,-8.4 0,-3.7 -2.3,-8.5 -4.5,-9.3 -1.3,-0.6 -1.5,-5.3 -1.5,-37.4 v -36.9 l -6.8,-6.7 -6.799995,-6.699997 h -36.4 c -34.4,0 -36.6,-0.1 -37.7,-1.8 -1.3,-2.2 -7.2,-5.2 -10,-5.2 -1,0 -3.3000002,0.8 -5.1000002,1.7 m 7.9000002,6.3 c 2.3,1.299997 2.6,6.199997 0.5,7.999997 -1.9,1.5 -5.6000002,0.9 -6.9000002,-1.1 -1.4,-2.2 -0.1,-6.699997 2.1,-7.199997 0.9000002,-0.3 1.8000002,-0.5 2.0000002,-0.6 0.2,0 1.2,0.4 2.3,0.9 m 62.3,93.199997 c 2,2.9 2,3.4 -0.4,5.8 -2.4,2.4 -4.3,2.5 -6.4,0.4 -3.1,-3 -0.9,-8.4 3.4,-8.4 1,0 2.6,1 3.4,2.2"
       id="path4"
       style="stroke-width:0.303466" />
    <path
       d="m 220.47328,92.690133 c -1.7,0.7 -3.6,2.3 -4.3,3.4 -1,2 -1.8,2.1 -22.3,2.1 h -21.3 l -6.7,6.799997 c -6.7,6.7 -6.7,6.8 -6.7,12.3 0,4.4 -0.4,6 -2.1,7.5 -10.5,9.3 0,25.8 12.5,19.9 4.4,-2.1 6.6,-5.9 6.6,-11.5 0,-3.3 -0.6,-4.8 -3,-7.2 -4.3,-4.3 -4.1,-8.3 0.8,-13.1 l 3.8,-3.7 h 36.6 l 3.5,3 c 6.7,5.9 16.9,2.9 19.2,-5.7 1.5,-5.2 -1.4,-11.299997 -6.2,-13.599997 -4.2,-2 -6.2,-2.1 -10.4,-0.2 m 8.1,7.1 c 3.2,3.099997 1.4,8.399997 -2.9,8.399997 -6.2,0 -6,-9.799997 0.2,-9.999997 0.6,0 1.9,0.7 2.7,1.6"
       id="path5"
       style="stroke-width:0.303466" />
    <path
       d="m 217.97328,125.09013 c -3,2.6 -4.3,3.1 -9,3.1 -5.3,0 -5.4,0 -12.6,7.3 -7.2,7.2 -7.2,7.3 -7.2,12.7 0,4.4 -0.5,5.9 -2.6,8.1 -7.2,7.5 -1.8,19.9 8.6,19.9 6.3,0 12,-5.6 12,-12 0,-2.5 -2.3,-7.2 -4.4,-8.9 -0.9,-0.8 -1.6,-2.9 -1.6,-5 0,-3 0.8,-4.4 3.8,-7.4 4.7,-4.6 8,-4.8 12,-0.8 3.8,3.9 8.9,4.8 13.6,2.6 7,-3.3 8.9,-12.9 3.8,-18.6 -2.3,-2.5 -3.8,-3.3 -7.8,-3.6 -4.6,-0.5 -5.4,-0.2 -8.6,2.6 m 275,0 -3.6,3.1 h -102.8 l -6.7,6.8 -6.7,6.8 v 41.6 l -3,3.4 c -1.6,1.9 -3.3,4.6 -3.6,6 -1.5,5.9 5.2,14.4 11.3,14.4 10.4,0 16.2,-12.6 9.3,-20 l -3,-3.2 v -37.4 l 3.8,-3.7 3.8,-3.7 h 97.6 l 2.9,2.9 2.9,2.9 v 19.3 c 0,19.3 0,19.3 -2.5,21.9 -3.6,3.8 -4.5,7.8 -2.9,12.6 0.7,2.1 2.2,4.5 3.4,5.3 3.3,2.2 2.7,8 -1.3,11.9 l -3.3,3.2 h -19.6 c -16.7,0 -19.7,-0.2 -20.2,-1.5 -0.3,-0.9 -2.2,-2.3 -4.2,-3.1 -7,-2.9 -14.5,0.5 -16.4,7.6 -3.1,11.5 10.4,19.8 19.3,12 l 3.5,-3 h 41.8 l 6.7,-6.8 6.7,-6.8 v -5.8 c 0,-5.1 0.4,-6.3 3,-9.3 2.4,-2.6 3,-4.3 3,-7.8 0,-3.5 -0.6,-5.2 -3,-7.8 l -3,-3.5 v -19.6 c 0,-16.8 0.2,-19.7 1.5,-20.3 2.4,-0.9 4.5,-5.7 4.5,-10.2 0,-6.1 -4,-10.2 -10.6,-10.8 -4.6,-0.5 -5.4,-0.2 -8.6,2.6 m 11,5.3 c 3.5,3.5 -1.4,10.2 -5.7,7.8 -1.4,-0.7 -2.1,-2.1 -2.1,-3.8 0,-3.3 1.6,-5.2 4.5,-5.2 1.2,0 2.6,0.5 3.3,1.2 m 0.5,61.9 c 1.4,2.3 0.1,6.7 -2.3,7.4 -4.6,1.5 -8.2,-4.9 -4.8,-8.3 1.7,-1.7 5.8,-1.1 7.1,0.9 m -495.9999952,-39.4 c -1.2,0.2 -3.6,2 -5.3,3.9 -4.2,4.9 -4.2,10.9 0,15.7 2.3,2.6 3,4.4 3,7.5 0,3.2 -0.7,4.7 -3,7 -7.2,7.2 -1.3,20.2 9.2000002,20.2 3.7,0 8.8,-3.7 10.4,-7.6 1.8,-4.4 0.6,-10 -3.1,-13.4 -3.6,-3.3 -3.5,-9.4 0.2,-13.2 3.7,-3.9 8.1,-3.8 12.8,0.3 4.5,4 4.9,9.3 1,13.5 -4.7,5.1 -4.3,12.5 1.2,17.6 1.9,1.8 3.6,2.3 7.5,2.3 4.4,0 5.3,-0.4 8.4,-3.7 2.6,-2.9 3.4,-4.6 3.4,-7.5 0,-3.9 -3.1,-10.3 -5,-10.3 -0.6,0 -1,-2.7 -1,-6.3 v -6.3 l -6.8,-6.7 -6.8,-6.7 h -6.2 c -3.4,0 -6.2,-0.4 -6.2,-0.9 0,-2.9 -8.9,-6.4 -13.7000002,-5.4 m 7.5000002,10.7 c 0.4,3.3 -1.3,5.6 -4.2,5.6 -4.7000002,0 -6.3000002,-5.7 -2.5000002,-8.4 3.0000002,-2 6.3000002,-0.6 6.7000002,2.8 m 297.499995,-10.3 c -1.7,0.5 -4.1,2 -5.1,3.4 l -2,2.5 h -42.9 l -6.6,6.9 -6.7,6.9 v 194.6 l -2.5,2.6 c -7,7.4 -1.7,20 8.5,20 10.3,0 15.8,-11.6 9,-19.3 l -3,-3.5 v -189.8 l 3.8,-3.7 3.8,-3.7 h 18.7 c 12,0 18.7,0.4 18.7,1 0,1.9 6.5,5 10.5,5 7.2,0 12.2,-5.9 11.2,-13.2 -0.6,-4.6 -2.9,-7.5 -7.4,-9.4 -3.6,-1.6 -3.6,-1.6 -8,-0.3 m -54.5,221.5 c 2.7,1.9 2.8,4.5 0.2,6.9 -2.7,2.4 -6.8,1.3 -7.6,-2.2 -0.5,-2 -0.2,-3.1 1.6,-4.5 2.7,-2.2 3,-2.2 5.8,-0.2"
       id="path6"
       style="stroke-width:0.303466" />
    <path
       d="m 435.67328,153.79013 c -6.9,2.3 -9.9,9 -7.2,15.7 3,7.1 13,9.1 19,3.7 10.2,-8.9 23,3.5 13.4,12.8 l -3.3,3.2 h -40 l -7.2,7.3 -7.2,7.2 v 71.7 l -3,3.5 c -7.8,8.9 0.5,22.4 12,19.3 6.7,-1.8 10.3,-8.7 8,-15.5 -0.6,-1.9 -2.1,-4.2 -3.3,-5 -2.2,-1.5 -2.2,-1.9 -2.3,-35.1 l -0.2,-33.6 3.5,-3.9 3.5,-3.9 h 40.4 l 7.3,-7.4 7.3,-7.4 -0.7,-5.1 c -0.6,-4.7 -0.5,-5.3 2.3,-8.1 3.7,-3.6 4.7,-7.8 3.2,-12.5 -2.6,-7.9 -12.7,-10.3 -19.3,-4.5 -4.5,3.9 -9.9,4.1 -13.7,0.5 -3.8,-3.6 -7.8,-4.5 -12.5,-2.9 m 8.3,10.3 c 0.7,4.8 -5.3,7 -8.1,3 -1.9,-2.6 -1.1,-5.8 1.7,-6.9 2.7,-1 6,1 6.4,3.9 m -32.2,118.9 c 3.6,2.5 2,8.2 -2.4,8.2 -3.3,0 -5.2,-1.6 -5.2,-4.5 0,-3.7 4.4,-5.9 7.6,-3.7 m -252.2,-98.8 c -6.2,2.5 -8.6,12.9 -4.3,18.3 4.1,5.4 15,5.7 18.2,0.6 1.1,-1.8 2.6,-1.9 20.5,-1.9 h 19.3 l 3.4,3.4 c 4.6,4.3 4.7,8.5 0.5,13.3 -2.4,2.7 -3,4.3 -3,7.9 0,3.9 0.5,5.1 3.4,8 2.9,2.9 4.1,3.4 7.9,3.4 8.4,0 14.4,-8.1 11.4,-15.2 -0.8,-1.8 -2.4,-4.2 -3.6,-5.2 -1.7,-1.6 -2.1,-3 -2.1,-8 v -6.2 l -6.8,-6.7 -6.8,-6.7 h -21.1 c -17.9,0 -21.3,-0.2 -22.4,-1.6 -3.1,-3.8 -9.7,-5.4 -14.5,-3.4 m 120.9,1 c -4.1,2.5 -5.3,4.8 -5.3,10.5 0,3.8 0.5,5.2 3,7.7 l 3,3 v 38.6 l -3,3 c -2.6,2.6 -3,3.8 -3,8.2 0,4.3 0.5,5.6 2.8,8 8,7.9 20.2,3 20.2,-8.1 0,-3.9 -0.6,-5.5 -3,-8.2 l -3,-3.5 v -38 l 3,-3 c 2.5,-2.6 3,-3.8 3,-7.9 0,-5.5 -1.7,-8.6 -6,-10.8 -3.9,-2 -7.9,-1.9 -11.7,0.5 m 29.3,1.1 c -5.6,4.9 -5.8,12.7 -0.5,17.5 1.7,1.6 1.9,3.3 1.9,21.8 v 20 l -2.6,2.7 c -3.7,3.9 -4.2,9.5 -1.2,13.9 3.1,4.6 6.4,6.2 11.3,5.6 5.5,-0.7 10.5,-6 10.5,-11.4 0,-3.7 -2.1,-7.9 -4.7,-9.5 -1,-0.6 -1.3,-5.4 -1.3,-20.9 v -20 l 3,-3.5 c 9.6,-10.9 -5.5,-25.9 -16.4,-16.2 m 10.8,5.5 c 2.1,2 2,4.3 -0.1,6.6 -2,2.2 -4.1,2.3 -6.5,0.1 -2.2,-2 -2.3,-4.1 -0.1,-6.5 2,-2.2 4.6,-2.3 6.7,-0.2 m 0,61 c 2.1,2 2,4.3 -0.1,6.6 -2,2.2 -4.1,2.3 -6.5,0.1 -2.2,-2 -2.3,-4.1 -0.1,-6.5 2,-2.2 4.6,-2.3 6.7,-0.2 m -312.0999952,-38.4 c -8.09999998,2.1 -11.1,12.6 -5.3,19.1 2.3,2.6 3,4.4 3,7.5 0,3.1 -0.7,4.7 -3,7.2 -5.2,5.6 -3.69999998,15.1 3.1,18.6 9.1000002,4.7 19.9000002,-4.1 17.0000002,-13.7 -0.6,-2.1 -2.3,-4.7 -3.6,-5.7 -3.5,-2.8 -3.5,-9.9 0,-13.2 3.9,-3.7 4.9,-8 2.9,-12.9 -2.3,-5.7 -8,-8.5 -14.1000002,-6.9 m 92.4999952,-0.4 c -1.499995,0.2 -4.099995,1.7 -5.699995,3.3 -2.6,2.5 -3.7,2.9 -8.8,2.9 h -5.9 l -6.7,6.8 -6.7,6.8 v 72.7 l -2.6,2.3 c -2.5,2.4 -2.8,2.4 -23.2,2.4 h -20.7 l -7.2,7.2 c -7.3000002,7.2 -7.3000002,7.3 -7.3000002,12.6 0,4.6 -0.5,6 -3,8.9 -10,11.4 6.2,26.9 17.0000002,16.2 3.7,-3.7 10.7,-4.1 12.8,-0.8 0.7,1.1 2.9,2.7 4.8,3.5 7,2.9 15.1,-1.7 16.1,-9.3 1,-7.4 -4,-13.3 -11.2,-13.3 -4,0 -10.5,3.1 -10.5,5 0,0.5 -2.1,1 -4.7,1 -3.7,0 -5.3,-0.6 -7.5,-2.7 -4.1,-3.9 -3.8,-7.9 1,-12.6 l 3.8,-3.7 h 18.6 c 18.7,0 18.7,0 21.3,2.5 3.7,3.8 3.5,9.6 -0.5,14.2 -5.6,6.4 -3.3,15.6 4.7,18.9 11.6,4.9 21.2,-10.5 12.2,-19.6 -3.9,-3.8 -4,-9.6 -0.4,-13 5.4,-5 5.3,-13.6 -0.1,-17.9 l -2.4,-1.9 v -67.8 l 3.8,-3.7 c 3,-2.9 4.6,-3.7 7.5,-3.7 2.5,0 3.9,0.6 4.6,1.9 1.6,3 8.199995,5.2 12.299995,4.1 5.7,-1.6 8.3,-5.2 8.3,-11.6 0,-4.4 -0.4,-5.8 -2.5,-7.9 -2.9,-2.8 -7.1,-4.2 -11.2,-3.7 m 6,8.4 c 0.7,0.7 1.2,2.1 1.2,3.3 0,2.9 -1.9,4.5 -5.2,4.5 -2.5,0 -4.799995,-2.3 -4.799995,-4.9 0,-3.3 6.299995,-5.4 8.799995,-2.9 m -60.299995,124.2 c 0.8,2.4 0.6,3.1 -1.4,4.7 -2.9,2.4 -3.6,2.4 -6.1,-0.1 -2.4,-2.4 -2.5,-4.3 -0.4,-6.5 2.5,-2.5 6.7,-1.5 7.9,1.9"
       id="path7"
       style="stroke-width:0.303466" />
    <path
       d="m 190.47328,214.69013 c -1.8,0.7 -3.8,2.3 -4.5,3.4 -1.2,2 -2.1,2.1 -22.8,2.1 h -21.6 l -6.7,6.8 -6.7,6.8 v 41.6 l -3,3.5 c -2.4,2.7 -3,4.3 -3,7.9 0,3.9 0.5,5.1 3.4,8 2.9,2.9 4.1,3.4 8.1,3.4 6,0 10.1,-2.8 11.6,-7.9 1.4,-4.8 -0.2,-10.5 -3.7,-12.7 l -2.3,-1.6 0.3,-18.9 0.3,-19 3.3,-3.4 3.4,-3.5 h 37.4 l 3.2,3 c 7.5,7 20,1.3 20,-9.2 0,-2.8 -3.3,-8.3 -5.7,-9.6 -3.5,-1.9 -7.8,-2.1 -11,-0.7 m -52.9,69.1 c 3,2.9 1,7.4 -3.2,7.4 -3.3,0 -5.2,-1.6 -5.2,-4.5 0,-4.3 5.3,-6.1 8.4,-2.9 m 206,-69.2 c -4.7,2.1 -7.4,6.1 -7.4,11.3 0,3.8 0.5,5 3.4,7.9 2.8,2.8 4.2,3.4 7.5,3.4 4.6,0 9.5,-2.1 10.4,-4.5 1.1,-2.8 7.1,-1.9 11.1,1.7 l 3.6,3.2 v 71.2 l 7.3,7.2 7.2,7.2 h 41.9 l 2.7,2.6 c 7.5,7.2 19.9,1.8 19.9,-8.6 0,-10.3 -12.6,-15.6 -20,-8.5 -2.6,2.5 -2.6,2.5 -21.6,2.5 h -19 l -3.2,-3.3 -3.2,-3.3 v -71 l -6.8,-6.7 -6.8,-6.7 h -6.1 c -5.1,0 -6.4,-0.4 -7.2,-1.9 -0.9,-1.6 -7.8,-5.2 -9.9,-5.1 -0.4,0.1 -2.1,0.7 -3.8,1.4 m 99.1,99.2 c 2.5,2.5 1.5,6.7 -1.9,7.9 -2.4,0.8 -3.1,0.6 -4.7,-1.4 -2.4,-2.9 -2.4,-3.6 0.1,-6.1 2.4,-2.4 4.3,-2.5 6.5,-0.4 m -407.299995,-98 c -2.9,2 -5.2,6.5 -5.2,10.1 0,3.1 3.4,9.3 5,9.3 0.6,0 1,7.1 1,19.8 v 19.8 l -3.3,3.2 c -2.5,2.4 -4.2,3.2 -6.9,3.2 -2.1,0 -4.1,-0.6 -4.5,-1.3 -1.7,-2.8 -5.9,-4.7 -10.1,-4.7 -3.7000002,0 -5.0000002,0.6 -7.8000002,3.4 -2.89999998,2.9 -3.39999998,4.1 -3.39999998,8.1 0,4 0.5,5.2 3.39999998,8.1 2.9,2.9 4.1,3.4 8.0000002,3.4 3.6,0 5.2,-0.6 7.9,-3 3,-2.6 4.2,-3 9.4,-3 h 5.9 l 6.7,-6.8 6.7,-6.8 v -21.1 c 0,-17.9 0.2,-21.3 1.6,-22.4 4.2,-3.5 5.5,-9.9 2.9,-14.9 -2.2,-4.2 -5.3,-6 -10.5,-6 -2.5,0 -5.6,0.7 -6.8,1.6 m 10.6,6.6 c 0.7,0.7 1.2,2.1 1.2,3.3 0,2.9 -1.9,4.5 -5.2,4.5 -3.6,0 -5.6,-3.6 -3.9,-6.9 1.3,-2.3 5.9,-2.9 7.9,-0.9"
       id="path8"
       style="stroke-width:0.303466" />
    <path
       d="m 158.37328,246.19013 c -4.6,2.8 -6.8,8.2 -5.3,13.1 0.6,2.1 2.3,4.7 3.6,5.7 l 2.5,2 v 39.4 l -2.5,2 c -3.7,2.9 -5.1,8.5 -3.2,13.1 5,11.9 22.7,9 22.7,-3.8 0,-4 -3.1,-10.5 -5,-10.5 -0.6,0 -1,-7.1 -1,-20 v -19.9 l 2.5,-2.6 2.6,-2.5 h 19.7 c 19.4,0.1 19.7,0.1 22.5,2.5 l 2.7,2.4 v 39.3 l -2.5,2 c -3.7,2.9 -5.1,8.5 -3.2,13.1 5,11.9 22.7,9 22.7,-3.8 0,-4 -3.1,-10.5 -5,-10.5 -0.6,0 -1,-7.1 -1,-19.9 v -19.9 l 3,-3 c 5.3,-5.4 3.7,-15.2 -3.1,-18.8 -4.9,-2.5 -11.4,-1.2 -14.8,3 -1.1,1.4 -4.4,1.6 -21.7,1.6 -13.1,0 -20.4,-0.4 -20.4,-1 0,-1.7 -6.3,-5 -9.5,-5 -1.6,0 -4.5,0.9 -6.3,2 m 9.2,6.6 c 2.2,2.1 2,6.1 -0.3,7.4 -3.1,1.6 -4.9,1.2 -6.7,-1.5 -1.5,-2.3 -1.5,-2.7 0,-5 1.9,-2.9 4.7,-3.2 7,-0.9 m 0,61.3 c 2.5,2.8 1.7,6.4 -1.8,7.6 -2.4,0.8 -3.1,0.6 -4.7,-1.4 -2.4,-2.9 -2.4,-3.6 0.1,-6.1 2.5,-2.5 4.2,-2.5 6.4,-0.1 m 267.6,-69.2 c -2.8,1 -5.9,4.6 -7,7.9 -2.3,6.8 2.5,14.1 9.7,15.1 4.3,0.6 10,-1.6 11,-4.3 1,-2.7 7.8,-1.7 11.8,1.7 4.7,4.2 4.7,7.4 -0.3,12.2 -4.8,4.6 -8.1,4.8 -12.9,0.7 -6,-5.3 -15.4,-3.5 -18.8,3.6 -4.5,9.5 5.2,20.1 14.8,16 1.8,-0.7 4.1,-2.3 5.1,-3.5 1.5,-1.7 3,-2.1 7.5,-2.1 5.7,0 5.7,0 12.3,-6.8 l 6.6,-6.7 0.5,-7.1 0.6,-7.1 -7.2,-7.1 -7.2,-7.2 h -6.2 c -4.2,0 -6.2,-0.4 -6.6,-1.3 -1.2,-3.1 -9.6,-5.5 -13.7,-4 m 7.8,38.5 c 1.6,1.6 1.5,5.3 -0.2,6.7 -2.2,1.9 -6.8,0.9 -7.7,-1.5 -1.6,-4.5 4.6,-8.5 7.9,-5.2 m -345.899995,-6.7 c -2.8,1.5 -5.9,7 -5.9,10.5 0,3 2.6,7.7 5,9 1.9,1 2,2.1 2,20.7 v 19.7 l -3,3.1 c -5.9,6.1 -4.3,14.9 3.3,18.8 11.299995,5.8 22.199995,-9 13.699995,-18.6 l -3,-3.5 v -38.6 l 2.8,-2.9 c 2.3,-2.4 2.7,-3.7 2.7,-8.3 0,-5 -0.3,-5.9 -3.3,-8.5 -3.7,-3.3 -9.7,-3.9 -14.299995,-1.4 m 9.899995,67.7 c 0.7,0.7 1.2,2.1 1.2,3.3 0,2.9 -1.9,4.5 -5.2,4.5 -3.599995,0 -5.599995,-3.6 -3.899995,-6.9 1.299995,-2.3 5.899995,-2.9 7.899995,-0.9 m 171.6,-65.8 c -2.9,2.9 -3.4,4.1 -3.4,8 0,8.8 8.4,14.5 16.4,11.2 1.9,-0.8 4.1,-2.4 4.8,-3.5 1.2,-2 2.1,-2.1 19.8,-2.1 h 18.6 l 3.7,3.8 3.7,3.8 v 36.6 l -3,3.5 c -8.3,9.5 1.8,23.8 13.4,18.9 7.6,-3.2 9.6,-12.9 3.8,-18.9 l -3.2,-3.3 v -42 l -6.8,-6.7 -6.8,-6.7 h -41.6 l -3.5,-3 c -2.7,-2.4 -4.3,-3 -7.9,-3 -3.9,0 -5.1,0.5 -8,3.4 m 215.1,-1.2 c -6,4.7 -6.6,12.5 -1.4,17.8 4.1,4.1 3.8,7.7 -0.9,12.3 -4.8,4.7 -9.2,5 -13.5,0.9 -2.3,-2.2 -3.7,-2.7 -7.8,-2.7 -4.6,0 -5.4,0.4 -8.5,3.7 -2.5,2.8 -3.4,4.7 -3.4,7.3 0,4.1 2.2,9 4.5,9.8 1.3,0.5 1.5,3.5 1.5,20 v 19.3 l -3.3,3.2 c -2.6,2.5 -4.1,3.2 -7.4,3.2 -2.5,0 -4.3,-0.5 -4.6,-1.3 -0.3,-0.8 -2.2,-2.2 -4.2,-3.1 -13.1,-6.2 -23.4,11.3 -12,20.2 4.5,3.5 12.6,2.4 16.4,-2.2 0.9,-1.1 3.1,-1.6 6.9,-1.6 h 5.7 l 7.2,-7.2 7.3,-7.2 v -21.2 c 0,-20.7 0,-21.1 2.3,-23.2 1.9,-1.8 3.5,-2.2 8.3,-2.2 h 6 l 6.7,-6.8 6.7,-6.8 v -5.8 c 0,-5.1 0.4,-6.3 3,-9.3 2.4,-2.7 3,-4.3 3,-7.9 0,-3.9 -0.5,-5.1 -3.4,-8 -2.9,-2.9 -4.1,-3.4 -7.9,-3.4 -3,0 -5.3,0.7 -7.2,2.2 m -51.3,97.5 c 3.5,3.1 1.7,8.3 -2.8,8.3 -2.1,0 -5.4,-3.3 -5.4,-5.2 0,-1.2 3.9,-4.8 5.2,-4.8 0.6,0 2,0.7 3,1.7"
       id="path9"
       style="stroke-width:0.303466" />
    <path
       d="m 281.47328,306.69013 c -5.7,2.4 -8.3,12.2 -4.7,17.3 3.8,5.5 12.3,6.8 17.3,2.7 6.3,-5.4 6,-14.6 -0.8,-19.2 -3.9,-2.6 -7.2,-2.8 -11.8,-0.8 m 31.2,-0.6 c -4.5,2 -7,6 -7,11.3 0,4.4 0.4,5.3 3.7,8.4 2.8,2.5 4.7,3.4 7.3,3.4 7.4,0 12.5,-5.1 12.5,-12.5 0,-5.1 -5.1,-10.5 -10.5,-11 -2.2,-0.3 -4.9,-0.1 -6,0.4 m -155.4,32.7 c -1.7,1.4 -3.6,4.3 -4.2,6.4 -1,3.3 -0.9,4.4 0.8,7.6 4,7.7 12.7,9.2 18.8,3.3 l 3.1,-2.9 h 19.7 c 18.1,0 19.7,0.1 20.6,1.9 0.6,1 2.6,2.6 4.6,3.5 8.1,3.9 16.5,-1.8 16.5,-11.2 0,-3.7 -0.6,-5 -3.4,-7.8 -2.9,-2.9 -4.1,-3.4 -8,-3.4 -3.6,0 -5.2,0.6 -7.9,3 l -3.5,3 h -38.4 l -3.5,-3 c -4.5,-4 -10.7,-4.2 -15.2,-0.4 m 122,0 c -5.5,4.6 -5.9,12.4 -1,17.4 l 2.9,2.8 v 36.8 l -3.8,3.7 c -3.2,3.2 -4.4,3.7 -8.3,3.7 -4.2,0 -4.8,0.4 -11.7,7.3 l -7.2,7.2 v 71.9 l -2.6,2.7 c -7.2,7.5 -1.8,19.9 8.6,19.9 10.4,0 15.8,-12.4 8.6,-19.9 l -2.6,-2.7 v -68 l 3.8,-3.7 c 3.2,-3.2 4.4,-3.7 8.3,-3.7 4.2,0 4.9,-0.4 11.2,-6.8 l 6.7,-6.8 v -21.2 c 0,-18.2 0.2,-21.3 1.5,-21.9 2.4,-0.9 4.5,-5.8 4.5,-10.4 0,-9.3 -11.6,-14.5 -18.9,-8.3 m 10.9,5.8 c 1.6,2.1 0.9,5.6 -1.5,7.2 -4.1,2.7 -8.8,-3.9 -5.3,-7.4 1.6,-1.6 5.3,-1.5 6.8,0.2"
       id="path10"
       style="stroke-width:0.303466" />
    <path
       d="m 310.57328,338.09013 c -6,3.7 -7,12.8 -1.9,18.1 l 2.5,2.6 v 53 l -3.3,3.2 c -2.7,2.6 -4.1,3.2 -7.8,3.2 -4.2,0 -4.8,0.4 -11.7,7.3 l -7.2,7.2 v 13.1 c 0,12.7 -0.1,13.1 -2.5,15.4 -4.9,4.6 -5.1,12.1 -0.4,17.1 3.7,3.9 4.1,10.8 0.9,13 -2.9,2 -5,8.5 -3.9,12.3 3.2,11.4 19.7,11.3 22.8,-0.1 1.2,-4.2 -1,-10.7 -4,-12.4 -2.5,-1.3 -2.8,-10.6 -0.4,-11.6 2.4,-0.9 4.5,-5.7 4.5,-10.2 0,-3.1 -0.7,-4.9 -3,-7.4 -2.9,-3.4 -3,-3.7 -3,-13.9 v -10.4 l 3.8,-3.7 c 3.2,-3.2 4.4,-3.7 8.3,-3.7 4.2,0 4.8,-0.4 11.7,-7.3 l 7.2,-7.2 v -56.9 l 2.6,-2.7 c 1.5,-1.6 2.8,-4.3 3.1,-6.7 1.3,-9.9 -9.5,-16.7 -18.3,-11.3 m -304.1999952,29.8 c -4.1,2 -6.19999998,5.9 -6.19999998,11.3 0,3.3 0.6,4.8 2.99999998,7.2 l 3,3 v 19.9 c 0,17 -0.2,20 -1.5,20.6 -2.4,0.9 -4.49999998,5.8 -4.49999998,10.4 0,3.3 0.6,4.7 3.39999998,7.5 2.9,2.9 4.1,3.4 7.9000002,3.4 11.2,0 16.7,-14.2 8.1,-20.9 -2.4,-1.9 -2.4,-1.9 -2.4,-21.2 v -19.3 l 2.7,-2.8 2.7,-2.8 h 37.2 l 3.7,3.8 3.7,3.8 v 34.2 c 0,22.5 -0.3,34.2 -1,34.2 -1.8,0 -5,6.4 -5,9.8 0,13.4 18.8,16.4 23,3.7 1.4,-4.3 0.1,-9.2 -3.5,-12.5 l -2.5,-2.3 v -73.4 l -6.9,-6.7 -7,-6.7 -21.2,0.1 c -18.4,0.1 -21.4,-0.1 -22.1,-1.4 -1.2,-2.1 -6.1,-4.6 -9,-4.6 -1.3,0 -3.8000002,0.8 -5.6000002,1.7 m 7.9000002,67.3 c 2.3,1.3 2.6,6.2 0.5,8 -1.9,1.5 -5.6000002,0.9 -6.9000002,-1.1 -1.4,-2.2 -0.1,-6.7 2.1,-7.2 0.9000002,-0.3 1.8000002,-0.5 2.0000002,-0.6 0.2,0 1.2,0.4 2.3,0.9 m 62.4,32.4 c 1.9,2.9 0.8,6.1 -2.6,7.1 -4.1,1.3 -7.8,-5.2 -4.7,-8.3 2,-2 5.6,-1.4 7.3,1.2 m 22.5,-100.3 c -6.5,2.6 -9.1,8.7 -6.6,15.3 3.1,8 13.299995,10.2 19.499995,4.2 l 2.7,-2.6 h 37 l 3.7,3.8 3.7,3.8 v 36.6 l -2.9,2.8 c -5,5 -4.7,12.6 0.8,17.4 2,1.8 2.1,2.8 2.1,20.6 v 18.6 l -3.8,3.7 c -4.7,4.6 -9.3,5.1 -12.4,1.2 -2.7,-3.5 -8.8,-5 -13,-3.2 -1.8,0.8 -4.2,2.4 -5.2,3.6 -3.1,3.4 -7.5,2.8 -11.9,-1.7 l -3.7,-3.8 v -36.6 l 3,-3.5 c 5.3,-6 3.4,-15.4 -3.8,-18.9 -11.899995,-5.6 -22.699995,10.3 -13.099995,19.4 l 2.9,2.7 v 42.1 l 6.799995,6.7 6.8,6.7 h 6.2 c 3.5,0 6.2,0.4 6.2,1 0,1.9 6.4,5 10.2,5 2.7,0 4.7,-0.8 7.1,-3 3,-2.6 4.2,-3 9.4,-3 h 5.9 l 6.7,-6.8 6.7,-6.8 v -41.6 l 3,-3.5 c 2.4,-2.6 3,-4.3 3,-7.8 0,-3.5 -0.6,-5.2 -3,-7.8 l -3,-3.5 v -41.7 l -7.2,-7.2 -7.2,-7.3 h -21.3 c -17.3,0 -21.3,-0.3 -22,-1.4 -1.1,-1.9 -6.3,-4.6 -8.8,-4.5 -1.1,0 -3.1,0.5 -4.499995,1 m 6.799995,7.5 c 2.4,1.7 2.9,5.3 1,7.2 -1.9,1.9 -5.5,1.4 -7.199995,-1 -2,-2.9 -2,-3.4 0.399995,-5.8 2.4,-2.4 2.9,-2.4 5.8,-0.4 m 63,64.3 c 0.7,4.8 -5.3,7 -8.1,3 -1.9,-2.6 -1.1,-5.8 1.7,-6.9 2.7,-1 6,1 6.4,3.9 m 52.2,-71.8 c -3.9,1.6 -5.9,3.9 -7,8 -1.2,4.4 0.3,9.1 3.9,12.3 2.1,1.9 2.1,2.1 2.1,51.8 v 50 l -2.9,2.8 c -7.6,7.6 -2.3,20 8.6,20 3.8,0 5,-0.5 7.9,-3.4 2.9,-2.9 3.4,-4.1 3.4,-8 0,-3.6 -0.6,-5.2 -3,-7.9 l -3,-3.5 v -99.4 l 3,-3.5 c 5.3,-6 3.4,-16 -3.5,-18.9 -3.9,-1.6 -6,-1.7 -9.5,-0.3 m 7.8,130.1 c 0.7,0.7 1.2,2.1 1.2,3.3 0,1.2 -0.5,2.6 -1.2,3.3 -0.7,0.7 -2.1,1.2 -3.3,1.2 -1.2,0 -2.6,-0.5 -3.3,-1.2 -0.7,-0.7 -1.2,-2.1 -1.2,-3.3 0,-1.2 0.5,-2.6 1.2,-3.3 0.7,-0.7 2.1,-1.2 3.3,-1.2 1.2,0 2.6,0.5 3.3,1.2 m 174.7,-129.6 c -1.6,0.8 -3.4,2.2 -3.8,3 -0.7,1.1 -4.7,1.4 -22,1.4 h -21.3 l -7.2,7.3 -7.2,7.2 v 71.7 l -3,3.5 c -7.5,8.5 0.1,22.2 11,19.8 9.7,-2.1 12.8,-13.6 5.5,-20.5 l -2.5,-2.3 v -67.3 l 3.8,-3.7 3.8,-3.7 h 18.6 c 18.7,0 18.7,0 21.3,2.5 2.1,2.2 2.5,3.5 2.5,8.3 v 5.8 l 6.8,6.7 6.8,6.7 h 5.8 c 5,0 6.1,0.3 7.8,2.5 2.7,3.5 8.8,5.2 12.8,3.5 5,-2.1 8,-6.4 8,-11.7 0,-3.9 -0.5,-5 -3.6,-7.9 -4.9,-4.6 -10.8,-4.8 -15.7,-0.4 -5,4.3 -9.2,4.1 -14,-0.8 -4.6,-4.7 -4.8,-8.1 -0.7,-12.8 1.6,-1.9 3.3,-4.6 3.6,-6 0.9,-3.7 -1.7,-9.6 -5.5,-12.1 -4,-2.7 -7.4,-2.9 -11.6,-0.7 m 8.5,7.4 c 1.1,1.1 2,2.5 2,3.2 0,2 -3.2,4.8 -5.5,4.8 -4.6,0 -6.2,-5.7 -2.3,-8.4 2.9,-2 3.4,-2 5.8,0.4 m 84,-7.9 c -3.9,1.6 -5.9,3.9 -7,8 -1.2,4.4 0.3,9.1 3.9,12.3 2.1,1.9 2.1,2.1 2.1,51.8 v 50 l -2.9,2.8 c -7.6,7.6 -2.3,20 8.6,20 3.8,0 5,-0.5 7.9,-3.4 2.8,-2.8 3.4,-4.2 3.4,-7.5 0,-4.6 -2.1,-9.5 -4.5,-10.4 -1.3,-0.6 -1.5,-6.6 -1.5,-51.1 v -50.4 l 3,-3 c 5.3,-5.4 3.6,-15.3 -3.4,-18.6 -3.8,-1.8 -6,-1.9 -9.6,-0.5 m 7.2,7.6 c 3.4,3.1 1.7,8.3 -2.7,8.3 -6,0 -6,-9.8 -0.1,-10 0.5,0 1.8,0.7 2.8,1.7"
       id="path11"
       style="stroke-width:0.303466" />
    <path
       d="m 35.973285,398.99013 c -3,1.8 -5.8,6.7 -5.8,10.2 0,5.5 6.5,12 12.1,12 3.3,0 9,-3.8 10.6,-7 5.3,-10.5 -6.9,-21.5 -16.9,-15.2 m 10.7,8.6 c 0.8,2.4 0.6,3.1 -1.4,4.7 -2.9,2.4 -3.6,2.4 -6.1,-0.1 -2.4,-2.4 -2.5,-4.3 -0.4,-6.5 2.5,-2.5 6.7,-1.5 7.9,1.9 m 49,-7.1 c -4.2,4.2 -5.2,7.7 -3.3,12.5 3.2,8.4 12.799995,10.5 19.199995,4.3 4.5,-4.4 8.2,-4.2 12.9,0.7 4.8,4.9 5,9 0.7,13.9 -6.7,7.5 -1.4,19.3 8.6,19.3 6.6,0 12.4,-5.6 12.4,-12.2 0,-2.8 -3.4,-8.6 -5.6,-9.5 -1.2,-0.4 -1.4,-1.6 -0.8,-5.9 l 0.6,-5.4 -7.3,-7.5 -7.2,-7.5 h -6.4 c -3.6,0 -6.3,-0.4 -6.3,-1 0,-1.9 -6.5,-5 -10.3,-5 -3.099995,0 -4.599995,0.7 -7.199995,3.3 m 93.299995,-1.7 c -6.3,3.4 -7.7,12.2 -2.8,17.7 l 3,3.5 v 69.4 l -3,3.5 c -6.7,7.6 -1.6,19.3 8.5,19.3 5.7,0 10.1,-3 11.6,-7.9 1.4,-4.8 0.7,-8 -2.6,-11.9 l -2.5,-3 v -69.6 l 2.5,-2.6 c 7.2,-7.5 1.7,-20.1 -8.7,-20 -1.8,0.1 -4.5,0.7 -6,1.6 m 9.6,7 c 0.9,0.8 1.6,2.2 1.6,3 0,1.5 -3.5,5.4 -4.8,5.4 -1.6,0 -5.2,-3.2 -5.2,-4.6 0,-4.8 5.1,-7.1 8.4,-3.8 m 172.2,-5.5 c -5.6,4.9 -5.8,12.7 -0.5,17.5 1.7,1.6 1.9,3.3 1.9,21.9 v 20.2 l -2.5,2.3 c -5.3,4.9 -3.9,14 2.7,18 10.8,6.5 22.4,-5.9 15.8,-16.8 -1.1,-1.7 -2.4,-3.2 -3,-3.2 -0.6,0 -1,-7.2 -1,-20.1 v -20.1 l 3,-3.5 c 9.6,-10.9 -5.5,-25.9 -16.4,-16.2 m 11.2,5.1 c 3.1,3.1 -0.6,9.6 -4.7,8.3 -1.2,-0.3 -2.6,-1.5 -3.2,-2.6 -2.3,-4.3 4.4,-9.2 7.9,-5.7 m -0.4,61.4 c 2.1,2.1 2,4.7 -0.3,6.8 -4.1,3.7 -9.7,-1.4 -6.6,-6 1.8,-2.8 4.6,-3.1 6.9,-0.8 m -344.099995,-38.1 c -3.6,1.5 -7.3,6.8 -7.3,10.3 0,4 2.8,9 5.9,10.6 9.1,4.8 18.8,-1.3 17.8,-11.2 -0.5,-4.9 -2.8,-7.9 -7.4,-9.8 -4,-1.7 -4.9,-1.7 -9,0.1 m 367.099995,-0.1 c -9.3,4.1 -10,16.6 -1.3,21.2 4.6,2.3 9.4,1.8 13.2,-1.6 5,-4.3 9.2,-4.1 14,0.8 l 3.7,3.8 v 36.6 l -3,2.9 c -3.8,3.9 -4.7,8.6 -2.5,13.3 2.1,4.4 5.9,6.6 11.6,6.6 3.3,0 4.7,-0.6 7.5,-3.4 2.9,-2.9 3.4,-4.1 3.4,-8 0,-3.6 -0.6,-5.2 -3,-7.9 l -3,-3.5 v -41.8 l -6.8,-6.7 -6.8,-6.7 h -5.9 c -5,0 -6.2,-0.4 -7.3,-2.1 -1.3,-2 -6.9,-4.9 -9.4,-4.9 -0.7,0.1 -2.7,0.7 -4.4,1.4 m 7.6,7.6 c 1.1,1.1 2,2.5 2,3.2 0,2 -3.2,4.8 -5.5,4.8 -4.6,0 -6.2,-5.7 -2.3,-8.4 2.9,-2 3.4,-2 5.8,0.4 m 30.8,61.2 c 2.9,2.9 0.7,7.8 -3.5,7.8 -3.2,0 -5.8,-4.2 -4.3,-6.9 1.2,-2.4 5.8,-2.9 7.8,-0.9 m 22.6,-68.8 c -7.8,3.5 -9.9,12.7 -4.4,18.6 l 3,3.2 v 39 l -3,3.5 c -8.8,10 3.5,24.4 15.1,17.6 3.1,-1.8 5.9,-6.7 5.9,-10.3 0,-2.7 -2.5,-7.5 -4.7,-9.2 -1.6,-1.2 -1.8,-3.5 -2,-20.9 l -0.2,-19.5 2.9,-2.8 c 9.4,-8.8 -0.9,-24.5 -12.6,-19.2 m 7.6,7.6 c 2.4,2.4 2.5,4.3 0.4,6.5 -2.5,2.5 -6.7,1.5 -7.9,-1.9 -0.8,-2.4 -0.6,-3.1 1.4,-4.7 2.9,-2.4 3.6,-2.4 6.1,0.1 m -467.6999952,23.9 c -1.7,1.1 -3.7,2.9 -4.2,4 -2.4,4.5 -0.29999998,14 3.4,15.4 1.1,0.5 1.5,2.2 1.5,6.9 v 6.4 l 6.8000002,6.7 6.8,6.7 h 6.2 c 3.5,0 6.2,0.4 6.2,1 0,1.9 6.5,5 10.5,5 7.2,0 12.2,-5.9 11.2,-13.2 -0.6,-4.6 -2.9,-7.5 -7.5,-9.5 -4.2,-1.8 -10.3,-0.3 -13,3.2 -3.1,3.9 -7.9,3.4 -12.5,-1.3 -4.6,-4.7 -5.1,-9.3 -1.2,-12.4 5,-3.9 5.1,-13 0.1,-17.7 -3.5,-3.3 -10.1000002,-3.8 -14.3000002,-1.2 m 40.5000002,37.3 c 0.7,0.7 1.2,2.1 1.2,3.3 0,2.9 -1.9,4.5 -5.2,4.5 -3.6,0 -5.6,-3.6 -3.9,-6.9 1.3,-2.3 5.9,-2.9 7.9,-0.9"
       id="path12"
       style="stroke-width:0.303466" />
    <path
       d="m 309.77328,461.29013 c -5.6,4.9 -5.8,12.7 -0.5,17.5 1.4,1.3 1.9,3.1 1.9,7.3 v 5.6 l 7.2,7.2 7.2,7.3 h 72.4 l 3,3 c 5.5,5.4 15.3,3.5 18.7,-3.6 5.9,-12.4 -10.1,-22.9 -19.5,-12.9 l -2.3,2.5 h -67.3 l -3.7,-3.8 c -4.8,-4.9 -5,-9 -0.7,-13.9 9.6,-10.9 -5.5,-25.9 -16.4,-16.2 m 10.8,5.5 c 2.1,2 2,4.3 -0.1,6.6 -2,2.2 -4.1,2.3 -6.5,0.1 -2.2,-2 -2.3,-4.1 -0.1,-6.5 2,-2.2 4.6,-2.3 6.7,-0.2"
       id="path13"
       style="stroke-width:0.303466" />
  </g>
</svg>
