<?xml version="1.0" encoding="UTF-8" standalone="no"?>
<svg
   width="160mm"
   height="160mm"
   viewBox="0 0 604.72441 604.72441"
   version="1.1"
   id="svg20"
   sodipodi:docname="dalmatian-spots.svg"
   inkscape:version="1.3 (0e150ed, 2023-07-21)"
   xmlns:inkscape="http://www.inkscape.org/namespaces/inkscape"
   xmlns:sodipodi="http://sodipodi.sourceforge.net/DTD/sodipodi-0.dtd"
   xmlns="http://www.w3.org/2000/svg"
   xmlns:svg="http://www.w3.org/2000/svg">
  <defs
     id="defs20" />
  <sodipodi:namedview
     id="namedview20"
     pagecolor="#ffffff"
     bordercolor="#666666"
     borderopacity="1.0"
     inkscape:showpageshadow="2"
     inkscape:pageopacity="0.0"
     inkscape:pagecheckerboard="0"
     inkscape:deskcolor="#d1d1d1"
     inkscape:document-units="mm"
     inkscape:zoom="0.26444444"
     inkscape:cx="376.2605"
     inkscape:cy="298.7395"
     inkscape:window-width="1376"
     inkscape:window-height="449"
     inkscape:window-x="0"
     inkscape:window-y="38"
     inkscape:window-maximized="0"
     inkscape:current-layer="g20" />
  <g
     fill-opacity="1"
     id="g20">
    <path
       fill="#000000"
       d="m 287.99243,251.79664 c -1.2,-22.8 -13.5,-42.7 -40.8,-41.1 -18.3,1.1 -35.9,3.6 -47.5,20.1 -5.2,7.4 -10.6,15.6 -11.4,24.9 -0.5,5.8 0.2,12 1.2,17.7 9,49.6 85.3,46.7 96.4,0.2 1.8,-7.1 2.5,-14.6 2.1,-21.8 z"
       id="path1" />
    <path
       fill="#000000"
       d="M 137.2,481.3 C 124,471.4 106,468 88.7,478.1 c -12.6,7.3 -19.1,17.4 -21.1,28.2 -0.7,2.4 -1.2,4.7 -1.5,7 -8.2,35.4 33.7,78.9 72.6,48.6 28.9,-22.6 25.7,-60.3 -1.5,-80.6 z"
       id="path2" />
    <g
       fill="#000000"
       id="g4">
      <path
         d="m 536.55546,516.45126 c -7.1,-34.2 -61.6,-52.7 -87.5,-16.9 -11.2,11.3 -12.7,26.3 -7.6,39.7 1.8,7.5 5.5,13.9 10.4,19.1 19.4,20.3 53.4,26.2 72.8,1.9 9.9,-12.4 17.9,-27.9 11.9,-43.8 z"
         id="path3" />
      <path
         d="m 457.1437,60.148738 c -7.1,-34.2 -61.6,-52.700001 -87.5,-16.9 -11.2,11.3 -12.7,26.3 -7.6,39.7 1.8,7.500004 5.5,13.900007 10.4,19.100002 19.4,20.29999 53.4,26.19999 72.8,1.9 9.9,-12.399998 17.9,-27.900002 11.9,-43.800002 z"
         id="path4" />
    </g>
    <path
       fill="#000000"
       d="m 488.73613,82.318488 c -10.2,15.5 -9.3,34.200002 -0.9,50.400002 2.6,5 6.2,9.5 10.4,13.2 14.2,12.6 35.5,17.1 53.2,9.5 14.3,-6.1 23.9,-19.8 26.7,-34.7 19.6,-48.900002 -58.1,-86.000002 -89.4,-38.400002 z"
       id="path8" />
    <path
       fill="#000000"
       d="m 487.11092,356.57731 c -17.3,22.6 -11.8,59 17.5,75.3 22.6,12.6 52.2,1.7 63.8,-20.9 21.4,-42 -9.2,-85 -56.5,-71 -10.8,3.2 -19,9.1 -24.8,16.6 z"
       id="path9" />
    <path
       fill="#000000"
       d="m 546.8958,224.73698 c -0.5,-0.4 -1,-0.8 -1.4,-1.2 -16.5,-12.8 -30.2,-22.1 -50.3,-8.4 -15.5,10.6 -29,30.3 -31.4,49.1 -4.2,33.6 30.6,46.9 58.6,40.6 36.7,-8.2 57.7,-52.9 24.5,-80.1 z"
       id="path10" />
    <path
       fill="#000000"
       d="m 380.3479,163.06723 c -36.5,1.3 -74.1,41.8 -43.1,74.3 19.8,20.9 54.4,20.7 74.6,0.5 20.5,-20.4 18.4,-53.1 -6.9,-68.6 -7.5,-4.6 -16,-6.5 -24.6,-6.2 z"
       id="path11" />
    <path
       fill="#000000"
       d="m 279.95546,75.941176 c -0.1,-0.1 -0.1,-0.1 -0.2,-0.2 -14.2,-16.9 -38.3,-25.6 -61.4,-12.3 -13.5,7.8 -20.5,18.7 -22.7,30.2 -5.7,18.000004 1.5,34.200004 14.2,44.800004 15.4,16.8 40.3,24.1 64.2,5.5 9.6,-7.4 15,-16.3 17.2,-25.4 6,-16.8 0.1,-32.000004 -11.3,-42.600004 z"
       id="path12" />
    <path
       fill="#000000"
       d="m 373.72185,489.75966 c -16.9,-14.5 -41.8,-21.5 -61.7,-9.5 -18.3,11.1 -1,100.1 32.2,93.5 23.8,-4.7 45.3,-22.4 48.1,-44.3 1.9,-14.2 -6.2,-29 -18.6,-39.7 z"
       id="path13" />
    <path
       fill="#000000"
       d="m 104.31092,189.18487 c -12,-4.3 -25.399995,-2.1 -38.699995,11.4 -17.3,17.5 -26.9,47.7 -7.9,67.6 21.3,22.3 86.899995,27.5 89.599995,-14.9 0.5,-8.9 -2.7,-17.9 -6.5,-25.8 -8.4,-17 -21.4,-32.8 -36.5,-38.3 z"
       id="path14" />
    <path
       fill="#000000"
       d="m 262.59244,373.56639 c -0.3,-0.4 -0.7,-0.7 -1,-1 -19.3,-17.6 -59.1,-0.6 -78.1,10.3 -23.8,13.7 -8.2,41.1 5.4,55.8 16.3,17.6 42.7,25.2 68,5.8 15.5,-11.9 19.7,-55.8 5.7,-70.9 z"
       id="path15" />
    <path
       fill="#000000"
       d="m 122.77395,53.477312 c -10.4,-25.7 -43.300001,-32.1 -67.000001,-23.6 -10.8,3.8 -20.9,11.2 -25.8,22 -21.1999995,47.299995 44.9,81.099998 78.500001,50.999998 9.5,-8.500003 17.3,-18.900003 17.4,-32.399998 0,-6.4 -1.1,-12.1 -3.1,-17 z"
       id="path16" />
    <path
       fill="#000000"
       d="m 332.95546,337.64118 c -10,14.9 -9.2,34.1 -0.9,49.5 3.4,6.3 8.6,13.8 16.1,15.8 7.1,1.9 15.1,0.7 22.1,-0.6 15.7,-3 45.6,-10.5 52.3,-26.8 19.6,-48.2 -58.3,-84.7 -89.6,-37.9 z"
       id="path17" />
    <g
       fill="#000000"
       id="g19"
       transform="translate(64.285713,11.344538)">
      <path
         d="m -29.2,431.8 c 23.4,12.4 54.1,1.7 66.1,-20.6 9.6,-17.8 10.4,-40.4 -3.3,-56.5 -10.5,-12.4 -44.2,-25.8 -58.5,-11.3 -3,3.1 -5.1,7.1 -6.9,10.9 -9.3,18.9 -23.2,63.8 2.6,77.5 z"
         id="path18" />
    </g>
  </g>
</svg>
