<?xml version="1.0" encoding="UTF-8" standalone="no"?>
<svg
   version="1.0"
   width="451.55554mm"
   height="450.85001mm"
   viewBox="0 0 1280 1278"
   preserveAspectRatio="xMidYMid"
   id="svg1"
   sodipodi:docname="diamonds.svg"
   xmlns:inkscape="http://www.inkscape.org/namespaces/inkscape"
   xmlns:sodipodi="http://sodipodi.sourceforge.net/DTD/sodipodi-0.dtd"
   xmlns="http://www.w3.org/2000/svg"
   xmlns:svg="http://www.w3.org/2000/svg">
  <defs
     id="defs1" />
  <sodipodi:namedview
     id="namedview1"
     pagecolor="#ffffff"
     bordercolor="#666666"
     borderopacity="1.0"
     inkscape:showpageshadow="2"
     inkscape:pageopacity="0.0"
     inkscape:pagecheckerboard="0"
     inkscape:deskcolor="#d1d1d1"
     inkscape:document-units="mm" />
  <metadata
     id="metadata1">&#10;Created by potrace 1.15, written by Peter Selinger 2001-2017&#10;</metadata>
  <g
     transform="matrix(0.1,0,0,-0.1,0,1278)"
     fill="#000000"
     stroke="none"
     id="g1">
    <path
       d="m 23,12704 c 19,-224 138,-445 315,-586 115,-91 315,-178 413,-178 56,-1 49,-17 -10,-24 -258,-29 -515,-220 -636,-471 -61,-127 -80,-212 -79,-370 0,-160 13,-221 75,-353 122,-262 350,-436 635,-485 l 79,-14 -58,-7 C 424,10173 144,9927 48,9593 16,9481 16,9269 48,9157 c 87,-305 305,-524 604,-607 40,-11 87,-20 105,-20 17,0 35,-4 38,-10 4,-6 -8,-10 -27,-10 -19,0 -60,-7 -92,-15 C 367,8414 133,8188 50,7887 25,7798 12,7660 29,7660 c 6,0 11,-18 11,-45 0,-25 7,-81 16,-123 67,-328 332,-590 666,-658 l 86,-18 -85,-17 C 528,6759 370,6665 235,6508 21,6259 -25,5868 126,5580 c 125,-240 353,-409 613,-454 75,-13 75,-13 36,-20 C 570,5069 444,5008 308,4881 147,4730 40,4503 40,4310 c 0,-44 -2,-50 -21,-50 -20,0 -21,-3 -14,-68 21,-207 94,-368 233,-514 128,-133 284,-220 455,-253 37,-7 70,-15 73,-18 2,-2 -19,-7 -48,-10 C 594,3382 423,3304 313,3211 127,3055 23,2844 5,2585 -9,2371 73,2147 229,1978 357,1839 522,1748 705,1716 l 70,-13 -50,-8 C 521,1663 303,1534 181,1374 116,1287 57,1167 29,1064 -5,943 -2,747 34,627 125,323 358,97 656,23 c 99,-24 295,-24 394,1 331,82 587,354 644,683 l 13,78 7,-55 c 4,-30 21,-95 37,-145 88,-266 298,-468 574,-551 79,-24 107,-27 225,-27 118,0 146,3 225,27 165,50 313,146 416,270 69,83 152,244 173,336 8,36 19,83 24,105 l 10,40 1,-34 c 3,-100 75,-283 155,-394 126,-177 328,-305 541,-342 211,-37 406,1 603,117 85,49 228,198 281,291 52,93 97,218 109,307 5,36 10,53 11,39 3,-59 51,-220 89,-295 222,-442 771,-605 1193,-354 92,55 217,174 279,266 55,83 103,199 120,294 19,100 22,101 36,16 28,-159 103,-304 223,-429 C 7187,112 7370,23 7580,4 l 73,-7 -6,79 c -18,218 -133,437 -305,580 -85,70 -241,148 -341,169 -42,9 -89,20 -106,25 l -30,8 34,1 c 43,1 141,26 211,53 141,54 294,175 386,305 75,104 111,196 150,378 6,26 9,19 19,-41 16,-92 30,-133 73,-219 114,-231 312,-393 556,-455 44,-11 94,-20 113,-20 51,0 39,-16 -16,-23 -73,-9 -196,-53 -280,-100 C 8021,686 7881,553 7822,460 7748,345 7691,168 7690,53 V 0 h 33 c 110,0 286,53 398,120 136,81 276,235 339,373 36,79 70,199 70,245 0,20 4,31 10,27 6,-3 10,-19 10,-34 0,-41 46,-194 77,-254 86,-170 241,-322 407,-397 129,-59 207,-75 361,-74 122,1 151,4 230,28 314,95 541,343 603,661 l 16,79 13,-68 c 49,-268 217,-492 458,-612 516,-257 1120,50 1220,619 12,71 12,72 19,32 70,-413 375,-705 774,-741 l 75,-7 -7,77 c -36,398 -326,700 -741,772 -40,7 -39,7 32,19 410,72 713,428 713,840 0,321 -193,626 -485,766 -78,38 -212,78 -264,80 -32,1 -28,2 88,29 307,72 533,286 628,597 23,78 26,104 26,233 0,129 -3,155 -26,233 -103,338 -374,568 -719,610 -123,14 -130,32 -15,39 235,15 487,169 625,381 96,147 138,298 135,482 -4,248 -113,474 -308,638 -115,97 -323,186 -434,187 -50,0 -36,7 54,25 169,35 304,105 423,219 196,187 295,455 263,709 -29,227 -130,415 -299,559 -75,64 -212,139 -300,163 -31,9 -64,19 -72,22 -8,3 15,13 51,22 139,37 271,115 376,222 79,81 112,126 156,214 173,345 102,740 -181,1007 -116,109 -290,197 -423,214 -66,8 -99,23 -53,24 58,0 189,40 279,84 218,108 383,311 446,551 25,98 30,268 10,370 -68,350 -367,636 -711,681 l -54,7 86,18 c 310,64 551,274 647,564 108,327 24,660 -227,897 -275,259 -700,301 -1021,101 -142,-89 -255,-215 -326,-364 -37,-80 -74,-210 -76,-268 -1,-25 -6,-9 -19,51 -24,114 -35,148 -81,239 -104,208 -293,365 -524,435 -80,24 -106,27 -230,27 -112,0 -156,-4 -219,-22 -169,-45 -331,-148 -437,-275 -72,-87 -152,-244 -174,-346 -10,-41 -21,-88 -25,-105 l -8,-30 -1,36 c -1,53 -46,199 -82,272 -122,243 -352,416 -614,462 -110,19 -189,19 -298,0 -170,-30 -313,-102 -440,-224 -125,-119 -196,-241 -241,-411 l -23,-85 -7,49 c -13,82 -65,212 -118,293 -197,301 -517,440 -873,378 -347,-61 -629,-339 -689,-682 -9,-55 -15,-71 -19,-53 -31,145 -44,187 -81,265 -104,219 -293,379 -531,451 -79,24 -108,27 -230,28 -181,1 -298,-29 -433,-112 -203,-122 -352,-323 -398,-532 -9,-41 -19,-88 -24,-105 l -8,-30 -1,35 c -4,103 -78,293 -156,400 -54,73 -175,183 -254,230 -342,203 -791,137 -1061,-157 -112,-122 -186,-275 -213,-438 l -14,-80 -7,60 c -25,198 -148,415 -308,543 -245,194 -558,243 -848,131 -259,-100 -470,-345 -524,-610 -14,-68 -26,-86 -26,-38 0,55 -63,221 -115,306 -83,133 -221,255 -380,335 -57,29 -176,58 -264,65 l -84,6 z m 6848,-168 c 78,-259 281,-471 534,-558 47,-16 108,-32 137,-35 80,-9 87,-19 18,-26 -149,-16 -322,-101 -447,-221 -157,-148 -235,-299 -266,-511 l -13,-90 -7,76 c -32,367 -327,680 -700,743 l -71,12 80,16 c 254,50 466,204 592,428 41,73 89,219 98,300 l 8,65 8,-64 c 4,-36 17,-96 29,-135 z m 5123,-38 c 106,-304 385,-523 724,-569 4,0 -28,-7 -71,-15 -281,-51 -524,-249 -636,-518 -32,-78 -60,-191 -62,-254 -1,-22 -7,-2 -14,50 -15,100 -36,169 -78,253 -124,248 -355,424 -614,468 l -78,14 66,11 c 188,34 345,117 475,253 75,80 117,140 160,234 34,74 73,214 75,270 0,17 7,-6 15,-49 8,-43 25,-110 38,-148 z m -8549,122 c 52,-261 211,-473 445,-594 88,-46 211,-86 265,-86 23,0 27,-3 15,-10 -8,-5 -25,-10 -37,-10 -45,0 -190,-53 -263,-95 -243,-142 -396,-366 -436,-640 l -8,-50 -12,77 c -57,361 -335,641 -697,702 l -71,12 89,18 c 177,34 328,118 456,253 82,86 131,161 172,265 30,74 57,179 57,222 0,44 6,29 25,-64 z m 5144,-134 c 95,-268 345,-481 633,-540 42,-9 81,-16 85,-17 4,0 -27,-7 -70,-15 -262,-47 -504,-234 -616,-475 -28,-60 -61,-173 -77,-264 l -7,-40 -8,60 c -49,357 -333,652 -695,718 l -68,13 80,16 c 170,33 329,123 455,255 82,86 131,161 172,265 29,72 56,176 58,223 0,17 9,-7 19,-55 10,-47 28,-112 39,-144 z m 1677,96 c 56,-245 239,-467 478,-577 75,-35 175,-65 222,-66 25,0 26,-1 9,-8 -11,-5 -51,-16 -90,-25 -238,-57 -468,-252 -570,-482 -32,-72 -65,-195 -65,-243 -1,-49 -16,-21 -24,45 -32,251 -240,518 -493,629 -59,27 -184,62 -238,67 -21,2 -5,8 52,20 211,44 395,158 518,322 86,115 136,233 171,411 l 8,40 4,-35 c 2,-19 10,-63 18,-98 z m -8501,-67 c 9,-27 31,-78 48,-113 112,-230 346,-408 600,-457 37,-7 70,-15 73,-18 2,-2 -19,-7 -48,-10 -112,-13 -258,-76 -370,-159 -172,-126 -295,-329 -331,-545 l -13,-75 -13,79 c -23,137 -89,282 -180,396 -62,79 -188,178 -286,227 -80,40 -212,79 -269,81 -19,0 0,8 49,19 44,10 116,32 160,49 268,103 471,353 525,646 l 13,70 13,-70 c 6,-38 20,-92 29,-120 z m 3375,151 c 0,-54 48,-205 92,-287 110,-207 325,-374 548,-424 41,-10 89,-21 105,-25 l 30,-8 -34,-1 c -93,-3 -274,-71 -378,-142 -70,-48 -159,-135 -209,-206 -79,-110 -154,-298 -154,-389 0,-16 -5,-36 -10,-44 -7,-11 -10,-3 -10,30 0,75 -28,169 -80,275 -84,174 -217,308 -385,391 -89,44 -219,83 -279,85 -17,0 16,11 74,24 263,61 473,224 590,460 40,80 80,213 80,267 0,15 5,28 10,28 6,0 10,-15 10,-34 z m 880,-986 c 89,-303 358,-540 673,-592 l 70,-11 -94,-19 c -251,-51 -460,-205 -583,-429 -46,-84 -85,-198 -93,-272 -3,-31 -7,-56 -9,-54 -2,2 -10,37 -18,78 -51,266 -230,497 -477,614 -73,34 -207,74 -258,76 -20,1 -22,2 -6,6 188,42 271,73 372,140 207,137 343,356 379,613 l 8,55 7,-65 c 4,-37 17,-100 29,-140 z m 1731,-77 c 110,-263 342,-451 630,-512 51,-11 81,-20 66,-20 -96,-3 -316,-87 -407,-155 -62,-47 -161,-150 -202,-209 -76,-112 -146,-295 -149,-391 0,-17 -7,3 -15,46 -64,358 -326,625 -683,698 l -84,17 71,11 c 156,26 327,110 443,219 137,128 234,316 254,493 l 8,65 19,-94 c 10,-52 33,-128 49,-168 z m -6821,18 c 54,-140 143,-261 259,-353 117,-93 247,-153 390,-178 l 73,-14 -94,-18 c -153,-31 -289,-100 -411,-208 -131,-116 -247,-332 -264,-494 -7,-63 -17,-58 -26,15 -10,78 -55,201 -102,282 -121,205 -337,359 -573,407 l -84,16 74,13 c 293,52 547,263 647,538 16,43 32,101 36,128 13,101 17,104 31,22 8,-42 28,-113 44,-156 z m 1723,-44 c 44,-96 85,-156 161,-236 130,-136 268,-210 466,-250 l 85,-17 -63,-8 c -221,-25 -448,-167 -583,-362 -66,-96 -136,-287 -140,-379 0,-17 -9,8 -19,55 -23,110 -49,177 -105,273 -128,218 -370,382 -610,413 l -60,7 91,18 c 349,67 628,345 685,682 l 13,77 22,-99 c 12,-54 38,-133 57,-174 z m 8497,44 c 106,-275 357,-480 649,-532 l 75,-13 -71,-12 c -357,-60 -636,-339 -698,-697 l -12,-72 -13,75 c -35,210 -156,410 -323,535 -119,90 -300,163 -411,166 -33,1 -24,5 44,18 106,21 147,35 232,77 244,119 416,350 460,617 l 12,72 13,-78 c 7,-42 27,-113 43,-156 z m -1715,34 c 101,-292 349,-505 657,-564 l 89,-17 -78,-11 c -148,-22 -297,-89 -422,-192 -120,-98 -232,-289 -274,-467 l -23,-99 -7,55 c -27,226 -199,471 -422,603 -70,42 -216,93 -295,103 l -55,8 85,16 c 159,32 309,107 427,214 117,106 220,287 253,445 10,47 19,88 20,91 1,3 8,-26 15,-65 7,-38 21,-92 30,-120 z m -5137,89 c 36,-186 159,-374 326,-501 103,-78 212,-122 411,-166 13,-3 9,-5 -11,-6 -56,-2 -188,-42 -269,-82 -218,-106 -400,-330 -450,-554 -10,-44 -21,-93 -25,-110 l -8,-30 -1,36 c -1,54 -36,177 -70,253 -115,254 -383,456 -640,483 l -66,6 109,23 c 113,24 219,68 303,125 111,76 228,209 287,326 29,59 76,212 76,251 0,42 15,12 28,-54 z m 2592,-964 c 85,-235 278,-424 516,-506 52,-18 123,-35 157,-40 l 62,-7 -91,-18 c -256,-49 -465,-198 -593,-422 -39,-69 -88,-215 -98,-297 l -9,-65 -13,78 c -32,197 -112,349 -257,488 -121,116 -232,176 -399,214 -55,13 -90,24 -77,24 48,2 160,35 240,72 259,119 437,346 489,618 l 17,92 13,-75 c 7,-41 26,-111 43,-156 z m 5096,37 c 77,-237 264,-438 496,-530 72,-29 176,-56 223,-58 17,0 -12,-10 -64,-20 -187,-39 -335,-121 -461,-256 -121,-129 -193,-272 -223,-443 -8,-47 -16,-71 -16,-55 -2,52 -29,161 -57,231 -110,277 -341,467 -638,523 l -91,18 56,6 c 117,14 281,80 379,152 59,44 165,152 202,206 73,108 129,248 144,364 l 8,60 12,-73 c 7,-41 20,-97 30,-125 z m -8530,43 c 21,-89 92,-232 157,-316 81,-103 192,-190 311,-244 64,-29 202,-70 240,-70 12,-1 -22,-12 -74,-25 -251,-65 -456,-227 -566,-450 -44,-90 -84,-221 -84,-279 0,-17 -5,-38 -10,-46 -7,-11 -10,-6 -10,22 0,57 -27,170 -60,257 -74,192 -258,373 -462,455 -72,28 -176,55 -223,57 -16,1 5,7 47,15 348,63 637,352 691,691 12,74 12,75 20,37 4,-22 15,-68 23,-104 z m 1693,50 c 13,-80 59,-197 113,-287 120,-199 364,-359 593,-389 l 60,-7 -85,-18 c -110,-22 -170,-43 -249,-86 -120,-65 -227,-160 -300,-266 -69,-101 -141,-290 -141,-370 0,-14 -4,-29 -10,-32 -6,-4 -10,7 -10,26 0,93 -73,280 -155,394 -89,126 -248,246 -391,296 -32,12 -97,29 -144,39 -47,10 -74,19 -60,19 57,2 201,44 277,81 101,49 215,139 288,227 94,113 185,327 185,433 0,54 15,22 29,-60 z m 3446,-145 c 58,-143 141,-257 258,-350 123,-99 274,-165 412,-181 l 59,-7 -93,-19 c -347,-70 -610,-332 -677,-673 l -18,-89 -13,79 c -24,142 -103,297 -211,416 -115,125 -277,219 -437,254 -44,10 -93,21 -110,25 -29,8 -29,8 9,9 98,2 262,62 378,136 190,123 336,344 371,560 l 11,73 17,-81 c 9,-45 29,-113 44,-152 z m 1686,56 c 98,-303 344,-522 659,-586 36,-7 53,-13 39,-14 -47,-2 -198,-50 -268,-85 -119,-61 -229,-154 -307,-263 -80,-111 -153,-299 -154,-395 -1,-46 -15,-17 -23,45 -4,26 -21,91 -39,144 -90,272 -335,483 -628,541 l -86,17 90,18 c 95,19 222,73 301,127 175,120 316,329 355,525 22,114 23,114 32,50 4,-33 17,-89 29,-124 z m -8516,-16 c 50,-145 154,-293 275,-392 114,-93 321,-180 434,-184 19,-1 -1,-8 -49,-18 -105,-23 -146,-37 -230,-78 -234,-116 -402,-335 -455,-593 l -17,-84 -13,69 c -15,83 -56,190 -100,266 -131,221 -332,362 -595,416 -59,12 -80,19 -60,21 77,7 188,37 263,73 270,125 443,352 497,654 l 8,40 12,-70 c 7,-38 21,-92 30,-120 z m 872,-895 c 41,-103 102,-197 178,-275 141,-146 319,-233 525,-258 14,-1 -6,-8 -45,-15 -190,-34 -322,-101 -459,-231 -79,-76 -133,-152 -182,-254 -34,-72 -73,-207 -75,-256 0,-14 -11,19 -24,74 -38,166 -102,288 -215,409 -116,123 -284,217 -441,247 -84,15 -101,22 -69,26 192,27 400,135 520,270 64,72 135,184 164,260 29,77 55,183 57,228 0,17 9,-13 20,-65 11,-52 32,-124 46,-160 z m 3379,70 c 49,-169 185,-356 334,-457 105,-71 290,-142 379,-144 l 36,-1 -30,-8 c -16,-5 -63,-15 -104,-24 -244,-54 -470,-243 -576,-482 -31,-70 -65,-194 -66,-243 l -1,-36 -8,30 c -5,17 -16,65 -25,109 -35,159 -155,349 -290,456 -91,72 -236,144 -333,165 -42,9 -90,20 -107,25 l -30,8 35,1 c 44,2 158,32 228,60 93,37 207,118 289,205 131,139 189,259 229,471 l 7,40 9,-60 c 4,-32 15,-84 24,-115 z m 1709,-22 c 66,-203 233,-394 430,-493 89,-45 220,-85 279,-85 45,-1 13,-16 -50,-24 -96,-12 -230,-65 -324,-129 -68,-46 -177,-155 -222,-220 -76,-112 -146,-294 -149,-391 -1,-17 -7,4 -15,46 -62,343 -338,628 -665,689 -35,6 -73,15 -84,19 -17,7 -15,9 11,9 112,3 308,85 428,181 163,129 286,342 312,540 l 7,55 13,-72 c 6,-39 20,-95 29,-125 z m 1675,153 c 0,-40 35,-168 65,-236 82,-185 257,-355 451,-437 53,-23 161,-51 234,-61 20,-3 17,-5 -15,-10 -278,-50 -471,-173 -610,-387 -65,-100 -104,-203 -130,-345 -8,-39 -8,-39 -21,38 -45,255 -222,491 -459,609 -59,30 -163,64 -220,73 -81,13 -81,18 -1,32 218,37 432,182 559,379 71,109 127,267 127,355 0,18 4,28 10,24 6,-3 10,-19 10,-34 z m 1760,-216 c 111,-266 355,-459 643,-510 72,-12 72,-12 32,-20 -231,-41 -413,-141 -542,-297 -96,-115 -173,-288 -190,-424 l -7,-59 -17,87 c -36,173 -110,316 -229,438 -128,132 -278,213 -464,250 -50,10 -78,19 -63,19 56,2 184,33 255,63 187,77 342,226 432,413 43,88 80,210 81,265 0,22 8,1 20,-59 11,-52 33,-127 49,-166 z M 883,10083 c 10,-88 56,-208 113,-299 89,-142 206,-250 351,-323 73,-36 219,-81 272,-82 l 36,-1 -30,-8 c -16,-5 -64,-16 -106,-25 -99,-21 -256,-99 -340,-168 -80,-66 -155,-160 -208,-258 -41,-77 -91,-230 -91,-281 0,-17 -4,-27 -10,-23 -5,3 -10,18 -10,32 0,90 -86,288 -176,402 -109,140 -298,261 -464,297 -41,8 -88,19 -105,24 l -30,8 35,1 c 91,3 249,60 354,127 202,130 358,363 383,571 3,29 9,53 13,53 4,0 10,-21 13,-47 z m 3437,-116 c 89,-293 355,-528 656,-580 56,-10 72,-16 54,-20 -14,-3 -52,-11 -85,-17 -313,-63 -583,-333 -645,-645 -23,-115 -22,-114 -36,-32 -60,339 -334,614 -681,684 l -92,19 81,12 c 272,43 502,215 623,466 43,90 75,191 75,238 0,45 15,40 22,-7 4,-26 16,-79 28,-118 z m 2546,-827 c 67,-233 227,-421 451,-534 79,-39 199,-76 250,-76 17,0 35,-4 38,-10 4,-6 -8,-10 -28,-10 -19,0 -74,-11 -123,-26 -234,-67 -424,-226 -530,-439 -45,-92 -83,-219 -85,-284 l -1,-36 -7,30 c -5,17 -14,59 -20,95 -46,240 -242,485 -474,590 -79,36 -199,70 -245,70 -20,0 -31,4 -27,10 3,6 19,10 34,10 50,0 204,50 280,91 215,116 367,310 427,547 13,52 25,106 25,121 1,14 5,-1 10,-34 5,-32 16,-84 25,-115 z m 1720,-50 c 73,-200 219,-369 404,-468 80,-44 231,-92 286,-92 18,0 36,-4 39,-10 4,-6 -8,-10 -28,-10 -47,0 -170,-33 -240,-64 -245,-108 -440,-351 -487,-606 -17,-89 -28,-117 -29,-69 -2,102 -70,274 -155,394 -125,174 -358,319 -548,341 -61,7 -80,24 -27,24 17,0 59,7 93,16 244,63 452,236 561,465 37,80 74,210 76,268 1,25 7,8 20,-54 10,-49 26,-110 35,-135 z m 3408,3 c 47,-140 148,-284 268,-383 106,-87 324,-180 421,-180 14,0 29,-4 32,-10 4,-6 -7,-10 -26,-10 -85,0 -272,-70 -373,-139 -181,-125 -317,-336 -358,-557 l -12,-67 -13,77 c -56,332 -345,624 -675,680 -37,6 -69,14 -73,17 -3,4 18,9 47,13 184,22 393,144 525,306 93,114 180,325 184,445 0,17 7,-2 14,-42 7,-39 25,-107 39,-150 z m -10229,15 c 72,-217 228,-395 444,-503 78,-39 202,-75 258,-75 18,0 33,-4 33,-10 0,-5 -15,-10 -34,-10 -47,0 -196,-45 -267,-80 -173,-86 -311,-226 -394,-401 -36,-76 -74,-209 -76,-263 -1,-29 -2,-29 -10,9 -32,134 -45,177 -74,241 -107,234 -307,405 -557,474 -40,11 -88,20 -106,20 -20,0 -31,4 -27,10 3,6 19,10 34,10 16,0 69,12 117,26 311,89 540,341 602,661 l 16,85 12,-70 c 6,-39 20,-94 29,-124 z m 1722,-48 c 94,-243 302,-431 557,-504 48,-14 101,-26 117,-26 15,0 31,-4 34,-10 4,-6 -8,-10 -28,-10 -46,0 -196,-44 -260,-76 -165,-84 -291,-206 -375,-365 -51,-96 -69,-144 -91,-254 -13,-62 -19,-79 -20,-54 -3,95 -71,283 -141,384 -49,71 -138,163 -206,211 -116,83 -296,153 -392,154 -20,0 -31,4 -27,10 3,6 21,10 38,10 50,0 174,38 251,77 232,116 394,313 456,557 11,44 20,93 21,110 1,18 9,-6 19,-54 10,-47 31,-119 47,-160 z m 1653,197 c 0,-45 35,-166 70,-244 77,-170 243,-336 413,-413 78,-35 199,-70 244,-70 17,0 35,-4 38,-10 4,-6 -8,-10 -28,-10 -56,0 -186,-38 -271,-79 -238,-116 -404,-326 -461,-586 l -18,-80 -13,64 c -36,176 -112,319 -234,441 -124,124 -308,219 -457,237 -29,3 -53,9 -53,13 0,4 23,10 50,13 74,9 210,59 291,107 94,56 218,175 280,269 60,92 106,207 122,307 12,76 27,99 27,41 z m 5135,-122 c 82,-284 308,-505 597,-585 40,-11 87,-20 105,-20 55,0 45,-17 -15,-23 -163,-17 -365,-125 -490,-261 -108,-119 -178,-257 -210,-416 l -19,-95 -8,55 c -4,30 -20,96 -36,145 -69,209 -212,377 -410,484 -80,43 -230,91 -285,91 -19,0 -34,5 -34,10 0,6 15,10 34,10 46,0 195,44 259,77 180,90 319,235 402,417 34,73 65,183 65,227 0,47 15,41 21,-8 4,-27 14,-75 24,-108 z M 2629,8226 c 58,-163 199,-335 354,-431 82,-50 251,-115 302,-115 57,-1 59,-17 3,-23 -29,-4 -85,-17 -123,-30 -303,-103 -514,-346 -574,-661 l -18,-91 -7,60 c -10,89 -66,243 -121,331 -125,200 -344,348 -572,387 l -78,14 66,11 c 195,35 350,119 485,265 114,123 190,274 215,428 l 13,80 17,-83 c 9,-46 26,-110 38,-142 z m 6787,105 c 32,-148 102,-278 213,-394 86,-90 161,-144 265,-192 75,-35 175,-65 222,-66 25,0 26,-1 9,-8 -11,-5 -51,-16 -90,-25 -295,-70 -555,-338 -619,-637 -8,-41 -17,-85 -18,-99 -2,-14 -11,15 -21,64 -72,358 -348,623 -712,684 l -50,9 50,8 c 64,10 199,52 250,77 238,120 408,346 462,613 10,50 19,79 21,65 1,-14 10,-58 18,-99 z m 1743,-124 c 102,-256 329,-452 591,-512 41,-9 89,-21 105,-25 l 30,-8 -36,-1 c -54,-2 -177,-35 -251,-69 -243,-110 -428,-342 -482,-604 -9,-42 -16,-90 -17,-105 -1,-15 -7,14 -15,65 -43,277 -229,522 -487,643 -65,30 -203,69 -245,69 -41,0 -21,8 63,25 346,71 627,369 671,710 l 7,60 17,-85 c 10,-47 32,-120 49,-163 z m -6869,184 c 0,-91 88,-290 177,-401 125,-158 331,-280 520,-309 l 48,-7 -60,-13 c -307,-66 -551,-280 -650,-571 -13,-40 -28,-96 -31,-124 -8,-66 -23,-94 -24,-46 -1,70 -53,231 -101,315 -59,103 -165,217 -262,283 -101,70 -289,140 -381,143 -17,1 6,9 54,19 275,57 491,222 610,466 41,82 80,213 80,268 0,24 3,27 10,16 5,-8 10,-26 10,-39 z m 1730,-123 c 92,-308 350,-528 695,-594 l 40,-7 -65,-12 c -331,-59 -597,-305 -680,-629 -11,-44 -20,-98 -20,-120 -1,-59 -16,-26 -23,51 -8,77 -55,207 -108,296 -46,77 -157,199 -229,252 -94,69 -228,126 -350,149 l -65,13 60,10 c 203,37 407,163 531,326 62,82 129,224 150,317 9,41 19,86 22,100 4,19 7,13 13,-27 3,-28 17,-85 29,-125 z m -5110,-1 c 46,-154 151,-308 278,-409 87,-69 230,-141 322,-162 153,-35 148,-34 115,-35 -45,-1 -168,-37 -240,-70 -172,-78 -334,-239 -414,-412 -28,-60 -61,-173 -77,-264 l -7,-40 -8,60 c -49,361 -338,657 -702,719 l -72,13 60,10 c 170,31 339,123 465,253 111,114 195,270 221,410 17,94 21,101 30,47 4,-27 17,-81 29,-120 z m 6795,84 c 41,-211 179,-417 360,-535 99,-65 179,-100 275,-122 41,-9 84,-20 95,-24 17,-7 15,-9 -10,-9 -45,-1 -167,-37 -242,-71 -138,-63 -292,-203 -373,-339 -50,-84 -99,-221 -107,-297 -7,-61 -23,-84 -23,-32 0,19 -7,61 -15,93 -83,323 -337,569 -655,633 l -95,19 54,8 c 94,13 231,65 320,122 129,82 227,189 300,324 42,78 91,230 91,282 0,47 11,25 25,-52 z m -835,-911 c 83,-305 343,-544 660,-608 l 95,-19 -60,-8 c -250,-31 -490,-199 -623,-436 -52,-91 -100,-253 -103,-347 -1,-24 -5,-12 -10,33 -27,213 -111,378 -266,526 -132,126 -268,194 -458,228 -27,5 -41,9 -29,10 50,3 196,46 269,81 208,97 374,286 445,507 16,51 33,125 37,165 l 7,73 12,-80 c 6,-44 17,-100 24,-125 z m 1714,-35 c 98,-304 378,-540 691,-581 l 60,-8 -75,-12 c -322,-51 -572,-262 -676,-568 -13,-37 -27,-90 -30,-117 -7,-54 -24,-77 -24,-34 0,79 -66,246 -140,355 -127,188 -346,328 -565,363 l -75,11 89,17 c 202,39 379,143 508,299 71,85 146,236 168,336 9,43 20,90 23,104 4,19 7,12 13,-30 4,-30 19,-91 33,-135 z m 3376,136 c 0,-12 14,-64 31,-115 72,-218 226,-395 432,-496 82,-40 213,-79 271,-81 26,0 28,-2 11,-9 -11,-4 -49,-13 -85,-20 -82,-15 -175,-52 -264,-104 -77,-45 -206,-166 -254,-237 -75,-111 -133,-258 -147,-374 l -8,-60 -17,85 c -52,251 -201,455 -425,581 -78,44 -196,84 -275,95 l -51,7 108,27 c 228,58 392,172 522,363 64,94 131,278 131,361 0,24 3,27 10,16 5,-8 10,-26 10,-39 z m -8515,-38 c 18,-94 66,-215 117,-293 23,-36 80,-103 128,-150 128,-126 251,-190 440,-230 47,-10 72,-19 55,-19 -99,-4 -291,-73 -392,-142 -188,-129 -330,-358 -359,-580 l -7,-53 -19,94 c -70,345 -372,632 -713,676 l -60,7 85,18 c 112,22 170,43 260,91 225,120 390,344 432,587 7,39 14,69 16,66 2,-2 10,-35 17,-72 z m 6862,-153 c 45,-107 92,-179 172,-263 137,-144 265,-213 471,-257 60,-13 75,-18 49,-19 -61,-2 -189,-39 -273,-81 -168,-82 -309,-221 -391,-385 -44,-89 -84,-218 -86,-279 -1,-18 -9,6 -19,55 -60,279 -217,487 -461,610 -86,43 -210,79 -278,80 -37,1 -23,5 69,24 336,69 591,317 663,644 l 22,99 17,-81 c 10,-45 30,-111 45,-147 z m -5112,-3 c 53,-124 94,-185 185,-277 127,-126 269,-203 443,-237 l 81,-17 -77,-13 c -174,-29 -332,-117 -463,-256 -115,-122 -176,-233 -210,-384 -9,-38 -18,-79 -21,-93 -5,-19 -8,-10 -15,35 -18,134 -89,290 -185,408 -130,159 -335,273 -528,295 l -70,8 79,13 c 188,31 324,99 459,230 118,114 201,257 233,399 24,113 25,113 41,37 8,-38 29,-105 48,-148 z m -3404,-9 c 114,-266 354,-458 639,-509 l 74,-13 -78,-13 c -318,-54 -594,-310 -676,-627 -10,-39 -20,-64 -23,-56 -3,8 -10,38 -17,65 -19,77 -94,223 -155,300 -136,173 -347,296 -550,321 l -60,7 91,18 c 352,67 608,317 689,674 6,27 9,23 25,-42 10,-39 29,-95 41,-125 z m 9354,-803 c 44,-127 119,-240 228,-341 123,-114 274,-190 428,-215 l 80,-13 -93,-18 c -332,-68 -585,-309 -667,-637 -11,-47 -21,-96 -22,-110 0,-14 -7,9 -15,51 -47,262 -189,466 -415,601 -71,42 -214,91 -299,102 l -55,8 89,18 c 336,68 595,318 670,647 9,39 16,84 17,99 0,15 9,-10 19,-57 10,-47 26,-107 35,-135 z m -6845,105 c 46,-250 238,-493 473,-600 65,-29 203,-70 241,-70 12,-1 -22,-12 -74,-25 -355,-91 -610,-380 -649,-734 -7,-64 -8,-65 -14,-26 -4,22 -16,82 -27,134 -68,324 -339,576 -682,635 l -73,12 55,8 c 257,34 499,206 629,447 43,80 91,229 92,288 1,48 12,20 29,-69 z m 1725,-92 c 25,-77 88,-192 147,-266 125,-157 320,-270 527,-306 l 76,-13 -62,-7 c -92,-11 -240,-66 -329,-121 -200,-125 -348,-344 -387,-572 -14,-81 -20,-79 -32,10 -3,26 -17,78 -29,115 -44,129 -94,210 -195,316 -129,134 -284,217 -465,247 l -76,13 92,18 c 163,33 300,105 426,222 114,107 213,283 242,431 23,115 22,114 35,38 7,-39 21,-95 30,-125 z m 3410,0 c 97,-295 363,-525 665,-574 l 45,-7 -90,-22 c -252,-63 -438,-208 -560,-438 -51,-95 -94,-247 -96,-336 -2,-54 -2,-53 -10,22 -25,235 -134,442 -306,580 -119,95 -227,145 -379,176 l -88,18 55,7 c 293,38 580,279 673,566 20,61 35,122 47,199 0,3 7,-26 14,-66 7,-39 21,-95 30,-125 z m -8513,27 c 89,-308 368,-554 683,-601 l 50,-7 -98,-23 c -164,-39 -286,-105 -406,-218 -116,-111 -199,-252 -235,-401 -10,-38 -21,-83 -26,-100 l -8,-30 -1,30 c -3,90 -81,281 -156,381 -145,193 -310,291 -595,352 -42,9 -43,10 -12,11 56,2 172,32 246,63 261,111 462,360 508,630 l 13,73 8,-45 c 5,-25 18,-76 29,-115 z m 1720,-92 c 84,-196 242,-357 433,-444 65,-29 200,-68 244,-70 17,-1 11,-5 -19,-11 -236,-51 -411,-154 -543,-320 -84,-107 -153,-262 -173,-394 l -7,-49 -18,82 c -35,163 -116,310 -234,428 -126,126 -264,199 -447,238 l -103,22 60,7 c 272,34 523,217 652,473 35,69 67,168 78,240 l 7,50 18,-87 c 10,-48 33,-122 52,-165 z m 5072,122 c 22,-95 95,-240 165,-327 128,-158 331,-275 526,-304 l 50,-7 -98,-23 c -302,-72 -535,-284 -627,-572 -17,-51 -30,-102 -30,-115 0,-12 -5,-29 -10,-37 -7,-11 -10,-7 -10,19 0,44 -54,203 -92,271 -121,217 -328,373 -563,425 -44,10 -91,21 -105,25 -23,8 -22,8 11,9 64,2 192,40 284,86 172,86 302,218 385,390 45,94 79,200 81,256 l 1,24 8,-25 c 4,-14 15,-56 24,-95 z m -839,-897 c 99,-301 356,-527 662,-582 43,-8 75,-15 72,-15 -236,-38 -377,-106 -524,-255 -135,-137 -209,-282 -239,-471 l -12,-80 -8,65 c -16,142 -90,310 -192,434 -105,129 -295,247 -453,281 -42,9 -89,20 -106,25 l -30,8 30,1 c 49,2 186,38 248,66 180,79 317,208 412,388 45,83 94,243 96,311 1,17 7,-4 14,-46 7,-42 21,-100 30,-130 z m -3435,120 c 61,-360 337,-640 691,-702 73,-13 74,-13 34,-20 -202,-37 -330,-98 -462,-220 -135,-126 -216,-266 -258,-450 -13,-55 -24,-89 -24,-75 -2,49 -41,184 -76,258 -99,208 -277,369 -489,442 -46,16 -105,32 -132,35 -65,9 -91,23 -43,24 20,0 76,11 125,26 234,67 420,222 529,439 46,91 85,221 85,282 0,52 7,39 20,-39 z m 5140,-110 c 72,-239 232,-421 463,-528 77,-35 184,-66 252,-72 19,-2 -2,-9 -60,-21 -273,-55 -483,-214 -606,-459 -42,-83 -79,-203 -79,-255 0,-18 -4,-33 -10,-33 -5,0 -10,12 -10,27 0,83 -65,253 -138,360 -126,186 -355,334 -556,359 -66,8 -95,23 -46,24 46,0 138,24 219,56 154,61 324,207 411,353 48,81 97,214 106,287 9,75 17,84 24,27 4,-28 18,-85 30,-125 z m 1727,-69 c 76,-196 245,-372 440,-461 69,-31 198,-67 248,-69 27,-1 27,-2 -10,-10 -22,-6 -69,-17 -105,-25 -99,-24 -255,-104 -332,-171 -157,-135 -256,-309 -293,-516 -7,-40 -14,-60 -14,-46 -1,14 -11,63 -22,110 -65,258 -243,470 -486,581 -69,31 -207,67 -263,69 -20,0 2,7 50,14 217,34 393,133 533,300 92,110 185,324 188,435 1,24 6,8 19,-50 10,-47 31,-119 47,-161 z m 1662,148 c 69,-291 285,-527 566,-616 50,-16 115,-32 145,-36 l 55,-8 -74,-13 c -220,-38 -407,-149 -535,-317 -92,-121 -155,-270 -171,-402 l -8,-60 -17,85 c -68,334 -338,600 -675,666 l -89,18 71,12 c 268,45 499,216 619,459 44,90 84,222 84,278 0,45 6,31 29,-66 z M 5175,5695 c 103,-300 358,-517 668,-569 l 71,-12 -89,-17 c -280,-56 -491,-219 -610,-472 -43,-90 -75,-197 -75,-248 0,-15 -4,-27 -10,-27 -5,0 -10,12 -10,27 0,99 -86,299 -179,416 -134,168 -349,290 -551,313 l -65,7 100,17 c 221,38 399,143 529,313 88,115 152,262 172,393 l 7,49 13,-70 c 6,-38 20,-92 29,-120 z m -3427,57 c 13,-64 75,-198 124,-270 76,-112 198,-217 325,-281 69,-34 218,-80 267,-82 l 31,-1 -30,-8 c -16,-5 -61,-16 -100,-25 -99,-22 -256,-103 -341,-173 -126,-106 -235,-279 -272,-430 -9,-40 -19,-72 -22,-72 -3,0 -13,32 -22,71 -53,219 -225,431 -438,539 -64,33 -174,69 -234,76 -66,8 -94,23 -46,24 45,0 160,31 230,60 231,98 432,329 488,560 9,38 19,70 22,70 4,0 11,-26 18,-58 z M 914,4910 c 48,-220 215,-435 427,-549 78,-42 230,-91 282,-91 49,0 25,-10 -49,-21 -270,-38 -517,-224 -639,-480 -36,-76 -74,-209 -76,-263 -1,-18 -9,7 -20,56 -67,319 -273,553 -576,656 -34,12 -88,25 -118,28 -59,7 -58,24 1,24 47,0 196,46 267,81 224,112 386,313 447,553 11,44 20,93 21,110 l 1,31 8,-30 c 5,-16 15,-64 24,-105 z m 1719,-102 c 47,-129 147,-266 259,-357 114,-93 317,-181 417,-181 51,0 34,-8 -44,-20 -318,-49 -577,-267 -680,-570 -13,-40 -28,-96 -31,-124 -10,-78 -20,-85 -27,-17 -9,83 -49,200 -100,291 -57,103 -214,260 -317,317 -85,48 -208,91 -282,100 -53,6 -48,23 8,23 18,0 72,12 120,26 309,89 540,340 602,654 l 17,86 16,-80 c 9,-45 28,-111 42,-148 z m 3381,74 c 62,-208 207,-396 385,-502 82,-49 217,-98 292,-107 60,-7 48,-18 -31,-26 -119,-14 -285,-88 -397,-178 -134,-106 -252,-294 -288,-455 -10,-43 -21,-92 -25,-109 l -8,-30 -1,33 c -1,48 -37,183 -66,248 -55,124 -171,264 -290,350 -94,68 -288,144 -368,144 -16,0 -26,4 -22,10 3,6 23,10 43,10 21,0 70,9 110,20 151,42 273,113 381,221 135,134 206,276 247,494 l 7,40 8,-58 c 5,-31 15,-79 23,-105 z m 5142,-79 c 78,-194 211,-343 395,-442 80,-43 189,-79 272,-91 60,-8 53,-11 -63,-33 -100,-19 -236,-82 -327,-151 -164,-124 -280,-314 -323,-526 l -17,-85 -7,60 c -42,325 -303,614 -632,699 -34,9 -76,16 -92,16 -17,0 -34,5 -37,10 -4,6 8,10 28,10 51,0 197,45 275,84 232,117 399,337 449,593 l 18,92 17,-84 c 10,-47 29,-115 44,-152 z m -6856,127 c 44,-239 241,-485 474,-590 70,-32 156,-59 224,-69 l 47,-8 -60,-7 c -355,-47 -656,-332 -724,-686 l -16,-87 -17,86 c -52,261 -229,489 -472,606 -76,36 -206,74 -266,76 -31,1 -30,2 15,11 193,36 258,59 380,136 131,82 237,203 312,354 36,73 72,198 74,252 0,26 2,28 9,11 4,-11 13,-49 20,-85 z m 3400,50 c 0,-45 39,-163 80,-248 82,-164 217,-300 387,-386 60,-30 211,-76 257,-77 l 31,-1 -30,-8 c -16,-5 -59,-13 -95,-20 -322,-58 -598,-333 -665,-660 l -11,-54 -22,88 c -59,241 -209,431 -433,550 -84,45 -209,86 -261,86 -16,0 -28,5 -28,10 0,6 15,10 33,10 82,1 223,49 337,116 83,48 209,170 266,256 60,89 111,217 126,312 12,70 27,85 28,26 z m 1728,-115 c 73,-228 229,-409 448,-518 74,-37 210,-77 263,-77 55,0 33,-17 -30,-24 -83,-8 -213,-54 -300,-106 -91,-54 -216,-173 -275,-262 -60,-89 -110,-214 -127,-314 -14,-80 -19,-80 -32,1 -40,253 -237,505 -480,616 -77,34 -197,69 -242,69 -18,0 -33,5 -33,10 0,6 15,10 33,10 45,0 165,35 242,69 181,83 334,237 420,425 28,62 45,118 71,241 6,26 8,20 20,-40 7,-38 17,-83 22,-100 z m -884,-685 c 17,-212 136,-436 303,-573 114,-93 269,-165 390,-183 62,-8 90,-23 47,-24 -56,0 -184,-39 -265,-79 -220,-110 -372,-293 -445,-538 -24,-78 -27,-105 -28,-238 0,-139 2,-156 28,-235 50,-149 107,-245 208,-349 129,-131 303,-222 473,-247 l 50,-7 -109,-27 c -127,-32 -244,-89 -336,-163 -179,-145 -298,-367 -316,-589 -6,-69 -9,-78 -27,-78 -13,0 -17,5 -14,15 9,22 -19,192 -43,259 -42,122 -130,257 -228,348 -118,111 -260,181 -436,217 l -90,18 60,7 c 338,39 633,308 715,653 28,118 23,321 -11,428 -29,92 -98,223 -158,297 -64,80 -189,180 -287,227 -81,40 -214,80 -269,82 -19,0 1,8 49,19 241,55 435,186 563,382 77,119 132,289 132,410 0,40 3,48 19,48 16,0 19,-11 25,-80 z m -3429,-91 c 18,-91 66,-207 118,-287 91,-139 198,-233 350,-308 75,-36 117,-49 267,-81 18,-4 2,-10 -53,-19 -359,-63 -651,-373 -693,-738 l -8,-61 -13,93 c -51,350 -338,644 -690,706 -55,9 -71,15 -53,19 14,3 52,11 85,17 248,50 476,232 590,471 37,79 74,209 76,268 1,27 3,30 6,11 2,-14 11,-55 18,-91 z m 1725,-84 c 98,-314 356,-529 705,-591 l 40,-7 -60,-9 c -212,-29 -432,-164 -561,-345 -78,-109 -154,-299 -154,-386 0,-15 -4,-27 -10,-27 -5,0 -10,15 -10,34 0,46 -45,197 -80,271 -111,232 -379,426 -635,457 -37,5 -24,10 77,33 165,36 349,153 459,292 97,122 152,252 185,438 8,40 8,39 15,-25 4,-36 17,-96 29,-135 z m -3424,67 c 54,-255 232,-474 477,-587 73,-34 177,-65 217,-65 11,0 18,-4 15,-10 -3,-5 -18,-10 -33,-10 -15,0 -63,-13 -107,-28 -303,-103 -526,-362 -580,-675 l -12,-72 -7,45 c -58,358 -313,636 -654,714 -39,9 -84,16 -99,17 l -28,1 30,8 c 17,4 64,15 105,25 97,21 258,101 340,168 159,130 268,324 306,547 6,33 9,38 11,20 2,-14 11,-58 19,-98 z m 6884,-111 c 42,-109 95,-193 174,-278 121,-130 298,-229 461,-258 l 70,-12 -40,-8 c -191,-35 -361,-128 -493,-270 -112,-121 -190,-278 -214,-432 l -12,-77 -17,85 c -71,362 -365,643 -714,686 l -60,7 86,17 c 267,54 476,207 602,440 40,72 81,197 93,279 l 7,55 14,-79 c 8,-43 27,-113 43,-155 z m 1674,99 c 36,-166 157,-355 297,-464 89,-70 229,-139 329,-161 41,-10 89,-21 105,-25 l 30,-8 -36,-1 c -101,-3 -292,-77 -399,-156 -73,-54 -183,-175 -230,-254 -52,-87 -95,-210 -112,-316 l -12,-80 -8,70 c -32,279 -218,536 -479,660 -76,36 -209,74 -263,76 -29,1 -29,2 9,10 134,32 177,45 241,74 188,86 357,256 431,437 32,77 62,191 64,238 l 1,35 8,-30 c 5,-16 16,-64 24,-105 z M 1721,4029 c 27,-98 97,-230 164,-312 75,-91 161,-157 280,-216 87,-43 133,-58 270,-87 25,-6 17,-9 -48,-20 -173,-31 -329,-117 -459,-252 -114,-120 -183,-250 -224,-427 -6,-27 -8,-24 -20,34 -39,180 -159,366 -313,483 -117,89 -315,168 -419,168 -51,0 -34,9 39,21 321,51 605,308 686,620 9,37 19,67 20,65 2,-2 13,-36 24,-77 z m 4263,-854 c 72,-246 241,-442 469,-544 64,-30 212,-70 256,-72 14,0 -17,-9 -69,-20 -348,-73 -617,-345 -676,-683 -16,-88 -24,-107 -24,-54 0,58 -38,189 -79,273 -119,242 -338,412 -599,464 l -83,17 68,13 c 102,20 217,65 301,118 197,122 350,347 383,565 16,103 22,111 29,43 4,-33 15,-87 24,-120 z M 903,3124 c 43,-119 118,-232 214,-325 131,-127 253,-191 438,-229 l 80,-16 -59,-8 c -71,-9 -188,-46 -259,-82 -236,-119 -401,-343 -451,-610 l -12,-69 -13,70 c -32,171 -133,350 -266,472 -124,115 -274,188 -443,216 l -77,14 55,7 c 346,45 633,300 720,640 11,44 20,93 21,110 0,17 9,-9 19,-59 10,-49 25,-108 33,-131 z m 3402,-29 c 109,-272 343,-465 636,-523 l 94,-18 -63,-8 c -271,-31 -534,-230 -654,-493 -32,-72 -67,-199 -69,-253 -1,-24 -6,-10 -15,42 -51,279 -217,504 -464,628 -91,45 -169,69 -258,77 l -67,7 95,17 c 52,9 113,24 135,32 272,100 473,316 540,583 14,53 25,108 26,123 0,14 8,-12 18,-59 10,-47 31,-116 46,-155 z m 3406,5 c 65,-168 201,-330 356,-422 87,-52 227,-103 312,-114 l 55,-7 -91,-18 c -356,-72 -635,-365 -681,-714 l -8,-60 -12,70 c -35,196 -116,350 -253,481 -122,115 -246,181 -413,218 l -101,23 55,8 c 87,11 226,62 314,113 195,115 360,348 390,552 17,108 18,110 33,27 7,-42 27,-113 44,-157 z m 1744,-12 c 105,-268 376,-482 665,-524 l 55,-8 -65,-11 c -206,-37 -345,-110 -482,-253 -41,-43 -94,-111 -118,-151 -49,-82 -96,-211 -106,-288 -6,-51 -24,-65 -24,-20 0,47 -32,145 -75,234 -126,257 -350,426 -635,477 -41,8 -64,14 -50,15 51,3 158,30 235,60 271,105 475,356 526,646 l 12,70 18,-90 c 10,-50 30,-120 44,-157 z m -6861,22 c 101,-276 364,-493 659,-542 l 72,-12 -77,-13 c -268,-45 -496,-212 -618,-453 -32,-63 -68,-174 -76,-231 -7,-54 -24,-77 -24,-34 0,109 -90,302 -204,439 -117,140 -337,259 -521,282 l -60,8 77,13 c 245,42 463,188 594,399 48,77 98,202 109,274 13,87 17,87 36,0 9,-47 25,-105 33,-130 z m 8520,127 c 59,-287 277,-538 551,-632 28,-9 88,-25 135,-34 l 85,-17 -60,-8 c -253,-30 -509,-211 -632,-448 -40,-76 -79,-196 -89,-270 l -7,-53 -18,91 c -51,267 -217,484 -464,607 -86,43 -165,66 -253,74 l -67,7 95,16 c 95,17 223,62 290,102 134,81 257,214 326,353 43,87 84,221 84,273 0,40 7,23 24,-61 z M 5145,2275 c 100,-290 383,-523 680,-560 l 60,-8 -95,-19 c -178,-36 -332,-119 -451,-244 -129,-137 -188,-249 -229,-444 -10,-47 -19,-71 -19,-55 -2,61 -43,202 -81,280 -119,246 -354,422 -621,467 l -72,11 84,17 c 250,51 452,195 582,415 43,73 94,219 103,301 l 8,59 17,-85 c 9,-47 25,-107 34,-135 z m -1710,13 c 91,-276 321,-489 610,-563 32,-8 68,-15 80,-16 11,0 -20,-11 -70,-24 -272,-69 -488,-253 -593,-507 -32,-76 -61,-200 -63,-265 -1,-26 -4,-15 -10,32 -50,393 -320,679 -707,749 -42,8 -63,14 -46,15 55,2 187,40 263,76 214,102 380,290 450,510 16,50 32,113 36,140 l 8,50 12,-72 c 7,-39 21,-95 30,-125 z m 3406,13 c 70,-217 227,-404 423,-503 84,-42 127,-57 231,-77 l 90,-18 -55,-8 c -200,-27 -396,-138 -533,-300 -95,-113 -187,-326 -187,-433 0,-18 -4,-32 -10,-32 -5,0 -10,13 -10,28 0,56 -40,188 -84,277 -112,226 -336,403 -574,451 l -93,18 81,18 c 199,43 384,160 506,321 81,106 164,309 164,398 0,51 15,39 22,-18 5,-32 17,-87 29,-122 z m 3472,-81 c 114,-264 364,-463 637,-506 l 45,-7 -90,-22 c -160,-40 -272,-102 -389,-214 -153,-148 -243,-329 -263,-535 l -7,-71 -7,70 c -28,295 -193,540 -455,676 -82,42 -146,63 -256,84 -40,7 -59,13 -43,14 60,2 197,42 267,77 252,126 425,348 476,610 l 16,84 18,-93 c 11,-50 34,-126 51,-167 z m 1652,175 c 72,-347 326,-600 676,-674 51,-11 82,-20 68,-20 -48,-2 -194,-43 -267,-77 -245,-112 -427,-345 -478,-613 -16,-82 -24,-101 -24,-54 0,56 -40,188 -84,278 -119,241 -351,413 -619,457 l -70,11 88,18 c 110,22 199,58 295,117 195,121 348,347 383,567 6,41 12,73 14,72 1,-2 9,-38 18,-82 z M 1725,2305 c 65,-226 251,-433 481,-535 51,-22 184,-59 218,-61 12,0 -20,-11 -70,-24 -335,-86 -574,-328 -649,-660 -7,-27 -10,-21 -30,55 -45,165 -109,273 -227,386 -121,117 -267,192 -432,223 l -91,18 55,7 c 179,23 367,123 498,264 95,102 176,252 203,376 11,49 14,55 20,35 3,-13 14,-51 24,-84 z M 876,1530 c 72,-341 344,-605 684,-662 l 85,-15 -75,-13 C 1382,808 1241,735 1107,603 974,471 883,292 863,122 l -6,-56 -19,95 c -72,356 -346,619 -713,684 -39,7 -38,8 45,25 148,31 252,80 369,173 160,128 286,351 308,549 4,35 9,52 11,38 1,-14 10,-59 18,-100 z m 8564,-100 c 90,-269 318,-479 594,-550 44,-11 95,-20 115,-21 l 36,-1 -40,-9 c -22,-6 -71,-17 -110,-25 -38,-9 -115,-37 -170,-64 -173,-85 -299,-210 -385,-385 -40,-80 -79,-211 -81,-269 -1,-30 -1,-30 -9,-6 -4,14 -15,60 -25,102 -32,147 -137,324 -254,429 -116,104 -293,189 -446,215 -39,6 -37,7 45,24 355,74 622,360 676,725 l 8,50 12,-75 c 6,-41 22,-104 34,-140 z m -5135,-35 c 111,-276 357,-479 642,-529 76,-13 77,-13 38,-20 C 4748,803 4588,715 4444,547 4351,438 4269,258 4253,123 l -6,-57 -19,95 c -72,356 -343,617 -711,684 -40,7 -59,14 -44,14 56,2 184,33 254,63 139,57 273,164 359,284 81,113 152,295 155,395 1,22 7,5 19,-51 9,-47 30,-117 45,-155 z m 1658,160 c 22,-199 176,-433 369,-561 103,-69 275,-132 368,-135 l 35,-1 -30,-8 c -16,-5 -64,-16 -106,-25 -161,-34 -351,-153 -459,-288 -67,-83 -145,-241 -165,-336 -9,-42 -20,-89 -25,-106 l -8,-30 -1,35 c -3,99 -62,259 -135,369 -135,203 -343,333 -601,377 -40,7 -39,7 32,19 326,57 585,290 677,609 15,49 26,105 26,125 1,50 16,21 23,-44 z m 5162,-60 c 22,-96 93,-238 161,-323 70,-89 185,-181 289,-231 81,-40 216,-80 277,-82 31,-1 30,-2 -12,-11 -242,-52 -371,-118 -506,-260 -116,-121 -187,-257 -223,-429 -11,-51 -20,-80 -20,-63 -2,53 -40,186 -76,263 -88,184 -237,332 -420,417 -74,34 -214,73 -270,75 -16,1 4,7 46,14 255,43 447,164 588,373 67,99 129,267 132,353 l 1,34 8,-30 c 5,-16 16,-61 25,-100 z M 2631,1327 c 89,-176 224,-308 400,-392 79,-37 209,-74 268,-76 36,-1 36,-1 -9,-11 -141,-30 -184,-43 -275,-88 -113,-55 -210,-130 -285,-222 -56,-69 -141,-234 -160,-313 -7,-27 -14,-57 -17,-65 -3,-8 -13,17 -23,55 -81,310 -328,545 -654,620 -55,13 -90,24 -76,24 50,2 160,30 236,61 240,96 426,310 500,574 l 17,60 23,-82 c 13,-46 38,-111 55,-145 z"
       id="path1" />
  </g>
</svg>
