<?xml version="1.0" encoding="UTF-8" standalone="no"?>
<svg
   viewBox="0 0 639.99998 639.99998"
   version="1.1"
   id="svg1"
   sodipodi:docname="dog-solid-full.svg"
   width="169.33333mm"
   height="169.33333mm"
   inkscape:version="1.3 (0e150ed, 2023-07-21)"
   xmlns:inkscape="http://www.inkscape.org/namespaces/inkscape"
   xmlns:sodipodi="http://sodipodi.sourceforge.net/DTD/sodipodi-0.dtd"
   xmlns="http://www.w3.org/2000/svg"
   xmlns:svg="http://www.w3.org/2000/svg">
  <defs
     id="defs1" />
  <sodipodi:namedview
     id="namedview1"
     pagecolor="#ffffff"
     bordercolor="#666666"
     borderopacity="1.0"
     inkscape:showpageshadow="2"
     inkscape:pageopacity="0.0"
     inkscape:pagecheckerboard="0"
     inkscape:deskcolor="#d1d1d1"
     inkscape:document-units="mm"
     inkscape:zoom="0.36875"
     inkscape:cx="318.64407"
     inkscape:cy="320"
     inkscape:window-width="1376"
     inkscape:window-height="449"
     inkscape:window-x="0"
     inkscape:window-y="38"
     inkscape:window-maximized="0"
     inkscape:current-layer="svg1" />
  <!--!Font Awesome Free 7.1.0 by @fontawesome - https://fontawesome.com License - https://fontawesome.com/license/free Copyright 2025 Fonticons, Inc.-->
  <path
     d="m 64,176 c 16.6,0 30.2,12.6 31.8,28.7 l 0.3,6.6 C 97.8,227.4 111.4,240 128,240 H 307.1 L 448,300.4 V 544 c 0,17.7 -14.3,32 -32,32 h -32 c -17.7,0 -32,-14.3 -32,-32 V 412.7 C 328,425 300.8,432 272,432 c -28.8,0 -56,-7 -80,-19.3 V 544 c 0,17.7 -14.3,32 -32,32 H 128 C 110.3,576 96,561.7 96,544 V 298.4 C 58.7,285.2 32,249.8 32,208 32,190.3 46.3,176 64,176 Z M 387.8,32 c 7.7,0 14.9,3.6 19.6,9.8 L 424,64 h 52.1 c 12.7,0 24.9,5.1 33.9,14.1 L 528,96 h 56 c 13.3,0 24,10.7 24,24 v 24 c 0,44.2 -35.8,80 -80,80 H 464 L 457,252 332.3,198.6 363.9,51.4 C 366.3,40.1 376.2,32 387.8,32 Z m 92.2,76 c -11,0 -20,9 -20,20 0,11 9,20 20,20 11,0 20,-9 20,-20 0,-11 -9,-20 -20,-20 z"
     id="path1" />
</svg>
