<?xml version="1.0" encoding="UTF-8" standalone="no"?>
<svg
   version="1.0"
   width="451.55554mm"
   height="451.55554mm"
   viewBox="0 0 1280 1280"
   preserveAspectRatio="xMidYMid"
   id="svg100"
   sodipodi:docname="dots.svg"
   inkscape:version="1.3 (0e150ed, 2023-07-21)"
   xmlns:inkscape="http://www.inkscape.org/namespaces/inkscape"
   xmlns:sodipodi="http://sodipodi.sourceforge.net/DTD/sodipodi-0.dtd"
   xmlns="http://www.w3.org/2000/svg"
   xmlns:svg="http://www.w3.org/2000/svg">
  <defs
     id="defs100" />
  <sodipodi:namedview
     id="namedview100"
     pagecolor="#ffffff"
     bordercolor="#666666"
     borderopacity="1.0"
     inkscape:showpageshadow="2"
     inkscape:pageopacity="0.0"
     inkscape:pagecheckerboard="0"
     inkscape:deskcolor="#d1d1d1"
     inkscape:document-units="mm"
     inkscape:zoom="0.13828125"
     inkscape:cx="853.33333"
     inkscape:cy="853.33333"
     inkscape:window-width="1312"
     inkscape:window-height="449"
     inkscape:window-x="0"
     inkscape:window-y="38"
     inkscape:window-maximized="0"
     inkscape:current-layer="svg100" />
  <metadata
     id="metadata1">&#10;Created by potrace 1.15, written by Peter Selinger 2001-2017&#10;</metadata>
  <g
     transform="matrix(0.1,0,0,-0.1,0,1280)"
     fill="#000000"
     stroke="none"
     id="g100">
    <path
       d="m 550,12465 c -105,-35 -200,-141 -222,-248 -43,-206 163,-412 369,-369 155,32 275,190 260,339 -11,105 -90,213 -190,262 -61,29 -155,36 -217,16 z"
       id="path1" />
    <path
       d="m 1830,12465 c -151,-50 -253,-216 -222,-362 25,-119 136,-230 254,-255 194,-41 395,142 375,339 -11,105 -90,213 -190,262 -61,29 -155,36 -217,16 z"
       id="path2" />
    <path
       d="m 3110,12465 c -105,-35 -200,-141 -222,-248 -43,-206 163,-412 369,-369 155,32 275,190 260,339 -11,105 -90,213 -190,262 -61,29 -155,36 -217,16 z"
       id="path3" />
    <path
       d="m 4390,12465 c -105,-35 -200,-141 -222,-248 -43,-206 163,-412 369,-369 155,32 275,190 260,339 -11,105 -90,213 -190,262 -61,29 -155,36 -217,16 z"
       id="path4" />
    <path
       d="m 5670,12465 c -105,-35 -200,-141 -222,-248 -43,-206 163,-412 369,-369 155,32 275,190 260,339 -11,105 -90,213 -190,262 -61,29 -155,36 -217,16 z"
       id="path5" />
    <path
       d="m 6950,12465 c -105,-35 -200,-141 -222,-248 -43,-206 163,-412 369,-369 155,32 275,190 260,339 -11,105 -90,213 -190,262 -61,29 -155,36 -217,16 z"
       id="path6" />
    <path
       d="m 8230,12465 c -105,-35 -200,-141 -222,-248 -43,-206 163,-412 369,-369 155,32 275,190 260,339 -11,105 -90,213 -190,262 -61,29 -155,36 -217,16 z"
       id="path7" />
    <path
       d="m 9510,12465 c -105,-35 -200,-141 -222,-248 -43,-206 163,-412 369,-369 155,32 275,190 260,339 -11,105 -90,213 -190,262 -61,29 -155,36 -217,16 z"
       id="path8" />
    <path
       d="m 10790,12465 c -105,-35 -200,-141 -222,-248 -25,-117 32,-244 142,-319 107,-74 229,-75 337,-3 177,118 201,338 53,485 -85,86 -207,119 -310,85 z"
       id="path9" />
    <path
       d="m 12070,12465 c -105,-35 -200,-141 -222,-248 -25,-117 32,-244 142,-319 107,-74 229,-75 337,-3 177,118 201,338 53,485 -85,86 -207,119 -310,85 z"
       id="path10" />
    <path
       d="m 550,11185 c -105,-35 -200,-141 -222,-248 -43,-206 163,-412 369,-369 155,32 275,190 260,339 -11,105 -90,213 -190,262 -61,29 -155,36 -217,16 z"
       id="path11" />
    <path
       d="m 1830,11185 c -151,-50 -253,-216 -222,-362 25,-119 136,-230 254,-255 194,-41 395,142 375,339 -11,105 -90,213 -190,262 -61,29 -155,36 -217,16 z"
       id="path12" />
    <path
       d="m 3110,11185 c -105,-35 -200,-141 -222,-248 -43,-206 163,-412 369,-369 155,32 275,190 260,339 -11,105 -90,213 -190,262 -61,29 -155,36 -217,16 z"
       id="path13" />
    <path
       d="m 4390,11185 c -105,-35 -200,-141 -222,-248 -43,-206 163,-412 369,-369 155,32 275,190 260,339 -11,105 -90,213 -190,262 -61,29 -155,36 -217,16 z"
       id="path14" />
    <path
       d="m 5670,11185 c -105,-35 -200,-141 -222,-248 -43,-206 163,-412 369,-369 155,32 275,190 260,339 -11,105 -90,213 -190,262 -61,29 -155,36 -217,16 z"
       id="path15" />
    <path
       d="m 6950,11185 c -105,-35 -200,-141 -222,-248 -43,-206 163,-412 369,-369 155,32 275,190 260,339 -11,105 -90,213 -190,262 -61,29 -155,36 -217,16 z"
       id="path16" />
    <path
       d="m 8230,11185 c -105,-35 -200,-141 -222,-248 -43,-206 163,-412 369,-369 155,32 275,190 260,339 -11,105 -90,213 -190,262 -61,29 -155,36 -217,16 z"
       id="path17" />
    <path
       d="m 9510,11185 c -105,-35 -200,-141 -222,-248 -43,-206 163,-412 369,-369 155,32 275,190 260,339 -11,105 -90,213 -190,262 -61,29 -155,36 -217,16 z"
       id="path18" />
    <path
       d="m 10790,11185 c -105,-35 -200,-141 -222,-248 -25,-117 32,-244 142,-319 107,-74 229,-75 337,-3 177,118 201,338 53,485 -85,86 -207,119 -310,85 z"
       id="path19" />
    <path
       d="m 12070,11185 c -105,-35 -200,-141 -222,-248 -25,-117 32,-244 142,-319 107,-74 229,-75 337,-3 177,118 201,338 53,485 -85,86 -207,119 -310,85 z"
       id="path20" />
    <path
       d="m 550,9905 c -105,-35 -200,-141 -222,-248 -43,-206 163,-412 369,-369 155,32 275,190 260,339 -11,105 -90,213 -190,262 -61,29 -155,36 -217,16 z"
       id="path21" />
    <path
       d="m 1830,9905 c -105,-35 -200,-141 -222,-248 -43,-206 163,-412 369,-369 155,32 275,190 260,339 -11,105 -90,213 -190,262 -61,29 -155,36 -217,16 z"
       id="path22" />
    <path
       d="m 3110,9905 c -105,-35 -200,-141 -222,-248 -43,-206 163,-412 369,-369 155,32 275,190 260,339 -11,105 -90,213 -190,262 -61,29 -155,36 -217,16 z"
       id="path23" />
    <path
       d="m 4390,9905 c -105,-35 -200,-141 -222,-248 -43,-206 163,-412 369,-369 155,32 275,190 260,339 -11,105 -90,213 -190,262 -61,29 -155,36 -217,16 z"
       id="path24" />
    <path
       d="m 5670,9905 c -105,-35 -200,-141 -222,-248 -43,-206 163,-412 369,-369 155,32 275,190 260,339 -11,105 -90,213 -190,262 -61,29 -155,36 -217,16 z"
       id="path25" />
    <path
       d="m 6950,9905 c -105,-35 -200,-141 -222,-248 -43,-206 163,-412 369,-369 155,32 275,190 260,339 -11,105 -90,213 -190,262 -61,29 -155,36 -217,16 z"
       id="path26" />
    <path
       d="m 8230,9905 c -105,-35 -200,-141 -222,-248 -43,-206 163,-412 369,-369 155,32 275,190 260,339 -11,105 -90,213 -190,262 -61,29 -155,36 -217,16 z"
       id="path27" />
    <path
       d="m 9510,9905 c -105,-35 -200,-141 -222,-248 -43,-206 163,-412 369,-369 155,32 275,190 260,339 -11,105 -90,213 -190,262 -61,29 -155,36 -217,16 z"
       id="path28" />
    <path
       d="m 10790,9905 c -105,-35 -200,-141 -222,-248 -43,-206 163,-412 369,-369 155,32 275,190 260,339 -11,105 -90,213 -190,262 -61,29 -155,36 -217,16 z"
       id="path29" />
    <path
       d="m 12070,9905 c -105,-35 -200,-141 -222,-248 -43,-206 163,-412 369,-369 155,32 275,190 260,339 -11,105 -90,213 -190,262 -61,29 -155,36 -217,16 z"
       id="path30" />
    <path
       d="m 550,8625 c -105,-35 -200,-141 -222,-248 -43,-206 163,-412 369,-369 155,32 275,190 260,339 -11,105 -90,213 -190,262 -61,29 -155,36 -217,16 z"
       id="path31" />
    <path
       d="m 1830,8625 c -105,-35 -200,-141 -222,-248 -43,-206 163,-412 369,-369 155,32 275,190 260,339 -11,105 -90,213 -190,262 -61,29 -155,36 -217,16 z"
       id="path32" />
    <path
       d="m 3110,8625 c -105,-35 -200,-141 -222,-248 -43,-206 163,-412 369,-369 155,32 275,190 260,339 -11,105 -90,213 -190,262 -61,29 -155,36 -217,16 z"
       id="path33" />
    <path
       d="m 4390,8625 c -105,-35 -200,-141 -222,-248 -43,-206 163,-412 369,-369 155,32 275,190 260,339 -11,105 -90,213 -190,262 -61,29 -155,36 -217,16 z"
       id="path34" />
    <path
       d="m 5670,8625 c -105,-35 -200,-141 -222,-248 -43,-206 163,-412 369,-369 155,32 275,190 260,339 -11,105 -90,213 -190,262 -61,29 -155,36 -217,16 z"
       id="path35" />
    <path
       d="m 6950,8625 c -105,-35 -200,-141 -222,-248 -43,-206 163,-412 369,-369 155,32 275,190 260,339 -11,105 -90,213 -190,262 -61,29 -155,36 -217,16 z"
       id="path36" />
    <path
       d="m 8230,8625 c -105,-35 -200,-141 -222,-248 -43,-206 163,-412 369,-369 155,32 275,190 260,339 -11,105 -90,213 -190,262 -61,29 -155,36 -217,16 z"
       id="path37" />
    <path
       d="m 9510,8625 c -105,-35 -200,-141 -222,-248 -43,-206 163,-412 369,-369 155,32 275,190 260,339 -11,105 -90,213 -190,262 -61,29 -155,36 -217,16 z"
       id="path38" />
    <path
       d="m 10790,8625 c -105,-35 -200,-141 -222,-248 -43,-206 163,-412 369,-369 155,32 275,190 260,339 -11,105 -90,213 -190,262 -61,29 -155,36 -217,16 z"
       id="path39" />
    <path
       d="m 12070,8625 c -105,-35 -200,-141 -222,-248 -43,-206 163,-412 369,-369 155,32 275,190 260,339 -11,105 -90,213 -190,262 -61,29 -155,36 -217,16 z"
       id="path40" />
    <path
       d="m 550,7345 c -105,-35 -200,-141 -222,-248 -43,-206 163,-412 369,-369 155,32 275,190 260,339 -11,105 -90,213 -190,262 -61,29 -155,36 -217,16 z"
       id="path41" />
    <path
       d="m 1830,7345 c -105,-35 -200,-141 -222,-248 -43,-206 163,-412 369,-369 155,32 275,190 260,339 -11,105 -90,213 -190,262 -61,29 -155,36 -217,16 z"
       id="path42" />
    <path
       d="m 3110,7345 c -105,-35 -200,-141 -222,-248 -43,-206 163,-412 369,-369 155,32 275,190 260,339 -11,105 -90,213 -190,262 -61,29 -155,36 -217,16 z"
       id="path43" />
    <path
       d="m 4390,7345 c -105,-35 -200,-141 -222,-248 -43,-206 163,-412 369,-369 155,32 275,190 260,339 -11,105 -90,213 -190,262 -61,29 -155,36 -217,16 z"
       id="path44" />
    <path
       d="m 5670,7345 c -105,-35 -200,-141 -222,-248 -43,-206 163,-412 369,-369 155,32 275,190 260,339 -11,105 -90,213 -190,262 -61,29 -155,36 -217,16 z"
       id="path45" />
    <path
       d="m 6950,7345 c -105,-35 -200,-141 -222,-248 -43,-206 163,-412 369,-369 155,32 275,190 260,339 -11,105 -90,213 -190,262 -61,29 -155,36 -217,16 z"
       id="path46" />
    <path
       d="m 8230,7345 c -105,-35 -200,-141 -222,-248 -43,-206 163,-412 369,-369 155,32 275,190 260,339 -11,105 -90,213 -190,262 -61,29 -155,36 -217,16 z"
       id="path47" />
    <path
       d="m 9510,7345 c -105,-35 -200,-141 -222,-248 -43,-206 163,-412 369,-369 155,32 275,190 260,339 -11,105 -90,213 -190,262 -61,29 -155,36 -217,16 z"
       id="path48" />
    <path
       d="m 10790,7345 c -105,-35 -200,-141 -222,-248 -43,-206 163,-412 369,-369 155,32 275,190 260,339 -11,105 -90,213 -190,262 -61,29 -155,36 -217,16 z"
       id="path49" />
    <path
       d="m 12070,7345 c -105,-35 -200,-141 -222,-248 -43,-206 163,-412 369,-369 155,32 275,190 260,339 -11,105 -90,213 -190,262 -61,29 -155,36 -217,16 z"
       id="path50" />
    <path
       d="m 550,6065 c -105,-35 -200,-141 -222,-248 -43,-206 163,-412 369,-369 155,32 275,190 260,339 -11,105 -90,213 -190,262 -61,29 -155,36 -217,16 z"
       id="path51" />
    <path
       d="m 1830,6065 c -105,-35 -200,-141 -222,-248 -43,-206 163,-412 369,-369 155,32 275,190 260,339 -11,105 -90,213 -190,262 -61,29 -155,36 -217,16 z"
       id="path52" />
    <path
       d="m 3110,6065 c -105,-35 -200,-141 -222,-248 -43,-206 163,-412 369,-369 155,32 275,190 260,339 -11,105 -90,213 -190,262 -61,29 -155,36 -217,16 z"
       id="path53" />
    <path
       d="m 4390,6065 c -105,-35 -200,-141 -222,-248 -43,-206 163,-412 369,-369 155,32 275,190 260,339 -11,105 -90,213 -190,262 -61,29 -155,36 -217,16 z"
       id="path54" />
    <path
       d="m 5670,6065 c -105,-35 -200,-141 -222,-248 -43,-206 163,-412 369,-369 155,32 275,190 260,339 -11,105 -90,213 -190,262 -61,29 -155,36 -217,16 z"
       id="path55" />
    <path
       d="m 6950,6065 c -105,-35 -200,-141 -222,-248 -43,-206 163,-412 369,-369 155,32 275,190 260,339 -11,105 -90,213 -190,262 -61,29 -155,36 -217,16 z"
       id="path56" />
    <path
       d="m 8230,6065 c -105,-35 -200,-141 -222,-248 -43,-206 163,-412 369,-369 155,32 275,190 260,339 -11,105 -90,213 -190,262 -61,29 -155,36 -217,16 z"
       id="path57" />
    <path
       d="m 9510,6065 c -105,-35 -200,-141 -222,-248 -43,-206 163,-412 369,-369 155,32 275,190 260,339 -11,105 -90,213 -190,262 -61,29 -155,36 -217,16 z"
       id="path58" />
    <path
       d="m 10790,6065 c -105,-35 -200,-141 -222,-248 -43,-206 163,-412 369,-369 155,32 275,190 260,339 -11,105 -90,213 -190,262 -61,29 -155,36 -217,16 z"
       id="path59" />
    <path
       d="m 12070,6065 c -105,-35 -200,-141 -222,-248 -43,-206 163,-412 369,-369 155,32 275,190 260,339 -11,105 -90,213 -190,262 -61,29 -155,36 -217,16 z"
       id="path60" />
    <path
       d="m 550,4785 c -105,-35 -200,-141 -222,-248 -43,-206 163,-412 369,-369 155,32 275,190 260,339 -11,105 -90,213 -190,262 -61,29 -155,36 -217,16 z"
       id="path61" />
    <path
       d="m 1830,4785 c -105,-35 -200,-141 -222,-248 -43,-206 163,-412 369,-369 155,32 275,190 260,339 -11,105 -90,213 -190,262 -61,29 -155,36 -217,16 z"
       id="path62" />
    <path
       d="m 3110,4785 c -105,-35 -200,-141 -222,-248 -25,-117 32,-244 142,-319 107,-74 229,-75 337,-3 177,118 201,338 53,485 -85,86 -207,119 -310,85 z"
       id="path63" />
    <path
       d="m 4390,4785 c -105,-35 -200,-141 -222,-248 -25,-117 32,-244 142,-319 107,-74 229,-75 337,-3 177,118 201,338 53,485 -85,86 -207,119 -310,85 z"
       id="path64" />
    <path
       d="m 5670,4785 c -151,-50 -253,-216 -222,-362 25,-119 136,-230 255,-255 193,-41 394,142 374,339 -11,105 -90,213 -190,262 -61,29 -155,36 -217,16 z"
       id="path65" />
    <path
       d="m 6950,4785 c -151,-50 -253,-216 -222,-362 25,-119 136,-230 255,-255 193,-41 394,142 374,339 -11,105 -90,213 -190,262 -61,29 -155,36 -217,16 z"
       id="path66" />
    <path
       d="m 8230,4785 c -151,-50 -253,-216 -222,-362 25,-119 136,-230 255,-255 193,-41 394,142 374,339 -11,105 -90,213 -190,262 -61,29 -155,36 -217,16 z"
       id="path67" />
    <path
       d="m 9510,4785 c -151,-50 -253,-216 -222,-362 25,-119 136,-230 255,-255 193,-41 394,142 374,339 -11,105 -90,213 -190,262 -61,29 -155,36 -217,16 z"
       id="path68" />
    <path
       d="m 10790,4785 c -105,-35 -200,-141 -222,-248 -43,-206 163,-412 369,-369 155,32 275,190 260,339 -11,105 -90,213 -190,262 -61,29 -155,36 -217,16 z"
       id="path69" />
    <path
       d="m 12070,4785 c -105,-35 -200,-141 -222,-248 -43,-206 163,-412 369,-369 155,32 275,190 260,339 -11,105 -90,213 -190,262 -61,29 -155,36 -217,16 z"
       id="path70" />
    <path
       d="m 550,3505 c -105,-35 -200,-141 -222,-248 -43,-206 163,-412 369,-369 155,32 275,190 260,339 -11,105 -90,213 -190,262 -61,29 -155,36 -217,16 z"
       id="path71" />
    <path
       d="m 1830,3505 c -105,-35 -200,-141 -222,-248 -43,-206 163,-412 369,-369 155,32 275,190 260,339 -11,105 -90,213 -190,262 -61,29 -155,36 -217,16 z"
       id="path72" />
    <path
       d="m 3110,3505 c -105,-35 -200,-141 -222,-248 -25,-117 32,-244 142,-319 107,-74 229,-75 337,-3 177,118 201,338 53,485 -85,86 -207,119 -310,85 z"
       id="path73" />
    <path
       d="m 4390,3505 c -105,-35 -200,-141 -222,-248 -25,-117 32,-244 142,-319 107,-74 229,-75 337,-3 177,118 201,338 53,485 -85,86 -207,119 -310,85 z"
       id="path74" />
    <path
       d="m 5670,3505 c -151,-50 -253,-216 -222,-362 25,-119 136,-230 255,-255 193,-41 394,142 374,339 -11,105 -90,213 -190,262 -61,29 -155,36 -217,16 z"
       id="path75" />
    <path
       d="m 6950,3505 c -151,-50 -253,-216 -222,-362 25,-119 136,-230 255,-255 193,-41 394,142 374,339 -11,105 -90,213 -190,262 -61,29 -155,36 -217,16 z"
       id="path76" />
    <path
       d="m 8230,3505 c -151,-50 -253,-216 -222,-362 25,-119 136,-230 255,-255 193,-41 394,142 374,339 -11,105 -90,213 -190,262 -61,29 -155,36 -217,16 z"
       id="path77" />
    <path
       d="m 9510,3505 c -151,-50 -253,-216 -222,-362 25,-119 136,-230 255,-255 193,-41 394,142 374,339 -11,105 -90,213 -190,262 -61,29 -155,36 -217,16 z"
       id="path78" />
    <path
       d="m 10790,3505 c -105,-35 -200,-141 -222,-248 -43,-206 163,-412 369,-369 155,32 275,190 260,339 -11,105 -90,213 -190,262 -61,29 -155,36 -217,16 z"
       id="path79" />
    <path
       d="m 12070,3505 c -105,-35 -200,-141 -222,-248 -43,-206 163,-412 369,-369 155,32 275,190 260,339 -11,105 -90,213 -190,262 -61,29 -155,36 -217,16 z"
       id="path80" />
    <path
       d="m 550,2225 c -105,-35 -200,-141 -222,-248 -43,-206 163,-412 369,-369 155,32 275,190 260,339 -11,105 -90,213 -190,262 -61,29 -155,36 -217,16 z"
       id="path81" />
    <path
       d="m 1830,2225 c -105,-35 -200,-141 -222,-248 -43,-206 163,-412 369,-369 155,32 275,190 260,339 -11,105 -90,213 -190,262 -61,29 -155,36 -217,16 z"
       id="path82" />
    <path
       d="m 3110,2225 c -105,-35 -200,-141 -222,-248 -25,-117 32,-244 142,-319 107,-74 229,-75 337,-3 177,118 201,338 53,485 -85,86 -207,119 -310,85 z"
       id="path83" />
    <path
       d="m 4390,2225 c -105,-35 -200,-141 -222,-248 -25,-117 32,-244 142,-319 107,-74 229,-75 337,-3 177,118 201,338 53,485 -85,86 -207,119 -310,85 z"
       id="path84" />
    <path
       d="m 5670,2225 c -105,-35 -200,-141 -222,-248 -43,-206 163,-412 369,-369 155,32 275,190 260,339 -11,105 -90,213 -190,262 -61,29 -155,36 -217,16 z"
       id="path85" />
    <path
       d="m 6950,2225 c -105,-35 -200,-141 -222,-248 -43,-206 163,-412 369,-369 155,32 275,190 260,339 -11,105 -90,213 -190,262 -61,29 -155,36 -217,16 z"
       id="path86" />
    <path
       d="m 8230,2225 c -105,-35 -200,-141 -222,-248 -43,-206 163,-412 369,-369 155,32 275,190 260,339 -11,105 -90,213 -190,262 -61,29 -155,36 -217,16 z"
       id="path87" />
    <path
       d="m 9510,2225 c -105,-35 -200,-141 -222,-248 -43,-206 163,-412 369,-369 155,32 275,190 260,339 -11,105 -90,213 -190,262 -61,29 -155,36 -217,16 z"
       id="path88" />
    <path
       d="m 10790,2225 c -105,-35 -200,-141 -222,-248 -43,-206 163,-412 369,-369 155,32 275,190 260,339 -11,105 -90,213 -190,262 -61,29 -155,36 -217,16 z"
       id="path89" />
    <path
       d="m 12070,2225 c -105,-35 -200,-141 -222,-248 -43,-206 163,-412 369,-369 155,32 275,190 260,339 -11,105 -90,213 -190,262 -61,29 -155,36 -217,16 z"
       id="path90" />
    <path
       d="M 550,945 C 445,910 350,804 328,697 285,491 491,285 697,328 852,360 972,518 957,667 946,772 867,880 767,929 706,958 612,965 550,945 Z"
       id="path91" />
    <path
       d="m 1830,945 c -105,-35 -200,-141 -222,-248 -43,-206 163,-412 369,-369 155,32 275,190 260,339 -11,105 -90,213 -190,262 -61,29 -155,36 -217,16 z"
       id="path92" />
    <path
       d="m 3110,945 c -105,-35 -200,-141 -222,-248 -43,-206 163,-412 369,-369 155,32 275,190 260,339 -11,105 -90,213 -190,262 -61,29 -155,36 -217,16 z"
       id="path93" />
    <path
       d="m 4390,945 c -105,-35 -200,-141 -222,-248 -43,-206 163,-412 369,-369 155,32 275,190 260,339 -11,105 -90,213 -190,262 -61,29 -155,36 -217,16 z"
       id="path94" />
    <path
       d="m 5670,945 c -105,-35 -200,-141 -222,-248 -43,-206 163,-412 369,-369 155,32 275,190 260,339 -11,105 -90,213 -190,262 -61,29 -155,36 -217,16 z"
       id="path95" />
    <path
       d="m 6950,945 c -105,-35 -200,-141 -222,-248 -43,-206 163,-412 369,-369 155,32 275,190 260,339 -11,105 -90,213 -190,262 -61,29 -155,36 -217,16 z"
       id="path96" />
    <path
       d="m 8230,945 c -105,-35 -200,-141 -222,-248 -43,-206 163,-412 369,-369 155,32 275,190 260,339 -11,105 -90,213 -190,262 -61,29 -155,36 -217,16 z"
       id="path97" />
    <path
       d="m 9510,945 c -105,-35 -200,-141 -222,-248 -43,-206 163,-412 369,-369 155,32 275,190 260,339 -11,105 -90,213 -190,262 -61,29 -155,36 -217,16 z"
       id="path98" />
    <path
       d="m 10790,945 c -105,-35 -200,-141 -222,-248 -43,-206 163,-412 369,-369 155,32 275,190 260,339 -11,105 -90,213 -190,262 -61,29 -155,36 -217,16 z"
       id="path99" />
    <path
       d="m 12070,945 c -105,-35 -200,-141 -222,-248 -43,-206 163,-412 369,-369 155,32 275,190 260,339 -11,105 -90,213 -190,262 -61,29 -155,36 -217,16 z"
       id="path100" />
  </g>
</svg>
