<?xml version="1.0" encoding="UTF-8" standalone="no"?>
<svg
   viewBox="0 0 639.99998 639.99998"
   version="1.1"
   id="svg1"
   sodipodi:docname="earth-americas-solid-full.svg"
   width="169.33333mm"
   height="169.33333mm"
   inkscape:version="1.3 (0e150ed, 2023-07-21)"
   xmlns:inkscape="http://www.inkscape.org/namespaces/inkscape"
   xmlns:sodipodi="http://sodipodi.sourceforge.net/DTD/sodipodi-0.dtd"
   xmlns="http://www.w3.org/2000/svg"
   xmlns:svg="http://www.w3.org/2000/svg">
  <defs
     id="defs1" />
  <sodipodi:namedview
     id="namedview1"
     pagecolor="#ffffff"
     bordercolor="#666666"
     borderopacity="1.0"
     inkscape:showpageshadow="2"
     inkscape:pageopacity="0.0"
     inkscape:pagecheckerboard="0"
     inkscape:deskcolor="#d1d1d1"
     inkscape:document-units="mm"
     inkscape:zoom="0.36875"
     inkscape:cx="318.64407"
     inkscape:cy="320"
     inkscape:window-width="1376"
     inkscape:window-height="449"
     inkscape:window-x="0"
     inkscape:window-y="38"
     inkscape:window-maximized="0"
     inkscape:current-layer="svg1" />
  <!--!Font Awesome Free 7.1.0 by @fontawesome - https://fontawesome.com License - https://fontawesome.com/license/free Copyright 2025 Fonticons, Inc.-->
  <path
     d="m 119.7,263.7 30.9,30.9 c 6,6 14.1,9.4 22.6,9.4 h 21.5 c 8.5,0 16.6,3.4 22.6,9.4 l 29.3,29.3 c 6,6 9.4,14.1 9.4,22.6 v 37.5 c 0,8.5 3.4,16.6 9.4,22.6 l 13.3,13.3 c 6,6 9.4,14.1 9.4,22.6 V 480 c 0,17.7 14.3,32 32,32 17.7,0 32,-14.3 32,-32 v -2.7 c 0,-8.5 3.4,-16.6 9.4,-22.6 l 45.3,-45.3 c 6,-6 9.4,-14.1 9.4,-22.6 v -34.7 c 0,-17.7 -14.3,-32 -32,-32 h -82.7 c -8.5,0 -16.6,-3.4 -22.6,-9.4 l -16,-16 c -4.2,-4.2 -6.6,-10 -6.6,-16 0,-12.5 10.1,-22.6 22.6,-22.6 h 34.7 c 12.5,0 22.6,-10.1 22.6,-22.6 0,-6 -2.4,-11.8 -6.6,-16 L 309.9,197.8 C 306,194 304,189.1 304,184 c 0,-5.1 2,-10 5.7,-13.7 L 327,153 c 5.8,-5.8 9.1,-13.7 9.1,-21.9 0,-7.2 -2.4,-13.7 -6.4,-18.9 -3.2,-0.1 -6.4,-0.2 -9.6,-0.2 -95.4,0 -175.7,64.2 -200.3,151.7 z M 528,320 c 0,-34.6 -8.4,-67.2 -23.4,-95.8 -6.4,0.9 -12.7,3.9 -17.9,9.1 l -13.4,13.4 c -6,6 -9.4,14.1 -9.4,22.6 V 304 c 0,17.7 14.3,32 32,32 H 520 c 2.5,0 5,-0.3 7.3,-0.8 0.4,-5 0.5,-10.1 0.5,-15.2 z M 64,320 C 64,178.6 178.6,64 320,64 461.4,64 576,178.6 576,320 576,461.4 461.4,576 320,576 178.6,576 64,461.4 64,320 Z"
     id="path1" />
</svg>
