<?xml version="1.0" encoding="UTF-8" standalone="no"?>
<svg
   viewBox="0 0 639.99998 639.99998"
   version="1.1"
   id="svg1"
   sodipodi:docname="face-smile-solid-full.svg"
   width="169.33333mm"
   height="169.33333mm"
   inkscape:version="1.3 (0e150ed, 2023-07-21)"
   xmlns:inkscape="http://www.inkscape.org/namespaces/inkscape"
   xmlns:sodipodi="http://sodipodi.sourceforge.net/DTD/sodipodi-0.dtd"
   xmlns="http://www.w3.org/2000/svg"
   xmlns:svg="http://www.w3.org/2000/svg">
  <defs
     id="defs1" />
  <sodipodi:namedview
     id="namedview1"
     pagecolor="#ffffff"
     bordercolor="#666666"
     borderopacity="1.0"
     inkscape:showpageshadow="2"
     inkscape:pageopacity="0.0"
     inkscape:pagecheckerboard="0"
     inkscape:deskcolor="#d1d1d1"
     inkscape:document-units="mm"
     inkscape:zoom="0.36875"
     inkscape:cx="318.64407"
     inkscape:cy="320"
     inkscape:window-width="1376"
     inkscape:window-height="449"
     inkscape:window-x="0"
     inkscape:window-y="38"
     inkscape:window-maximized="0"
     inkscape:current-layer="svg1" />
  <!--!Font Awesome Free 7.1.0 by @fontawesome - https://fontawesome.com License - https://fontawesome.com/license/free Copyright 2025 Fonticons, Inc.-->
  <path
     d="M 320,576 C 461.4,576 576,461.4 576,320 576,178.6 461.4,64 320,64 178.6,64 64,178.6 64,320 64,461.4 178.6,576 320,576 Z M 229.4,385.9 c 20.4,28 53.4,46.1 90.6,46.1 37.2,0 70.2,-18.1 90.6,-46.1 7.8,-10.7 22.8,-13.1 33.5,-5.3 10.7,7.8 13.1,22.8 5.3,33.5 C 420.3,454 373.2,480 320,480 c -53.2,0 -100.3,-26 -129.4,-65.9 -7.8,-10.7 -5.4,-25.7 5.3,-33.5 10.7,-7.8 25.7,-5.4 33.5,5.3 z M 208,272 c 0,-17.7 14.3,-32 32,-32 17.7,0 32,14.3 32,32 0,17.7 -14.3,32 -32,32 -17.7,0 -32,-14.3 -32,-32 z m 192,-32 c 17.7,0 32,14.3 32,32 0,17.7 -14.3,32 -32,32 -17.7,0 -32,-14.3 -32,-32 0,-17.7 14.3,-32 32,-32 z"
     id="path1" />
</svg>
