<?xml version="1.0" encoding="UTF-8" standalone="no"?>
<svg
   viewBox="0 0 639.99998 639.99998"
   version="1.1"
   id="svg1"
   sodipodi:docname="flag-solid-full.svg"
   width="169.33333mm"
   height="169.33333mm"
   inkscape:version="1.3 (0e150ed, 2023-07-21)"
   xmlns:inkscape="http://www.inkscape.org/namespaces/inkscape"
   xmlns:sodipodi="http://sodipodi.sourceforge.net/DTD/sodipodi-0.dtd"
   xmlns="http://www.w3.org/2000/svg"
   xmlns:svg="http://www.w3.org/2000/svg">
  <defs
     id="defs1" />
  <sodipodi:namedview
     id="namedview1"
     pagecolor="#ffffff"
     bordercolor="#666666"
     borderopacity="1.0"
     inkscape:showpageshadow="2"
     inkscape:pageopacity="0.0"
     inkscape:pagecheckerboard="0"
     inkscape:deskcolor="#d1d1d1"
     inkscape:document-units="mm"
     inkscape:zoom="0.36875"
     inkscape:cx="318.64407"
     inkscape:cy="320"
     inkscape:window-width="1376"
     inkscape:window-height="449"
     inkscape:window-x="0"
     inkscape:window-y="38"
     inkscape:window-maximized="0"
     inkscape:current-layer="svg1" />
  <!--!Font Awesome Free 7.1.0 by @fontawesome - https://fontawesome.com License - https://fontawesome.com/license/free Copyright 2025 Fonticons, Inc.-->
  <path
     d="M 160,96 C 160,78.3 145.7,64 128,64 110.3,64 96,78.3 96,96 v 448 c 0,17.7 14.3,32 32,32 17.7,0 32,-14.3 32,-32 V 422.4 l 62.7,-18.8 c 41.9,-12.6 87.1,-8.7 126.2,10.9 42.7,21.4 92.5,24 137.2,7.2 l 37.1,-13.9 c 12.5,-4.7 20.8,-16.6 20.8,-30 V 130.1 c 0,-23 -24.2,-38 -44.8,-27.7 l -11.8,5.9 c -44.9,22.5 -97.8,22.5 -142.8,0 C 308.2,90.1 266.3,86.5 227.4,98.2 L 160,118.4 Z"
     id="path1" />
</svg>
