<?xml version="1.0" encoding="UTF-8" standalone="no"?>
<svg
   viewBox="0 0 639.99998 639.99998"
   version="1.1"
   id="svg1"
   sodipodi:docname="flask-solid-full.svg"
   width="169.33333mm"
   height="169.33333mm"
   inkscape:version="1.3 (0e150ed, 2023-07-21)"
   xmlns:inkscape="http://www.inkscape.org/namespaces/inkscape"
   xmlns:sodipodi="http://sodipodi.sourceforge.net/DTD/sodipodi-0.dtd"
   xmlns="http://www.w3.org/2000/svg"
   xmlns:svg="http://www.w3.org/2000/svg">
  <defs
     id="defs1" />
  <sodipodi:namedview
     id="namedview1"
     pagecolor="#ffffff"
     bordercolor="#666666"
     borderopacity="1.0"
     inkscape:showpageshadow="2"
     inkscape:pageopacity="0.0"
     inkscape:pagecheckerboard="0"
     inkscape:deskcolor="#d1d1d1"
     inkscape:document-units="mm"
     inkscape:zoom="0.36875"
     inkscape:cx="318.64407"
     inkscape:cy="320"
     inkscape:window-width="1376"
     inkscape:window-height="449"
     inkscape:window-x="0"
     inkscape:window-y="38"
     inkscape:window-maximized="0"
     inkscape:current-layer="svg1" />
  <!--!Font Awesome Free 7.1.0 by @fontawesome - https://fontawesome.com License - https://fontawesome.com/license/free Copyright 2025 Fonticons, Inc.-->
  <path
     d="M 384,64 H 224 c -17.7,0 -32,14.3 -32,32 0,17.7 14.3,32 32,32 V 279.5 L 103.5,490.3 c -4.9,8.7 -7.5,18.4 -7.5,28.4 0,31.7 25.6,57.3 57.3,57.3 h 333.4 c 31.6,0 57.3,-25.6 57.3,-57.3 0,-10 -2.6,-19.8 -7.5,-28.4 L 416,279.5 V 128 c 17.7,0 32,-14.3 32,-32 0,-17.7 -14.3,-32 -32,-32 z M 288,279.5 V 128 h 64 v 151.5 c 0,11.1 2.9,22.1 8.4,31.8 L 402,384 H 238 l 41.6,-72.7 c 5.5,-9.7 8.4,-20.6 8.4,-31.8 z"
     id="path1" />
</svg>
