<?xml version="1.0" encoding="UTF-8" standalone="no"?>
<svg
   viewBox="0 0 639.99998 639.99998"
   version="1.1"
   id="svg1"
   sodipodi:docname="football-solid-full.svg"
   width="169.33333mm"
   height="169.33333mm"
   inkscape:version="1.3 (0e150ed, 2023-07-21)"
   xmlns:inkscape="http://www.inkscape.org/namespaces/inkscape"
   xmlns:sodipodi="http://sodipodi.sourceforge.net/DTD/sodipodi-0.dtd"
   xmlns="http://www.w3.org/2000/svg"
   xmlns:svg="http://www.w3.org/2000/svg">
  <defs
     id="defs1" />
  <sodipodi:namedview
     id="namedview1"
     pagecolor="#ffffff"
     bordercolor="#666666"
     borderopacity="1.0"
     inkscape:showpageshadow="2"
     inkscape:pageopacity="0.0"
     inkscape:pagecheckerboard="0"
     inkscape:deskcolor="#d1d1d1"
     inkscape:document-units="mm"
     inkscape:zoom="0.36875"
     inkscape:cx="318.64407"
     inkscape:cy="320"
     inkscape:window-width="1376"
     inkscape:window-height="449"
     inkscape:window-x="0"
     inkscape:window-y="38"
     inkscape:window-maximized="0"
     inkscape:current-layer="svg1" />
  <!--!Font Awesome Free 7.1.0 by @fontawesome - https://fontawesome.com License - https://fontawesome.com/license/free Copyright 2025 Fonticons, Inc.-->
  <path
     d="m 325.1,86.6 c -89,18 -150.5,63.4 -190,123.9 C 111.8,246.1 97,285.8 88.4,326 l 227.5,227.4 c 89,-18 150.5,-63.4 190.1,-123.9 23.3,-35.6 38.1,-75.3 46.7,-115.5 z m 236,168.1 C 564.3,212.4 561.8,171.4 556.3,136 551.9,108.2 529.5,88 503.2,84.4 460.2,78.5 421,76.9 385.4,79 L 561.1,254.6 Z M 255.7,561.1 79.9,385.4 c -3.2,42.3 -0.7,83.3 4.8,118.7 4.4,27.8 26.8,48 53.1,51.6 43,5.9 82.2,7.5 117.8,5.4 z M 335.5,207 c 9.4,-9.4 24.6,-9.4 33.9,0 l 64,64 c 9.4,9.4 9.4,24.6 0,33.9 -9.4,9.3 -24.6,9.4 -33.9,0 l -64,-64 c -9.4,-9.4 -9.4,-24.6 0,-33.9 z m -64,64 c 9.4,-9.4 24.6,-9.4 33.9,0 l 64,64 c 9.4,9.4 9.4,24.6 0,33.9 -9.4,9.3 -24.6,9.4 -33.9,0 l -64,-64 c -9.4,-9.4 -9.4,-24.6 0,-33.9 z m -64,64 c 9.4,-9.4 24.6,-9.4 33.9,0 l 64,64 c 9.4,9.4 9.4,24.6 0,33.9 -9.4,9.3 -24.6,9.4 -33.9,0 l -64,-64 c -9.4,-9.4 -9.4,-24.6 0,-33.9 z"
     id="path1" />
</svg>
