<?xml version="1.0" encoding="UTF-8" standalone="no"?>
<svg
   viewBox="0 0 639.99998 639.99998"
   version="1.1"
   id="svg1"
   sodipodi:docname="frog-solid-full.svg"
   width="169.33333mm"
   height="169.33333mm"
   inkscape:version="1.3 (0e150ed, 2023-07-21)"
   xmlns:inkscape="http://www.inkscape.org/namespaces/inkscape"
   xmlns:sodipodi="http://sodipodi.sourceforge.net/DTD/sodipodi-0.dtd"
   xmlns="http://www.w3.org/2000/svg"
   xmlns:svg="http://www.w3.org/2000/svg">
  <defs
     id="defs1" />
  <sodipodi:namedview
     id="namedview1"
     pagecolor="#ffffff"
     bordercolor="#666666"
     borderopacity="1.0"
     inkscape:showpageshadow="2"
     inkscape:pageopacity="0.0"
     inkscape:pagecheckerboard="0"
     inkscape:deskcolor="#d1d1d1"
     inkscape:document-units="mm"
     inkscape:zoom="0.36875"
     inkscape:cx="318.64407"
     inkscape:cy="320"
     inkscape:window-width="1376"
     inkscape:window-height="449"
     inkscape:window-x="0"
     inkscape:window-y="38"
     inkscape:window-maximized="0"
     inkscape:current-layer="svg1" />
  <!--!Font Awesome Free 7.1.0 by @fontawesome - https://fontawesome.com License - https://fontawesome.com/license/free Copyright 2025 Fonticons, Inc.-->
  <path
     d="m 400,96 c 41.7,0 75.9,31.8 79.7,72.5 l 85.6,26.3 c 25.4,7.8 42.8,31.3 42.8,57.9 0,21.8 -11.7,41.9 -30.7,52.7 l -144.5,82.1 92.5,92.5 h 50.7 c 17.7,0 32,14.3 32,32 0,17.7 -14.3,32 -32,32 h -64 c -8.5,0 -16.6,-3.4 -22.6,-9.4 L 378.9,424.2 c 11.7,-36 3.2,-77.1 -25.4,-105.7 -40.6,-40.6 -106.3,-40.6 -146.9,-0.1 l -73.6,70 c -6.4,6.1 -6.7,16.2 -0.6,22.6 6.1,6.4 16.2,6.6 22.6,0.6 l 73.8,-70.2 0.1,-0.1 0.1,-0.1 c 3.5,-3.5 7.3,-6.6 11.3,-9.2 27.9,-18.5 65.9,-15.4 90.5,9.2 24.7,24.7 27.7,62.9 9,90.9 -2.6,3.8 -5.6,7.5 -9,10.9 l -37,37 H 384 c 17.7,0 32,14.3 32,32 0,17.7 -14.3,32 -32,32 H 96 C 60.7,544 32,515.3 32,480 32,313.6 159,176.9 321.3,161.5 328.2,124.2 360.8,96 400,96 Z m 0,104 c 13.3,0 24,-10.7 24,-24 0,-13.3 -10.7,-24 -24,-24 -13.3,0 -24,10.7 -24,24 0,13.3 10.7,24 24,24 z"
     id="path1" />
</svg>
