<?xml version="1.0" encoding="UTF-8" standalone="no"?>
<svg
   viewBox="0 0 639.99998 639.99998"
   version="1.1"
   id="svg1"
   sodipodi:docname="ghost-solid-full.svg"
   width="169.33333mm"
   height="169.33333mm"
   inkscape:version="1.3 (0e150ed, 2023-07-21)"
   xmlns:inkscape="http://www.inkscape.org/namespaces/inkscape"
   xmlns:sodipodi="http://sodipodi.sourceforge.net/DTD/sodipodi-0.dtd"
   xmlns="http://www.w3.org/2000/svg"
   xmlns:svg="http://www.w3.org/2000/svg">
  <defs
     id="defs1" />
  <sodipodi:namedview
     id="namedview1"
     pagecolor="#ffffff"
     bordercolor="#666666"
     borderopacity="1.0"
     inkscape:showpageshadow="2"
     inkscape:pageopacity="0.0"
     inkscape:pagecheckerboard="0"
     inkscape:deskcolor="#d1d1d1"
     inkscape:document-units="mm"
     inkscape:zoom="0.36875"
     inkscape:cx="318.64407"
     inkscape:cy="320"
     inkscape:window-width="1376"
     inkscape:window-height="449"
     inkscape:window-x="0"
     inkscape:window-y="38"
     inkscape:window-maximized="0"
     inkscape:current-layer="svg1" />
  <!--!Font Awesome Free 7.1.0 by @fontawesome - https://fontawesome.com License - https://fontawesome.com/license/free Copyright 2025 Fonticons, Inc.-->
  <path
     d="m 168.1,531.1 -11.2,9 c -3.2,2.5 -7.1,3.9 -11.1,3.9 C 136,544 128,536 128,526.2 V 256 c 0,-106 86,-192 192,-192 106,0 192,86 192,192 v 270.2 c 0,9.8 -8,17.8 -17.8,17.8 -4,0 -7.9,-1.4 -11.1,-3.9 l -11.2,-9 c -13.4,-10.7 -32.8,-9 -44.1,3.9 l -30.5,35 c -3.3,3.8 -8.2,6 -13.3,6 -5.1,0 -9.9,-2.2 -13.3,-6 l -26.6,-30.5 c -12.7,-14.6 -35.4,-14.6 -48.2,0 L 269.3,570 c -3.3,3.8 -8.2,6 -13.3,6 -5.1,0 -9.9,-2.2 -13.3,-6 l -30.5,-35 c -11.3,-12.9 -30.7,-14.6 -44.1,-3.9 z M 288,256 c 0,-17.7 -14.3,-32 -32,-32 -17.7,0 -32,14.3 -32,32 0,17.7 14.3,32 32,32 17.7,0 32,-14.3 32,-32 z m 96,32 c 17.7,0 32,-14.3 32,-32 0,-17.7 -14.3,-32 -32,-32 -17.7,0 -32,14.3 -32,32 0,17.7 14.3,32 32,32 z"
     id="path1" />
</svg>
