<?xml version="1.0" encoding="UTF-8" standalone="no"?>
<svg
   viewBox="0 0 639.99998 639.99998"
   version="1.1"
   id="svg1"
   sodipodi:docname="graduation-cap-solid-full.svg"
   width="169.33333mm"
   height="169.33333mm"
   inkscape:version="1.3 (0e150ed, 2023-07-21)"
   xmlns:inkscape="http://www.inkscape.org/namespaces/inkscape"
   xmlns:sodipodi="http://sodipodi.sourceforge.net/DTD/sodipodi-0.dtd"
   xmlns="http://www.w3.org/2000/svg"
   xmlns:svg="http://www.w3.org/2000/svg">
  <defs
     id="defs1" />
  <sodipodi:namedview
     id="namedview1"
     pagecolor="#ffffff"
     bordercolor="#666666"
     borderopacity="1.0"
     inkscape:showpageshadow="2"
     inkscape:pageopacity="0.0"
     inkscape:pagecheckerboard="0"
     inkscape:deskcolor="#d1d1d1"
     inkscape:document-units="mm"
     inkscape:zoom="0.36875"
     inkscape:cx="318.64407"
     inkscape:cy="320"
     inkscape:window-width="1376"
     inkscape:window-height="449"
     inkscape:window-x="0"
     inkscape:window-y="38"
     inkscape:window-maximized="0"
     inkscape:current-layer="svg1" />
  <!--!Font Awesome Free 7.1.0 by @fontawesome - https://fontawesome.com License - https://fontawesome.com/license/free Copyright 2025 Fonticons, Inc.-->
  <path
     d="m 80,259.8 209.2,86.1 c 9.8,4 20.2,6.1 30.8,6.1 10.6,0 21,-2.1 30.8,-6.1 l 242.4,-99.8 c 9,-3.7 14.8,-12.4 14.8,-22.1 0,-9.7 -5.8,-18.4 -14.8,-22.1 L 350.8,102.1 C 341,98.1 330.6,96 320,96 c -10.6,0 -21,2.1 -30.8,6.1 L 46.8,201.9 C 37.8,205.6 32,214.3 32,224 v 296 c 0,13.3 10.7,24 24,24 13.3,0 24,-10.7 24,-24 z m 48,71.7 V 448 c 0,53 86,96 192,96 106,0 192,-43 192,-96 V 331.4 l -142.9,58.9 c -15.6,6.4 -32.2,9.7 -49.1,9.7 -16.9,0 -33.5,-3.3 -49.1,-9.7 L 128,331.4 Z"
     id="path1" />
</svg>
