<?xml version="1.0" encoding="UTF-8" standalone="no"?>
<svg
   viewBox="0 0 639.99998 639.99998"
   version="1.1"
   id="svg1"
   sodipodi:docname="hand-middle-finger-solid-full.svg"
   width="169.33333mm"
   height="169.33333mm"
   inkscape:version="1.3 (0e150ed, 2023-07-21)"
   xmlns:inkscape="http://www.inkscape.org/namespaces/inkscape"
   xmlns:sodipodi="http://sodipodi.sourceforge.net/DTD/sodipodi-0.dtd"
   xmlns="http://www.w3.org/2000/svg"
   xmlns:svg="http://www.w3.org/2000/svg">
  <defs
     id="defs1" />
  <sodipodi:namedview
     id="namedview1"
     pagecolor="#ffffff"
     bordercolor="#666666"
     borderopacity="1.0"
     inkscape:showpageshadow="2"
     inkscape:pageopacity="0.0"
     inkscape:pagecheckerboard="0"
     inkscape:deskcolor="#d1d1d1"
     inkscape:document-units="mm"
     inkscape:zoom="0.36875"
     inkscape:cx="318.64407"
     inkscape:cy="320"
     inkscape:window-width="1376"
     inkscape:window-height="449"
     inkscape:window-x="0"
     inkscape:window-y="38"
     inkscape:window-maximized="0"
     inkscape:current-layer="svg1" />
  <!--!Font Awesome Free 7.1.0 by @fontawesome - https://fontawesome.com License - https://fontawesome.com/license/free Copyright 2025 Fonticons, Inc.-->
  <path
     d="m 328,64 c -22.1,0 -40,17.9 -40,40 v 164.2 c -8.5,-7.6 -19.7,-12.2 -32,-12.2 -26.5,0 -48,21.5 -48,48 v 80 c 0,8.8 -7.2,16 -16,16 -8.8,0 -16,-7.2 -16,-16 v -55.7 c -2,1.4 -3.9,3 -5.8,4.5 l -19.2,16 C 136.4,361 128,379 128,398 v 38 c 0,38 16.9,74 46.1,98.3 l 5.4,4.5 c 28.8,24 65,37.1 102.4,37.1 L 400,576 c 70.7,0 128,-57.3 128,-128 v -96 c 0,-26.5 -21.5,-48 -48,-48 -12.4,0 -23.6,4.7 -32.1,12.3 C 446,291.5 425.3,272 400,272 c -12.3,0 -23.5,4.6 -32,12.2 V 104 C 368,81.9 350.1,64 328,64 Z"
     id="path1" />
</svg>
