<?xml version="1.0" encoding="UTF-8" standalone="no"?>
<svg
   viewBox="0 0 639.99998 639.99998"
   version="1.1"
   id="svg1"
   sodipodi:docname="horse-head-solid-full.svg"
   width="169.33333mm"
   height="169.33333mm"
   inkscape:version="1.3 (0e150ed, 2023-07-21)"
   xmlns:inkscape="http://www.inkscape.org/namespaces/inkscape"
   xmlns:sodipodi="http://sodipodi.sourceforge.net/DTD/sodipodi-0.dtd"
   xmlns="http://www.w3.org/2000/svg"
   xmlns:svg="http://www.w3.org/2000/svg">
  <defs
     id="defs1" />
  <sodipodi:namedview
     id="namedview1"
     pagecolor="#ffffff"
     bordercolor="#666666"
     borderopacity="1.0"
     inkscape:showpageshadow="2"
     inkscape:pageopacity="0.0"
     inkscape:pagecheckerboard="0"
     inkscape:deskcolor="#d1d1d1"
     inkscape:document-units="mm"
     inkscape:zoom="0.36875"
     inkscape:cx="318.64407"
     inkscape:cy="320"
     inkscape:window-width="1376"
     inkscape:window-height="449"
     inkscape:window-x="0"
     inkscape:window-y="38"
     inkscape:window-maximized="0"
     inkscape:current-layer="svg1" />
  <!--!Font Awesome Free 7.1.0 by @fontawesome - https://fontawesome.com License - https://fontawesome.com/license/free Copyright 2025 Fonticons, Inc.-->
  <path
     d="M 64,528 V 380.9 C 64,272.5 132.3,175.8 234.5,139.6 L 404.2,79.5 c 21.4,-7.6 43.8,8.3 43.8,30.9 0,11 -5.5,21.2 -14.6,27.3 L 400,160 c 48.1,0 91.2,29.8 108.1,74.9 l 48.6,129.5 c 11.8,31.4 4.1,66.8 -19.6,90.5 -16,16 -37.8,25.1 -60.5,25.1 h -3.4 c -26.1,0 -50.9,-11.6 -67.6,-31.7 l -32.3,-38.7 c -11.7,4.1 -24.2,6.4 -37.3,6.4 h -0.1 c -6.3,0 -12.5,-0.5 -18.6,-1.5 -3.6,-0.6 -7.2,-1.4 -10.7,-2.3 v 0 c -28.9,-7.8 -53.1,-26.8 -67.8,-52.2 -4.4,-7.7 -14.2,-10.3 -21.9,-5.8 -7.7,4.5 -10.3,14.2 -5.8,21.9 24,41.5 68.3,70 119.3,71.9 l 47.2,70.8 c 4,6.1 6.2,13.2 6.2,20.4 0,20.3 -16.5,36.8 -36.8,36.8 H 112 C 85.5,576 64,554.5 64,528 Z M 392,288 c 13.3,0 24,-10.7 24,-24 0,-13.3 -10.7,-24 -24,-24 -13.3,0 -24,10.7 -24,24 0,13.3 10.7,24 24,24 z"
     id="path1" />
</svg>
