<?xml version="1.0" encoding="UTF-8" standalone="no"?>
<svg
   viewBox="0 0 639.99998 639.99998"
   version="1.1"
   id="svg1"
   sodipodi:docname="leaf-solid-full.svg"
   width="169.33333mm"
   height="169.33333mm"
   inkscape:version="1.3 (0e150ed, 2023-07-21)"
   xmlns:inkscape="http://www.inkscape.org/namespaces/inkscape"
   xmlns:sodipodi="http://sodipodi.sourceforge.net/DTD/sodipodi-0.dtd"
   xmlns="http://www.w3.org/2000/svg"
   xmlns:svg="http://www.w3.org/2000/svg">
  <defs
     id="defs1" />
  <sodipodi:namedview
     id="namedview1"
     pagecolor="#ffffff"
     bordercolor="#666666"
     borderopacity="1.0"
     inkscape:showpageshadow="2"
     inkscape:pageopacity="0.0"
     inkscape:pagecheckerboard="0"
     inkscape:deskcolor="#d1d1d1"
     inkscape:document-units="mm"
     inkscape:zoom="0.36875"
     inkscape:cx="318.64407"
     inkscape:cy="320"
     inkscape:window-width="1376"
     inkscape:window-height="449"
     inkscape:window-x="0"
     inkscape:window-y="38"
     inkscape:window-maximized="0"
     inkscape:current-layer="svg1" />
  <!--!Font Awesome Free 7.1.0 by @fontawesome - https://fontawesome.com License - https://fontawesome.com/license/free Copyright 2025 Fonticons, Inc.-->
  <path
     d="m 535.3,70.7 c 6.4,-6.1 15.7,-8.3 24.3,-5.5 9.8,3.3 16.4,12.5 16.4,22.8 V 274.9 C 576,406.1 467.9,512 337.2,512 260.2,512 193.8,462.5 169.7,393.3 134.3,424.1 112,469.4 112,520 112,533.3 101.3,544 88,544 74.7,544 64,533.3 64,520 64,445.1 102.2,379.1 160.1,340.3 195.4,316.7 237.5,304 280,304 h 80 c 13.3,0 24,-10.7 24,-24 0,-13.3 -10.7,-24 -24,-24 h -80 c -39.7,0 -77.3,8.8 -111,24.5 23.3,-70 89.2,-120.5 167,-120.5 66.4,0 115.8,-22.1 148.7,-44 19.2,-12.8 35.5,-28.1 50.7,-45.3 z"
     id="path1" />
</svg>
