<?xml version="1.0" encoding="UTF-8" standalone="no"?>
<svg
   viewBox="0 0 639.99998 639.99998"
   version="1.1"
   id="svg1"
   sodipodi:docname="lightbulb-solid-full.svg"
   width="169.33333mm"
   height="169.33333mm"
   inkscape:version="1.3 (0e150ed, 2023-07-21)"
   xmlns:inkscape="http://www.inkscape.org/namespaces/inkscape"
   xmlns:sodipodi="http://sodipodi.sourceforge.net/DTD/sodipodi-0.dtd"
   xmlns="http://www.w3.org/2000/svg"
   xmlns:svg="http://www.w3.org/2000/svg">
  <defs
     id="defs1" />
  <sodipodi:namedview
     id="namedview1"
     pagecolor="#ffffff"
     bordercolor="#666666"
     borderopacity="1.0"
     inkscape:showpageshadow="2"
     inkscape:pageopacity="0.0"
     inkscape:pagecheckerboard="0"
     inkscape:deskcolor="#d1d1d1"
     inkscape:document-units="mm"
     inkscape:zoom="0.36875"
     inkscape:cx="318.64407"
     inkscape:cy="320"
     inkscape:window-width="1376"
     inkscape:window-height="449"
     inkscape:window-x="0"
     inkscape:window-y="38"
     inkscape:window-maximized="0"
     inkscape:current-layer="svg1" />
  <!--!Font Awesome Free 7.1.0 by @fontawesome - https://fontawesome.com License - https://fontawesome.com/license/free Copyright 2025 Fonticons, Inc.-->
  <path
     d="m 420.9,448 c 7.3,-22.3 21.9,-42.5 38.4,-59.9 C 492,353.7 512,307.2 512,256 512,150 426,64 320,64 214,64 128,150 128,256 c 0,51.2 20,97.7 52.7,132.1 16.5,17.4 31.2,37.6 38.4,59.9 H 420.8 Z M 416,496 H 224 v 16 c 0,44.2 35.8,80 80,80 h 32 c 44.2,0 80,-35.8 80,-80 z M 312,176 c -39.8,0 -72,32.2 -72,72 0,13.3 -10.7,24 -24,24 -13.3,0 -24,-10.7 -24,-24 0,-66.3 53.7,-120 120,-120 13.3,0 24,10.7 24,24 0,13.3 -10.7,24 -24,24 z"
     id="path1" />
</svg>
