<?xml version="1.0" encoding="UTF-8" standalone="no"?>
<svg
   viewBox="0 0 639.99998 639.99998"
   version="1.1"
   id="svg1"
   sodipodi:docname="moon-solid-full.svg"
   width="169.33333mm"
   height="169.33333mm"
   inkscape:version="1.3 (0e150ed, 2023-07-21)"
   xmlns:inkscape="http://www.inkscape.org/namespaces/inkscape"
   xmlns:sodipodi="http://sodipodi.sourceforge.net/DTD/sodipodi-0.dtd"
   xmlns="http://www.w3.org/2000/svg"
   xmlns:svg="http://www.w3.org/2000/svg">
  <defs
     id="defs1" />
  <sodipodi:namedview
     id="namedview1"
     pagecolor="#ffffff"
     bordercolor="#666666"
     borderopacity="1.0"
     inkscape:showpageshadow="2"
     inkscape:pageopacity="0.0"
     inkscape:pagecheckerboard="0"
     inkscape:deskcolor="#d1d1d1"
     inkscape:document-units="mm"
     inkscape:zoom="0.36875"
     inkscape:cx="318.64407"
     inkscape:cy="320"
     inkscape:window-width="1376"
     inkscape:window-height="449"
     inkscape:window-x="0"
     inkscape:window-y="38"
     inkscape:window-maximized="0"
     inkscape:current-layer="svg1" />
  <!--!Font Awesome Free 7.1.0 by @fontawesome - https://fontawesome.com License - https://fontawesome.com/license/free Copyright 2025 Fonticons, Inc.-->
  <path
     d="M 320,64 C 178.6,64 64,178.6 64,320 c 0,141.4 114.6,256 256,256 68.8,0 131.3,-27.2 177.3,-71.4 7.3,-7 9.4,-17.9 5.3,-27.1 -4.1,-9.2 -13.7,-14.9 -23.8,-14.1 -4.9,0.4 -9.8,0.6 -14.8,0.6 -101.6,0 -184,-82.4 -184,-184 0,-72.1 41.5,-134.6 102.1,-164.8 9.1,-4.5 14.3,-14.3 13.1,-24.4 C 394,80.7 386.6,72.5 376.7,70.3 358.4,66.2 339.4,64 320,64 Z"
     id="path1" />
</svg>
