<?xml version="1.0" encoding="UTF-8" standalone="no"?>
<svg
   viewBox="0 0 639.99998 639.99998"
   version="1.1"
   id="svg1"
   sodipodi:docname="plug-solid-full.svg"
   width="169.33333mm"
   height="169.33333mm"
   inkscape:version="1.3 (0e150ed, 2023-07-21)"
   xmlns:inkscape="http://www.inkscape.org/namespaces/inkscape"
   xmlns:sodipodi="http://sodipodi.sourceforge.net/DTD/sodipodi-0.dtd"
   xmlns="http://www.w3.org/2000/svg"
   xmlns:svg="http://www.w3.org/2000/svg">
  <defs
     id="defs1" />
  <sodipodi:namedview
     id="namedview1"
     pagecolor="#ffffff"
     bordercolor="#666666"
     borderopacity="1.0"
     inkscape:showpageshadow="2"
     inkscape:pageopacity="0.0"
     inkscape:pagecheckerboard="0"
     inkscape:deskcolor="#d1d1d1"
     inkscape:document-units="mm"
     inkscape:zoom="0.36875"
     inkscape:cx="318.64407"
     inkscape:cy="320"
     inkscape:window-width="1376"
     inkscape:window-height="449"
     inkscape:window-x="0"
     inkscape:window-y="38"
     inkscape:window-maximized="0"
     inkscape:current-layer="svg1" />
  <!--!Font Awesome Free 7.1.0 by @fontawesome - https://fontawesome.com License - https://fontawesome.com/license/free Copyright 2025 Fonticons, Inc.-->
  <path
     d="m 224,32 c 17.7,0 32,14.3 32,32 v 96 H 384 V 64 c 0,-17.7 14.3,-32 32,-32 17.7,0 32,14.3 32,32 v 96 h 64 c 17.7,0 32,14.3 32,32 0,17.7 -14.3,32 -32,32 v 64 c 0,95.1 -69.2,174.1 -160,189.3 V 544 c 0,17.7 -14.3,32 -32,32 -17.7,0 -32,-14.3 -32,-32 V 477.3 C 197.2,462.1 128,383.1 128,288 v -64 c -17.7,0 -32,-14.3 -32,-32 0,-17.7 14.3,-32 32,-32 h 64 V 64 c 0,-17.7 14.3,-32 32,-32 z"
     id="path1" />
</svg>
