<?xml version="1.0" encoding="UTF-8" standalone="no"?>
<svg
   viewBox="0 0 639.99998 639.99998"
   version="1.1"
   id="svg1"
   sodipodi:docname="poo-solid-full.svg"
   width="169.33333mm"
   height="169.33333mm"
   inkscape:version="1.3 (0e150ed, 2023-07-21)"
   xmlns:inkscape="http://www.inkscape.org/namespaces/inkscape"
   xmlns:sodipodi="http://sodipodi.sourceforge.net/DTD/sodipodi-0.dtd"
   xmlns="http://www.w3.org/2000/svg"
   xmlns:svg="http://www.w3.org/2000/svg">
  <defs
     id="defs1" />
  <sodipodi:namedview
     id="namedview1"
     pagecolor="#ffffff"
     bordercolor="#666666"
     borderopacity="1.0"
     inkscape:showpageshadow="2"
     inkscape:pageopacity="0.0"
     inkscape:pagecheckerboard="0"
     inkscape:deskcolor="#d1d1d1"
     inkscape:document-units="mm"
     inkscape:zoom="0.36875"
     inkscape:cx="318.64407"
     inkscape:cy="320"
     inkscape:window-width="1376"
     inkscape:window-height="449"
     inkscape:window-x="0"
     inkscape:window-y="38"
     inkscape:window-maximized="0"
     inkscape:current-layer="svg1" />
  <!--!Font Awesome Free 7.1.0 by @fontawesome - https://fontawesome.com License - https://fontawesome.com/license/free Copyright 2025 Fonticons, Inc.-->
  <path
     d="m 332.9,64.9 c -5.5,-0.7 -11,1.4 -14.5,5.7 -3.5,4.3 -4.6,10.1 -2.8,15.4 2.8,8.2 4.3,16.9 4.3,26.1 0,44.1 -35.7,79.9 -79.8,80 L 224,192 c -35.3,0 -64,28.7 -64,64 0,19.1 8.4,36.3 21.7,48 H 168 c -39.8,0 -72,32.2 -72,72 0,23.2 11,43.8 28,57 -34.1,5.7 -60,35.3 -60,71 0,39.8 32.2,72 72,72 h 368 c 39.8,0 72,-32.2 72,-72 0,-35.7 -25.9,-65.3 -60,-71 17,-13.2 28,-33.8 28,-57 0,-39.8 -32.2,-72 -72,-72 h -13.7 c 13.3,-11.7 21.7,-28.9 21.7,-48 0,-35.3 -28.7,-64 -64,-64 h -5.5 C 414,182 416,171.2 416,160 416,111.4 379.8,71.2 332.9,64.9 Z M 256,320 c 17.7,0 32,14.3 32,32 0,17.7 -14.3,32 -32,32 -17.7,0 -32,-14.3 -32,-32 0,-17.7 14.3,-32 32,-32 z m 96,32 c 0,-17.7 14.3,-32 32,-32 17.7,0 32,14.3 32,32 0,17.7 -14.3,32 -32,32 -17.7,0 -32,-14.3 -32,-32 z m 64,108.3 c 0,2.4 -0.7,4.8 -2.2,6.7 -8.2,10.5 -39.5,45 -93.8,45 -54.3,0 -85.6,-34.6 -93.8,-45 -1.5,-1.9 -2.2,-4.3 -2.2,-6.7 0,-6.8 5.5,-12.3 12.3,-12.3 h 167.4 c 6.8,0 12.3,5.5 12.3,12.3 z"
     id="path1" />
</svg>
