<?xml version="1.0" encoding="UTF-8" standalone="no"?>
<svg
   viewBox="0 0 639.99998 639.99998"
   version="1.1"
   id="svg1"
   sodipodi:docname="puzzle-piece-solid-full.svg"
   width="169.33333mm"
   height="169.33333mm"
   inkscape:version="1.3 (0e150ed, 2023-07-21)"
   xmlns:inkscape="http://www.inkscape.org/namespaces/inkscape"
   xmlns:sodipodi="http://sodipodi.sourceforge.net/DTD/sodipodi-0.dtd"
   xmlns="http://www.w3.org/2000/svg"
   xmlns:svg="http://www.w3.org/2000/svg">
  <defs
     id="defs1" />
  <sodipodi:namedview
     id="namedview1"
     pagecolor="#ffffff"
     bordercolor="#666666"
     borderopacity="1.0"
     inkscape:showpageshadow="2"
     inkscape:pageopacity="0.0"
     inkscape:pagecheckerboard="0"
     inkscape:deskcolor="#d1d1d1"
     inkscape:document-units="mm"
     inkscape:zoom="0.36875"
     inkscape:cx="318.64407"
     inkscape:cy="320"
     inkscape:window-width="1376"
     inkscape:window-height="449"
     inkscape:window-x="0"
     inkscape:window-y="38"
     inkscape:window-maximized="0"
     inkscape:current-layer="svg1" />
  <!--!Font Awesome Free 7.1.0 by @fontawesome - https://fontawesome.com License - https://fontawesome.com/license/free Copyright 2025 Fonticons, Inc.-->
  <path
     d="m 288,64 c 35.3,0 64,21.5 64,48 0,10.4 -4.4,20 -12,27.9 -6.6,6.9 -12,15.3 -12,24.9 0,15 12.2,27.2 27.2,27.2 H 400 c 26.5,0 48,21.5 48,48 v 44.8 c 0,15 12.2,27.2 27.2,27.2 9.5,0 18,-5.4 24.9,-12 7.9,-7.5 17.5,-12 27.9,-12 26.5,0 48,28.7 48,64 0,35.3 -21.5,64 -48,64 -10.4,0 -20.1,-4.4 -27.9,-12 -6.9,-6.6 -15.3,-12 -24.9,-12 -15,0 -27.2,12.2 -27.2,27.2 V 528 c 0,26.5 -21.5,48 -48,48 h -56.8 c -12.8,0 -23.2,-10.4 -23.2,-23.2 0,-9.2 5.8,-17.3 13.2,-22.8 11.6,-8.7 18.8,-20.7 18.8,-34 0,-26.5 -28.7,-48 -64,-48 -35.3,0 -64,21.5 -64,48 0,13.3 7.2,25.3 18.8,34 7.4,5.5 13.2,13.5 13.2,22.8 0,12.8 -10.4,23.2 -23.2,23.2 H 112 C 85.5,576 64,554.5 64,528 V 407.2 C 64,394.4 74.4,384 87.2,384 c 9.2,0 17.3,5.8 22.8,13.2 8.7,11.6 20.7,18.8 34,18.8 26.5,0 48,-28.7 48,-64 0,-35.3 -21.5,-64 -48,-64 -13.3,0 -25.3,7.2 -34,18.8 C 104.5,314.2 96.5,320 87.2,320 74.4,320 64,309.6 64,296.8 V 240 c 0,-26.5 21.5,-48 48,-48 h 108.8 c 15,0 27.2,-12.2 27.2,-27.2 0,-9.5 -5.4,-18 -12,-24.9 -7.5,-7.9 -12,-17.5 -12,-27.9 0,-26.5 28.7,-48 64,-48 z"
     id="path1" />
</svg>
