<?xml version="1.0" encoding="UTF-8" standalone="no"?>
<svg
   viewBox="0 0 639.99998 639.99998"
   version="1.1"
   id="svg1"
   sodipodi:docname="robot-solid-full.svg"
   width="169.33333mm"
   height="169.33333mm"
   inkscape:version="1.3 (0e150ed, 2023-07-21)"
   xmlns:inkscape="http://www.inkscape.org/namespaces/inkscape"
   xmlns:sodipodi="http://sodipodi.sourceforge.net/DTD/sodipodi-0.dtd"
   xmlns="http://www.w3.org/2000/svg"
   xmlns:svg="http://www.w3.org/2000/svg">
  <defs
     id="defs1" />
  <sodipodi:namedview
     id="namedview1"
     pagecolor="#ffffff"
     bordercolor="#666666"
     borderopacity="1.0"
     inkscape:showpageshadow="2"
     inkscape:pageopacity="0.0"
     inkscape:pagecheckerboard="0"
     inkscape:deskcolor="#d1d1d1"
     inkscape:document-units="mm"
     inkscape:zoom="0.36875"
     inkscape:cx="318.64407"
     inkscape:cy="320"
     inkscape:window-width="1376"
     inkscape:window-height="449"
     inkscape:window-x="0"
     inkscape:window-y="38"
     inkscape:window-maximized="0"
     inkscape:current-layer="svg1" />
  <!--!Font Awesome Free 7.1.0 by @fontawesome - https://fontawesome.com License - https://fontawesome.com/license/free Copyright 2025 Fonticons, Inc.-->
  <path
     d="m 352,64 c 0,-17.7 -14.3,-32 -32,-32 -17.7,0 -32,14.3 -32,32 v 64 h -96 c -53,0 -96,43 -96,96 v 224 c 0,53 43,96 96,96 h 256 c 53,0 96,-43 96,-96 V 224 c 0,-53 -43,-96 -96,-96 H 352 Z M 160,432 c 0,-13.3 10.7,-24 24,-24 h 32 c 13.3,0 24,10.7 24,24 0,13.3 -10.7,24 -24,24 h -32 c -13.3,0 -24,-10.7 -24,-24 z m 120,0 c 0,-13.3 10.7,-24 24,-24 h 32 c 13.3,0 24,10.7 24,24 0,13.3 -10.7,24 -24,24 h -32 c -13.3,0 -24,-10.7 -24,-24 z m 120,0 c 0,-13.3 10.7,-24 24,-24 h 32 c 13.3,0 24,10.7 24,24 0,13.3 -10.7,24 -24,24 h -32 c -13.3,0 -24,-10.7 -24,-24 z M 224,240 c 26.5,0 48,21.5 48,48 0,26.5 -21.5,48 -48,48 -26.5,0 -48,-21.5 -48,-48 0,-26.5 21.5,-48 48,-48 z m 144,48 c 0,-26.5 21.5,-48 48,-48 26.5,0 48,21.5 48,48 0,26.5 -21.5,48 -48,48 -26.5,0 -48,-21.5 -48,-48 z M 64,288 C 64,270.3 49.7,256 32,256 14.3,256 0,270.3 0,288 v 96 c 0,17.7 14.3,32 32,32 17.7,0 32,-14.3 32,-32 z m 544,-32 c -17.7,0 -32,14.3 -32,32 v 96 c 0,17.7 14.3,32 32,32 17.7,0 32,-14.3 32,-32 v -96 c 0,-17.7 -14.3,-32 -32,-32 z"
     id="path1" />
</svg>
