<?xml version="1.0" encoding="UTF-8" standalone="no"?>
<svg
   viewBox="0 0 639.99998 639.99998"
   version="1.1"
   id="svg1"
   sodipodi:docname="sack-dollar-solid-full.svg"
   width="169.33333mm"
   height="169.33333mm"
   inkscape:version="1.3 (0e150ed, 2023-07-21)"
   xmlns:inkscape="http://www.inkscape.org/namespaces/inkscape"
   xmlns:sodipodi="http://sodipodi.sourceforge.net/DTD/sodipodi-0.dtd"
   xmlns="http://www.w3.org/2000/svg"
   xmlns:svg="http://www.w3.org/2000/svg">
  <defs
     id="defs1" />
  <sodipodi:namedview
     id="namedview1"
     pagecolor="#ffffff"
     bordercolor="#666666"
     borderopacity="1.0"
     inkscape:showpageshadow="2"
     inkscape:pageopacity="0.0"
     inkscape:pagecheckerboard="0"
     inkscape:deskcolor="#d1d1d1"
     inkscape:document-units="mm"
     inkscape:zoom="0.36875"
     inkscape:cx="318.64407"
     inkscape:cy="320"
     inkscape:window-width="1376"
     inkscape:window-height="449"
     inkscape:window-x="0"
     inkscape:window-y="38"
     inkscape:window-maximized="0"
     inkscape:current-layer="svg1" />
  <!--!Font Awesome Free 7.1.0 by @fontawesome - https://fontawesome.com License - https://fontawesome.com/license/free Copyright 2025 Fonticons, Inc.-->
  <path
     d="M 392,176 H 248 L 210.7,101.5 C 208.9,97.9 208,93.9 208,89.9 208,75.6 219.6,64 233.9,64 h 172.2 c 14.3,0 25.9,11.6 25.9,25.9 0,4 -0.9,8 -2.7,11.6 z m -158.4,48 h 172.8 l 48.7,40.6 C 521.6,320 560,402 560,488.5 560,536.8 520.8,576 472.5,576 H 167.4 C 119.2,576 80,536.8 80,488.5 80,402 118.4,320 184.9,264.6 Z m 90.4,64 c -11,0 -20,9 -20,20 v 4 c -28.8,0.3 -52,23.7 -52,52.5 0,25.7 18.5,47.6 43.9,51.8 l 41.7,7 c 6,1 10.4,6.2 10.4,12.3 0,6.9 -5.6,12.5 -12.5,12.5 L 280,448 c -11,0 -20,9 -20,20 0,11 9,20 20,20 h 24 v 4 c 0,11 9,20 20,20 11,0 20,-9 20,-20 v -4.7 c 25,-4.1 44,-25.7 44,-51.8 0,-25.7 -18.5,-47.6 -43.9,-51.8 l -41.7,-7 c -6,-1 -10.4,-6.2 -10.4,-12.3 0,-6.9 5.6,-12.5 12.5,-12.5 H 352 c 11,0 20,-9 20,-20 0,-11 -9,-20 -20,-20 h -8 v -4 c 0,-11 -9,-20 -20,-20 z"
     id="path1" />
</svg>
