<?xml version="1.0" encoding="UTF-8" standalone="no"?>
<svg
   version="1.0"
   width="451.55554mm"
   height="451.55554mm"
   viewBox="0 0 1280 1280"
   preserveAspectRatio="xMidYMid"
   id="svg1"
   sodipodi:docname="squares.svg"
   inkscape:version="1.3 (0e150ed, 2023-07-21)"
   xmlns:inkscape="http://www.inkscape.org/namespaces/inkscape"
   xmlns:sodipodi="http://sodipodi.sourceforge.net/DTD/sodipodi-0.dtd"
   xmlns="http://www.w3.org/2000/svg"
   xmlns:svg="http://www.w3.org/2000/svg">
  <defs
     id="defs1" />
  <sodipodi:namedview
     id="namedview1"
     pagecolor="#ffffff"
     bordercolor="#666666"
     borderopacity="1.0"
     inkscape:showpageshadow="2"
     inkscape:pageopacity="0.0"
     inkscape:pagecheckerboard="0"
     inkscape:deskcolor="#d1d1d1"
     inkscape:document-units="mm"
     inkscape:zoom="0.13828125"
     inkscape:cx="853.33333"
     inkscape:cy="853.33333"
     inkscape:window-width="1312"
     inkscape:window-height="449"
     inkscape:window-x="0"
     inkscape:window-y="38"
     inkscape:window-maximized="0"
     inkscape:current-layer="svg1" />
  <metadata
     id="metadata1">&#10;Created by potrace 1.15, written by Peter Selinger 2001-2017&#10;</metadata>
  <g
     transform="matrix(0.1,0,0,-0.1,0,1280)"
     fill="#000000"
     stroke="none"
     id="g1">
    <path
       d="m 570,12510 v -290 H 285 0 V 11200 10180 H 285 570 V 9600 9020 H 285 0 V 8000 6980 H 285 570 V 6400 5820 H 285 0 V 4800 3780 H 285 570 V 3200 2620 H 285 0 V 1600 580 H 285 570 V 290 0 h 1020 1020 v 290 290 h 580 580 V 290 0 h 1020 1020 v 290 290 h 580 580 V 290 0 h 1020 1020 v 290 290 h 580 580 V 290 0 h 1020 1020 v 290 290 h 295 295 v 1020 1020 h -295 -295 v 580 580 h 295 295 v 1020 1020 h -295 -295 v 580 580 h 295 295 v 1020 1020 h -295 -295 v 580 580 h 295 295 v 1020 1020 h -295 -295 v 290 290 h -1020 -1020 v -290 -290 h -580 -580 v 290 290 H 7990 6970 v -290 -290 h -580 -580 v 290 290 H 4790 3770 v -290 -290 h -580 -580 v 290 290 H 1590 570 Z m 930,-175 v -375 H 1170 840 l -2,-332 -3,-333 -383,-3 -382,-2 v 375 375 h 335 335 v 335 335 h 380 380 z m 940,40 v -335 h 330 330 v -375 -375 h -380 -380 v 335 335 h -335 -335 v 375 375 h 385 385 z m 2260,-40 v -375 h -330 -330 l -2,-332 -3,-333 -382,-3 -383,-2 v 375 375 h 335 335 v 335 335 h 380 380 z m 940,40 v -335 h 330 330 v -375 -375 h -380 -380 v 335 335 h -335 -335 v 375 375 h 385 385 z m 2260,-40 v -375 h -330 -330 l -2,-332 -3,-333 -382,-3 -383,-2 v 375 375 h 335 335 v 335 335 h 380 380 z m 940,40 v -335 h 330 330 v -375 -375 h -380 -380 v 335 335 h -335 -335 v 375 375 h 385 385 z m 2260,-40 v -375 h -330 -330 l -2,-332 -3,-333 -382,-3 -383,-2 v 375 375 h 335 335 v 335 335 h 380 380 z m 938,38 2,-333 h 330 330 v -375 -375 h -380 -380 v 335 335 h -335 -335 v 375 375 l 383,-2 382,-3 z M 2170,11200 v -580 h -580 -580 v 580 580 h 580 580 z m 3200,0 v -580 h -580 -580 v 580 580 h 580 580 z m 3200,0 v -580 h -580 -580 v 580 580 h 580 580 z m 3200,0 v -580 h -580 -580 v 580 580 h 580 580 z m -10932,-427 2,-333 h 330 330 v -375 -375 H 1120 740 v 335 335 H 405 70 v 375 375 l 383,-2 382,-3 z m 2262,-38 v -375 h -330 -330 l -2,-332 -3,-333 -382,-3 -383,-2 v 375 375 h 335 335 v 335 335 h 380 380 z m 938,38 2,-333 h 330 330 v -375 -375 h -380 -380 v 335 335 h -335 -335 v 375 375 l 383,-2 382,-3 z m 2262,-38 v -375 h -330 -330 l -2,-332 -3,-333 -382,-3 -383,-2 v 375 375 h 335 335 v 335 335 h 380 380 z m 938,38 2,-333 h 330 330 v -375 -375 h -380 -380 v 335 335 h -335 -335 v 375 375 l 383,-2 382,-3 z m 2262,-38 v -375 h -330 -330 l -2,-332 -3,-333 -382,-3 -383,-2 v 375 375 h 335 335 v 335 335 h 380 380 z m 938,38 2,-333 h 330 330 v -375 -375 h -380 -380 v 335 335 h -335 -335 v 375 375 l 383,-2 382,-3 z m 2262,-38 v -375 h -330 -330 l -2,-332 -3,-333 -382,-3 -383,-2 v 375 375 h 335 335 v 335 335 h 380 380 z M 3770,9600 v -580 h -580 -580 v 580 580 h 580 580 z m 3200,0 v -580 h -580 -580 v 580 580 h 580 580 z m 3200,0 v -580 h -580 -580 v 580 580 h 580 580 z M 1500,9135 V 8760 H 1170 840 l -2,-332 -3,-333 -383,-3 -382,-2 v 375 375 h 335 335 v 335 335 h 380 380 z m 938,38 2,-333 h 330 330 v -375 -375 h -380 -380 v 335 335 h -335 -335 v 375 375 l 383,-2 382,-3 z m 2262,-38 v -375 h -330 -330 l -2,-332 -3,-333 -382,-3 -383,-2 v 375 375 h 335 335 v 335 335 h 380 380 z m 938,38 2,-333 h 330 330 v -375 -375 h -380 -380 v 335 335 h -335 -335 v 375 375 l 383,-2 382,-3 z m 2262,-38 v -375 h -330 -330 l -2,-332 -3,-333 -382,-3 -383,-2 v 375 375 h 335 335 v 335 335 h 380 380 z m 938,38 2,-333 h 330 330 v -375 -375 h -380 -380 v 335 335 h -335 -335 v 375 375 l 383,-2 382,-3 z m 2262,-38 v -375 h -330 -330 l -2,-332 -3,-333 -382,-3 -383,-2 v 375 375 h 335 335 v 335 335 h 380 380 z m 938,38 2,-333 h 330 330 v -375 -375 h -380 -380 v 335 335 h -335 -335 v 375 375 l 383,-2 382,-3 z M 2170,8000 v -580 h -580 -580 v 580 580 h 580 580 z m 3200,0 v -580 h -580 -580 v 580 580 h 580 580 z m 3200,0 v -580 h -580 -580 v 580 580 h 580 580 z m 3200,0 v -580 h -580 -580 v 580 580 h 580 580 z M 838,7573 l 2,-333 h 330 330 V 6865 6490 H 1120 740 v 335 335 H 405 70 v 375 375 l 383,-2 382,-3 z m 2262,-38 v -375 h -330 -330 l -2,-332 -3,-333 -382,-3 -383,-2 v 375 375 h 335 335 v 335 335 h 380 380 z m 938,38 2,-333 h 330 330 v -375 -375 h -380 -380 v 335 335 h -335 -335 v 375 375 l 383,-2 382,-3 z m 2262,-38 v -375 h -330 -330 l -2,-332 -3,-333 -382,-3 -383,-2 v 375 375 h 335 335 v 335 335 h 380 380 z m 938,38 2,-333 h 330 330 v -375 -375 h -380 -380 v 335 335 h -335 -335 v 375 375 l 383,-2 382,-3 z m 2262,-38 v -375 h -330 -330 l -2,-332 -3,-333 -382,-3 -383,-2 v 375 375 h 335 335 v 335 335 h 380 380 z m 938,38 2,-333 h 330 330 v -375 -375 h -380 -380 v 335 335 h -335 -335 v 375 375 l 383,-2 382,-3 z m 2262,-38 v -375 h -330 -330 l -2,-332 -3,-333 -382,-3 -383,-2 v 375 375 h 335 335 v 335 335 h 380 380 z M 3770,6400 v -580 h -580 -580 v 580 580 h 580 580 z m 3200,0 v -580 h -580 -580 v 580 580 h 580 580 z m 3200,0 v -580 h -580 -580 v 580 580 h 580 580 z M 1500,5935 V 5560 H 1170 840 l -2,-332 -3,-333 -383,-3 -382,-2 v 375 375 h 335 335 v 335 335 h 380 380 z m 938,38 2,-333 h 330 330 v -375 -375 h -380 -380 v 335 335 h -335 -335 v 375 375 l 383,-2 382,-3 z m 2262,-38 v -375 h -330 -330 l -2,-332 -3,-333 -382,-3 -383,-2 v 375 375 h 335 335 v 335 335 h 380 380 z m 938,38 2,-333 h 330 330 v -375 -375 h -380 -380 v 335 335 h -335 -335 v 375 375 l 383,-2 382,-3 z m 2262,-38 v -375 h -330 -330 l -2,-332 -3,-333 -382,-3 -383,-2 v 375 375 h 335 335 v 335 335 h 380 380 z m 938,38 2,-333 h 330 330 v -375 -375 h -380 -380 v 335 335 h -335 -335 v 375 375 l 383,-2 382,-3 z m 2262,-38 v -375 h -330 -330 l -2,-332 -3,-333 -382,-3 -383,-2 v 375 375 h 335 335 v 335 335 h 380 380 z m 938,38 2,-333 h 330 330 v -375 -375 h -380 -380 v 335 335 h -335 -335 v 375 375 l 383,-2 382,-3 z M 2170,4800 v -580 h -580 -580 v 580 580 h 580 580 z m 3200,0 v -580 h -580 -580 v 580 580 h 580 580 z m 3200,0 v -580 h -580 -580 v 580 580 h 580 580 z m 3200,0 v -580 h -580 -580 v 580 580 h 580 580 z M 838,4373 l 2,-333 h 330 330 V 3665 3290 H 1120 740 v 335 335 H 405 70 v 375 375 l 383,-2 382,-3 z m 2262,-38 v -375 h -330 -330 l -2,-332 -3,-333 -382,-3 -383,-2 v 375 375 h 335 335 v 335 335 h 380 380 z m 938,38 2,-333 h 330 330 v -375 -375 h -380 -380 v 335 335 h -335 -335 v 375 375 l 383,-2 382,-3 z m 2262,-38 v -375 h -330 -330 l -2,-332 -3,-333 -382,-3 -383,-2 v 375 375 h 335 335 v 335 335 h 380 380 z m 938,38 2,-333 h 330 330 v -375 -375 h -380 -380 v 335 335 h -335 -335 v 375 375 l 383,-2 382,-3 z m 2262,-38 v -375 h -330 -330 l -2,-332 -3,-333 -382,-3 -383,-2 v 375 375 h 335 335 v 335 335 h 380 380 z m 938,38 2,-333 h 330 330 v -375 -375 h -380 -380 v 335 335 h -335 -335 v 375 375 l 383,-2 382,-3 z m 2262,-38 v -375 h -330 -330 l -2,-332 -3,-333 -382,-3 -383,-2 v 375 375 h 335 335 v 335 335 h 380 380 z M 3770,3200 v -580 h -580 -580 v 580 580 h 580 580 z m 3200,0 v -580 h -580 -580 v 580 580 h 580 580 z m 3200,0 v -580 h -580 -580 v 580 580 h 580 580 z M 1500,2735 V 2360 H 1170 840 l -2,-332 -3,-333 -383,-3 -382,-2 v 375 375 h 335 335 v 335 335 h 380 380 z m 938,38 2,-333 h 330 330 v -375 -375 h -380 -380 v 335 335 h -335 -335 v 375 375 l 383,-2 382,-3 z m 2262,-38 v -375 h -330 -330 l -2,-332 -3,-333 -382,-3 -383,-2 v 375 375 h 335 335 v 335 335 h 380 380 z m 938,38 2,-333 h 330 330 v -375 -375 h -380 -380 v 335 335 h -335 -335 v 375 375 l 383,-2 382,-3 z m 2262,-38 v -375 h -330 -330 l -2,-332 -3,-333 -382,-3 -383,-2 v 375 375 h 335 335 v 335 335 h 380 380 z m 938,38 2,-333 h 330 330 v -375 -375 h -380 -380 v 335 335 h -335 -335 v 375 375 l 383,-2 382,-3 z m 2262,-38 v -375 h -330 -330 l -2,-332 -3,-333 -382,-3 -383,-2 v 375 375 h 335 335 v 335 335 h 380 380 z m 938,38 2,-333 h 330 330 v -375 -375 h -380 -380 v 335 335 h -335 -335 v 375 375 l 383,-2 382,-3 z M 2170,1600 v -580 h -580 -580 v 580 580 h 580 580 z m 3200,0 v -580 h -580 -580 v 580 580 h 580 580 z m 3200,0 v -580 h -580 -580 v 580 580 h 580 580 z m 3200,0 v -580 h -580 -580 v 580 580 h 580 580 z M 838,1173 840,840 h 330 330 V 465 90 H 1120 740 V 425 760 H 405 70 v 375 375 l 383,-2 382,-3 z m 2262,-38 V 760 h -330 -330 l -2,-333 -3,-332 -382,-3 -383,-2 v 375 375 h 335 335 v 335 335 h 380 380 z m 938,38 2,-333 h 330 330 V 465 90 h -380 -380 v 335 335 h -335 -335 v 375 375 l 383,-2 382,-3 z m 2262,-38 V 760 h -330 -330 l -2,-333 -3,-332 -382,-3 -383,-2 v 375 375 h 335 335 v 335 335 h 380 380 z m 938,38 2,-333 h 330 330 V 465 90 h -380 -380 v 335 335 h -335 -335 v 375 375 l 383,-2 382,-3 z m 2262,-38 V 760 h -330 -330 l -2,-333 -3,-332 -382,-3 -383,-2 v 375 375 h 335 335 v 335 335 h 380 380 z m 938,38 2,-333 h 330 330 V 465 90 h -380 -380 v 335 335 h -335 -335 v 375 375 l 383,-2 382,-3 z m 2262,-38 V 760 h -330 -330 l -2,-333 -3,-332 -382,-3 -383,-2 v 375 375 h 335 335 v 335 335 h 380 380 z"
       id="path1" />
  </g>
</svg>
