<?xml version="1.0" encoding="UTF-8" standalone="no"?>
<svg
   version="1.0"
   width="451.55554mm"
   height="451.55554mm"
   viewBox="0 0 1280 1280"
   preserveAspectRatio="xMidYMid"
   id="svg61"
   sodipodi:docname="square-diagonal.svg"
   inkscape:version="1.3 (0e150ed, 2023-07-21)"
   xmlns:inkscape="http://www.inkscape.org/namespaces/inkscape"
   xmlns:sodipodi="http://sodipodi.sourceforge.net/DTD/sodipodi-0.dtd"
   xmlns="http://www.w3.org/2000/svg"
   xmlns:svg="http://www.w3.org/2000/svg">
  <defs
     id="defs61" />
  <sodipodi:namedview
     id="namedview61"
     pagecolor="#ffffff"
     bordercolor="#666666"
     borderopacity="1.0"
     inkscape:showpageshadow="2"
     inkscape:pageopacity="0.0"
     inkscape:pagecheckerboard="0"
     inkscape:deskcolor="#d1d1d1"
     inkscape:document-units="mm"
     inkscape:zoom="0.13828125"
     inkscape:cx="853.33333"
     inkscape:cy="853.33333"
     inkscape:window-width="1312"
     inkscape:window-height="449"
     inkscape:window-x="0"
     inkscape:window-y="38"
     inkscape:window-maximized="0"
     inkscape:current-layer="svg61" />
  <metadata
     id="metadata1">&#10;Created by potrace 1.15, written by Peter Selinger 2001-2017&#10;</metadata>
  <g
     transform="matrix(0.1,0,0,-0.1,0,1280)"
     fill="#000000"
     stroke="none"
     id="g61">
    <path
       d="m 547,12252 -548,-548 3,-57 3,-57 605,605 605,605 h -60 -60 z"
       id="path1" />
    <path
       d="m 1952,12193 608,-608 605,605 605,605 -57,3 -57,3 -548,-548 -548,-548 -548,548 -547,547 h -60 -60 z"
       id="path2" />
    <path
       d="m 4512,12193 608,-608 605,605 605,605 -57,3 -57,3 -548,-548 -548,-548 -548,548 -547,547 h -60 -60 z"
       id="path3" />
    <path
       d="m 7072,12193 608,-608 605,605 605,605 -57,3 -57,3 -548,-548 -548,-548 -548,548 -547,547 h -60 -60 z"
       id="path4" />
    <path
       d="m 9632,12193 608,-608 605,605 605,605 -57,3 -57,3 -548,-548 -548,-548 -548,548 -547,547 h -60 -60 z"
       id="path5" />
    <path
       d="m 12190,12195 605,-605 3,57 3,57 -548,548 -548,548 h -60 -60 z"
       id="path6" />
    <path
       d="m 670,12125 -605,-605 608,-608 607,-607 607,607 608,608 -605,605 c -333,333 -607,605 -610,605 -3,0 -277,-272 -610,-605 z m 1160,-60 545,-545 -548,-548 -547,-547 -547,547 -548,548 545,545 c 300,300 547,545 550,545 3,0 250,-245 550,-545 z"
       id="path7" />
    <path
       d="m 3230,12125 -605,-605 608,-608 607,-607 607,607 608,608 -605,605 c -333,333 -607,605 -610,605 -3,0 -277,-272 -610,-605 z m 1160,-60 545,-545 -548,-548 -547,-547 -547,547 -548,548 545,545 c 300,300 547,545 550,545 3,0 250,-245 550,-545 z"
       id="path8" />
    <path
       d="m 5790,12125 -605,-605 608,-608 607,-607 607,607 608,608 -605,605 c -333,333 -607,605 -610,605 -3,0 -277,-272 -610,-605 z m 1160,-60 545,-545 -548,-548 -547,-547 -547,547 -548,548 545,545 c 300,300 547,545 550,545 3,0 250,-245 550,-545 z"
       id="path9" />
    <path
       d="m 8350,12125 -605,-605 608,-608 607,-607 607,607 608,608 -605,605 c -333,333 -607,605 -610,605 -3,0 -277,-272 -610,-605 z m 1160,-60 545,-545 -548,-548 -547,-547 -547,547 -548,548 545,545 c 300,300 547,545 550,545 3,0 250,-245 550,-545 z"
       id="path10" />
    <path
       d="m 10910,12125 -605,-605 608,-608 607,-607 607,607 608,608 -605,605 c -333,333 -607,605 -610,605 -3,0 -277,-272 -610,-605 z m 1160,-60 545,-545 -548,-548 -547,-547 -547,547 -548,548 545,545 c 300,300 547,545 550,545 3,0 250,-245 550,-545 z"
       id="path11" />
    <path
       d="m 0,11395 v -60 l 547,-547 548,-548 -548,-548 -548,-548 3,-57 3,-57 605,605 605,605 -608,608 -607,607 z"
       id="path12" />
    <path
       d="m 1950,10845 -605,-605 608,-608 607,-607 607,607 608,608 -605,605 c -333,333 -607,605 -610,605 -3,0 -277,-272 -610,-605 z m 1160,-60 545,-545 -548,-548 -547,-547 -547,547 -548,548 545,545 c 300,300 547,545 550,545 3,0 250,-245 550,-545 z"
       id="path13" />
    <path
       d="m 4510,10845 -605,-605 608,-608 607,-607 607,607 608,608 -605,605 c -333,333 -607,605 -610,605 -3,0 -277,-272 -610,-605 z m 1160,-60 545,-545 -548,-548 -547,-547 -547,547 -548,548 545,545 c 300,300 547,545 550,545 3,0 250,-245 550,-545 z"
       id="path14" />
    <path
       d="m 7070,10845 -605,-605 608,-608 607,-607 607,607 608,608 -605,605 c -333,333 -607,605 -610,605 -3,0 -277,-272 -610,-605 z m 1160,-60 545,-545 -548,-548 -547,-547 -547,547 -548,548 545,545 c 300,300 547,545 550,545 3,0 250,-245 550,-545 z"
       id="path15" />
    <path
       d="m 9630,10845 -605,-605 608,-608 607,-607 607,607 608,608 -605,605 c -333,333 -607,605 -610,605 -3,0 -277,-272 -610,-605 z m 1160,-60 545,-545 -548,-548 -547,-547 -547,547 -548,548 545,545 c 300,300 547,545 550,545 3,0 250,-245 550,-545 z"
       id="path16" />
    <path
       d="m 12190,10845 -605,-605 605,-605 605,-605 3,57 3,57 -548,548 -548,548 548,548 548,548 -3,57 -3,57 z"
       id="path17" />
    <path
       d="m 670,9565 -605,-605 608,-608 607,-607 607,607 608,608 -605,605 c -333,333 -607,605 -610,605 -3,0 -277,-272 -610,-605 z m 1160,-60 545,-545 -548,-548 -547,-547 -547,547 -548,548 545,545 c 300,300 547,545 550,545 3,0 250,-245 550,-545 z"
       id="path18" />
    <path
       d="m 3230,9565 -605,-605 608,-608 607,-607 607,607 608,608 -605,605 c -333,333 -607,605 -610,605 -3,0 -277,-272 -610,-605 z m 1160,-60 545,-545 -548,-548 -547,-547 -547,547 -548,548 545,545 c 300,300 547,545 550,545 3,0 250,-245 550,-545 z"
       id="path19" />
    <path
       d="m 5790,9565 -605,-605 608,-608 607,-607 607,607 608,608 -605,605 c -333,333 -607,605 -610,605 -3,0 -277,-272 -610,-605 z m 1160,-60 545,-545 -548,-548 -547,-547 -547,547 -548,548 545,545 c 300,300 547,545 550,545 3,0 250,-245 550,-545 z"
       id="path20" />
    <path
       d="m 8350,9565 -605,-605 608,-608 607,-607 607,607 608,608 -605,605 c -333,333 -607,605 -610,605 -3,0 -277,-272 -610,-605 z m 1160,-60 545,-545 -548,-548 -547,-547 -547,547 -548,548 545,545 c 300,300 547,545 550,545 3,0 250,-245 550,-545 z"
       id="path21" />
    <path
       d="m 10910,9565 -605,-605 608,-608 607,-607 607,607 608,608 -605,605 c -333,333 -607,605 -610,605 -3,0 -277,-272 -610,-605 z m 1160,-60 545,-545 -548,-548 -547,-547 -547,547 -548,548 545,545 c 300,300 547,545 550,545 3,0 250,-245 550,-545 z"
       id="path22" />
    <path
       d="m 0,8835 v -60 l 547,-547 548,-548 -548,-548 -548,-548 3,-57 3,-57 605,605 605,605 -608,608 -607,607 z"
       id="path23" />
    <path
       d="m 1950,8285 -605,-605 608,-608 607,-607 607,607 608,608 -605,605 c -333,333 -607,605 -610,605 -3,0 -277,-272 -610,-605 z m 1160,-60 545,-545 -548,-548 -547,-547 -547,547 -548,548 545,545 c 300,300 547,545 550,545 3,0 250,-245 550,-545 z"
       id="path24" />
    <path
       d="m 4510,8285 -605,-605 608,-608 607,-607 607,607 608,608 -605,605 c -333,333 -607,605 -610,605 -3,0 -277,-272 -610,-605 z m 1160,-60 545,-545 -548,-548 -547,-547 -547,547 -548,548 545,545 c 300,300 547,545 550,545 3,0 250,-245 550,-545 z"
       id="path25" />
    <path
       d="m 7070,8285 -605,-605 608,-608 607,-607 607,607 608,608 -605,605 c -333,333 -607,605 -610,605 -3,0 -277,-272 -610,-605 z m 1160,-60 545,-545 -548,-548 -547,-547 -547,547 -548,548 545,545 c 300,300 547,545 550,545 3,0 250,-245 550,-545 z"
       id="path26" />
    <path
       d="m 9630,8285 -605,-605 608,-608 607,-607 607,607 608,608 -605,605 c -333,333 -607,605 -610,605 -3,0 -277,-272 -610,-605 z m 1160,-60 545,-545 -548,-548 -547,-547 -547,547 -548,548 545,545 c 300,300 547,545 550,545 3,0 250,-245 550,-545 z"
       id="path27" />
    <path
       d="m 12190,8285 -605,-605 605,-605 605,-605 3,57 3,57 -548,548 -548,548 548,548 548,548 -3,57 -3,57 z"
       id="path28" />
    <path
       d="m 670,7005 -605,-605 608,-608 607,-607 607,607 608,608 -605,605 c -333,333 -607,605 -610,605 -3,0 -277,-272 -610,-605 z m 1160,-60 545,-545 -548,-548 -547,-547 -547,547 -548,548 545,545 c 300,300 547,545 550,545 3,0 250,-245 550,-545 z"
       id="path29" />
    <path
       d="m 3230,7005 -605,-605 608,-608 607,-607 607,607 608,608 -605,605 c -333,333 -607,605 -610,605 -3,0 -277,-272 -610,-605 z m 1160,-60 545,-545 -548,-548 -547,-547 -547,547 -548,548 545,545 c 300,300 547,545 550,545 3,0 250,-245 550,-545 z"
       id="path30" />
    <path
       d="m 5790,7005 -605,-605 608,-608 607,-607 607,607 608,608 -605,605 c -333,333 -607,605 -610,605 -3,0 -277,-272 -610,-605 z m 1160,-60 545,-545 -548,-548 -547,-547 -547,547 -548,548 545,545 c 300,300 547,545 550,545 3,0 250,-245 550,-545 z"
       id="path31" />
    <path
       d="m 8350,7005 -605,-605 608,-608 607,-607 607,607 608,608 -605,605 c -333,333 -607,605 -610,605 -3,0 -277,-272 -610,-605 z m 1160,-60 545,-545 -548,-548 -547,-547 -547,547 -548,548 545,545 c 300,300 547,545 550,545 3,0 250,-245 550,-545 z"
       id="path32" />
    <path
       d="m 10910,7005 -605,-605 608,-608 607,-607 607,607 608,608 -605,605 c -333,333 -607,605 -610,605 -3,0 -277,-272 -610,-605 z m 1160,-60 545,-545 -548,-548 -547,-547 -547,547 -548,548 545,545 c 300,300 547,545 550,545 3,0 250,-245 550,-545 z"
       id="path33" />
    <path
       d="m 0,6275 v -60 l 547,-547 548,-548 -548,-548 -548,-548 3,-57 3,-57 605,605 605,605 -608,608 -607,607 z"
       id="path34" />
    <path
       d="m 1950,5725 -605,-605 608,-608 607,-607 607,607 608,608 -605,605 c -333,333 -607,605 -610,605 -3,0 -277,-272 -610,-605 z m 1160,-60 545,-545 -548,-548 -547,-547 -547,547 -548,548 545,545 c 300,300 547,545 550,545 3,0 250,-245 550,-545 z"
       id="path35" />
    <path
       d="m 4510,5725 -605,-605 608,-608 607,-607 607,607 608,608 -605,605 c -333,333 -607,605 -610,605 -3,0 -277,-272 -610,-605 z m 1160,-60 545,-545 -548,-548 -547,-547 -547,547 -548,548 545,545 c 300,300 547,545 550,545 3,0 250,-245 550,-545 z"
       id="path36" />
    <path
       d="m 7070,5725 -605,-605 608,-608 607,-607 607,607 608,608 -605,605 c -333,333 -607,605 -610,605 -3,0 -277,-272 -610,-605 z m 1160,-60 545,-545 -548,-548 -547,-547 -547,547 -548,548 545,545 c 300,300 547,545 550,545 3,0 250,-245 550,-545 z"
       id="path37" />
    <path
       d="m 9630,5725 -605,-605 608,-608 607,-607 607,607 608,608 -605,605 c -333,333 -607,605 -610,605 -3,0 -277,-272 -610,-605 z m 1160,-60 545,-545 -548,-548 -547,-547 -547,547 -548,548 545,545 c 300,300 547,545 550,545 3,0 250,-245 550,-545 z"
       id="path38" />
    <path
       d="m 12190,5725 -605,-605 605,-605 605,-605 3,57 3,57 -548,548 -548,548 548,548 548,548 -3,57 -3,57 z"
       id="path39" />
    <path
       d="m 670,4445 -605,-605 608,-608 607,-607 607,607 608,608 -605,605 c -333,333 -607,605 -610,605 -3,0 -277,-272 -610,-605 z m 1160,-60 545,-545 -548,-548 -547,-547 -547,547 -548,548 545,545 c 300,300 547,545 550,545 3,0 250,-245 550,-545 z"
       id="path40" />
    <path
       d="m 3230,4445 -605,-605 608,-608 607,-607 607,607 608,608 -605,605 c -333,333 -607,605 -610,605 -3,0 -277,-272 -610,-605 z m 1160,-60 545,-545 -548,-548 -547,-547 -547,547 -548,548 545,545 c 300,300 547,545 550,545 3,0 250,-245 550,-545 z"
       id="path41" />
    <path
       d="m 5790,4445 -605,-605 608,-608 607,-607 607,607 608,608 -605,605 c -333,333 -607,605 -610,605 -3,0 -277,-272 -610,-605 z m 1160,-60 545,-545 -548,-548 -547,-547 -547,547 -548,548 545,545 c 300,300 547,545 550,545 3,0 250,-245 550,-545 z"
       id="path42" />
    <path
       d="m 8350,4445 -605,-605 608,-608 607,-607 607,607 608,608 -605,605 c -333,333 -607,605 -610,605 -3,0 -277,-272 -610,-605 z m 1160,-60 545,-545 -548,-548 -547,-547 -547,547 -548,548 545,545 c 300,300 547,545 550,545 3,0 250,-245 550,-545 z"
       id="path43" />
    <path
       d="m 10910,4445 -605,-605 608,-608 607,-607 607,607 608,608 -605,605 c -333,333 -607,605 -610,605 -3,0 -277,-272 -610,-605 z m 1160,-60 545,-545 -548,-548 -547,-547 -547,547 -548,548 545,545 c 300,300 547,545 550,545 3,0 250,-245 550,-545 z"
       id="path44" />
    <path
       d="m 0,3715 v -60 l 547,-547 548,-548 -548,-548 -548,-548 3,-57 3,-57 605,605 605,605 -608,608 -607,607 z"
       id="path45" />
    <path
       d="m 1950,3165 -605,-605 608,-608 607,-607 607,607 608,608 -605,605 c -333,333 -607,605 -610,605 -3,0 -277,-272 -610,-605 z m 1160,-60 545,-545 -548,-548 -547,-547 -547,547 -548,548 545,545 c 300,300 547,545 550,545 3,0 250,-245 550,-545 z"
       id="path46" />
    <path
       d="m 4510,3165 -605,-605 608,-608 607,-607 607,607 608,608 -605,605 c -333,333 -607,605 -610,605 -3,0 -277,-272 -610,-605 z m 1160,-60 545,-545 -548,-548 -547,-547 -547,547 -548,548 545,545 c 300,300 547,545 550,545 3,0 250,-245 550,-545 z"
       id="path47" />
    <path
       d="m 7070,3165 -605,-605 608,-608 607,-607 607,607 608,608 -605,605 c -333,333 -607,605 -610,605 -3,0 -277,-272 -610,-605 z m 1160,-60 545,-545 -548,-548 -547,-547 -547,547 -548,548 545,545 c 300,300 547,545 550,545 3,0 250,-245 550,-545 z"
       id="path48" />
    <path
       d="m 9630,3165 -605,-605 608,-608 607,-607 607,607 608,608 -605,605 c -333,333 -607,605 -610,605 -3,0 -277,-272 -610,-605 z m 1160,-60 545,-545 -548,-548 -547,-547 -547,547 -548,548 545,545 c 300,300 547,545 550,545 3,0 250,-245 550,-545 z"
       id="path49" />
    <path
       d="m 12190,3165 -605,-605 605,-605 605,-605 3,57 3,57 -548,548 -548,548 548,548 548,548 -3,57 -3,57 z"
       id="path50" />
    <path
       d="M 670,1885 65,1280 673,672 1280,65 l 607,607 608,608 -605,605 c -333,333 -607,605 -610,605 -3,0 -277,-272 -610,-605 z m 1160,-60 545,-545 -548,-548 -547,-547 -547,547 -548,548 545,545 c 300,300 547,545 550,545 3,0 250,-245 550,-545 z"
       id="path51" />
    <path
       d="m 3230,1885 -605,-605 608,-608 607,-607 607,607 608,608 -605,605 c -333,333 -607,605 -610,605 -3,0 -277,-272 -610,-605 z m 1160,-60 545,-545 -548,-548 -547,-547 -547,547 -548,548 545,545 c 300,300 547,545 550,545 3,0 250,-245 550,-545 z"
       id="path52" />
    <path
       d="m 5790,1885 -605,-605 608,-608 607,-607 607,607 608,608 -605,605 c -333,333 -607,605 -610,605 -3,0 -277,-272 -610,-605 z m 1160,-60 545,-545 -548,-548 -547,-547 -547,547 -548,548 545,545 c 300,300 547,545 550,545 3,0 250,-245 550,-545 z"
       id="path53" />
    <path
       d="m 8350,1885 -605,-605 608,-608 607,-607 607,607 608,608 -605,605 c -333,333 -607,605 -610,605 -3,0 -277,-272 -610,-605 z m 1160,-60 545,-545 -548,-548 -547,-547 -547,547 -548,548 545,545 c 300,300 547,545 550,545 3,0 250,-245 550,-545 z"
       id="path54" />
    <path
       d="m 10910,1885 -605,-605 608,-608 607,-607 607,607 608,608 -605,605 c -333,333 -607,605 -610,605 -3,0 -277,-272 -610,-605 z m 1160,-60 545,-545 -548,-548 -547,-547 -547,547 -548,548 545,545 c 300,300 547,545 550,545 3,0 250,-245 550,-545 z"
       id="path55" />
    <path
       d="m 0,1155 v -60 L 548,547 1096,-1 1153,2 1210,5 605,610 0,1215 Z"
       id="path56" />
    <path
       d="M 1950,605 1345,0 h 60 60 l 547,547 548,548 548,-548 547,-547 h 60 60 l -605,605 c -333,333 -607,605 -610,605 -3,0 -277,-272 -610,-605 z"
       id="path57" />
    <path
       d="M 4510,605 3905,0 h 60 60 l 547,547 548,548 548,-548 547,-547 h 60 60 l -605,605 c -333,333 -607,605 -610,605 -3,0 -277,-272 -610,-605 z"
       id="path58" />
    <path
       d="M 7070,605 6465,0 h 60 60 l 547,547 548,548 548,-548 547,-547 h 60 60 l -605,605 c -333,333 -607,605 -610,605 -3,0 -277,-272 -610,-605 z"
       id="path59" />
    <path
       d="M 9630,605 9025,0 h 60 60 l 547,547 548,548 548,-548 547,-547 h 60 60 l -605,605 c -333,333 -607,605 -610,605 -3,0 -277,-272 -610,-605 z"
       id="path60" />
    <path
       d="M 12190,605 11585,0 h 60 60 l 548,548 548,548 -3,57 -3,57 z"
       id="path61" />
  </g>
</svg>
