<?xml version="1.0" encoding="UTF-8" standalone="no"?>
<svg
   viewBox="0 0 639.99998 639.99998"
   version="1.1"
   id="svg1"
   sodipodi:docname="star.svg"
   width="169.33333mm"
   height="169.33333mm"
   inkscape:version="1.3 (0e150ed, 2023-07-21)"
   xmlns:inkscape="http://www.inkscape.org/namespaces/inkscape"
   xmlns:sodipodi="http://sodipodi.sourceforge.net/DTD/sodipodi-0.dtd"
   xmlns="http://www.w3.org/2000/svg"
   xmlns:svg="http://www.w3.org/2000/svg">
  <defs
     id="defs1" />
  <sodipodi:namedview
     id="namedview1"
     pagecolor="#ffffff"
     bordercolor="#666666"
     borderopacity="1.0"
     inkscape:showpageshadow="2"
     inkscape:pageopacity="0.0"
     inkscape:pagecheckerboard="0"
     inkscape:deskcolor="#d1d1d1"
     inkscape:document-units="mm"
     inkscape:zoom="0.36875"
     inkscape:cx="318.64407"
     inkscape:cy="320"
     inkscape:window-width="1376"
     inkscape:window-height="449"
     inkscape:window-x="0"
     inkscape:window-y="38"
     inkscape:window-maximized="0"
     inkscape:current-layer="svg1" />
  <!--!Font Awesome Free 7.1.0 by @fontawesome - https://fontawesome.com License - https://fontawesome.com/license/free Copyright 2025 Fonticons, Inc.-->
  <path
     d="M 341.5,45.1 C 337.4,37.1 329.1,32 320.1,32 c -9,0 -17.3,5.1 -21.4,13.1 L 225.1,189.3 65.2,214.7 c -8.9,1.4 -16.3,7.7 -19.1,16.3 -2.8,8.6 -0.5,18 5.8,24.4 l 114.4,114.5 -25.2,159.9 c -1.4,8.9 2.3,17.9 9.6,23.2 7.3,5.3 16.9,6.1 25,2 L 320.1,481.6 464.4,555 c 8,4.1 17.7,3.3 25,-2 7.3,-5.3 11,-14.2 9.6,-23.2 L 473.7,369.9 588.1,255.4 c 6.4,-6.4 8.6,-15.8 5.8,-24.4 -2.8,-8.6 -10.1,-14.9 -19.1,-16.3 L 415,189.3 Z"
     id="path1" />
</svg>
