<?xml version="1.0" encoding="UTF-8" standalone="no"?>
<svg
   version="1.0"
   width="451.55554mm"
   height="451.55554mm"
   viewBox="0 0 1280 1280"
   preserveAspectRatio="xMidYMid"
   id="svg257"
   sodipodi:docname="textile.svg"
   inkscape:version="1.3 (0e150ed, 2023-07-21)"
   xmlns:inkscape="http://www.inkscape.org/namespaces/inkscape"
   xmlns:sodipodi="http://sodipodi.sourceforge.net/DTD/sodipodi-0.dtd"
   xmlns="http://www.w3.org/2000/svg"
   xmlns:svg="http://www.w3.org/2000/svg">
  <defs
     id="defs257" />
  <sodipodi:namedview
     id="namedview257"
     pagecolor="#ffffff"
     bordercolor="#666666"
     borderopacity="1.0"
     inkscape:showpageshadow="2"
     inkscape:pageopacity="0.0"
     inkscape:pagecheckerboard="0"
     inkscape:deskcolor="#d1d1d1"
     inkscape:document-units="mm"
     inkscape:zoom="0.13828125"
     inkscape:cx="853.33333"
     inkscape:cy="853.33333"
     inkscape:window-width="1312"
     inkscape:window-height="449"
     inkscape:window-x="0"
     inkscape:window-y="38"
     inkscape:window-maximized="0"
     inkscape:current-layer="svg257" />
  <metadata
     id="metadata1">&#10;Created by potrace 1.15, written by Peter Selinger 2001-2017&#10;</metadata>
  <g
     transform="matrix(0.1,0,0,-0.1,0,1280)"
     fill="#000000"
     stroke="none"
     id="g257">
    <path
       d="m 130,12665 c -74,-74 -132,-136 -129,-137 2,-2 64,-61 137,-133 l 132,-130 65,65 65,64 v -394 -394 l -64,63 c -54,53 -66,61 -82,53 -11,-6 -73,-65 -139,-131 l -120,-121 135,-135 135,-135 -135,-135 c -74,-74 -132,-136 -129,-137 2,-2 64,-61 137,-133 l 132,-130 65,65 65,64 v -394 -394 l -63,62 c -34,34 -67,62 -72,62 -6,0 -69,-59 -140,-130 L -5,9870 130,9735 265,9600 130,9465 C 56,9391 -2,9329 1,9328 c 2,-2 64,-61 137,-133 l 132,-130 65,65 65,64 v -394 -394 l -63,62 c -34,34 -67,62 -72,62 -6,0 -69,-59 -140,-130 L -5,8270 130,8135 265,8000 130,7865 C 56,7791 -2,7729 1,7728 c 2,-2 64,-61 137,-133 l 132,-130 65,65 65,64 v -394 -394 l -63,62 c -34,34 -67,62 -72,62 -6,0 -69,-59 -140,-130 L -5,6670 130,6535 265,6400 132,6267 -1,6134 130,6004 c 72,-71 133,-131 136,-133 2,-3 34,24 69,59 l 65,64 v -394 -394 l -63,62 c -34,34 -67,62 -72,62 -6,0 -69,-59 -140,-130 L -5,5070 130,4935 265,4800 130,4665 C 56,4591 -2,4529 1,4528 c 2,-2 64,-61 137,-133 l 132,-130 65,65 65,64 v -394 -394 l -64,63 c -54,53 -66,61 -82,53 -11,-6 -73,-65 -139,-131 L -5,3470 130,3335 265,3200 130,3065 C 56,2991 -2,2929 1,2928 c 2,-2 64,-61 137,-133 l 132,-130 65,65 65,64 v -394 -394 l -64,63 c -54,53 -66,61 -82,53 -11,-6 -73,-65 -139,-131 L -5,1870 130,1735 265,1600 130,1465 C 56,1391 -2,1329 1,1328 c 2,-2 64,-61 137,-133 l 132,-130 65,65 65,64 V 800 406 l -64,63 c -54,53 -66,61 -82,53 -11,-6 -73,-65 -139,-132 L -5,270 130,135 265,0 l 135,135 135,135 -65,65 -64,65 h 394 394 l -64,-65 -65,-65 135,-135 135,-135 132,132 133,133 133,-133 132,-132 135,135 135,135 -65,65 -64,65 h 394 394 l -64,-65 -65,-65 135,-135 135,-135 132,132 133,133 133,-133 132,-132 135,135 135,135 -65,65 -64,65 h 394 394 l -64,-65 -65,-65 135,-135 135,-135 132,132 133,133 133,-133 132,-132 135,135 135,135 -65,65 -64,65 h 394 394 l -64,-65 -65,-65 135,-135 135,-135 132,132 133,133 133,-133 132,-132 135,135 135,135 -65,65 -64,65 h 394 394 l -64,-65 -65,-65 135,-135 135,-135 132,132 133,133 133,-133 132,-132 135,135 135,135 -65,65 -64,65 h 394 394 l -64,-65 -65,-65 135,-135 135,-135 132,132 133,133 133,-133 132,-132 135,135 135,135 -65,65 -64,65 h 394 394 l -64,-65 -65,-65 135,-135 135,-135 132,132 133,133 133,-133 132,-132 135,135 135,135 -65,65 -64,65 h 394 394 l -64,-65 -65,-65 135,-135 135,-135 135,135 135,135 -120,120 c -66,67 -128,126 -139,132 -16,8 -28,0 -82,-53 l -64,-63 v 394 394 l 65,-64 65,-65 132,130 c 73,72 135,131 137,133 3,1 -55,63 -129,137 l -135,135 135,135 135,135 -120,121 c -66,66 -128,125 -139,131 -16,8 -28,0 -82,-53 l -64,-63 v 394 394 l 65,-64 65,-65 132,130 c 73,72 135,131 137,133 3,1 -55,63 -129,137 l -135,135 135,135 135,135 -120,121 c -66,66 -128,125 -139,131 -16,8 -28,0 -82,-53 l -64,-63 v 394 394 l 65,-64 65,-65 132,130 c 73,72 135,131 137,133 3,1 -55,63 -129,137 l -135,135 135,135 135,135 -130,130 c -71,71 -134,130 -140,130 -5,0 -38,-28 -72,-62 l -63,-62 v 394 394 l 65,-64 c 35,-35 67,-62 69,-59 3,2 64,62 136,133 l 131,130 -133,133 -133,133 135,135 135,135 -130,130 c -71,71 -134,130 -140,130 -5,0 -38,-28 -72,-62 l -63,-62 v 394 394 l 65,-64 65,-65 132,130 c 73,72 135,131 137,133 3,1 -55,63 -129,137 l -135,135 135,135 135,135 -130,130 c -71,71 -134,130 -140,130 -5,0 -38,-28 -72,-62 l -63,-62 v 394 394 l 65,-64 65,-65 132,130 c 73,72 135,131 137,133 3,1 -55,63 -129,137 l -135,135 135,135 135,135 -120,121 c -66,66 -128,125 -139,131 -16,8 -28,0 -82,-53 l -64,-63 v 394 394 l 65,-64 65,-65 132,130 c 73,72 135,131 137,133 3,1 -55,63 -129,137 l -135,135 135,135 135,135 -120,121 c -66,66 -128,125 -139,131 -16,8 -28,0 -82,-53 l -64,-63 v 394 394 l 65,-64 65,-65 132,130 c 73,72 135,131 137,133 3,1 -55,63 -130,137 l -134,135 -135,-135 -135,-135 65,-65 64,-65 h -394 -394 l 64,65 65,65 -135,135 -135,135 -132,-132 -133,-133 -133,133 -132,132 -135,-135 -135,-135 65,-65 64,-65 h -394 -394 l 64,65 65,65 -135,135 -135,135 -132,-132 -133,-133 -133,133 -132,132 -135,-135 -135,-135 65,-65 64,-65 h -394 -394 l 64,65 65,65 -135,135 -135,135 -132,-132 -133,-133 -133,133 -132,132 -135,-135 -135,-135 65,-65 64,-65 h -394 -394 l 64,65 65,65 -135,135 -135,135 -132,-132 -133,-133 -133,133 -132,132 -135,-135 -135,-135 65,-65 64,-65 h -394 -394 l 64,65 65,65 -135,135 -135,135 -132,-132 -133,-133 -133,133 -132,132 -135,-135 -135,-135 65,-65 64,-65 h -394 -394 l 64,65 65,65 -135,135 -135,135 -132,-132 -133,-133 -133,133 -132,132 -135,-135 -135,-135 65,-65 64,-65 h -394 -394 l 64,65 65,65 -135,135 -135,135 -132,-132 -133,-133 -133,133 -132,132 -135,-135 -135,-135 65,-65 64,-65 H 800 406 l 64,65 65,65 -135,135 -135,135 z m 1607,-267 133,-133 65,65 65,64 v -394 -394 l -64,63 c -53,53 -67,61 -82,53 -11,-6 -70,-63 -133,-126 -63,-64 -117,-116 -121,-116 -4,0 -58,52 -121,116 -63,63 -122,120 -133,126 -15,8 -29,0 -82,-53 l -64,-63 v 394 394 l 65,-64 65,-65 133,133 c 72,72 134,132 137,132 3,0 64,-60 137,-132 z m 1600,0 133,-133 65,65 65,64 v -394 -394 l -64,63 c -53,53 -67,61 -82,53 -11,-6 -70,-63 -133,-126 -63,-64 -117,-116 -121,-116 -4,0 -58,52 -121,116 -63,63 -122,120 -133,126 -15,8 -29,0 -82,-53 l -64,-63 v 394 394 l 65,-64 65,-65 133,133 c 72,72 134,132 137,132 3,0 64,-60 137,-132 z m 1600,0 133,-133 65,65 65,64 v -394 -394 l -64,63 c -53,53 -67,61 -82,53 -11,-6 -70,-63 -133,-126 -63,-64 -117,-116 -121,-116 -4,0 -58,52 -121,116 -63,63 -122,120 -133,126 -15,8 -29,0 -82,-53 l -64,-63 v 394 394 l 65,-64 65,-65 133,133 c 72,72 134,132 137,132 3,0 64,-60 137,-132 z m 1600,0 133,-133 65,65 65,64 v -394 -394 l -64,63 c -53,53 -67,61 -82,53 -11,-6 -70,-63 -133,-126 -63,-64 -117,-116 -121,-116 -4,0 -58,52 -121,116 -63,63 -122,120 -133,126 -15,8 -29,0 -82,-53 l -64,-63 v 394 394 l 65,-64 65,-65 133,133 c 72,72 134,132 137,132 3,0 64,-60 137,-132 z m 1600,0 133,-133 65,65 65,64 v -394 -394 l -64,63 c -53,53 -67,61 -82,53 -11,-6 -70,-63 -133,-126 -63,-64 -117,-116 -121,-116 -4,0 -58,52 -121,116 -63,63 -122,120 -133,126 -15,8 -29,0 -82,-53 l -64,-63 v 394 394 l 65,-64 65,-65 133,133 c 72,72 134,132 137,132 3,0 64,-60 137,-132 z m 1600,0 133,-133 65,65 65,64 v -394 -394 l -64,63 c -53,53 -67,61 -82,53 -11,-6 -70,-63 -133,-126 -63,-64 -117,-116 -121,-116 -4,0 -58,52 -121,116 -63,63 -122,120 -133,126 -15,8 -29,0 -82,-53 l -64,-63 v 394 394 l 65,-64 65,-65 133,133 c 72,72 134,132 137,132 3,0 64,-60 137,-132 z m 1600,0 133,-133 65,65 65,64 v -394 -394 l -64,63 c -53,53 -67,61 -82,53 -11,-6 -70,-63 -133,-126 -63,-64 -117,-116 -121,-116 -4,0 -58,52 -121,116 -63,63 -122,120 -133,126 -15,8 -29,0 -82,-53 l -64,-63 v 394 394 l 65,-64 65,-65 133,133 c 72,72 134,132 137,132 3,0 64,-60 137,-132 z m -10207,-863 -65,-65 135,-135 135,-135 -135,-135 -135,-135 65,-65 64,-65 H 800 406 l 64,65 65,65 -135,135 -135,135 135,135 135,135 -65,65 -64,65 h 394 394 z m 1600,0 -65,-65 135,-135 135,-135 -135,-135 -135,-135 65,-65 64,-65 h -394 -394 l 64,65 65,65 -135,135 -135,135 135,135 135,135 -65,65 -64,65 h 394 394 z m 1600,0 -65,-65 135,-135 135,-135 -135,-135 -135,-135 65,-65 64,-65 h -394 -394 l 64,65 65,65 -135,135 -135,135 135,135 135,135 -65,65 -64,65 h 394 394 z m 1600,0 -65,-65 135,-135 135,-135 -135,-135 -135,-135 65,-65 64,-65 h -394 -394 l 64,65 65,65 -135,135 -135,135 135,135 135,135 -65,65 -64,65 h 394 394 z m 1600,0 -65,-65 135,-135 135,-135 -135,-135 -135,-135 65,-65 64,-65 h -394 -394 l 64,65 65,65 -135,135 -135,135 135,135 135,135 -65,65 -64,65 h 394 394 z m 1600,0 -65,-65 135,-135 135,-135 -135,-135 -135,-135 65,-65 64,-65 h -394 -394 l 64,65 65,65 -135,135 -135,135 135,135 135,135 -65,65 -64,65 h 394 394 z m 1600,0 -65,-65 135,-135 135,-135 -135,-135 -135,-135 65,-65 64,-65 h -394 -394 l 64,65 65,65 -135,135 -135,135 135,135 135,135 -65,65 -64,65 h 394 394 z m 1600,0 -65,-65 135,-135 135,-135 -135,-135 -135,-135 65,-65 64,-65 h -394 -394 l 64,65 65,65 -135,135 -135,135 135,135 135,135 -65,65 -64,65 h 394 394 z m -10595,-205 130,-130 -133,-133 -132,-132 -132,132 -133,133 130,130 c 71,71 132,130 135,130 3,0 64,-59 135,-130 z m 1600,0 130,-130 -133,-133 -132,-132 -132,132 -133,133 130,130 c 71,71 132,130 135,130 3,0 64,-59 135,-130 z m 1600,0 130,-130 -133,-133 -132,-132 -132,132 -133,133 130,130 c 71,71 132,130 135,130 3,0 64,-59 135,-130 z m 1600,0 130,-130 -133,-133 -132,-132 -132,132 -133,133 130,130 c 71,71 132,130 135,130 3,0 64,-59 135,-130 z m 1600,0 130,-130 -133,-133 -132,-132 -132,132 -133,133 130,130 c 71,71 132,130 135,130 3,0 64,-59 135,-130 z m 1600,0 130,-130 -133,-133 -132,-132 -132,132 -133,133 130,130 c 71,71 132,130 135,130 3,0 64,-59 135,-130 z m 1600,0 130,-130 -133,-133 -132,-132 -132,132 -133,133 130,130 c 71,71 132,130 135,130 3,0 64,-59 135,-130 z m -9598,-532 133,-133 65,65 65,64 v -394 -394 l -63,62 c -34,34 -67,62 -71,62 -5,0 -67,-57 -138,-127 l -128,-127 -128,127 c -71,70 -133,127 -138,127 -4,0 -37,-28 -71,-62 l -63,-62 v 394 394 l 65,-64 65,-65 133,133 c 72,72 134,132 137,132 3,0 64,-60 137,-132 z m 1600,0 133,-133 65,65 65,64 v -394 -394 l -63,62 c -34,34 -67,62 -71,62 -5,0 -67,-57 -138,-127 l -128,-127 -128,127 c -71,70 -133,127 -138,127 -4,0 -37,-28 -71,-62 l -63,-62 v 394 394 l 65,-64 65,-65 133,133 c 72,72 134,132 137,132 3,0 64,-60 137,-132 z m 1600,0 133,-133 65,65 65,64 v -394 -394 l -63,62 c -34,34 -67,62 -71,62 -5,0 -67,-57 -138,-127 l -128,-127 -128,127 c -71,70 -133,127 -138,127 -4,0 -37,-28 -71,-62 l -63,-62 v 394 394 l 65,-64 65,-65 133,133 c 72,72 134,132 137,132 3,0 64,-60 137,-132 z m 1600,0 133,-133 65,65 65,64 v -394 -394 l -63,62 c -34,34 -67,62 -71,62 -5,0 -67,-57 -138,-127 l -128,-127 -128,127 c -71,70 -133,127 -138,127 -4,0 -37,-28 -71,-62 l -63,-62 v 394 394 l 65,-64 65,-65 133,133 c 72,72 134,132 137,132 3,0 64,-60 137,-132 z m 1600,0 133,-133 65,65 65,64 v -394 -394 l -63,62 c -34,34 -67,62 -71,62 -5,0 -67,-57 -138,-127 l -128,-127 -128,127 c -71,70 -133,127 -138,127 -4,0 -37,-28 -71,-62 l -63,-62 v 394 394 l 65,-64 65,-65 133,133 c 72,72 134,132 137,132 3,0 64,-60 137,-132 z m 1600,0 133,-133 65,65 65,64 v -394 -394 l -63,62 c -34,34 -67,62 -71,62 -5,0 -67,-57 -138,-127 l -128,-127 -128,127 c -71,70 -133,127 -138,127 -4,0 -37,-28 -71,-62 l -63,-62 v 394 394 l 65,-64 65,-65 133,133 c 72,72 134,132 137,132 3,0 64,-60 137,-132 z m 1600,0 133,-133 65,65 65,64 v -394 -394 l -63,62 c -34,34 -67,62 -71,62 -5,0 -67,-57 -138,-127 l -128,-127 -128,127 c -71,70 -133,127 -138,127 -4,0 -37,-28 -71,-62 l -63,-62 v 394 394 l 65,-64 65,-65 133,133 c 72,72 134,132 137,132 3,0 64,-60 137,-132 z m -10207,-863 -65,-65 135,-135 135,-135 -135,-135 -135,-135 65,-65 64,-65 H 800 406 l 64,65 65,65 -135,135 -135,135 135,135 135,135 -65,65 -64,65 h 394 394 z m 1600,0 -65,-65 135,-135 135,-135 -135,-135 -135,-135 65,-65 64,-65 h -394 -394 l 64,65 65,65 -135,135 -135,135 135,135 135,135 -65,65 -64,65 h 394 394 z m 1600,0 -65,-65 135,-135 135,-135 -135,-135 -135,-135 65,-65 64,-65 h -394 -394 l 64,65 65,65 -135,135 -135,135 135,135 135,135 -65,65 -64,65 h 394 394 z m 1600,0 -65,-65 135,-135 135,-135 -135,-135 -135,-135 65,-65 64,-65 h -394 -394 l 64,65 65,65 -135,135 -135,135 135,135 135,135 -65,65 -64,65 h 394 394 z m 1600,0 -65,-65 135,-135 135,-135 -135,-135 -135,-135 65,-65 64,-65 h -394 -394 l 64,65 65,65 -135,135 -135,135 135,135 135,135 -65,65 -64,65 h 394 394 z m 1600,0 -65,-65 135,-135 135,-135 -135,-135 -135,-135 65,-65 64,-65 h -394 -394 l 64,65 65,65 -135,135 -135,135 135,135 135,135 -65,65 -64,65 h 394 394 z m 1600,0 -65,-65 135,-135 135,-135 -135,-135 -135,-135 65,-65 64,-65 h -394 -394 l 64,65 65,65 -135,135 -135,135 135,135 135,135 -65,65 -64,65 h 394 394 z m 1600,0 -65,-65 135,-135 135,-135 -135,-135 -135,-135 65,-65 64,-65 h -394 -394 l 64,65 65,65 -135,135 -135,135 135,135 135,135 -65,65 -64,65 h 394 394 z m -10595,-205 130,-130 -133,-133 -132,-132 -132,132 -133,133 130,130 c 71,71 132,130 135,130 3,0 64,-59 135,-130 z m 1600,0 130,-130 -133,-133 -132,-132 -132,132 -133,133 130,130 c 71,71 132,130 135,130 3,0 64,-59 135,-130 z m 1600,0 130,-130 -133,-133 -132,-132 -132,132 -133,133 130,130 c 71,71 132,130 135,130 3,0 64,-59 135,-130 z m 1600,0 130,-130 -133,-133 -132,-132 -132,132 -133,133 130,130 c 71,71 132,130 135,130 3,0 64,-59 135,-130 z m 1600,0 130,-130 -133,-133 -132,-132 -132,132 -133,133 130,130 c 71,71 132,130 135,130 3,0 64,-59 135,-130 z m 1600,0 130,-130 -133,-133 -132,-132 -132,132 -133,133 130,130 c 71,71 132,130 135,130 3,0 64,-59 135,-130 z m 1600,0 130,-130 -133,-133 -132,-132 -132,132 -133,133 130,130 c 71,71 132,130 135,130 3,0 64,-59 135,-130 z m -9598,-532 133,-133 65,65 65,64 v -394 -394 l -63,62 c -34,34 -67,62 -71,62 -5,0 -67,-57 -138,-127 l -128,-127 -128,127 c -71,70 -133,127 -138,127 -4,0 -37,-28 -71,-62 l -63,-62 v 394 394 l 65,-64 65,-65 133,133 c 72,72 134,132 137,132 3,0 64,-60 137,-132 z m 1600,0 133,-133 65,65 65,64 v -394 -394 l -63,62 c -34,34 -67,62 -71,62 -5,0 -67,-57 -138,-127 l -128,-127 -128,127 c -71,70 -133,127 -138,127 -4,0 -37,-28 -71,-62 l -63,-62 v 394 394 l 65,-64 65,-65 133,133 c 72,72 134,132 137,132 3,0 64,-60 137,-132 z m 1600,0 133,-133 65,65 65,64 v -394 -394 l -63,62 c -34,34 -67,62 -71,62 -5,0 -67,-57 -138,-127 l -128,-127 -128,127 c -71,70 -133,127 -138,127 -4,0 -37,-28 -71,-62 l -63,-62 v 394 394 l 65,-64 65,-65 133,133 c 72,72 134,132 137,132 3,0 64,-60 137,-132 z m 1600,0 133,-133 65,65 65,64 v -394 -394 l -63,62 c -34,34 -67,62 -71,62 -5,0 -67,-57 -138,-127 l -128,-127 -128,127 c -71,70 -133,127 -138,127 -4,0 -37,-28 -71,-62 l -63,-62 v 394 394 l 65,-64 65,-65 133,133 c 72,72 134,132 137,132 3,0 64,-60 137,-132 z m 1600,0 133,-133 65,65 65,64 v -394 -394 l -63,62 c -34,34 -67,62 -71,62 -5,0 -67,-57 -138,-127 l -128,-127 -128,127 c -71,70 -133,127 -138,127 -4,0 -37,-28 -71,-62 l -63,-62 v 394 394 l 65,-64 65,-65 133,133 c 72,72 134,132 137,132 3,0 64,-60 137,-132 z m 1600,0 133,-133 65,65 65,64 v -394 -394 l -63,62 c -34,34 -67,62 -71,62 -5,0 -67,-57 -138,-127 l -128,-127 -128,127 c -71,70 -133,127 -138,127 -4,0 -37,-28 -71,-62 l -63,-62 v 394 394 l 65,-64 65,-65 133,133 c 72,72 134,132 137,132 3,0 64,-60 137,-132 z m 1600,0 133,-133 65,65 65,64 v -394 -394 l -63,62 c -34,34 -67,62 -71,62 -5,0 -67,-57 -138,-127 l -128,-127 -128,127 c -71,70 -133,127 -138,127 -4,0 -37,-28 -71,-62 l -63,-62 v 394 394 l 65,-64 65,-65 133,133 c 72,72 134,132 137,132 3,0 64,-60 137,-132 z m -10207,-863 -65,-65 135,-135 135,-135 -135,-135 -135,-135 65,-65 64,-65 H 800 406 l 64,65 65,65 -135,135 -135,135 135,135 135,135 -65,65 -64,65 h 394 394 z m 1600,0 -65,-65 135,-135 135,-135 -135,-135 -135,-135 65,-65 64,-65 h -394 -394 l 64,65 65,65 -135,135 -135,135 135,135 135,135 -65,65 -64,65 h 394 394 z m 1600,0 -65,-65 135,-135 135,-135 -135,-135 -135,-135 65,-65 64,-65 h -394 -394 l 64,65 65,65 -135,135 -135,135 135,135 135,135 -65,65 -64,65 h 394 394 z m 1600,0 -65,-65 135,-135 135,-135 -135,-135 -135,-135 65,-65 64,-65 h -394 -394 l 64,65 65,65 -135,135 -135,135 135,135 135,135 -65,65 -64,65 h 394 394 z m 1600,0 -65,-65 135,-135 135,-135 -135,-135 -135,-135 65,-65 64,-65 h -394 -394 l 64,65 65,65 -135,135 -135,135 135,135 135,135 -65,65 -64,65 h 394 394 z m 1600,0 -65,-65 135,-135 135,-135 -135,-135 -135,-135 65,-65 64,-65 h -394 -394 l 64,65 65,65 -135,135 -135,135 135,135 135,135 -65,65 -64,65 h 394 394 z m 1600,0 -65,-65 135,-135 135,-135 -135,-135 -135,-135 65,-65 64,-65 h -394 -394 l 64,65 65,65 -135,135 -135,135 135,135 135,135 -65,65 -64,65 h 394 394 z m 1600,0 -65,-65 135,-135 135,-135 -135,-135 -135,-135 65,-65 64,-65 h -394 -394 l 64,65 65,65 -135,135 -135,135 135,135 135,135 -65,65 -64,65 h 394 394 z m -10595,-205 130,-130 -133,-133 -132,-132 -132,132 -133,133 130,130 c 71,71 132,130 135,130 3,0 64,-59 135,-130 z m 1600,0 130,-130 -133,-133 -132,-132 -132,132 -133,133 130,130 c 71,71 132,130 135,130 3,0 64,-59 135,-130 z m 1600,0 130,-130 -133,-133 -132,-132 -132,132 -133,133 130,130 c 71,71 132,130 135,130 3,0 64,-59 135,-130 z m 1600,0 130,-130 -133,-133 -132,-132 -132,132 -133,133 130,130 c 71,71 132,130 135,130 3,0 64,-59 135,-130 z m 1600,0 130,-130 -133,-133 -132,-132 -132,132 -133,133 130,130 c 71,71 132,130 135,130 3,0 64,-59 135,-130 z m 1600,0 130,-130 -133,-133 -132,-132 -132,132 -133,133 130,130 c 71,71 132,130 135,130 3,0 64,-59 135,-130 z m 1600,0 130,-130 -133,-133 -132,-132 -132,132 -133,133 130,130 c 71,71 132,130 135,130 3,0 64,-59 135,-130 z m -9598,-532 133,-133 65,65 65,64 v -394 -394 l -64,63 c -54,53 -66,61 -82,53 -11,-6 -71,-63 -134,-126 -63,-64 -117,-116 -120,-116 -3,0 -57,52 -120,116 -63,63 -123,120 -134,126 -16,8 -28,0 -82,-53 l -64,-63 v 394 394 l 65,-64 65,-65 133,133 c 72,72 134,132 137,132 3,0 64,-60 137,-132 z m 1600,0 133,-133 65,65 65,64 v -394 -394 l -64,63 c -54,53 -66,61 -82,53 -11,-6 -71,-63 -134,-126 -63,-64 -117,-116 -120,-116 -3,0 -57,52 -120,116 -63,63 -123,120 -134,126 -16,8 -28,0 -82,-53 l -64,-63 v 394 394 l 65,-64 65,-65 133,133 c 72,72 134,132 137,132 3,0 64,-60 137,-132 z m 1600,0 133,-133 65,65 65,64 v -394 -394 l -64,63 c -54,53 -66,61 -82,53 -11,-6 -71,-63 -134,-126 -63,-64 -117,-116 -120,-116 -3,0 -57,52 -120,116 -63,63 -123,120 -134,126 -16,8 -28,0 -82,-53 l -64,-63 v 394 394 l 65,-64 65,-65 133,133 c 72,72 134,132 137,132 3,0 64,-60 137,-132 z m 1600,0 133,-133 65,65 65,64 v -394 -394 l -64,63 c -54,53 -66,61 -82,53 -11,-6 -71,-63 -134,-126 -63,-64 -117,-116 -120,-116 -3,0 -57,52 -120,116 -63,63 -123,120 -134,126 -16,8 -28,0 -82,-53 l -64,-63 v 394 394 l 65,-64 65,-65 133,133 c 72,72 134,132 137,132 3,0 64,-60 137,-132 z m 1600,0 133,-133 65,65 65,64 v -394 -394 l -64,63 c -54,53 -66,61 -82,53 -11,-6 -71,-63 -134,-126 -63,-64 -117,-116 -120,-116 -3,0 -57,52 -120,116 -63,63 -123,120 -134,126 -16,8 -28,0 -82,-53 l -64,-63 v 394 394 l 65,-64 65,-65 133,133 c 72,72 134,132 137,132 3,0 64,-60 137,-132 z m 1600,0 133,-133 65,65 65,64 v -394 -394 l -64,63 c -54,53 -66,61 -82,53 -11,-6 -71,-63 -134,-126 -63,-64 -117,-116 -120,-116 -3,0 -57,52 -120,116 -63,63 -123,120 -134,126 -16,8 -28,0 -82,-53 l -64,-63 v 394 394 l 65,-64 65,-65 133,133 c 72,72 134,132 137,132 3,0 64,-60 137,-132 z m 1600,0 133,-133 65,65 65,64 v -394 -394 l -64,63 c -54,53 -66,61 -82,53 -11,-6 -71,-63 -134,-126 -63,-64 -117,-116 -120,-116 -3,0 -57,52 -120,116 -63,63 -123,120 -134,126 -16,8 -28,0 -82,-53 l -64,-63 v 394 394 l 65,-64 65,-65 133,133 c 72,72 134,132 137,132 3,0 64,-60 137,-132 z m -10207,-863 -65,-65 135,-135 135,-135 -135,-135 -135,-135 65,-65 64,-65 H 800 406 l 64,65 65,65 -135,135 -135,135 135,135 135,135 -65,65 -64,65 h 394 394 z m 1600,0 -65,-65 135,-135 135,-135 -135,-135 -135,-135 65,-65 64,-65 h -394 -394 l 64,65 65,65 -135,135 -135,135 135,135 135,135 -65,65 -64,65 h 394 394 z m 1600,0 -65,-65 135,-135 135,-135 -135,-135 -135,-135 65,-65 64,-65 h -394 -394 l 64,65 65,65 -135,135 -135,135 135,135 135,135 -65,65 -64,65 h 394 394 z m 1600,0 -65,-65 135,-135 135,-135 -135,-135 -135,-135 65,-65 64,-65 h -394 -394 l 64,65 65,65 -135,135 -135,135 135,135 135,135 -65,65 -64,65 h 394 394 z m 1600,0 -65,-65 135,-135 135,-135 -135,-135 -135,-135 65,-65 64,-65 h -394 -394 l 64,65 65,65 -135,135 -135,135 135,135 135,135 -65,65 -64,65 h 394 394 z m 1600,0 -65,-65 135,-135 135,-135 -135,-135 -135,-135 65,-65 64,-65 h -394 -394 l 64,65 65,65 -135,135 -135,135 135,135 135,135 -65,65 -64,65 h 394 394 z m 1600,0 -65,-65 135,-135 135,-135 -135,-135 -135,-135 65,-65 64,-65 h -394 -394 l 64,65 65,65 -135,135 -135,135 135,135 135,135 -65,65 -64,65 h 394 394 z m 1600,0 -65,-65 135,-135 135,-135 -135,-135 -135,-135 65,-65 64,-65 h -394 -394 l 64,65 65,65 -135,135 -135,135 135,135 135,135 -65,65 -64,65 h 394 394 z m -10595,-205 130,-130 -133,-133 -132,-132 -132,132 -133,133 130,130 c 71,71 132,130 135,130 3,0 64,-59 135,-130 z m 1600,0 130,-130 -133,-133 -132,-132 -132,132 -133,133 130,130 c 71,71 132,130 135,130 3,0 64,-59 135,-130 z m 1600,0 130,-130 -133,-133 -132,-132 -132,132 -133,133 130,130 c 71,71 132,130 135,130 3,0 64,-59 135,-130 z m 1600,0 130,-130 -133,-133 -132,-132 -132,132 -133,133 130,130 c 71,71 132,130 135,130 3,0 64,-59 135,-130 z m 1600,0 130,-130 -133,-133 -132,-132 -132,132 -133,133 130,130 c 71,71 132,130 135,130 3,0 64,-59 135,-130 z m 1600,0 130,-130 -133,-133 -132,-132 -132,132 -133,133 130,130 c 71,71 132,130 135,130 3,0 64,-59 135,-130 z m 1600,0 130,-130 -133,-133 -132,-132 -132,132 -133,133 130,130 c 71,71 132,130 135,130 3,0 64,-59 135,-130 z m -9598,-532 133,-133 65,65 65,64 v -394 -394 l -64,63 c -53,53 -67,61 -82,53 -11,-6 -70,-63 -133,-126 -63,-64 -117,-116 -121,-116 -4,0 -58,52 -121,116 -63,63 -122,120 -133,126 -15,8 -29,0 -82,-53 l -64,-63 v 394 394 l 65,-64 65,-65 133,133 c 72,72 134,132 137,132 3,0 64,-60 137,-132 z m 1600,0 133,-133 65,65 65,64 v -394 -394 l -64,63 c -53,53 -67,61 -82,53 -11,-6 -70,-63 -133,-126 -63,-64 -117,-116 -121,-116 -4,0 -58,52 -121,116 -63,63 -122,120 -133,126 -15,8 -29,0 -82,-53 l -64,-63 v 394 394 l 65,-64 65,-65 133,133 c 72,72 134,132 137,132 3,0 64,-60 137,-132 z m 1600,0 133,-133 65,65 65,64 v -394 -394 l -64,63 c -53,53 -67,61 -82,53 -11,-6 -70,-63 -133,-126 -63,-64 -117,-116 -121,-116 -4,0 -58,52 -121,116 -63,63 -122,120 -133,126 -15,8 -29,0 -82,-53 l -64,-63 v 394 394 l 65,-64 65,-65 133,133 c 72,72 134,132 137,132 3,0 64,-60 137,-132 z m 1600,0 133,-133 65,65 65,64 v -394 -394 l -64,63 c -53,53 -67,61 -82,53 -11,-6 -70,-63 -133,-126 -63,-64 -117,-116 -121,-116 -4,0 -58,52 -121,116 -63,63 -122,120 -133,126 -15,8 -29,0 -82,-53 l -64,-63 v 394 394 l 65,-64 65,-65 133,133 c 72,72 134,132 137,132 3,0 64,-60 137,-132 z m 1600,0 133,-133 65,65 65,64 v -394 -394 l -64,63 c -53,53 -67,61 -82,53 -11,-6 -70,-63 -133,-126 -63,-64 -117,-116 -121,-116 -4,0 -58,52 -121,116 -63,63 -122,120 -133,126 -15,8 -29,0 -82,-53 l -64,-63 v 394 394 l 65,-64 65,-65 133,133 c 72,72 134,132 137,132 3,0 64,-60 137,-132 z m 1600,0 133,-133 65,65 65,64 v -394 -394 l -64,63 c -53,53 -67,61 -82,53 -11,-6 -70,-63 -133,-126 -63,-64 -117,-116 -121,-116 -4,0 -58,52 -121,116 -63,63 -122,120 -133,126 -15,8 -29,0 -82,-53 l -64,-63 v 394 394 l 65,-64 65,-65 133,133 c 72,72 134,132 137,132 3,0 64,-60 137,-132 z m 1600,0 133,-133 65,65 65,64 v -394 -394 l -64,63 c -53,53 -67,61 -82,53 -11,-6 -70,-63 -133,-126 -63,-64 -117,-116 -121,-116 -4,0 -58,52 -121,116 -63,63 -122,120 -133,126 -15,8 -29,0 -82,-53 l -64,-63 v 394 394 l 65,-64 65,-65 133,133 c 72,72 134,132 137,132 3,0 64,-60 137,-132 z m -10207,-863 -65,-65 135,-135 135,-135 -135,-135 -135,-135 65,-65 64,-65 H 800 406 l 64,65 65,65 -135,135 -135,135 135,135 135,135 -65,65 -64,65 h 394 394 z m 1600,0 -65,-65 135,-135 135,-135 -135,-135 -135,-135 65,-65 64,-65 h -394 -394 l 64,65 65,65 -135,135 -135,135 135,135 135,135 -65,65 -64,65 h 394 394 z m 1600,0 -65,-65 135,-135 135,-135 -135,-135 -135,-135 65,-65 64,-65 h -394 -394 l 64,65 65,65 -135,135 -135,135 135,135 135,135 -65,65 -64,65 h 394 394 z m 1600,0 -65,-65 135,-135 135,-135 -135,-135 -135,-135 65,-65 64,-65 h -394 -394 l 64,65 65,65 -135,135 -135,135 135,135 135,135 -65,65 -64,65 h 394 394 z m 1600,0 -65,-65 135,-135 135,-135 -135,-135 -135,-135 65,-65 64,-65 h -394 -394 l 64,65 65,65 -135,135 -135,135 135,135 135,135 -65,65 -64,65 h 394 394 z m 1600,0 -65,-65 135,-135 135,-135 -135,-135 -135,-135 65,-65 64,-65 h -394 -394 l 64,65 65,65 -135,135 -135,135 135,135 135,135 -65,65 -64,65 h 394 394 z m 1600,0 -65,-65 135,-135 135,-135 -135,-135 -135,-135 65,-65 64,-65 h -394 -394 l 64,65 65,65 -135,135 -135,135 135,135 135,135 -65,65 -64,65 h 394 394 z m 1600,0 -65,-65 135,-135 135,-135 -135,-135 -135,-135 65,-65 64,-65 h -394 -394 l 64,65 65,65 -135,135 -135,135 135,135 135,135 -65,65 -64,65 h 394 394 z m -10595,-205 130,-130 -133,-133 -132,-132 -132,132 -133,133 130,130 c 71,71 132,130 135,130 3,0 64,-59 135,-130 z m 1600,0 130,-130 -133,-133 -132,-132 -132,132 -133,133 130,130 c 71,71 132,130 135,130 3,0 64,-59 135,-130 z m 1600,0 130,-130 -133,-133 -132,-132 -132,132 -133,133 130,130 c 71,71 132,130 135,130 3,0 64,-59 135,-130 z m 1600,0 130,-130 -133,-133 -132,-132 -132,132 -133,133 130,130 c 71,71 132,130 135,130 3,0 64,-59 135,-130 z m 1600,0 130,-130 -133,-133 -132,-132 -132,132 -133,133 130,130 c 71,71 132,130 135,130 3,0 64,-59 135,-130 z m 1600,0 130,-130 -133,-133 -132,-132 -132,132 -133,133 130,130 c 71,71 132,130 135,130 3,0 64,-59 135,-130 z m 1600,0 130,-130 -133,-133 -132,-132 -132,132 -133,133 130,130 c 71,71 132,130 135,130 3,0 64,-59 135,-130 z m -9598,-532 133,-133 65,65 65,64 v -394 -394 l -63,62 c -34,34 -67,62 -71,62 -5,0 -67,-57 -138,-127 l -128,-127 -128,127 c -71,70 -133,127 -138,127 -4,0 -37,-28 -71,-62 l -63,-62 v 394 394 l 65,-64 65,-65 133,133 c 72,72 134,132 137,132 3,0 64,-60 137,-132 z m 1600,0 133,-133 65,65 65,64 v -394 -394 l -63,62 c -34,34 -67,62 -71,62 -5,0 -67,-57 -138,-127 l -128,-127 -128,127 c -71,70 -133,127 -138,127 -4,0 -37,-28 -71,-62 l -63,-62 v 394 394 l 65,-64 65,-65 133,133 c 72,72 134,132 137,132 3,0 64,-60 137,-132 z m 1600,0 133,-133 65,65 65,64 v -394 -394 l -63,62 c -34,34 -67,62 -71,62 -5,0 -67,-57 -138,-127 l -128,-127 -128,127 c -71,70 -133,127 -138,127 -4,0 -37,-28 -71,-62 l -63,-62 v 394 394 l 65,-64 65,-65 133,133 c 72,72 134,132 137,132 3,0 64,-60 137,-132 z m 1600,0 133,-133 65,65 65,64 v -394 -394 l -63,62 c -34,34 -67,62 -71,62 -5,0 -67,-57 -138,-127 l -128,-127 -128,127 c -71,70 -133,127 -138,127 -4,0 -37,-28 -71,-62 l -63,-62 v 394 394 l 65,-64 65,-65 133,133 c 72,72 134,132 137,132 3,0 64,-60 137,-132 z m 1600,0 133,-133 65,65 65,64 v -394 -394 l -63,62 c -34,34 -67,62 -71,62 -5,0 -67,-57 -138,-127 l -128,-127 -128,127 c -71,70 -133,127 -138,127 -4,0 -37,-28 -71,-62 l -63,-62 v 394 394 l 65,-64 65,-65 133,133 c 72,72 134,132 137,132 3,0 64,-60 137,-132 z m 1600,0 133,-133 65,65 65,64 v -394 -394 l -63,62 c -34,34 -67,62 -71,62 -5,0 -67,-57 -138,-127 l -128,-127 -128,127 c -71,70 -133,127 -138,127 -4,0 -37,-28 -71,-62 l -63,-62 v 394 394 l 65,-64 65,-65 133,133 c 72,72 134,132 137,132 3,0 64,-60 137,-132 z m 1600,0 133,-133 65,65 65,64 v -394 -394 l -63,62 c -34,34 -67,62 -71,62 -5,0 -67,-57 -138,-127 l -128,-127 -128,127 c -71,70 -133,127 -138,127 -4,0 -37,-28 -71,-62 l -63,-62 v 394 394 l 65,-64 65,-65 133,133 c 72,72 134,132 137,132 3,0 64,-60 137,-132 z m -10207,-863 -65,-65 135,-135 135,-135 -135,-135 -135,-135 65,-65 64,-65 H 800 406 l 64,65 65,65 -135,135 -135,135 135,135 135,135 -65,65 -64,65 h 394 394 z m 1600,0 -65,-65 135,-135 135,-135 -135,-135 -135,-135 65,-65 64,-65 h -394 -394 l 64,65 65,65 -135,135 -135,135 135,135 135,135 -65,65 -64,65 h 394 394 z m 1600,0 -65,-65 135,-135 135,-135 -135,-135 -135,-135 65,-65 64,-65 h -394 -394 l 64,65 65,65 -135,135 -135,135 135,135 135,135 -65,65 -64,65 h 394 394 z m 1600,0 -65,-65 135,-135 135,-135 -135,-135 -135,-135 65,-65 64,-65 h -394 -394 l 64,65 65,65 -135,135 -135,135 135,135 135,135 -65,65 -64,65 h 394 394 z m 1600,0 -65,-65 135,-135 135,-135 -135,-135 -135,-135 65,-65 64,-65 h -394 -394 l 64,65 65,65 -135,135 -135,135 135,135 135,135 -65,65 -64,65 h 394 394 z m 1600,0 -65,-65 135,-135 135,-135 -135,-135 -135,-135 65,-65 64,-65 h -394 -394 l 64,65 65,65 -135,135 -135,135 135,135 135,135 -65,65 -64,65 h 394 394 z m 1600,0 -65,-65 135,-135 135,-135 -135,-135 -135,-135 65,-65 64,-65 h -394 -394 l 64,65 65,65 -135,135 -135,135 135,135 135,135 -65,65 -64,65 h 394 394 z m 1600,0 -65,-65 135,-135 135,-135 -135,-135 -135,-135 65,-65 64,-65 h -394 -394 l 64,65 65,65 -135,135 -135,135 135,135 135,135 -65,65 -64,65 h 394 394 z m -10595,-205 130,-130 -133,-133 -132,-132 -132,132 -133,133 130,130 c 71,71 132,130 135,130 3,0 64,-59 135,-130 z m 1600,0 130,-130 -133,-133 -132,-132 -132,132 -133,133 130,130 c 71,71 132,130 135,130 3,0 64,-59 135,-130 z m 1600,0 130,-130 -133,-133 -132,-132 -132,132 -133,133 130,130 c 71,71 132,130 135,130 3,0 64,-59 135,-130 z m 1600,0 130,-130 -133,-133 -132,-132 -132,132 -133,133 130,130 c 71,71 132,130 135,130 3,0 64,-59 135,-130 z m 1600,0 130,-130 -133,-133 -132,-132 -132,132 -133,133 130,130 c 71,71 132,130 135,130 3,0 64,-59 135,-130 z m 1600,0 130,-130 -133,-133 -132,-132 -132,132 -133,133 130,130 c 71,71 132,130 135,130 3,0 64,-59 135,-130 z m 1600,0 130,-130 -133,-133 -132,-132 -132,132 -133,133 130,130 c 71,71 132,130 135,130 3,0 64,-59 135,-130 z m -9598,-532 133,-133 65,65 65,64 v -394 -394 l -63,62 c -34,34 -67,62 -71,62 -5,0 -67,-57 -138,-127 l -128,-127 -128,127 c -71,70 -133,127 -138,127 -4,0 -37,-28 -71,-62 l -63,-62 v 394 394 l 65,-64 65,-65 133,133 c 72,72 134,132 137,132 3,0 64,-60 137,-132 z m 1600,0 133,-133 65,65 65,64 v -394 -394 l -63,62 c -34,34 -67,62 -71,62 -5,0 -67,-57 -138,-127 l -128,-127 -128,127 c -71,70 -133,127 -138,127 -4,0 -37,-28 -71,-62 l -63,-62 v 394 394 l 65,-64 65,-65 133,133 c 72,72 134,132 137,132 3,0 64,-60 137,-132 z m 1600,0 133,-133 65,65 65,64 v -394 -394 l -63,62 c -34,34 -67,62 -71,62 -5,0 -67,-57 -138,-127 l -128,-127 -128,127 c -71,70 -133,127 -138,127 -4,0 -37,-28 -71,-62 l -63,-62 v 394 394 l 65,-64 65,-65 133,133 c 72,72 134,132 137,132 3,0 64,-60 137,-132 z m 1600,0 133,-133 65,65 65,64 v -394 -394 l -63,62 c -34,34 -67,62 -71,62 -5,0 -67,-57 -138,-127 l -128,-127 -128,127 c -71,70 -133,127 -138,127 -4,0 -37,-28 -71,-62 l -63,-62 v 394 394 l 65,-64 65,-65 133,133 c 72,72 134,132 137,132 3,0 64,-60 137,-132 z m 1600,0 133,-133 65,65 65,64 v -394 -394 l -63,62 c -34,34 -67,62 -71,62 -5,0 -67,-57 -138,-127 l -128,-127 -128,127 c -71,70 -133,127 -138,127 -4,0 -37,-28 -71,-62 l -63,-62 v 394 394 l 65,-64 65,-65 133,133 c 72,72 134,132 137,132 3,0 64,-60 137,-132 z m 1600,0 133,-133 65,65 65,64 v -394 -394 l -63,62 c -34,34 -67,62 -71,62 -5,0 -67,-57 -138,-127 l -128,-127 -128,127 c -71,70 -133,127 -138,127 -4,0 -37,-28 -71,-62 l -63,-62 v 394 394 l 65,-64 65,-65 133,133 c 72,72 134,132 137,132 3,0 64,-60 137,-132 z m 1600,0 133,-133 65,65 65,64 v -394 -394 l -63,62 c -34,34 -67,62 -71,62 -5,0 -67,-57 -138,-127 l -128,-127 -128,127 c -71,70 -133,127 -138,127 -4,0 -37,-28 -71,-62 l -63,-62 v 394 394 l 65,-64 65,-65 133,133 c 72,72 134,132 137,132 3,0 64,-60 137,-132 z m -10207,-863 -65,-65 135,-135 135,-135 -135,-135 -135,-135 65,-65 64,-65 H 800 406 l 64,65 65,65 -135,135 -135,135 135,135 135,135 -65,65 -64,65 h 394 394 z m 1600,0 -65,-65 135,-135 135,-135 -135,-135 -135,-135 65,-65 64,-65 h -394 -394 l 64,65 65,65 -135,135 -135,135 135,135 135,135 -65,65 -64,65 h 394 394 z m 1600,0 -65,-65 135,-135 135,-135 -135,-135 -135,-135 65,-65 64,-65 h -394 -394 l 64,65 65,65 -135,135 -135,135 135,135 135,135 -65,65 -64,65 h 394 394 z m 1600,0 -65,-65 135,-135 135,-135 -135,-135 -135,-135 65,-65 64,-65 h -394 -394 l 64,65 65,65 -135,135 -135,135 135,135 135,135 -65,65 -64,65 h 394 394 z m 1600,0 -65,-65 135,-135 135,-135 -135,-135 -135,-135 65,-65 64,-65 h -394 -394 l 64,65 65,65 -135,135 -135,135 135,135 135,135 -65,65 -64,65 h 394 394 z m 1600,0 -65,-65 135,-135 135,-135 -135,-135 -135,-135 65,-65 64,-65 h -394 -394 l 64,65 65,65 -135,135 -135,135 135,135 135,135 -65,65 -64,65 h 394 394 z m 1600,0 -65,-65 135,-135 135,-135 -135,-135 -135,-135 65,-65 64,-65 h -394 -394 l 64,65 65,65 -135,135 -135,135 135,135 135,135 -65,65 -64,65 h 394 394 z m 1600,0 -65,-65 135,-135 135,-135 -135,-135 -135,-135 65,-65 64,-65 h -394 -394 l 64,65 65,65 -135,135 -135,135 135,135 135,135 -65,65 -64,65 h 394 394 z m -10595,-205 130,-130 -133,-133 -132,-132 -132,132 -133,133 130,130 c 71,71 132,130 135,130 3,0 64,-59 135,-130 z m 1600,0 130,-130 -133,-133 -132,-132 -132,132 -133,133 130,130 c 71,71 132,130 135,130 3,0 64,-59 135,-130 z m 1600,0 130,-130 -133,-133 -132,-132 -132,132 -133,133 130,130 c 71,71 132,130 135,130 3,0 64,-59 135,-130 z m 1600,0 130,-130 -133,-133 -132,-132 -132,132 -133,133 130,130 c 71,71 132,130 135,130 3,0 64,-59 135,-130 z m 1600,0 130,-130 -133,-133 -132,-132 -132,132 -133,133 130,130 c 71,71 132,130 135,130 3,0 64,-59 135,-130 z m 1600,0 130,-130 -133,-133 -132,-132 -132,132 -133,133 130,130 c 71,71 132,130 135,130 3,0 64,-59 135,-130 z m 1600,0 130,-130 -133,-133 -132,-132 -132,132 -133,133 130,130 c 71,71 132,130 135,130 3,0 64,-59 135,-130 z m -9598,-532 133,-133 65,65 65,64 V 800 406 l -64,63 c -54,53 -66,61 -82,53 -11,-6 -71,-63 -134,-126 -63,-64 -117,-116 -120,-116 -3,0 -57,52 -120,116 -63,63 -123,120 -134,126 -16,8 -28,0 -82,-53 l -64,-63 v 394 394 l 65,-64 65,-65 133,133 c 72,72 134,132 137,132 3,0 64,-60 137,-132 z m 1600,0 133,-133 65,65 65,64 V 800 406 l -64,63 c -54,53 -66,61 -82,53 -11,-6 -71,-63 -134,-126 -63,-64 -117,-116 -120,-116 -3,0 -57,52 -120,116 -63,63 -123,120 -134,126 -16,8 -28,0 -82,-53 l -64,-63 v 394 394 l 65,-64 65,-65 133,133 c 72,72 134,132 137,132 3,0 64,-60 137,-132 z m 1600,0 133,-133 65,65 65,64 V 800 406 l -64,63 c -54,53 -66,61 -82,53 -11,-6 -71,-63 -134,-126 -63,-64 -117,-116 -120,-116 -3,0 -57,52 -120,116 -63,63 -123,120 -134,126 -16,8 -28,0 -82,-53 l -64,-63 v 394 394 l 65,-64 65,-65 133,133 c 72,72 134,132 137,132 3,0 64,-60 137,-132 z m 1600,0 133,-133 65,65 65,64 V 800 406 l -64,63 c -54,53 -66,61 -82,53 -11,-6 -71,-63 -134,-126 -63,-64 -117,-116 -120,-116 -3,0 -57,52 -120,116 -63,63 -123,120 -134,126 -16,8 -28,0 -82,-53 l -64,-63 v 394 394 l 65,-64 65,-65 133,133 c 72,72 134,132 137,132 3,0 64,-60 137,-132 z m 1600,0 133,-133 65,65 65,64 V 800 406 l -64,63 c -54,53 -66,61 -82,53 -11,-6 -71,-63 -134,-126 -63,-64 -117,-116 -120,-116 -3,0 -57,52 -120,116 -63,63 -123,120 -134,126 -16,8 -28,0 -82,-53 l -64,-63 v 394 394 l 65,-64 65,-65 133,133 c 72,72 134,132 137,132 3,0 64,-60 137,-132 z m 1600,0 133,-133 65,65 65,64 V 800 406 l -64,63 c -54,53 -66,61 -82,53 -11,-6 -71,-63 -134,-126 -63,-64 -117,-116 -120,-116 -3,0 -57,52 -120,116 -63,63 -123,120 -134,126 -16,8 -28,0 -82,-53 l -64,-63 v 394 394 l 65,-64 65,-65 133,133 c 72,72 134,132 137,132 3,0 64,-60 137,-132 z m 1600,0 133,-133 65,65 65,64 V 800 406 l -64,63 c -54,53 -66,61 -82,53 -11,-6 -71,-63 -134,-126 -63,-64 -117,-116 -120,-116 -3,0 -57,52 -120,116 -63,63 -123,120 -134,126 -16,8 -28,0 -82,-53 l -64,-63 v 394 394 l 65,-64 65,-65 133,133 c 72,72 134,132 137,132 3,0 64,-60 137,-132 z"
       id="path1" />
    <path
       d="m 1303,12042 c -51,-20 -93,-39 -93,-42 0,-3 43,-22 95,-42 l 95,-38 95,38 c 52,20 95,39 95,42 0,4 -133,59 -180,74 -8,3 -57,-12 -107,-32 z"
       id="path2" />
    <path
       d="m 1698,12042 c -49,-19 -88,-38 -88,-41 0,-3 42,-23 93,-44 l 92,-37 93,37 c 50,20 92,39 92,43 0,6 -180,81 -190,79 -3,0 -44,-17 -92,-37 z"
       id="path3" />
    <path
       d="m 2903,12042 c -51,-20 -93,-39 -93,-42 0,-3 43,-22 95,-42 l 95,-38 95,38 c 52,20 95,39 95,42 0,4 -133,59 -180,74 -8,3 -57,-12 -107,-32 z"
       id="path4" />
    <path
       d="m 3298,12042 c -49,-19 -88,-38 -88,-41 0,-3 42,-23 93,-44 l 92,-37 93,37 c 50,20 92,39 92,43 0,6 -180,81 -190,79 -3,0 -44,-17 -92,-37 z"
       id="path5" />
    <path
       d="m 4503,12042 c -51,-20 -93,-39 -93,-42 0,-3 43,-22 95,-42 l 95,-38 95,38 c 52,20 95,39 95,42 0,4 -133,59 -180,74 -8,3 -57,-12 -107,-32 z"
       id="path6" />
    <path
       d="m 4898,12042 c -49,-19 -88,-38 -88,-41 0,-3 42,-23 93,-44 l 92,-37 93,37 c 50,20 92,39 92,43 0,6 -180,81 -190,79 -3,0 -44,-17 -92,-37 z"
       id="path7" />
    <path
       d="m 6103,12042 c -51,-20 -93,-39 -93,-42 0,-3 43,-22 95,-42 l 95,-38 95,38 c 52,20 95,39 95,42 0,4 -133,59 -180,74 -8,3 -57,-12 -107,-32 z"
       id="path8" />
    <path
       d="m 6498,12042 c -49,-19 -88,-38 -88,-41 0,-3 42,-23 93,-44 l 92,-37 93,37 c 50,20 92,39 92,43 0,6 -180,81 -190,79 -3,0 -44,-17 -92,-37 z"
       id="path9" />
    <path
       d="m 7703,12042 c -51,-20 -93,-39 -93,-42 0,-3 43,-22 95,-42 l 95,-38 95,38 c 52,20 95,39 95,42 0,4 -133,59 -180,74 -8,3 -57,-12 -107,-32 z"
       id="path10" />
    <path
       d="m 8098,12042 c -49,-19 -88,-38 -88,-41 0,-3 42,-23 93,-44 l 92,-37 93,37 c 50,20 92,39 92,43 0,6 -180,81 -190,79 -3,0 -44,-17 -92,-37 z"
       id="path11" />
    <path
       d="m 9303,12042 c -51,-20 -93,-39 -93,-42 0,-3 43,-22 95,-42 l 95,-38 95,38 c 52,20 95,39 95,42 0,4 -133,59 -180,74 -8,3 -57,-12 -107,-32 z"
       id="path12" />
    <path
       d="m 9698,12042 c -49,-19 -88,-38 -88,-41 0,-3 42,-23 93,-44 l 92,-37 93,37 c 50,20 92,39 92,43 0,6 -180,81 -190,79 -3,0 -44,-17 -92,-37 z"
       id="path13" />
    <path
       d="m 10903,12042 c -51,-20 -93,-39 -93,-42 0,-3 43,-22 95,-42 l 95,-38 95,38 c 52,20 95,39 95,42 0,4 -133,59 -180,74 -8,3 -57,-12 -107,-32 z"
       id="path14" />
    <path
       d="m 11298,12042 c -49,-19 -88,-38 -88,-41 0,-3 42,-23 93,-44 l 92,-37 93,37 c 50,20 92,39 92,43 0,6 -180,81 -190,79 -3,0 -44,-17 -92,-37 z"
       id="path15" />
    <path
       d="m 794,11575 c -4,-11 -22,-55 -40,-98 l -32,-77 35,-88 c 19,-48 38,-90 42,-95 4,-4 24,35 45,88 l 38,95 -40,97 c -32,77 -42,94 -48,78 z"
       id="path16" />
    <path
       d="m 786,11159 c -8,-19 -25,-62 -39,-96 l -25,-62 32,-78 c 18,-43 36,-87 40,-98 6,-16 16,1 47,79 l 40,99 -36,91 c -20,50 -39,93 -41,95 -2,2 -10,-11 -18,-30 z"
       id="path17" />
    <path
       d="m 2394,11575 c -4,-11 -22,-55 -40,-98 l -32,-77 35,-88 c 19,-48 38,-90 42,-95 4,-4 24,35 45,88 l 38,95 -40,97 c -32,77 -42,94 -48,78 z"
       id="path18" />
    <path
       d="m 2386,11159 c -8,-19 -25,-62 -39,-96 l -25,-62 32,-78 c 18,-43 36,-87 40,-98 6,-16 16,1 47,79 l 40,99 -36,91 c -20,50 -39,93 -41,95 -2,2 -10,-11 -18,-30 z"
       id="path19" />
    <path
       d="m 3994,11575 c -4,-11 -22,-55 -40,-98 l -32,-77 35,-88 c 19,-48 38,-90 42,-95 4,-4 24,35 45,88 l 38,95 -40,97 c -32,77 -42,94 -48,78 z"
       id="path20" />
    <path
       d="m 3986,11159 c -8,-19 -25,-62 -39,-96 l -25,-62 32,-78 c 18,-43 36,-87 40,-98 6,-16 16,1 47,79 l 40,99 -36,91 c -20,50 -39,93 -41,95 -2,2 -10,-11 -18,-30 z"
       id="path21" />
    <path
       d="m 5594,11575 c -4,-11 -22,-55 -40,-98 l -32,-77 35,-88 c 19,-48 38,-90 42,-95 4,-4 24,35 45,88 l 38,95 -40,97 c -32,77 -42,94 -48,78 z"
       id="path22" />
    <path
       d="m 5586,11159 c -8,-19 -25,-62 -39,-96 l -25,-62 32,-78 c 18,-43 36,-87 40,-98 6,-16 16,1 47,79 l 40,99 -36,91 c -20,50 -39,93 -41,95 -2,2 -10,-11 -18,-30 z"
       id="path23" />
    <path
       d="m 7194,11575 c -4,-11 -22,-55 -40,-98 l -32,-77 35,-88 c 19,-48 38,-90 42,-95 4,-4 24,35 45,88 l 38,95 -40,97 c -32,77 -42,94 -48,78 z"
       id="path24" />
    <path
       d="m 7186,11159 c -8,-19 -25,-62 -39,-96 l -25,-62 32,-78 c 18,-43 36,-87 40,-98 6,-16 16,1 47,79 l 40,99 -36,91 c -20,50 -39,93 -41,95 -2,2 -10,-11 -18,-30 z"
       id="path25" />
    <path
       d="m 8794,11575 c -4,-11 -22,-55 -40,-98 l -32,-77 35,-88 c 19,-48 38,-90 42,-95 4,-4 24,35 45,88 l 38,95 -40,97 c -32,77 -42,94 -48,78 z"
       id="path26" />
    <path
       d="m 8786,11159 c -8,-19 -25,-62 -39,-96 l -25,-62 32,-78 c 18,-43 36,-87 40,-98 6,-16 16,1 47,79 l 40,99 -36,91 c -20,50 -39,93 -41,95 -2,2 -10,-11 -18,-30 z"
       id="path27" />
    <path
       d="m 10394,11575 c -4,-11 -22,-55 -40,-98 l -32,-77 35,-88 c 19,-48 38,-90 42,-95 4,-4 24,35 45,88 l 38,95 -40,97 c -32,77 -42,94 -48,78 z"
       id="path28" />
    <path
       d="m 10386,11159 c -8,-19 -25,-62 -39,-96 l -25,-62 32,-78 c 18,-43 36,-87 40,-98 6,-16 16,1 47,79 l 40,99 -36,91 c -20,50 -39,93 -41,95 -2,2 -10,-11 -18,-30 z"
       id="path29" />
    <path
       d="m 11994,11575 c -4,-11 -22,-55 -40,-98 l -32,-77 35,-88 c 19,-48 38,-90 42,-95 4,-4 24,35 45,88 l 38,95 -40,97 c -32,77 -42,94 -48,78 z"
       id="path30" />
    <path
       d="m 11986,11159 c -8,-19 -25,-62 -39,-96 l -25,-62 32,-78 c 18,-43 36,-87 40,-98 6,-16 16,1 47,79 l 40,99 -36,91 c -20,50 -39,93 -41,95 -2,2 -10,-11 -18,-30 z"
       id="path31" />
    <path
       d="m 1303,10442 c -51,-20 -93,-39 -93,-42 0,-3 43,-22 95,-42 l 95,-38 95,38 c 52,20 95,39 95,42 0,4 -133,59 -180,74 -8,3 -57,-12 -107,-32 z"
       id="path32" />
    <path
       d="m 1698,10442 c -49,-19 -88,-38 -88,-41 0,-3 42,-23 93,-44 l 92,-37 93,37 c 50,20 92,39 92,43 0,6 -180,81 -190,79 -3,0 -44,-17 -92,-37 z"
       id="path33" />
    <path
       d="m 2903,10442 c -51,-20 -93,-39 -93,-42 0,-3 43,-22 95,-42 l 95,-38 95,38 c 52,20 95,39 95,42 0,4 -133,59 -180,74 -8,3 -57,-12 -107,-32 z"
       id="path34" />
    <path
       d="m 3298,10442 c -49,-19 -88,-38 -88,-41 0,-3 42,-23 93,-44 l 92,-37 93,37 c 50,20 92,39 92,43 0,6 -180,81 -190,79 -3,0 -44,-17 -92,-37 z"
       id="path35" />
    <path
       d="m 4503,10442 c -51,-20 -93,-39 -93,-42 0,-3 43,-22 95,-42 l 95,-38 95,38 c 52,20 95,39 95,42 0,4 -133,59 -180,74 -8,3 -57,-12 -107,-32 z"
       id="path36" />
    <path
       d="m 4898,10442 c -49,-19 -88,-38 -88,-41 0,-3 42,-23 93,-44 l 92,-37 93,37 c 50,20 92,39 92,43 0,6 -180,81 -190,79 -3,0 -44,-17 -92,-37 z"
       id="path37" />
    <path
       d="m 6103,10442 c -51,-20 -93,-39 -93,-42 0,-3 43,-22 95,-42 l 95,-38 95,38 c 52,20 95,39 95,42 0,4 -133,59 -180,74 -8,3 -57,-12 -107,-32 z"
       id="path38" />
    <path
       d="m 6498,10442 c -49,-19 -88,-38 -88,-41 0,-3 42,-23 93,-44 l 92,-37 93,37 c 50,20 92,39 92,43 0,6 -180,81 -190,79 -3,0 -44,-17 -92,-37 z"
       id="path39" />
    <path
       d="m 7703,10442 c -51,-20 -93,-39 -93,-42 0,-3 43,-22 95,-42 l 95,-38 95,38 c 52,20 95,39 95,42 0,4 -133,59 -180,74 -8,3 -57,-12 -107,-32 z"
       id="path40" />
    <path
       d="m 8098,10442 c -49,-19 -88,-38 -88,-41 0,-3 42,-23 93,-44 l 92,-37 93,37 c 50,20 92,39 92,43 0,6 -180,81 -190,79 -3,0 -44,-17 -92,-37 z"
       id="path41" />
    <path
       d="m 9303,10442 c -51,-20 -93,-39 -93,-42 0,-3 43,-22 95,-42 l 95,-38 95,38 c 52,20 95,39 95,42 0,4 -133,59 -180,74 -8,3 -57,-12 -107,-32 z"
       id="path42" />
    <path
       d="m 9698,10442 c -49,-19 -88,-38 -88,-41 0,-3 42,-23 93,-44 l 92,-37 93,37 c 50,20 92,39 92,43 0,6 -180,81 -190,79 -3,0 -44,-17 -92,-37 z"
       id="path43" />
    <path
       d="m 10903,10442 c -51,-20 -93,-39 -93,-42 0,-3 43,-22 95,-42 l 95,-38 95,38 c 52,20 95,39 95,42 0,4 -133,59 -180,74 -8,3 -57,-12 -107,-32 z"
       id="path44" />
    <path
       d="m 11298,10442 c -49,-19 -88,-38 -88,-41 0,-3 42,-23 93,-44 l 92,-37 93,37 c 50,20 92,39 92,43 0,6 -180,81 -190,79 -3,0 -44,-17 -92,-37 z"
       id="path45" />
    <path
       d="m 794,9975 c -4,-11 -22,-55 -40,-98 l -32,-77 35,-88 c 19,-48 38,-90 42,-95 4,-4 24,35 45,88 l 38,95 -40,97 c -32,77 -42,94 -48,78 z"
       id="path46" />
    <path
       d="m 786,9559 c -8,-19 -25,-62 -39,-96 l -25,-62 32,-78 c 18,-43 36,-87 40,-98 6,-16 16,1 47,79 l 40,99 -36,91 c -20,50 -39,93 -41,95 -2,2 -10,-11 -18,-30 z"
       id="path47" />
    <path
       d="m 2394,9975 c -4,-11 -22,-55 -40,-98 l -32,-77 35,-88 c 19,-48 38,-90 42,-95 4,-4 24,35 45,88 l 38,95 -40,97 c -32,77 -42,94 -48,78 z"
       id="path48" />
    <path
       d="m 2386,9559 c -8,-19 -25,-62 -39,-96 l -25,-62 32,-78 c 18,-43 36,-87 40,-98 6,-16 16,1 47,79 l 40,99 -36,91 c -20,50 -39,93 -41,95 -2,2 -10,-11 -18,-30 z"
       id="path49" />
    <path
       d="m 3994,9975 c -4,-11 -22,-55 -40,-98 l -32,-77 35,-88 c 19,-48 38,-90 42,-95 4,-4 24,35 45,88 l 38,95 -40,97 c -32,77 -42,94 -48,78 z"
       id="path50" />
    <path
       d="m 3986,9559 c -8,-19 -25,-62 -39,-96 l -25,-62 32,-78 c 18,-43 36,-87 40,-98 6,-16 16,1 47,79 l 40,99 -36,91 c -20,50 -39,93 -41,95 -2,2 -10,-11 -18,-30 z"
       id="path51" />
    <path
       d="m 5594,9975 c -4,-11 -22,-55 -40,-98 l -32,-77 35,-88 c 19,-48 38,-90 42,-95 4,-4 24,35 45,88 l 38,95 -40,97 c -32,77 -42,94 -48,78 z"
       id="path52" />
    <path
       d="m 5586,9559 c -8,-19 -25,-62 -39,-96 l -25,-62 32,-78 c 18,-43 36,-87 40,-98 6,-16 16,1 47,79 l 40,99 -36,91 c -20,50 -39,93 -41,95 -2,2 -10,-11 -18,-30 z"
       id="path53" />
    <path
       d="m 7194,9975 c -4,-11 -22,-55 -40,-98 l -32,-77 35,-88 c 19,-48 38,-90 42,-95 4,-4 24,35 45,88 l 38,95 -40,97 c -32,77 -42,94 -48,78 z"
       id="path54" />
    <path
       d="m 7186,9559 c -8,-19 -25,-62 -39,-96 l -25,-62 32,-78 c 18,-43 36,-87 40,-98 6,-16 16,1 47,79 l 40,99 -36,91 c -20,50 -39,93 -41,95 -2,2 -10,-11 -18,-30 z"
       id="path55" />
    <path
       d="m 8794,9975 c -4,-11 -22,-55 -40,-98 l -32,-77 35,-88 c 19,-48 38,-90 42,-95 4,-4 24,35 45,88 l 38,95 -40,97 c -32,77 -42,94 -48,78 z"
       id="path56" />
    <path
       d="m 8786,9559 c -8,-19 -25,-62 -39,-96 l -25,-62 32,-78 c 18,-43 36,-87 40,-98 6,-16 16,1 47,79 l 40,99 -36,91 c -20,50 -39,93 -41,95 -2,2 -10,-11 -18,-30 z"
       id="path57" />
    <path
       d="m 10394,9975 c -4,-11 -22,-55 -40,-98 l -32,-77 35,-88 c 19,-48 38,-90 42,-95 4,-4 24,35 45,88 l 38,95 -40,97 c -32,77 -42,94 -48,78 z"
       id="path58" />
    <path
       d="m 10386,9559 c -8,-19 -25,-62 -39,-96 l -25,-62 32,-78 c 18,-43 36,-87 40,-98 6,-16 16,1 47,79 l 40,99 -36,91 c -20,50 -39,93 -41,95 -2,2 -10,-11 -18,-30 z"
       id="path59" />
    <path
       d="m 11994,9975 c -4,-11 -22,-55 -40,-98 l -32,-77 35,-88 c 19,-48 38,-90 42,-95 4,-4 24,35 45,88 l 38,95 -40,97 c -32,77 -42,94 -48,78 z"
       id="path60" />
    <path
       d="m 11986,9559 c -8,-19 -25,-62 -39,-96 l -25,-62 32,-78 c 18,-43 36,-87 40,-98 6,-16 16,1 47,79 l 40,99 -36,91 c -20,50 -39,93 -41,95 -2,2 -10,-11 -18,-30 z"
       id="path61" />
    <path
       d="m 1303,8842 c -51,-20 -93,-39 -93,-42 0,-3 43,-22 95,-42 l 95,-38 95,38 c 52,20 95,39 95,42 0,4 -133,59 -180,74 -8,3 -57,-12 -107,-32 z"
       id="path62" />
    <path
       d="m 1698,8842 c -49,-19 -88,-38 -88,-41 0,-3 42,-23 93,-44 l 92,-37 93,37 c 50,20 92,39 92,43 0,6 -180,81 -190,79 -3,0 -44,-17 -92,-37 z"
       id="path63" />
    <path
       d="m 2903,8842 c -51,-20 -93,-39 -93,-42 0,-3 43,-22 95,-42 l 95,-38 95,38 c 52,20 95,39 95,42 0,4 -133,59 -180,74 -8,3 -57,-12 -107,-32 z"
       id="path64" />
    <path
       d="m 3298,8842 c -49,-19 -88,-38 -88,-41 0,-3 42,-23 93,-44 l 92,-37 93,37 c 50,20 92,39 92,43 0,6 -180,81 -190,79 -3,0 -44,-17 -92,-37 z"
       id="path65" />
    <path
       d="m 4503,8842 c -51,-20 -93,-39 -93,-42 0,-3 43,-22 95,-42 l 95,-38 95,38 c 52,20 95,39 95,42 0,4 -133,59 -180,74 -8,3 -57,-12 -107,-32 z"
       id="path66" />
    <path
       d="m 4898,8842 c -49,-19 -88,-38 -88,-41 0,-3 42,-23 93,-44 l 92,-37 93,37 c 50,20 92,39 92,43 0,6 -180,81 -190,79 -3,0 -44,-17 -92,-37 z"
       id="path67" />
    <path
       d="m 6103,8842 c -51,-20 -93,-39 -93,-42 0,-3 43,-22 95,-42 l 95,-38 95,38 c 52,20 95,39 95,42 0,4 -133,59 -180,74 -8,3 -57,-12 -107,-32 z"
       id="path68" />
    <path
       d="m 6498,8842 c -49,-19 -88,-38 -88,-41 0,-3 42,-23 93,-44 l 92,-37 93,37 c 50,20 92,39 92,43 0,6 -180,81 -190,79 -3,0 -44,-17 -92,-37 z"
       id="path69" />
    <path
       d="m 7703,8842 c -51,-20 -93,-39 -93,-42 0,-3 43,-22 95,-42 l 95,-38 95,38 c 52,20 95,39 95,42 0,4 -133,59 -180,74 -8,3 -57,-12 -107,-32 z"
       id="path70" />
    <path
       d="m 8098,8842 c -49,-19 -88,-38 -88,-41 0,-3 42,-23 93,-44 l 92,-37 93,37 c 50,20 92,39 92,43 0,6 -180,81 -190,79 -3,0 -44,-17 -92,-37 z"
       id="path71" />
    <path
       d="m 9303,8842 c -51,-20 -93,-39 -93,-42 0,-3 43,-22 95,-42 l 95,-38 95,38 c 52,20 95,39 95,42 0,4 -133,59 -180,74 -8,3 -57,-12 -107,-32 z"
       id="path72" />
    <path
       d="m 9698,8842 c -49,-19 -88,-38 -88,-41 0,-3 42,-23 93,-44 l 92,-37 93,37 c 50,20 92,39 92,43 0,6 -180,81 -190,79 -3,0 -44,-17 -92,-37 z"
       id="path73" />
    <path
       d="m 10903,8842 c -51,-20 -93,-39 -93,-42 0,-3 43,-22 95,-42 l 95,-38 95,38 c 52,20 95,39 95,42 0,4 -133,59 -180,74 -8,3 -57,-12 -107,-32 z"
       id="path74" />
    <path
       d="m 11298,8842 c -49,-19 -88,-38 -88,-41 0,-3 42,-23 93,-44 l 92,-37 93,37 c 50,20 92,39 92,43 0,6 -180,81 -190,79 -3,0 -44,-17 -92,-37 z"
       id="path75" />
    <path
       d="m 794,8375 c -4,-11 -22,-55 -40,-98 l -32,-77 35,-88 c 19,-48 38,-90 42,-95 4,-4 24,35 45,88 l 38,95 -40,97 c -32,77 -42,94 -48,78 z"
       id="path76" />
    <path
       d="m 786,7959 c -8,-19 -25,-62 -39,-96 l -25,-62 32,-78 c 18,-43 36,-87 40,-98 6,-16 16,1 47,79 l 40,99 -36,91 c -20,50 -39,93 -41,95 -2,2 -10,-11 -18,-30 z"
       id="path77" />
    <path
       d="m 2394,8375 c -4,-11 -22,-55 -40,-98 l -32,-77 35,-88 c 19,-48 38,-90 42,-95 4,-4 24,35 45,88 l 38,95 -40,97 c -32,77 -42,94 -48,78 z"
       id="path78" />
    <path
       d="m 2386,7959 c -8,-19 -25,-62 -39,-96 l -25,-62 32,-78 c 18,-43 36,-87 40,-98 6,-16 16,1 47,79 l 40,99 -36,91 c -20,50 -39,93 -41,95 -2,2 -10,-11 -18,-30 z"
       id="path79" />
    <path
       d="m 3994,8375 c -4,-11 -22,-55 -40,-98 l -32,-77 35,-88 c 19,-48 38,-90 42,-95 4,-4 24,35 45,88 l 38,95 -40,97 c -32,77 -42,94 -48,78 z"
       id="path80" />
    <path
       d="m 3986,7959 c -8,-19 -25,-62 -39,-96 l -25,-62 32,-78 c 18,-43 36,-87 40,-98 6,-16 16,1 47,79 l 40,99 -36,91 c -20,50 -39,93 -41,95 -2,2 -10,-11 -18,-30 z"
       id="path81" />
    <path
       d="m 5594,8375 c -4,-11 -22,-55 -40,-98 l -32,-77 35,-88 c 19,-48 38,-90 42,-95 4,-4 24,35 45,88 l 38,95 -40,97 c -32,77 -42,94 -48,78 z"
       id="path82" />
    <path
       d="m 5586,7959 c -8,-19 -25,-62 -39,-96 l -25,-62 32,-78 c 18,-43 36,-87 40,-98 6,-16 16,1 47,79 l 40,99 -36,91 c -20,50 -39,93 -41,95 -2,2 -10,-11 -18,-30 z"
       id="path83" />
    <path
       d="m 7194,8375 c -4,-11 -22,-55 -40,-98 l -32,-77 35,-88 c 19,-48 38,-90 42,-95 4,-4 24,35 45,88 l 38,95 -40,97 c -32,77 -42,94 -48,78 z"
       id="path84" />
    <path
       d="m 7186,7959 c -8,-19 -25,-62 -39,-96 l -25,-62 32,-78 c 18,-43 36,-87 40,-98 6,-16 16,1 47,79 l 40,99 -36,91 c -20,50 -39,93 -41,95 -2,2 -10,-11 -18,-30 z"
       id="path85" />
    <path
       d="m 8794,8375 c -4,-11 -22,-55 -40,-98 l -32,-77 35,-88 c 19,-48 38,-90 42,-95 4,-4 24,35 45,88 l 38,95 -40,97 c -32,77 -42,94 -48,78 z"
       id="path86" />
    <path
       d="m 8786,7959 c -8,-19 -25,-62 -39,-96 l -25,-62 32,-78 c 18,-43 36,-87 40,-98 6,-16 16,1 47,79 l 40,99 -36,91 c -20,50 -39,93 -41,95 -2,2 -10,-11 -18,-30 z"
       id="path87" />
    <path
       d="m 10394,8375 c -4,-11 -22,-55 -40,-98 l -32,-77 35,-88 c 19,-48 38,-90 42,-95 4,-4 24,35 45,88 l 38,95 -40,97 c -32,77 -42,94 -48,78 z"
       id="path88" />
    <path
       d="m 10386,7959 c -8,-19 -25,-62 -39,-96 l -25,-62 32,-78 c 18,-43 36,-87 40,-98 6,-16 16,1 47,79 l 40,99 -36,91 c -20,50 -39,93 -41,95 -2,2 -10,-11 -18,-30 z"
       id="path89" />
    <path
       d="m 11994,8375 c -4,-11 -22,-55 -40,-98 l -32,-77 35,-88 c 19,-48 38,-90 42,-95 4,-4 24,35 45,88 l 38,95 -40,97 c -32,77 -42,94 -48,78 z"
       id="path90" />
    <path
       d="m 11986,7959 c -8,-19 -25,-62 -39,-96 l -25,-62 32,-78 c 18,-43 36,-87 40,-98 6,-16 16,1 47,79 l 40,99 -36,91 c -20,50 -39,93 -41,95 -2,2 -10,-11 -18,-30 z"
       id="path91" />
    <path
       d="m 1303,7242 c -51,-20 -93,-39 -93,-42 0,-3 43,-22 95,-42 l 95,-38 95,38 c 52,20 95,39 95,42 0,4 -133,59 -180,74 -8,3 -57,-12 -107,-32 z"
       id="path92" />
    <path
       d="m 1698,7242 c -49,-19 -88,-38 -88,-41 0,-3 42,-23 93,-44 l 92,-37 93,37 c 50,20 92,39 92,43 0,6 -180,81 -190,79 -3,0 -44,-17 -92,-37 z"
       id="path93" />
    <path
       d="m 2903,7242 c -51,-20 -93,-39 -93,-42 0,-3 43,-22 95,-42 l 95,-38 95,38 c 52,20 95,39 95,42 0,4 -133,59 -180,74 -8,3 -57,-12 -107,-32 z"
       id="path94" />
    <path
       d="m 3298,7242 c -49,-19 -88,-38 -88,-41 0,-3 42,-23 93,-44 l 92,-37 93,37 c 50,20 92,39 92,43 0,6 -180,81 -190,79 -3,0 -44,-17 -92,-37 z"
       id="path95" />
    <path
       d="m 4503,7242 c -51,-20 -93,-39 -93,-42 0,-3 43,-22 95,-42 l 95,-38 95,38 c 52,20 95,39 95,42 0,4 -133,59 -180,74 -8,3 -57,-12 -107,-32 z"
       id="path96" />
    <path
       d="m 4898,7242 c -49,-19 -88,-38 -88,-41 0,-3 42,-23 93,-44 l 92,-37 93,37 c 50,20 92,39 92,43 0,6 -180,81 -190,79 -3,0 -44,-17 -92,-37 z"
       id="path97" />
    <path
       d="m 6103,7242 c -51,-20 -93,-39 -93,-42 0,-3 43,-22 95,-42 l 95,-38 95,38 c 52,20 95,39 95,42 0,4 -133,59 -180,74 -8,3 -57,-12 -107,-32 z"
       id="path98" />
    <path
       d="m 6498,7242 c -49,-19 -88,-38 -88,-41 0,-3 42,-23 93,-44 l 92,-37 93,37 c 50,20 92,39 92,43 0,6 -180,81 -190,79 -3,0 -44,-17 -92,-37 z"
       id="path99" />
    <path
       d="m 7703,7242 c -51,-20 -93,-39 -93,-42 0,-3 43,-22 95,-42 l 95,-38 95,38 c 52,20 95,39 95,42 0,4 -133,59 -180,74 -8,3 -57,-12 -107,-32 z"
       id="path100" />
    <path
       d="m 8098,7242 c -49,-19 -88,-38 -88,-41 0,-3 42,-23 93,-44 l 92,-37 93,37 c 50,20 92,39 92,43 0,6 -180,81 -190,79 -3,0 -44,-17 -92,-37 z"
       id="path101" />
    <path
       d="m 9303,7242 c -51,-20 -93,-39 -93,-42 0,-3 43,-22 95,-42 l 95,-38 95,38 c 52,20 95,39 95,42 0,4 -133,59 -180,74 -8,3 -57,-12 -107,-32 z"
       id="path102" />
    <path
       d="m 9698,7242 c -49,-19 -88,-38 -88,-41 0,-3 42,-23 93,-44 l 92,-37 93,37 c 50,20 92,39 92,43 0,6 -180,81 -190,79 -3,0 -44,-17 -92,-37 z"
       id="path103" />
    <path
       d="m 10903,7242 c -51,-20 -93,-39 -93,-42 0,-3 43,-22 95,-42 l 95,-38 95,38 c 52,20 95,39 95,42 0,4 -133,59 -180,74 -8,3 -57,-12 -107,-32 z"
       id="path104" />
    <path
       d="m 11298,7242 c -49,-19 -88,-38 -88,-41 0,-3 42,-23 93,-44 l 92,-37 93,37 c 50,20 92,39 92,43 0,6 -180,81 -190,79 -3,0 -44,-17 -92,-37 z"
       id="path105" />
    <path
       d="m 794,6775 c -4,-11 -22,-55 -40,-98 l -32,-77 35,-88 c 19,-48 38,-90 42,-95 4,-4 24,35 45,88 l 38,95 -40,97 c -32,77 -42,94 -48,78 z"
       id="path106" />
    <path
       d="m 786,6359 c -8,-19 -25,-62 -39,-96 l -25,-62 32,-78 c 18,-43 36,-87 40,-98 6,-16 16,1 47,79 l 40,99 -36,91 c -20,50 -39,93 -41,95 -2,2 -10,-11 -18,-30 z"
       id="path107" />
    <path
       d="m 2394,6775 c -4,-11 -22,-55 -40,-98 l -32,-77 35,-88 c 19,-48 38,-90 42,-95 4,-4 24,35 45,88 l 38,95 -40,97 c -32,77 -42,94 -48,78 z"
       id="path108" />
    <path
       d="m 2386,6359 c -8,-19 -25,-62 -39,-96 l -25,-62 32,-78 c 18,-43 36,-87 40,-98 6,-16 16,1 47,79 l 40,99 -36,91 c -20,50 -39,93 -41,95 -2,2 -10,-11 -18,-30 z"
       id="path109" />
    <path
       d="m 3994,6775 c -4,-11 -22,-55 -40,-98 l -32,-77 35,-88 c 19,-48 38,-90 42,-95 4,-4 24,35 45,88 l 38,95 -40,97 c -32,77 -42,94 -48,78 z"
       id="path110" />
    <path
       d="m 3986,6359 c -8,-19 -25,-62 -39,-96 l -25,-62 32,-78 c 18,-43 36,-87 40,-98 6,-16 16,1 47,79 l 40,99 -36,91 c -20,50 -39,93 -41,95 -2,2 -10,-11 -18,-30 z"
       id="path111" />
    <path
       d="m 5594,6775 c -4,-11 -22,-55 -40,-98 l -32,-77 35,-88 c 19,-48 38,-90 42,-95 4,-4 24,35 45,88 l 38,95 -40,97 c -32,77 -42,94 -48,78 z"
       id="path112" />
    <path
       d="m 5586,6359 c -8,-19 -25,-62 -39,-96 l -25,-62 32,-78 c 18,-43 36,-87 40,-98 6,-16 16,1 47,79 l 40,99 -36,91 c -20,50 -39,93 -41,95 -2,2 -10,-11 -18,-30 z"
       id="path113" />
    <path
       d="m 7194,6775 c -4,-11 -22,-55 -40,-98 l -32,-77 35,-88 c 19,-48 38,-90 42,-95 4,-4 24,35 45,88 l 38,95 -40,97 c -32,77 -42,94 -48,78 z"
       id="path114" />
    <path
       d="m 7186,6359 c -8,-19 -25,-62 -39,-96 l -25,-62 32,-78 c 18,-43 36,-87 40,-98 6,-16 16,1 47,79 l 40,99 -36,91 c -20,50 -39,93 -41,95 -2,2 -10,-11 -18,-30 z"
       id="path115" />
    <path
       d="m 8794,6775 c -4,-11 -22,-55 -40,-98 l -32,-77 35,-88 c 19,-48 38,-90 42,-95 4,-4 24,35 45,88 l 38,95 -40,97 c -32,77 -42,94 -48,78 z"
       id="path116" />
    <path
       d="m 8786,6359 c -8,-19 -25,-62 -39,-96 l -25,-62 32,-78 c 18,-43 36,-87 40,-98 6,-16 16,1 47,79 l 40,99 -36,91 c -20,50 -39,93 -41,95 -2,2 -10,-11 -18,-30 z"
       id="path117" />
    <path
       d="m 10394,6775 c -4,-11 -22,-55 -40,-98 l -32,-77 35,-88 c 19,-48 38,-90 42,-95 4,-4 24,35 45,88 l 38,95 -40,97 c -32,77 -42,94 -48,78 z"
       id="path118" />
    <path
       d="m 10386,6359 c -8,-19 -25,-62 -39,-96 l -25,-62 32,-78 c 18,-43 36,-87 40,-98 6,-16 16,1 47,79 l 40,99 -36,91 c -20,50 -39,93 -41,95 -2,2 -10,-11 -18,-30 z"
       id="path119" />
    <path
       d="m 11994,6775 c -4,-11 -22,-55 -40,-98 l -32,-77 35,-88 c 19,-48 38,-90 42,-95 4,-4 24,35 45,88 l 38,95 -40,97 c -32,77 -42,94 -48,78 z"
       id="path120" />
    <path
       d="m 11986,6359 c -8,-19 -25,-62 -39,-96 l -25,-62 32,-78 c 18,-43 36,-87 40,-98 6,-16 16,1 47,79 l 40,99 -36,91 c -20,50 -39,93 -41,95 -2,2 -10,-11 -18,-30 z"
       id="path121" />
    <path
       d="m 1303,5642 c -51,-20 -93,-39 -93,-42 0,-3 43,-22 95,-42 l 95,-38 95,38 c 52,20 95,39 95,42 0,4 -133,59 -180,74 -8,3 -57,-12 -107,-32 z"
       id="path122" />
    <path
       d="m 1698,5642 c -49,-19 -88,-38 -88,-41 0,-3 42,-23 93,-44 l 92,-37 93,37 c 50,20 92,39 92,43 0,6 -180,81 -190,79 -3,0 -44,-17 -92,-37 z"
       id="path123" />
    <path
       d="m 2903,5642 c -51,-20 -93,-39 -93,-42 0,-3 43,-22 95,-42 l 95,-38 95,38 c 52,20 95,39 95,42 0,4 -133,59 -180,74 -8,3 -57,-12 -107,-32 z"
       id="path124" />
    <path
       d="m 3298,5642 c -49,-19 -88,-38 -88,-41 0,-3 42,-23 93,-44 l 92,-37 93,37 c 50,20 92,39 92,43 0,6 -180,81 -190,79 -3,0 -44,-17 -92,-37 z"
       id="path125" />
    <path
       d="m 4503,5642 c -51,-20 -93,-39 -93,-42 0,-3 43,-22 95,-42 l 95,-38 95,38 c 52,20 95,39 95,42 0,4 -133,59 -180,74 -8,3 -57,-12 -107,-32 z"
       id="path126" />
    <path
       d="m 4898,5642 c -49,-19 -88,-38 -88,-41 0,-3 42,-23 93,-44 l 92,-37 93,37 c 50,20 92,39 92,43 0,6 -180,81 -190,79 -3,0 -44,-17 -92,-37 z"
       id="path127" />
    <path
       d="m 6103,5642 c -51,-20 -93,-39 -93,-42 0,-3 43,-22 95,-42 l 95,-38 95,38 c 52,20 95,39 95,42 0,4 -133,59 -180,74 -8,3 -57,-12 -107,-32 z"
       id="path128" />
    <path
       d="m 6498,5642 c -49,-19 -88,-38 -88,-41 0,-3 42,-23 93,-44 l 92,-37 93,37 c 50,20 92,39 92,43 0,6 -180,81 -190,79 -3,0 -44,-17 -92,-37 z"
       id="path129" />
    <path
       d="m 7703,5642 c -51,-20 -93,-39 -93,-42 0,-3 43,-22 95,-42 l 95,-38 95,38 c 52,20 95,39 95,42 0,4 -133,59 -180,74 -8,3 -57,-12 -107,-32 z"
       id="path130" />
    <path
       d="m 8098,5642 c -49,-19 -88,-38 -88,-41 0,-3 42,-23 93,-44 l 92,-37 93,37 c 50,20 92,39 92,43 0,6 -180,81 -190,79 -3,0 -44,-17 -92,-37 z"
       id="path131" />
    <path
       d="m 9303,5642 c -51,-20 -93,-39 -93,-42 0,-3 43,-22 95,-42 l 95,-38 95,38 c 52,20 95,39 95,42 0,4 -133,59 -180,74 -8,3 -57,-12 -107,-32 z"
       id="path132" />
    <path
       d="m 9698,5642 c -49,-19 -88,-38 -88,-41 0,-3 42,-23 93,-44 l 92,-37 93,37 c 50,20 92,39 92,43 0,6 -180,81 -190,79 -3,0 -44,-17 -92,-37 z"
       id="path133" />
    <path
       d="m 10903,5642 c -51,-20 -93,-39 -93,-42 0,-3 43,-22 95,-42 l 95,-38 95,38 c 52,20 95,39 95,42 0,4 -133,59 -180,74 -8,3 -57,-12 -107,-32 z"
       id="path134" />
    <path
       d="m 11298,5642 c -49,-19 -88,-38 -88,-41 0,-3 42,-23 93,-44 l 92,-37 93,37 c 50,20 92,39 92,43 0,6 -180,81 -190,79 -3,0 -44,-17 -92,-37 z"
       id="path135" />
    <path
       d="m 794,5175 c -4,-11 -22,-55 -40,-98 l -32,-77 35,-88 c 19,-48 38,-90 42,-95 4,-4 24,35 45,88 l 38,95 -40,97 c -32,77 -42,94 -48,78 z"
       id="path136" />
    <path
       d="m 786,4759 c -8,-19 -25,-62 -39,-96 l -25,-62 32,-78 c 18,-43 36,-87 40,-98 6,-16 16,1 47,79 l 40,99 -36,91 c -20,50 -39,93 -41,95 -2,2 -10,-11 -18,-30 z"
       id="path137" />
    <path
       d="m 2394,5175 c -4,-11 -22,-55 -40,-98 l -32,-77 35,-88 c 19,-48 38,-90 42,-95 4,-4 24,35 45,88 l 38,95 -40,97 c -32,77 -42,94 -48,78 z"
       id="path138" />
    <path
       d="m 2386,4759 c -8,-19 -25,-62 -39,-96 l -25,-62 32,-78 c 18,-43 36,-87 40,-98 6,-16 16,1 47,79 l 40,99 -36,91 c -20,50 -39,93 -41,95 -2,2 -10,-11 -18,-30 z"
       id="path139" />
    <path
       d="m 3994,5175 c -4,-11 -22,-55 -40,-98 l -32,-77 35,-88 c 19,-48 38,-90 42,-95 4,-4 24,35 45,88 l 38,95 -40,97 c -32,77 -42,94 -48,78 z"
       id="path140" />
    <path
       d="m 3986,4759 c -8,-19 -25,-62 -39,-96 l -25,-62 32,-78 c 18,-43 36,-87 40,-98 6,-16 16,1 47,79 l 40,99 -36,91 c -20,50 -39,93 -41,95 -2,2 -10,-11 -18,-30 z"
       id="path141" />
    <path
       d="m 5594,5175 c -4,-11 -22,-55 -40,-98 l -32,-77 35,-88 c 19,-48 38,-90 42,-95 4,-4 24,35 45,88 l 38,95 -40,97 c -32,77 -42,94 -48,78 z"
       id="path142" />
    <path
       d="m 5586,4759 c -8,-19 -25,-62 -39,-96 l -25,-62 32,-78 c 18,-43 36,-87 40,-98 6,-16 16,1 47,79 l 40,99 -36,91 c -20,50 -39,93 -41,95 -2,2 -10,-11 -18,-30 z"
       id="path143" />
    <path
       d="m 7194,5175 c -4,-11 -22,-55 -40,-98 l -32,-77 35,-88 c 19,-48 38,-90 42,-95 4,-4 24,35 45,88 l 38,95 -40,97 c -32,77 -42,94 -48,78 z"
       id="path144" />
    <path
       d="m 7186,4759 c -8,-19 -25,-62 -39,-96 l -25,-62 32,-78 c 18,-43 36,-87 40,-98 6,-16 16,1 47,79 l 40,99 -36,91 c -20,50 -39,93 -41,95 -2,2 -10,-11 -18,-30 z"
       id="path145" />
    <path
       d="m 8794,5175 c -4,-11 -22,-55 -40,-98 l -32,-77 35,-88 c 19,-48 38,-90 42,-95 4,-4 24,35 45,88 l 38,95 -40,97 c -32,77 -42,94 -48,78 z"
       id="path146" />
    <path
       d="m 8786,4759 c -8,-19 -25,-62 -39,-96 l -25,-62 32,-78 c 18,-43 36,-87 40,-98 6,-16 16,1 47,79 l 40,99 -36,91 c -20,50 -39,93 -41,95 -2,2 -10,-11 -18,-30 z"
       id="path147" />
    <path
       d="m 10394,5175 c -4,-11 -22,-55 -40,-98 l -32,-77 35,-88 c 19,-48 38,-90 42,-95 4,-4 24,35 45,88 l 38,95 -40,97 c -32,77 -42,94 -48,78 z"
       id="path148" />
    <path
       d="m 10386,4759 c -8,-19 -25,-62 -39,-96 l -25,-62 32,-78 c 18,-43 36,-87 40,-98 6,-16 16,1 47,79 l 40,99 -36,91 c -20,50 -39,93 -41,95 -2,2 -10,-11 -18,-30 z"
       id="path149" />
    <path
       d="m 11994,5175 c -4,-11 -22,-55 -40,-98 l -32,-77 35,-88 c 19,-48 38,-90 42,-95 4,-4 24,35 45,88 l 38,95 -40,97 c -32,77 -42,94 -48,78 z"
       id="path150" />
    <path
       d="m 11986,4759 c -8,-19 -25,-62 -39,-96 l -25,-62 32,-78 c 18,-43 36,-87 40,-98 6,-16 16,1 47,79 l 40,99 -36,91 c -20,50 -39,93 -41,95 -2,2 -10,-11 -18,-30 z"
       id="path151" />
    <path
       d="m 1303,4042 c -51,-20 -93,-39 -93,-42 0,-3 43,-22 95,-42 l 95,-38 95,38 c 52,20 95,39 95,42 0,4 -133,59 -180,74 -8,3 -57,-12 -107,-32 z"
       id="path152" />
    <path
       d="m 1698,4042 c -49,-19 -88,-38 -88,-41 0,-3 42,-23 93,-44 l 92,-37 93,37 c 50,20 92,39 92,43 0,6 -180,81 -190,79 -3,0 -44,-17 -92,-37 z"
       id="path153" />
    <path
       d="m 2903,4042 c -51,-20 -93,-39 -93,-42 0,-3 43,-22 95,-42 l 95,-38 95,38 c 52,20 95,39 95,42 0,4 -133,59 -180,74 -8,3 -57,-12 -107,-32 z"
       id="path154" />
    <path
       d="m 3298,4042 c -49,-19 -88,-38 -88,-41 0,-3 42,-23 93,-44 l 92,-37 93,37 c 50,20 92,39 92,43 0,6 -180,81 -190,79 -3,0 -44,-17 -92,-37 z"
       id="path155" />
    <path
       d="m 4503,4042 c -51,-20 -93,-39 -93,-42 0,-3 43,-22 95,-42 l 95,-38 95,38 c 52,20 95,39 95,42 0,4 -133,59 -180,74 -8,3 -57,-12 -107,-32 z"
       id="path156" />
    <path
       d="m 4898,4042 c -49,-19 -88,-38 -88,-41 0,-3 42,-23 93,-44 l 92,-37 93,37 c 50,20 92,39 92,43 0,6 -180,81 -190,79 -3,0 -44,-17 -92,-37 z"
       id="path157" />
    <path
       d="m 6103,4042 c -51,-20 -93,-39 -93,-42 0,-3 43,-22 95,-42 l 95,-38 95,38 c 52,20 95,39 95,42 0,4 -133,59 -180,74 -8,3 -57,-12 -107,-32 z"
       id="path158" />
    <path
       d="m 6498,4042 c -49,-19 -88,-38 -88,-41 0,-3 42,-23 93,-44 l 92,-37 93,37 c 50,20 92,39 92,43 0,6 -180,81 -190,79 -3,0 -44,-17 -92,-37 z"
       id="path159" />
    <path
       d="m 7703,4042 c -51,-20 -93,-39 -93,-42 0,-3 43,-22 95,-42 l 95,-38 95,38 c 52,20 95,39 95,42 0,4 -133,59 -180,74 -8,3 -57,-12 -107,-32 z"
       id="path160" />
    <path
       d="m 8098,4042 c -49,-19 -88,-38 -88,-41 0,-3 42,-23 93,-44 l 92,-37 93,37 c 50,20 92,39 92,43 0,6 -180,81 -190,79 -3,0 -44,-17 -92,-37 z"
       id="path161" />
    <path
       d="m 9303,4042 c -51,-20 -93,-39 -93,-42 0,-3 43,-22 95,-42 l 95,-38 95,38 c 52,20 95,39 95,42 0,4 -133,59 -180,74 -8,3 -57,-12 -107,-32 z"
       id="path162" />
    <path
       d="m 9698,4042 c -49,-19 -88,-38 -88,-41 0,-3 42,-23 93,-44 l 92,-37 93,37 c 50,20 92,39 92,43 0,6 -180,81 -190,79 -3,0 -44,-17 -92,-37 z"
       id="path163" />
    <path
       d="m 10903,4042 c -51,-20 -93,-39 -93,-42 0,-3 43,-22 95,-42 l 95,-38 95,38 c 52,20 95,39 95,42 0,4 -133,59 -180,74 -8,3 -57,-12 -107,-32 z"
       id="path164" />
    <path
       d="m 11298,4042 c -49,-19 -88,-38 -88,-41 0,-3 42,-23 93,-44 l 92,-37 93,37 c 50,20 92,39 92,43 0,6 -180,81 -190,79 -3,0 -44,-17 -92,-37 z"
       id="path165" />
    <path
       d="m 794,3575 c -4,-11 -22,-55 -40,-98 l -32,-77 35,-88 c 19,-48 38,-90 42,-95 4,-4 24,35 45,88 l 38,95 -40,97 c -32,77 -42,94 -48,78 z"
       id="path166" />
    <path
       d="m 786,3159 c -8,-19 -25,-62 -39,-96 l -25,-62 32,-78 c 18,-43 36,-87 40,-98 6,-16 16,1 47,79 l 40,99 -36,91 c -20,50 -39,93 -41,95 -2,2 -10,-11 -18,-30 z"
       id="path167" />
    <path
       d="m 2394,3575 c -4,-11 -22,-55 -40,-98 l -32,-77 35,-88 c 19,-48 38,-90 42,-95 4,-4 24,35 45,88 l 38,95 -40,97 c -32,77 -42,94 -48,78 z"
       id="path168" />
    <path
       d="m 2386,3159 c -8,-19 -25,-62 -39,-96 l -25,-62 32,-78 c 18,-43 36,-87 40,-98 6,-16 16,1 47,79 l 40,99 -36,91 c -20,50 -39,93 -41,95 -2,2 -10,-11 -18,-30 z"
       id="path169" />
    <path
       d="m 3994,3575 c -4,-11 -22,-55 -40,-98 l -32,-77 35,-88 c 19,-48 38,-90 42,-95 4,-4 24,35 45,88 l 38,95 -40,97 c -32,77 -42,94 -48,78 z"
       id="path170" />
    <path
       d="m 3986,3159 c -8,-19 -25,-62 -39,-96 l -25,-62 32,-78 c 18,-43 36,-87 40,-98 6,-16 16,1 47,79 l 40,99 -36,91 c -20,50 -39,93 -41,95 -2,2 -10,-11 -18,-30 z"
       id="path171" />
    <path
       d="m 5594,3575 c -4,-11 -22,-55 -40,-98 l -32,-77 35,-88 c 19,-48 38,-90 42,-95 4,-4 24,35 45,88 l 38,95 -40,97 c -32,77 -42,94 -48,78 z"
       id="path172" />
    <path
       d="m 5586,3159 c -8,-19 -25,-62 -39,-96 l -25,-62 32,-78 c 18,-43 36,-87 40,-98 6,-16 16,1 47,79 l 40,99 -36,91 c -20,50 -39,93 -41,95 -2,2 -10,-11 -18,-30 z"
       id="path173" />
    <path
       d="m 7194,3575 c -4,-11 -22,-55 -40,-98 l -32,-77 35,-88 c 19,-48 38,-90 42,-95 4,-4 24,35 45,88 l 38,95 -40,97 c -32,77 -42,94 -48,78 z"
       id="path174" />
    <path
       d="m 7186,3159 c -8,-19 -25,-62 -39,-96 l -25,-62 32,-78 c 18,-43 36,-87 40,-98 6,-16 16,1 47,79 l 40,99 -36,91 c -20,50 -39,93 -41,95 -2,2 -10,-11 -18,-30 z"
       id="path175" />
    <path
       d="m 8794,3575 c -4,-11 -22,-55 -40,-98 l -32,-77 35,-88 c 19,-48 38,-90 42,-95 4,-4 24,35 45,88 l 38,95 -40,97 c -32,77 -42,94 -48,78 z"
       id="path176" />
    <path
       d="m 8786,3159 c -8,-19 -25,-62 -39,-96 l -25,-62 32,-78 c 18,-43 36,-87 40,-98 6,-16 16,1 47,79 l 40,99 -36,91 c -20,50 -39,93 -41,95 -2,2 -10,-11 -18,-30 z"
       id="path177" />
    <path
       d="m 10394,3575 c -4,-11 -22,-55 -40,-98 l -32,-77 35,-88 c 19,-48 38,-90 42,-95 4,-4 24,35 45,88 l 38,95 -40,97 c -32,77 -42,94 -48,78 z"
       id="path178" />
    <path
       d="m 10386,3159 c -8,-19 -25,-62 -39,-96 l -25,-62 32,-78 c 18,-43 36,-87 40,-98 6,-16 16,1 47,79 l 40,99 -36,91 c -20,50 -39,93 -41,95 -2,2 -10,-11 -18,-30 z"
       id="path179" />
    <path
       d="m 11994,3575 c -4,-11 -22,-55 -40,-98 l -32,-77 35,-88 c 19,-48 38,-90 42,-95 4,-4 24,35 45,88 l 38,95 -40,97 c -32,77 -42,94 -48,78 z"
       id="path180" />
    <path
       d="m 11986,3159 c -8,-19 -25,-62 -39,-96 l -25,-62 32,-78 c 18,-43 36,-87 40,-98 6,-16 16,1 47,79 l 40,99 -36,91 c -20,50 -39,93 -41,95 -2,2 -10,-11 -18,-30 z"
       id="path181" />
    <path
       d="m 1303,2442 c -51,-20 -93,-39 -93,-42 0,-3 43,-22 95,-42 l 95,-38 95,38 c 52,20 95,39 95,42 0,4 -133,59 -180,74 -8,3 -57,-12 -107,-32 z"
       id="path182" />
    <path
       d="m 1698,2442 c -49,-19 -88,-38 -88,-41 0,-3 42,-23 93,-44 l 92,-37 93,37 c 50,20 92,39 92,43 0,6 -180,81 -190,79 -3,0 -44,-17 -92,-37 z"
       id="path183" />
    <path
       d="m 2903,2442 c -51,-20 -93,-39 -93,-42 0,-3 43,-22 95,-42 l 95,-38 95,38 c 52,20 95,39 95,42 0,4 -133,59 -180,74 -8,3 -57,-12 -107,-32 z"
       id="path184" />
    <path
       d="m 3298,2442 c -49,-19 -88,-38 -88,-41 0,-3 42,-23 93,-44 l 92,-37 93,37 c 50,20 92,39 92,43 0,6 -180,81 -190,79 -3,0 -44,-17 -92,-37 z"
       id="path185" />
    <path
       d="m 4503,2442 c -51,-20 -93,-39 -93,-42 0,-3 43,-22 95,-42 l 95,-38 95,38 c 52,20 95,39 95,42 0,4 -133,59 -180,74 -8,3 -57,-12 -107,-32 z"
       id="path186" />
    <path
       d="m 4898,2442 c -49,-19 -88,-38 -88,-41 0,-3 42,-23 93,-44 l 92,-37 93,37 c 50,20 92,39 92,43 0,6 -180,81 -190,79 -3,0 -44,-17 -92,-37 z"
       id="path187" />
    <path
       d="m 6103,2442 c -51,-20 -93,-39 -93,-42 0,-3 43,-22 95,-42 l 95,-38 95,38 c 52,20 95,39 95,42 0,4 -133,59 -180,74 -8,3 -57,-12 -107,-32 z"
       id="path188" />
    <path
       d="m 6498,2442 c -49,-19 -88,-38 -88,-41 0,-3 42,-23 93,-44 l 92,-37 93,37 c 50,20 92,39 92,43 0,6 -180,81 -190,79 -3,0 -44,-17 -92,-37 z"
       id="path189" />
    <path
       d="m 7703,2442 c -51,-20 -93,-39 -93,-42 0,-3 43,-22 95,-42 l 95,-38 95,38 c 52,20 95,39 95,42 0,4 -133,59 -180,74 -8,3 -57,-12 -107,-32 z"
       id="path190" />
    <path
       d="m 8098,2442 c -49,-19 -88,-38 -88,-41 0,-3 42,-23 93,-44 l 92,-37 93,37 c 50,20 92,39 92,43 0,6 -180,81 -190,79 -3,0 -44,-17 -92,-37 z"
       id="path191" />
    <path
       d="m 9303,2442 c -51,-20 -93,-39 -93,-42 0,-3 43,-22 95,-42 l 95,-38 95,38 c 52,20 95,39 95,42 0,4 -133,59 -180,74 -8,3 -57,-12 -107,-32 z"
       id="path192" />
    <path
       d="m 9698,2442 c -49,-19 -88,-38 -88,-41 0,-3 42,-23 93,-44 l 92,-37 93,37 c 50,20 92,39 92,43 0,6 -180,81 -190,79 -3,0 -44,-17 -92,-37 z"
       id="path193" />
    <path
       d="m 10903,2442 c -51,-20 -93,-39 -93,-42 0,-3 43,-22 95,-42 l 95,-38 95,38 c 52,20 95,39 95,42 0,4 -133,59 -180,74 -8,3 -57,-12 -107,-32 z"
       id="path194" />
    <path
       d="m 11298,2442 c -49,-19 -88,-38 -88,-41 0,-3 42,-23 93,-44 l 92,-37 93,37 c 50,20 92,39 92,43 0,6 -180,81 -190,79 -3,0 -44,-17 -92,-37 z"
       id="path195" />
    <path
       d="m 794,1975 c -4,-11 -22,-55 -40,-98 l -32,-77 35,-88 c 19,-48 38,-90 42,-95 4,-4 24,35 45,88 l 38,95 -40,97 c -32,77 -42,94 -48,78 z"
       id="path196" />
    <path
       d="m 786,1559 c -8,-19 -25,-62 -39,-96 l -25,-62 32,-78 c 18,-43 36,-87 40,-98 6,-16 16,1 47,79 l 40,99 -36,91 c -20,50 -39,93 -41,95 -2,2 -10,-11 -18,-30 z"
       id="path197" />
    <path
       d="m 2394,1975 c -4,-11 -22,-55 -40,-98 l -32,-77 35,-88 c 19,-48 38,-90 42,-95 4,-4 24,35 45,88 l 38,95 -40,97 c -32,77 -42,94 -48,78 z"
       id="path198" />
    <path
       d="m 2386,1559 c -8,-19 -25,-62 -39,-96 l -25,-62 32,-78 c 18,-43 36,-87 40,-98 6,-16 16,1 47,79 l 40,99 -36,91 c -20,50 -39,93 -41,95 -2,2 -10,-11 -18,-30 z"
       id="path199" />
    <path
       d="m 3994,1975 c -4,-11 -22,-55 -40,-98 l -32,-77 35,-88 c 19,-48 38,-90 42,-95 4,-4 24,35 45,88 l 38,95 -40,97 c -32,77 -42,94 -48,78 z"
       id="path200" />
    <path
       d="m 3986,1559 c -8,-19 -25,-62 -39,-96 l -25,-62 32,-78 c 18,-43 36,-87 40,-98 6,-16 16,1 47,79 l 40,99 -36,91 c -20,50 -39,93 -41,95 -2,2 -10,-11 -18,-30 z"
       id="path201" />
    <path
       d="m 5594,1975 c -4,-11 -22,-55 -40,-98 l -32,-77 35,-88 c 19,-48 38,-90 42,-95 4,-4 24,35 45,88 l 38,95 -40,97 c -32,77 -42,94 -48,78 z"
       id="path202" />
    <path
       d="m 5586,1559 c -8,-19 -25,-62 -39,-96 l -25,-62 32,-78 c 18,-43 36,-87 40,-98 6,-16 16,1 47,79 l 40,99 -36,91 c -20,50 -39,93 -41,95 -2,2 -10,-11 -18,-30 z"
       id="path203" />
    <path
       d="m 7194,1975 c -4,-11 -22,-55 -40,-98 l -32,-77 35,-88 c 19,-48 38,-90 42,-95 4,-4 24,35 45,88 l 38,95 -40,97 c -32,77 -42,94 -48,78 z"
       id="path204" />
    <path
       d="m 7186,1559 c -8,-19 -25,-62 -39,-96 l -25,-62 32,-78 c 18,-43 36,-87 40,-98 6,-16 16,1 47,79 l 40,99 -36,91 c -20,50 -39,93 -41,95 -2,2 -10,-11 -18,-30 z"
       id="path205" />
    <path
       d="m 8794,1975 c -4,-11 -22,-55 -40,-98 l -32,-77 35,-88 c 19,-48 38,-90 42,-95 4,-4 24,35 45,88 l 38,95 -40,97 c -32,77 -42,94 -48,78 z"
       id="path206" />
    <path
       d="m 8786,1559 c -8,-19 -25,-62 -39,-96 l -25,-62 32,-78 c 18,-43 36,-87 40,-98 6,-16 16,1 47,79 l 40,99 -36,91 c -20,50 -39,93 -41,95 -2,2 -10,-11 -18,-30 z"
       id="path207" />
    <path
       d="m 10394,1975 c -4,-11 -22,-55 -40,-98 l -32,-77 35,-88 c 19,-48 38,-90 42,-95 4,-4 24,35 45,88 l 38,95 -40,97 c -32,77 -42,94 -48,78 z"
       id="path208" />
    <path
       d="m 10386,1559 c -8,-19 -25,-62 -39,-96 l -25,-62 32,-78 c 18,-43 36,-87 40,-98 6,-16 16,1 47,79 l 40,99 -36,91 c -20,50 -39,93 -41,95 -2,2 -10,-11 -18,-30 z"
       id="path209" />
    <path
       d="m 11994,1975 c -4,-11 -22,-55 -40,-98 l -32,-77 35,-88 c 19,-48 38,-90 42,-95 4,-4 24,35 45,88 l 38,95 -40,97 c -32,77 -42,94 -48,78 z"
       id="path210" />
    <path
       d="m 11986,1559 c -8,-19 -25,-62 -39,-96 l -25,-62 32,-78 c 18,-43 36,-87 40,-98 6,-16 16,1 47,79 l 40,99 -36,91 c -20,50 -39,93 -41,95 -2,2 -10,-11 -18,-30 z"
       id="path211" />
    <path
       d="m 1303,842 c -51,-20 -93,-39 -93,-42 0,-3 43,-22 95,-42 l 95,-38 95,38 c 52,20 95,39 95,42 0,4 -133,59 -180,74 -8,3 -57,-12 -107,-32 z"
       id="path212" />
    <path
       d="m 1698,842 c -49,-19 -88,-38 -88,-41 0,-3 42,-23 93,-44 l 92,-37 93,37 c 50,20 92,39 92,43 0,6 -180,81 -190,79 -3,0 -44,-17 -92,-37 z"
       id="path213" />
    <path
       d="m 2903,842 c -51,-20 -93,-39 -93,-42 0,-3 43,-22 95,-42 l 95,-38 95,38 c 52,20 95,39 95,42 0,4 -133,59 -180,74 -8,3 -57,-12 -107,-32 z"
       id="path214" />
    <path
       d="m 3298,842 c -49,-19 -88,-38 -88,-41 0,-3 42,-23 93,-44 l 92,-37 93,37 c 50,20 92,39 92,43 0,6 -180,81 -190,79 -3,0 -44,-17 -92,-37 z"
       id="path215" />
    <path
       d="m 4503,842 c -51,-20 -93,-39 -93,-42 0,-3 43,-22 95,-42 l 95,-38 95,38 c 52,20 95,39 95,42 0,4 -133,59 -180,74 -8,3 -57,-12 -107,-32 z"
       id="path216" />
    <path
       d="m 4898,842 c -49,-19 -88,-38 -88,-41 0,-3 42,-23 93,-44 l 92,-37 93,37 c 50,20 92,39 92,43 0,6 -180,81 -190,79 -3,0 -44,-17 -92,-37 z"
       id="path217" />
    <path
       d="m 6103,842 c -51,-20 -93,-39 -93,-42 0,-3 43,-22 95,-42 l 95,-38 95,38 c 52,20 95,39 95,42 0,4 -133,59 -180,74 -8,3 -57,-12 -107,-32 z"
       id="path218" />
    <path
       d="m 6498,842 c -49,-19 -88,-38 -88,-41 0,-3 42,-23 93,-44 l 92,-37 93,37 c 50,20 92,39 92,43 0,6 -180,81 -190,79 -3,0 -44,-17 -92,-37 z"
       id="path219" />
    <path
       d="m 7703,842 c -51,-20 -93,-39 -93,-42 0,-3 43,-22 95,-42 l 95,-38 95,38 c 52,20 95,39 95,42 0,4 -133,59 -180,74 -8,3 -57,-12 -107,-32 z"
       id="path220" />
    <path
       d="m 8098,842 c -49,-19 -88,-38 -88,-41 0,-3 42,-23 93,-44 l 92,-37 93,37 c 50,20 92,39 92,43 0,6 -180,81 -190,79 -3,0 -44,-17 -92,-37 z"
       id="path221" />
    <path
       d="m 9303,842 c -51,-20 -93,-39 -93,-42 0,-3 43,-22 95,-42 l 95,-38 95,38 c 52,20 95,39 95,42 0,4 -133,59 -180,74 -8,3 -57,-12 -107,-32 z"
       id="path222" />
    <path
       d="m 9698,842 c -49,-19 -88,-38 -88,-41 0,-3 42,-23 93,-44 l 92,-37 93,37 c 50,20 92,39 92,43 0,6 -180,81 -190,79 -3,0 -44,-17 -92,-37 z"
       id="path223" />
    <path
       d="m 10903,842 c -51,-20 -93,-39 -93,-42 0,-3 43,-22 95,-42 l 95,-38 95,38 c 52,20 95,39 95,42 0,4 -133,59 -180,74 -8,3 -57,-12 -107,-32 z"
       id="path224" />
    <path
       d="m 11298,842 c -49,-19 -88,-38 -88,-41 0,-3 42,-23 93,-44 l 92,-37 93,37 c 50,20 92,39 92,43 0,6 -180,81 -190,79 -3,0 -44,-17 -92,-37 z"
       id="path225" />
    <path
       d="m 786,12759 c -8,-19 -25,-62 -39,-96 l -25,-62 32,-78 c 18,-43 36,-87 40,-98 6,-16 16,1 47,79 l 40,99 -36,91 c -20,50 -39,93 -41,95 -2,2 -10,-11 -18,-30 z"
       id="path226" />
    <path
       d="m 2386,12759 c -8,-19 -25,-62 -39,-96 l -25,-62 32,-78 c 18,-43 36,-87 40,-98 6,-16 16,1 47,79 l 40,99 -36,91 c -20,50 -39,93 -41,95 -2,2 -10,-11 -18,-30 z"
       id="path227" />
    <path
       d="m 3986,12759 c -8,-19 -25,-62 -39,-96 l -25,-62 32,-78 c 18,-43 36,-87 40,-98 6,-16 16,1 47,79 l 40,99 -36,91 c -20,50 -39,93 -41,95 -2,2 -10,-11 -18,-30 z"
       id="path228" />
    <path
       d="m 5586,12759 c -8,-19 -25,-62 -39,-96 l -25,-62 32,-78 c 18,-43 36,-87 40,-98 6,-16 16,1 47,79 l 40,99 -36,91 c -20,50 -39,93 -41,95 -2,2 -10,-11 -18,-30 z"
       id="path229" />
    <path
       d="m 7186,12759 c -8,-19 -25,-62 -39,-96 l -25,-62 32,-78 c 18,-43 36,-87 40,-98 6,-16 16,1 47,79 l 40,99 -36,91 c -20,50 -39,93 -41,95 -2,2 -10,-11 -18,-30 z"
       id="path230" />
    <path
       d="m 8786,12759 c -8,-19 -25,-62 -39,-96 l -25,-62 32,-78 c 18,-43 36,-87 40,-98 6,-16 16,1 47,79 l 40,99 -36,91 c -20,50 -39,93 -41,95 -2,2 -10,-11 -18,-30 z"
       id="path231" />
    <path
       d="m 10386,12759 c -8,-19 -25,-62 -39,-96 l -25,-62 32,-78 c 18,-43 36,-87 40,-98 6,-16 16,1 47,79 l 40,99 -36,91 c -20,50 -39,93 -41,95 -2,2 -10,-11 -18,-30 z"
       id="path232" />
    <path
       d="m 11986,12759 c -8,-19 -25,-62 -39,-96 l -25,-62 32,-78 c 18,-43 36,-87 40,-98 6,-16 16,1 47,79 l 40,99 -36,91 c -20,50 -39,93 -41,95 -2,2 -10,-11 -18,-30 z"
       id="path233" />
    <path
       d="m 98,12042 c -49,-19 -88,-38 -88,-41 0,-3 42,-23 93,-44 l 92,-37 93,37 c 50,20 92,39 92,43 0,6 -180,81 -190,79 -3,0 -44,-17 -92,-37 z"
       id="path234" />
    <path
       d="m 12503,12042 c -51,-20 -93,-39 -93,-42 0,-3 43,-22 95,-42 l 95,-38 95,38 c 52,20 95,39 95,42 0,4 -133,59 -180,74 -8,3 -57,-12 -107,-32 z"
       id="path235" />
    <path
       d="m 98,10442 c -49,-19 -88,-38 -88,-41 0,-3 42,-23 93,-43 l 93,-38 92,37 c 51,20 92,39 92,43 0,6 -180,81 -190,79 -3,0 -44,-17 -92,-37 z"
       id="path236" />
    <path
       d="m 12503,10442 c -51,-20 -93,-39 -93,-42 0,-3 43,-22 95,-42 l 95,-38 95,38 c 52,20 95,39 95,42 0,4 -133,59 -180,74 -8,3 -57,-12 -107,-32 z"
       id="path237" />
    <path
       d="m 98,8842 c -49,-19 -88,-38 -88,-41 0,-3 42,-23 93,-43 l 93,-38 92,37 c 51,20 92,39 92,43 0,6 -180,81 -190,79 -3,0 -44,-17 -92,-37 z"
       id="path238" />
    <path
       d="m 12503,8842 c -51,-20 -93,-39 -93,-42 0,-3 43,-22 95,-42 l 95,-38 95,38 c 52,20 95,39 95,42 0,4 -133,59 -180,74 -8,3 -57,-12 -107,-32 z"
       id="path239" />
    <path
       d="m 98,7242 c -49,-19 -88,-38 -88,-41 0,-3 42,-23 93,-43 l 93,-38 92,37 c 51,20 92,39 92,43 0,6 -180,81 -190,79 -3,0 -44,-17 -92,-37 z"
       id="path240" />
    <path
       d="m 12503,7242 c -51,-20 -93,-39 -93,-42 0,-3 43,-22 95,-42 l 95,-38 95,38 c 52,20 95,39 95,42 0,4 -133,59 -180,74 -8,3 -57,-12 -107,-32 z"
       id="path241" />
    <path
       d="m 98,5642 c -49,-19 -88,-38 -88,-41 0,-3 42,-23 93,-44 l 92,-37 93,37 c 50,20 92,39 92,43 0,6 -180,81 -190,79 -3,0 -44,-17 -92,-37 z"
       id="path242" />
    <path
       d="m 12503,5642 c -51,-20 -93,-39 -93,-42 0,-3 43,-22 95,-42 l 95,-38 95,38 c 52,20 95,39 95,42 0,4 -133,59 -180,74 -8,3 -57,-12 -107,-32 z"
       id="path243" />
    <path
       d="m 98,4042 c -49,-19 -88,-38 -88,-41 0,-3 42,-23 93,-43 l 93,-38 92,37 c 51,20 92,39 92,43 0,6 -180,81 -190,79 -3,0 -44,-17 -92,-37 z"
       id="path244" />
    <path
       d="m 12503,4042 c -51,-20 -93,-39 -93,-42 0,-3 43,-22 95,-42 l 95,-38 95,38 c 52,20 95,39 95,42 0,4 -133,59 -180,74 -8,3 -57,-12 -107,-32 z"
       id="path245" />
    <path
       d="m 98,2442 c -49,-19 -88,-38 -88,-41 0,-3 42,-23 93,-43 l 93,-38 92,37 c 51,20 92,39 92,43 0,6 -180,81 -190,79 -3,0 -44,-17 -92,-37 z"
       id="path246" />
    <path
       d="m 12503,2442 c -51,-20 -93,-39 -93,-42 0,-3 43,-22 95,-42 l 95,-38 95,38 c 52,20 95,39 95,42 0,4 -133,59 -180,74 -8,3 -57,-12 -107,-32 z"
       id="path247" />
    <path
       d="M 98,842 C 49,823 10,804 10,801 c 0,-3 42,-23 93,-43 l 93,-38 92,37 c 51,20 92,39 92,43 0,6 -180,81 -190,79 -3,0 -44,-17 -92,-37 z"
       id="path248" />
    <path
       d="m 12503,842 c -51,-20 -93,-39 -93,-42 0,-3 43,-22 95,-42 l 95,-38 95,38 c 52,20 95,39 95,42 0,4 -133,59 -180,74 -8,3 -57,-12 -107,-32 z"
       id="path249" />
    <path
       d="m 794,375 c -4,-11 -22,-55 -40,-98 l -32,-77 35,-88 c 19,-48 38,-90 42,-95 4,-4 24,35 45,88 l 38,95 -40,97 c -32,77 -42,94 -48,78 z"
       id="path250" />
    <path
       d="m 2394,375 c -4,-11 -22,-55 -40,-98 l -32,-77 35,-88 c 19,-48 38,-90 42,-95 4,-4 24,35 45,88 l 38,95 -40,97 c -32,77 -42,94 -48,78 z"
       id="path251" />
    <path
       d="m 3994,375 c -4,-11 -22,-55 -40,-98 l -32,-77 35,-88 c 19,-48 38,-90 42,-95 4,-4 24,35 45,88 l 38,95 -40,97 c -32,77 -42,94 -48,78 z"
       id="path252" />
    <path
       d="m 5594,375 c -4,-11 -22,-55 -40,-98 l -32,-77 35,-88 c 19,-48 38,-90 42,-95 4,-4 24,35 45,88 l 38,95 -40,97 c -32,77 -42,94 -48,78 z"
       id="path253" />
    <path
       d="m 7194,375 c -4,-11 -22,-55 -40,-98 l -32,-77 35,-88 c 19,-48 38,-90 42,-95 4,-4 24,35 45,88 l 38,95 -40,97 c -32,77 -42,94 -48,78 z"
       id="path254" />
    <path
       d="m 8794,375 c -4,-11 -22,-55 -40,-98 l -32,-77 35,-88 c 19,-48 38,-90 42,-95 4,-4 24,35 45,88 l 38,95 -40,97 c -32,77 -42,94 -48,78 z"
       id="path255" />
    <path
       d="m 10394,375 c -4,-11 -22,-55 -40,-98 l -32,-77 35,-88 c 19,-48 38,-90 42,-95 4,-4 24,35 45,88 l 38,95 -40,97 c -32,77 -42,94 -48,78 z"
       id="path256" />
    <path
       d="m 11994,375 c -4,-11 -22,-55 -40,-98 l -32,-77 35,-88 c 19,-48 38,-90 42,-95 4,-4 24,35 45,88 l 38,95 -40,97 c -32,77 -42,94 -48,78 z"
       id="path257" />
  </g>
</svg>
