<?xml version="1.0" encoding="UTF-8" standalone="no"?>
<svg
   viewBox="0 0 639.99998 639.99998"
   version="1.1"
   id="svg1"
   sodipodi:docname="thumbs-up.svg"
   width="169.33333mm"
   height="169.33333mm"
   inkscape:version="1.3 (0e150ed, 2023-07-21)"
   xmlns:inkscape="http://www.inkscape.org/namespaces/inkscape"
   xmlns:sodipodi="http://sodipodi.sourceforge.net/DTD/sodipodi-0.dtd"
   xmlns="http://www.w3.org/2000/svg"
   xmlns:svg="http://www.w3.org/2000/svg">
  <defs
     id="defs1" />
  <sodipodi:namedview
     id="namedview1"
     pagecolor="#ffffff"
     bordercolor="#666666"
     borderopacity="1.0"
     inkscape:showpageshadow="2"
     inkscape:pageopacity="0.0"
     inkscape:pagecheckerboard="0"
     inkscape:deskcolor="#d1d1d1"
     inkscape:document-units="mm"
     inkscape:zoom="0.36875"
     inkscape:cx="318.64407"
     inkscape:cy="320"
     inkscape:window-width="1376"
     inkscape:window-height="449"
     inkscape:window-x="0"
     inkscape:window-y="38"
     inkscape:window-maximized="0"
     inkscape:current-layer="svg1" />
  <!--!Font Awesome Free 7.1.0 by @fontawesome - https://fontawesome.com License - https://fontawesome.com/license/free Copyright 2025 Fonticons, Inc.-->
  <path
     d="m 144,224 c 17.7,0 32,14.3 32,32 v 256 c 0,17.7 -14.3,32 -32,32 H 96 C 78.3,544 64,529.7 64,512 V 256 c 0,-17.7 14.3,-32 32,-32 z M 334.6,80 c 27.3,0 49.4,22.1 49.4,49.4 v 4.2 c 0,6.8 -1.3,13.6 -3.8,19.9 L 352,224 h 160 c 26.5,0 48,21.5 48,48 0,19.7 -11.9,36.6 -28.9,44 17,7.4 28.9,24.3 28.9,44 0,23.4 -16.8,42.9 -39,47.1 4.4,7.3 7,15.8 7,24.9 0,22.2 -15,40.8 -35.4,46.3 2.2,5.5 3.4,11.5 3.4,17.7 0,26.5 -21.5,48 -48,48 h -87.9 c -36.3,0 -71.6,-12.4 -99.9,-35.1 L 248,499.2 c -15.2,-12.1 -24,-30.5 -24,-50 V 262.6 c 0,-14.9 3.5,-29.6 10.1,-42.9 L 290.3,107.3 C 298.7,90.6 315.8,80 334.6,80 Z"
     id="path1" />
</svg>
