<?xml version="1.0" encoding="UTF-8" standalone="no"?>
<svg
   viewBox="0 0 639.99998 639.99998"
   version="1.1"
   id="svg1"
   sodipodi:docname="thumbs-down-solid-full.svg"
   width="169.33333mm"
   height="169.33333mm"
   inkscape:version="1.3 (0e150ed, 2023-07-21)"
   xmlns:inkscape="http://www.inkscape.org/namespaces/inkscape"
   xmlns:sodipodi="http://sodipodi.sourceforge.net/DTD/sodipodi-0.dtd"
   xmlns="http://www.w3.org/2000/svg"
   xmlns:svg="http://www.w3.org/2000/svg">
  <defs
     id="defs1" />
  <sodipodi:namedview
     id="namedview1"
     pagecolor="#ffffff"
     bordercolor="#666666"
     borderopacity="1.0"
     inkscape:showpageshadow="2"
     inkscape:pageopacity="0.0"
     inkscape:pagecheckerboard="0"
     inkscape:deskcolor="#d1d1d1"
     inkscape:document-units="mm"
     inkscape:zoom="0.36875"
     inkscape:cx="318.64407"
     inkscape:cy="320"
     inkscape:window-width="1376"
     inkscape:window-height="449"
     inkscape:window-x="0"
     inkscape:window-y="38"
     inkscape:window-maximized="0"
     inkscape:current-layer="svg1" />
  <!--!Font Awesome Free 7.1.0 by @fontawesome - https://fontawesome.com License - https://fontawesome.com/license/free Copyright 2025 Fonticons, Inc.-->
  <path
     d="m 448,96 c 26.5,0 48,21.5 48,48 0,6.3 -1.3,12.2 -3.4,17.7 20.4,5.5 35.4,24.1 35.4,46.3 0,9.1 -2.6,17.6 -7,24.9 22.2,4.2 39,23.7 39,47.1 0,19.7 -11.9,36.6 -28.9,44 17,7.4 28.9,24.3 28.9,44 0,26.5 -21.5,48 -48,48 H 352 l 28.2,70.4 c 2.5,6.3 3.8,13.1 3.8,19.9 v 4.2 c 0,27.3 -22.1,49.4 -49.4,49.4 -18.7,0 -35.8,-10.6 -44.2,-27.3 L 234.1,420.3 C 227.4,407 224,392.3 224,377.4 V 190.8 c 0,-19.4 8.9,-37.8 24,-50 l 12.2,-9.7 C 288.6,108.4 323.8,96 360.1,96 Z m -304,64 c 17.7,0 32,14.3 32,32 v 256 c 0,17.7 -14.3,32 -32,32 H 96 C 78.3,480 64,465.7 64,448 V 192 c 0,-17.7 14.3,-32 32,-32 z"
     id="path1" />
</svg>
