<?xml version="1.0" encoding="UTF-8" standalone="no"?>
<svg
   viewBox="0 0 639.99998 639.99998"
   version="1.1"
   id="svg1"
   sodipodi:docname="tooth-solid-full.svg"
   width="169.33333mm"
   height="169.33333mm"
   inkscape:version="1.3 (0e150ed, 2023-07-21)"
   xmlns:inkscape="http://www.inkscape.org/namespaces/inkscape"
   xmlns:sodipodi="http://sodipodi.sourceforge.net/DTD/sodipodi-0.dtd"
   xmlns="http://www.w3.org/2000/svg"
   xmlns:svg="http://www.w3.org/2000/svg">
  <defs
     id="defs1" />
  <sodipodi:namedview
     id="namedview1"
     pagecolor="#ffffff"
     bordercolor="#666666"
     borderopacity="1.0"
     inkscape:showpageshadow="2"
     inkscape:pageopacity="0.0"
     inkscape:pagecheckerboard="0"
     inkscape:deskcolor="#d1d1d1"
     inkscape:document-units="mm"
     inkscape:zoom="0.36875"
     inkscape:cx="318.64407"
     inkscape:cy="320"
     inkscape:window-width="1376"
     inkscape:window-height="449"
     inkscape:window-x="0"
     inkscape:window-y="38"
     inkscape:window-maximized="0"
     inkscape:current-layer="svg1" />
  <!--!Font Awesome Free 7.1.0 by @fontawesome - https://fontawesome.com License - https://fontawesome.com/license/free Copyright 2025 Fonticons, Inc.-->
  <path
     d="M 241,69.7 320,96 399,69.7 C 410.3,65.9 422,64 433.9,64 494.7,64 544,113.3 544,174.1 v 68.5 c 0,29.4 -9.5,58.1 -27.2,81.6 l -1.1,1.5 c -12.9,17.2 -21.3,37.4 -24.3,58.7 l -21.7,151.5 c -3.3,23 -23,40.1 -46.2,40.1 -22.8,0 -42.3,-16.5 -46,-39 L 357.3,415.6 C 354.3,397.4 338.5,384 320,384 c -18.5,0 -34.2,13.4 -37.3,31.6 L 262.5,537 c -3.8,22.5 -23.2,39 -46,39 -23.2,0 -42.9,-17.1 -46.2,-40.1 L 148.6,384.5 c -3,-21.3 -11.4,-41.5 -24.3,-58.7 l -1.1,-1.5 C 105.5,300.7 96,272.1 96,242.7 V 174.2 C 96,113.3 145.3,64 206.1,64 c 11.9,0 23.6,1.9 34.9,5.7 z"
     id="path1" />
</svg>
