<?xml version="1.0" encoding="UTF-8" standalone="no"?>
<svg
   width="160mm"
   height="160mm"
   viewBox="0 0 185.21421 185.21421"
   version="1.1"
   id="svg82"
   sodipodi:docname="tortoise-shell.svg"
   inkscape:version="1.3 (0e150ed, 2023-07-21)"
   xmlns:inkscape="http://www.inkscape.org/namespaces/inkscape"
   xmlns:sodipodi="http://sodipodi.sourceforge.net/DTD/sodipodi-0.dtd"
   xmlns="http://www.w3.org/2000/svg"
   xmlns:svg="http://www.w3.org/2000/svg">
  <defs
     id="defs82" />
  <sodipodi:namedview
     id="namedview82"
     pagecolor="#ffffff"
     bordercolor="#666666"
     borderopacity="1.0"
     inkscape:showpageshadow="2"
     inkscape:pageopacity="0.0"
     inkscape:pagecheckerboard="0"
     inkscape:deskcolor="#d1d1d1"
     inkscape:document-units="mm"
     inkscape:zoom="0.36140888"
     inkscape:cx="323.73305"
     inkscape:cy="343.10169"
     inkscape:window-width="1376"
     inkscape:window-height="773"
     inkscape:window-x="0"
     inkscape:window-y="38"
     inkscape:window-maximized="0"
     inkscape:current-layer="svg82" />
  <rect
     fill="#000000"
     width="200"
     height="200"
     id="rect1"
     x="0"
     y="0" />
  <g
     fill="none"
     stroke="#ffffff"
     stroke-width="2.96766"
     stroke-opacity="1"
     id="g82"
     transform="matrix(0.94350281,0,0,0.94350281,-2.2598869,-2.2598869)">
    <rect
       x="-40"
       y="40"
       width="75"
       height="75"
       id="rect2"
       style="stroke-width:2.96766" />
    <rect
       x="-35"
       y="45"
       width="65"
       height="65"
       id="rect3"
       style="stroke-width:2.96766" />
    <rect
       x="-30"
       y="50"
       width="55"
       height="55"
       id="rect4"
       style="stroke-width:2.96766" />
    <rect
       x="-25"
       y="55"
       width="45"
       height="45"
       id="rect5"
       style="stroke-width:2.96766" />
    <rect
       x="-20"
       y="60"
       width="35"
       height="35"
       id="rect6"
       style="stroke-width:2.96766" />
    <rect
       x="-15"
       y="65"
       width="25"
       height="25"
       id="rect7"
       style="stroke-width:2.96766" />
    <rect
       x="-10"
       y="70"
       width="15"
       height="15"
       id="rect8"
       style="stroke-width:2.96766" />
    <rect
       x="-5"
       y="75"
       width="5"
       height="5"
       id="rect9"
       style="stroke-width:2.96766" />
    <rect
       width="35"
       height="35"
       id="rect10"
       x="0"
       y="0"
       style="stroke-width:2.96766" />
    <rect
       x="5"
       y="5"
       width="25"
       height="25"
       id="rect11"
       style="stroke-width:2.96766" />
    <rect
       x="10"
       y="10"
       width="15"
       height="15"
       id="rect12"
       style="stroke-width:2.96766" />
    <rect
       x="15"
       y="15"
       width="5"
       height="5"
       id="rect13"
       style="stroke-width:2.96766" />
    <rect
       x="40"
       width="75"
       height="75"
       id="rect14"
       y="0"
       style="stroke-width:2.96766" />
    <rect
       x="45"
       y="5"
       width="65"
       height="65"
       id="rect15"
       style="stroke-width:2.96766" />
    <rect
       x="50"
       y="10"
       width="55"
       height="55"
       id="rect16"
       style="stroke-width:2.96766" />
    <rect
       x="55"
       y="15"
       width="45"
       height="45"
       id="rect17"
       style="stroke-width:2.96766" />
    <rect
       x="60"
       y="20"
       width="35"
       height="35"
       id="rect18"
       style="stroke-width:2.96766" />
    <rect
       x="65"
       y="25"
       width="25"
       height="25"
       id="rect19"
       style="stroke-width:2.96766" />
    <rect
       x="70"
       y="30"
       width="15"
       height="15"
       id="rect20"
       style="stroke-width:2.96766" />
    <rect
       x="75"
       y="35"
       width="5"
       height="5"
       id="rect21"
       style="stroke-width:2.96766" />
    <rect
       x="40"
       y="80"
       width="35"
       height="35"
       id="rect22"
       style="stroke-width:2.96766" />
    <rect
       x="45"
       y="85"
       width="25"
       height="25"
       id="rect23"
       style="stroke-width:2.96766" />
    <rect
       x="50"
       y="90"
       width="15"
       height="15"
       id="rect24"
       style="stroke-width:2.96766" />
    <rect
       x="55"
       y="95"
       width="5"
       height="5"
       id="rect25"
       style="stroke-width:2.96766" />
    <rect
       x="120"
       y="-40"
       width="75"
       height="75"
       id="rect26"
       style="stroke-width:2.96766" />
    <rect
       x="125"
       y="-35"
       width="65"
       height="65"
       id="rect27"
       style="stroke-width:2.96766" />
    <rect
       x="130"
       y="-30"
       width="55"
       height="55"
       id="rect28"
       style="stroke-width:2.96766" />
    <rect
       x="135"
       y="-25"
       width="45"
       height="45"
       id="rect29"
       style="stroke-width:2.96766" />
    <rect
       x="140"
       y="-20"
       width="35"
       height="35"
       id="rect30"
       style="stroke-width:2.96766" />
    <rect
       x="145"
       y="-15"
       width="25"
       height="25"
       id="rect31"
       style="stroke-width:2.96766" />
    <rect
       x="150"
       y="-10"
       width="15"
       height="15"
       id="rect32"
       style="stroke-width:2.96766" />
    <rect
       x="155"
       y="-5"
       width="5"
       height="5"
       id="rect33"
       style="stroke-width:2.96766" />
    <rect
       x="120"
       y="40"
       width="35"
       height="35"
       id="rect34"
       style="stroke-width:2.96766" />
    <rect
       x="125"
       y="45"
       width="25"
       height="25"
       id="rect35"
       style="stroke-width:2.96766" />
    <rect
       x="130"
       y="50"
       width="15"
       height="15"
       id="rect36"
       style="stroke-width:2.96766" />
    <rect
       x="135"
       y="55"
       width="5"
       height="5"
       id="rect37"
       style="stroke-width:2.96766" />
    <rect
       y="120"
       width="75"
       height="75"
       id="rect38"
       x="0"
       style="stroke-width:2.96766" />
    <rect
       x="5"
       y="125"
       width="65"
       height="65"
       id="rect39"
       style="stroke-width:2.96766" />
    <rect
       x="10"
       y="130"
       width="55"
       height="55"
       id="rect40"
       style="stroke-width:2.96766" />
    <rect
       x="15"
       y="135"
       width="45"
       height="45"
       id="rect41"
       style="stroke-width:2.96766" />
    <rect
       x="20"
       y="140"
       width="35"
       height="35"
       id="rect42"
       style="stroke-width:2.96766" />
    <rect
       x="25"
       y="145"
       width="25"
       height="25"
       id="rect43"
       style="stroke-width:2.96766" />
    <rect
       x="30"
       y="150"
       width="15"
       height="15"
       id="rect44"
       style="stroke-width:2.96766" />
    <rect
       x="35"
       y="155"
       width="5"
       height="5"
       id="rect45"
       style="stroke-width:2.96766" />
    <rect
       x="200"
       y="120"
       width="75"
       height="75"
       id="rect46"
       style="stroke-width:2.96766" />
    <rect
       x="40"
       y="200"
       width="75"
       height="75"
       id="rect47"
       style="stroke-width:2.96766" />
    <rect
       x="80"
       y="80"
       width="75"
       height="75"
       id="rect48"
       style="stroke-width:2.96766" />
    <rect
       x="85"
       y="85"
       width="65"
       height="65"
       id="rect49"
       style="stroke-width:2.96766" />
    <rect
       x="90"
       y="90"
       width="55"
       height="55"
       id="rect50"
       style="stroke-width:2.96766" />
    <rect
       x="95"
       y="95"
       width="45"
       height="45"
       id="rect51"
       style="stroke-width:2.96766" />
    <rect
       x="100"
       y="100"
       width="35"
       height="35"
       id="rect52"
       style="stroke-width:2.96766" />
    <rect
       x="105"
       y="105"
       width="25"
       height="25"
       id="rect53"
       style="stroke-width:2.96766" />
    <rect
       x="110"
       y="110"
       width="15"
       height="15"
       id="rect54"
       style="stroke-width:2.96766" />
    <rect
       x="115"
       y="115"
       width="5"
       height="5"
       id="rect55"
       style="stroke-width:2.96766" />
    <rect
       x="80"
       y="160"
       width="35"
       height="35"
       id="rect56"
       style="stroke-width:2.96766" />
    <rect
       x="85"
       y="165"
       width="25"
       height="25"
       id="rect57"
       style="stroke-width:2.96766" />
    <rect
       x="90"
       y="170"
       width="15"
       height="15"
       id="rect58"
       style="stroke-width:2.96766" />
    <rect
       x="95"
       y="175"
       width="5"
       height="5"
       id="rect59"
       style="stroke-width:2.96766" />
    <rect
       x="120"
       y="160"
       width="75"
       height="75"
       id="rect60"
       style="stroke-width:2.96766" />
    <rect
       x="125"
       y="165"
       width="65"
       height="65"
       id="rect61"
       style="stroke-width:2.96766" />
    <rect
       x="130"
       y="170"
       width="55"
       height="55"
       id="rect62"
       style="stroke-width:2.96766" />
    <rect
       x="135"
       y="175"
       width="45"
       height="45"
       id="rect63"
       style="stroke-width:2.96766" />
    <rect
       x="140"
       y="180"
       width="35"
       height="35"
       id="rect64"
       style="stroke-width:2.96766" />
    <rect
       x="145"
       y="185"
       width="25"
       height="25"
       id="rect65"
       style="stroke-width:2.96766" />
    <rect
       x="150"
       y="190"
       width="15"
       height="15"
       id="rect66"
       style="stroke-width:2.96766" />
    <rect
       x="155"
       y="195"
       width="5"
       height="5"
       id="rect67"
       style="stroke-width:2.96766" />
    <rect
       x="160"
       y="40"
       width="75"
       height="75"
       id="rect68"
       style="stroke-width:2.96766" />
    <rect
       x="165"
       y="45"
       width="65"
       height="65"
       id="rect69"
       style="stroke-width:2.96766" />
    <rect
       x="170"
       y="50"
       width="55"
       height="55"
       id="rect70"
       style="stroke-width:2.96766" />
    <rect
       x="175"
       y="55"
       width="45"
       height="45"
       id="rect71"
       style="stroke-width:2.96766" />
    <rect
       x="180"
       y="60"
       width="35"
       height="35"
       id="rect72"
       style="stroke-width:2.96766" />
    <rect
       x="185"
       y="65"
       width="25"
       height="25"
       id="rect73"
       style="stroke-width:2.96766" />
    <rect
       x="190"
       y="70"
       width="15"
       height="15"
       id="rect74"
       style="stroke-width:2.96766" />
    <rect
       x="195"
       y="75"
       width="5"
       height="5"
       id="rect75"
       style="stroke-width:2.96766" />
    <rect
       x="160"
       y="120"
       width="35"
       height="35"
       id="rect76"
       style="stroke-width:2.96766" />
    <rect
       x="165"
       y="125"
       width="25"
       height="25"
       id="rect77"
       style="stroke-width:2.96766" />
    <rect
       x="170"
       y="130"
       width="15"
       height="15"
       id="rect78"
       style="stroke-width:2.96766" />
    <rect
       x="175"
       y="135"
       width="5"
       height="5"
       id="rect79"
       style="stroke-width:2.96766" />
    <rect
       x="200"
       y="200"
       width="35"
       height="35"
       id="rect80"
       style="stroke-width:2.96766" />
    <rect
       x="200"
       width="35"
       height="35"
       id="rect81"
       y="0"
       style="stroke-width:2.96766" />
    <rect
       y="200"
       width="35"
       height="35"
       id="rect82"
       x="0"
       style="stroke-width:2.96766" />
  </g>
</svg>
