<?xml version="1.0" encoding="UTF-8" standalone="no"?>
<svg
   viewBox="0 0 639.99998 639.99998"
   version="1.1"
   id="svg1"
   sodipodi:docname="tree-solid-full.svg"
   width="169.33333mm"
   height="169.33333mm"
   inkscape:version="1.3 (0e150ed, 2023-07-21)"
   xmlns:inkscape="http://www.inkscape.org/namespaces/inkscape"
   xmlns:sodipodi="http://sodipodi.sourceforge.net/DTD/sodipodi-0.dtd"
   xmlns="http://www.w3.org/2000/svg"
   xmlns:svg="http://www.w3.org/2000/svg">
  <defs
     id="defs1" />
  <sodipodi:namedview
     id="namedview1"
     pagecolor="#ffffff"
     bordercolor="#666666"
     borderopacity="1.0"
     inkscape:showpageshadow="2"
     inkscape:pageopacity="0.0"
     inkscape:pagecheckerboard="0"
     inkscape:deskcolor="#d1d1d1"
     inkscape:document-units="mm"
     inkscape:zoom="0.36875"
     inkscape:cx="318.64407"
     inkscape:cy="320"
     inkscape:window-width="1376"
     inkscape:window-height="449"
     inkscape:window-x="0"
     inkscape:window-y="38"
     inkscape:window-maximized="0"
     inkscape:current-layer="svg1" />
  <!--!Font Awesome Free 7.1.0 by @fontawesome - https://fontawesome.com License - https://fontawesome.com/license/free Copyright 2025 Fonticons, Inc.-->
  <path
     d="m 320,32 c 7,0 13.7,3.1 18.3,8.5 l 136,160 c 6.1,7.1 7.4,17.1 3.5,25.6 -3.9,8.5 -12.4,13.9 -21.8,13.9 h -24.9 l 75.2,88.5 c 6.1,7.1 7.4,17.1 3.5,25.6 -3.9,8.5 -12.4,13.9 -21.8,13.9 h -38.5 l 88.8,104.5 c 6.1,7.1 7.4,17.1 3.5,25.6 -3.9,8.5 -12.4,13.9 -21.8,13.9 H 352 v 64 c 0,17.7 -14.3,32 -32,32 -17.7,0 -32,-14.3 -32,-32 V 512 H 120 c -9.4,0 -17.9,-5.4 -21.8,-13.9 -3.9,-8.5 -2.6,-18.5 3.5,-25.6 L 190.5,368 H 152 c -9.4,0 -17.9,-5.4 -21.8,-13.9 -3.9,-8.5 -2.6,-18.5 3.5,-25.6 L 208.9,240 H 184 c -9.4,0 -17.9,-5.4 -21.8,-13.9 -3.9,-8.5 -2.6,-18.5 3.5,-25.6 l 136,-160 C 306.3,35.1 313,32 320,32 Z"
     id="path1" />
</svg>
